<svg width="35" height="35" viewBox="0 0 35 35" fill="none" xmlns="http://www.w3.org/2000/svg">
<path d="M17.027 35C26.4308 35 34.0541 27.3074 34.0541 17.8182C34.0541 8.32892 26.4308 0.636353 17.027 0.636353C7.62326 0.636353 0 8.32892 0 17.8182C0 27.3074 7.62326 35 17.027 35Z" fill="#E0AE0E"/>
<path d="M17.9728 34.3636C27.3766 34.3636 34.9999 26.6711 34.9999 17.1818C34.9999 7.69256 27.3766 0 17.9728 0C8.56906 0 0.945801 7.69256 0.945801 17.1818C0.945801 26.6711 8.56906 34.3636 17.9728 34.3636Z" fill="#FFCC13"/>
<g opacity="0.3">
<path opacity="0.3" d="M5.23119 16.6128C5.23119 13.1688 6.53067 10.0313 8.66147 7.67151C6.01985 10.1004 4.36182 13.5997 4.36182 17.4901C4.36182 24.8245 10.2539 30.7701 17.5222 30.7701C21.3775 30.7701 24.8454 29.097 27.2524 26.4314C24.9138 28.5816 21.8046 29.8928 18.3916 29.8928C11.1233 29.8928 5.23119 23.9472 5.23119 16.6128Z" fill="white"/>
</g>
<path d="M31.5519 16.6128C31.5519 9.27843 25.6598 3.33276 18.3915 3.33276C14.5362 3.33276 11.0684 5.00587 8.66138 7.6715C10.9999 5.52134 14.1092 4.21006 17.5221 4.21006C24.7904 4.21006 30.6825 10.1557 30.6825 17.4901C30.6825 20.9341 29.383 24.0716 27.2523 26.4314C29.8939 24.0025 31.5519 20.5032 31.5519 16.6128Z" fill="#E0AE0E"/>
<path d="M17.9729 16.8636L18.9843 17.9714C19.2954 17.6874 19.4727 17.2857 19.4729 16.8645L17.9729 16.8636ZM19.4778 8.27355C19.4782 7.44512 18.807 6.77317 17.9786 6.77271C17.1502 6.77224 16.4782 7.44344 16.4778 8.27186L19.4778 8.27355ZM10.3399 21.8013C9.72815 22.3599 9.68499 23.3086 10.2436 23.9204C10.8021 24.5322 11.7509 24.5754 12.3627 24.0168L10.3399 21.8013ZM19.4729 16.8645L19.4778 8.27355L16.4778 8.27186L16.4729 16.8628L19.4729 16.8645ZM16.9616 15.7559L10.3399 21.8013L12.3627 24.0168L18.9843 17.9714L16.9616 15.7559Z" fill="#F5F8FC"/>
<path d="M17.973 20.3636C19.7144 20.3636 21.1261 18.9391 21.1261 17.1818C21.1261 15.4245 19.7144 14 17.973 14C16.2315 14 14.8198 15.4245 14.8198 17.1818C14.8198 18.9391 16.2315 20.3636 17.973 20.3636Z" fill="#F5F8FC"/>
</svg>
