<svg width="35" height="35" viewBox="0 0 35 35" fill="none" xmlns="http://www.w3.org/2000/svg">
<path d="M17.027 35C26.4308 35 34.0541 27.3074 34.0541 17.8182C34.0541 8.32891 26.4308 0.636353 17.027 0.636353C7.62326 0.636353 0 8.32891 0 17.8182C0 27.3074 7.62326 35 17.027 35Z" fill="#E0AE0E"/>
<path d="M17.9728 34.3636C27.3766 34.3636 34.9999 26.6711 34.9999 17.1818C34.9999 7.69256 27.3766 0 17.9728 0C8.56906 0 0.945801 7.69256 0.945801 17.1818C0.945801 26.6711 8.56906 34.3636 17.9728 34.3636Z" fill="#FFCC13"/>
<g opacity="0.3">
<path opacity="0.3" d="M5.23119 16.6128C5.23119 13.1688 6.53067 10.0313 8.66147 7.67151C6.01985 10.1004 4.36182 13.5997 4.36182 17.4901C4.36182 24.8245 10.2539 30.7701 17.5222 30.7701C21.3775 30.7701 24.8454 29.097 27.2524 26.4314C24.9138 28.5816 21.8046 29.8928 18.3916 29.8928C11.1233 29.8928 5.23119 23.9472 5.23119 16.6128Z" fill="white"/>
</g>
<path d="M31.5519 16.6128C31.5519 9.27844 25.6598 3.33276 18.3915 3.33276C14.5362 3.33276 11.0684 5.00587 8.66138 7.6715C10.9999 5.52134 14.1092 4.21006 17.5221 4.21006C24.7904 4.21006 30.6825 10.1557 30.6825 17.4901C30.6825 20.9341 29.383 24.0716 27.2523 26.4314C29.8939 24.0025 31.5519 20.5032 31.5519 16.6128Z" fill="#E0AE0E"/>
<path d="M13.0415 16.8637H13.2432V10.9152C13.2432 10.1587 13.851 9.54547 14.6006 9.54547H18.6339C20.2011 9.54547 21.3309 9.83935 22.2622 10.5108C23.3129 11.266 23.8875 12.4842 23.8875 14.1843C23.8875 15.5477 23.4904 16.8274 22.7173 17.6664C22.2428 18.1704 21.6876 18.6112 20.9936 18.9256C20.2996 19.24 19.5265 19.4091 18.5549 19.4091H16.7117V20.3637H22.5679C23.3176 20.3637 23.9253 20.9769 23.9253 21.7334V21.8575C23.9253 22.614 23.3176 23.2273 22.5679 23.2273H16.7117V23.4484C16.7117 24.2049 16.1039 24.8182 15.3543 24.8182H14.6006C13.851 24.8182 13.2432 24.2049 13.2432 23.4484V23.2273H13.0415C12.2918 23.2273 11.6841 22.614 11.6841 21.8575V21.7334C11.6841 20.9769 12.2918 20.3637 13.0415 20.3637H13.2432V19.7273H13.0415C12.2918 19.7273 11.6841 19.114 11.6841 18.3575V18.2334C11.6841 17.4769 12.2918 16.8637 13.0415 16.8637ZM19.5291 12.7062C18.8975 12.4091 18.3515 12.4091 17.2372 12.4091H16.7117V16.8637H16.9856C17.6788 16.8637 18.3309 16.8637 18.7725 16.7997C19.1919 16.7358 19.6558 16.5458 19.9074 16.2902C20.4123 15.8031 20.5373 15.3368 20.5373 14.4248C20.5373 13.575 20.0751 12.9601 19.5291 12.7062Z" fill="white"/>
</svg>
