<svg width="68" height="72" viewBox="0 0 68 72" fill="none" xmlns="http://www.w3.org/2000/svg">
    <path d="M34.0012 57.5796V53.1785" stroke="#FFCC13" stroke-linecap="round" stroke-linejoin="round" />
    <path d="M51.0059 47.8071L47.1777 45.6055" stroke="#FFCC13" />
    <path d="M51.0059 47.8071L47.1777 45.6055" stroke="#FFCC13" stroke-linecap="round" stroke-linejoin="round" />
    <path d="M51.0059 28.26L47.1777 30.4597" stroke="#FFCC13" />
    <path d="M51.0059 28.26L47.1777 30.4597" stroke="#FFCC13" stroke-linecap="round" stroke-linejoin="round" />
    <path d="M34.0012 18.4878V23.1419" stroke="#FFCC13" stroke-linecap="round" stroke-linejoin="round" />
    <path d="M16.9963 28.26L20.8247 30.4597" stroke="#FFCC13" />
    <path d="M16.9963 28.26L20.8247 30.4597" stroke="#FFCC13" stroke-linecap="round" stroke-linejoin="round" />
    <path d="M16.9963 47.8071L20.8247 45.6055" stroke="#FFCC13" />
    <path d="M16.9963 47.8071L20.8247 45.6055" stroke="#FFCC13" stroke-linecap="round" stroke-linejoin="round" />
    <path d="M32.3294 37.2695L32.3294 37.2695C32.6306 36.7468 32.7714 36.2369 32.7714 35.7337C32.7714 35.0853 32.5634 34.6145 32.1745 34.2653L32.3294 37.2695ZM32.3294 37.2695C32.2953 37.3287 32.2575 37.3903 32.2159 37.454C32.3054 37.2922 32.3823 37.13 32.4458 36.9674C32.5918 36.5936 32.6627 36.1961 32.6627 35.7792C32.6627 35.1637 32.4709 34.6223 32.0461 34.2143L32.0461 34.2142M32.3294 37.2695L32.0461 34.2142M32.0461 34.2142C31.9499 34.1218 31.8465 34.0414 31.7368 33.9722M32.0461 34.2142L31.7368 33.9722M31.7368 33.9722C31.9027 34.0533 32.0479 34.1517 32.1744 34.2652L31.7368 33.9722ZM28.2714 41.8364V42.3362H27.9084V42.1148L28.2714 41.7517V41.7845V41.8364ZM31.4322 37.7463L31.7991 38.0179L31.7991 38.0178L31.4322 37.7463ZM39.8476 39.6745V40.1548V40.1745V40.6548V42.3362H39.8108V40.6548V40.1745V40.1548V39.6745V36.5193C39.8108 36.0596 39.823 35.5531 39.8476 34.9994V39.6745ZM39.376 33.9223H39.3677L39.459 33.7927H39.8476V33.9223H39.376Z" fill="#BDDFFC" stroke="#FFCC13" />
    <path d="M25.6697 6.53602C11.6672 10.2902 1.13135 23.2072 1.13135 38.155C1.13135 56.2249 15.8488 70.8739 34.0012 70.8739C52.1536 70.8739 66.8687 56.2249 66.8687 38.155C66.8687 22.7489 56.1718 9.83196 41.768 6.35716L42.5577 9.32652L40.438 11.9848C52.2744 14.8602 61.0621 25.4863 61.0621 38.155C61.0621 53.0336 48.9455 65.0935 34.0012 65.0935C19.0549 65.0935 6.9403 53.0336 6.9403 38.155C6.9403 25.9123 15.1449 15.5815 26.3774 12.3044L27.0222 17.5305L34.2531 8.32443L25.0025 1.12622L25.6697 6.53602Z" stroke="#6EBDFF" stroke-linecap="round" stroke-linejoin="round" />
</svg>
