<svg width="121" height="31" viewBox="0 0 121 31" fill="none" xmlns="http://www.w3.org/2000/svg">
<g clip-path="url(#clip0)">
<path d="M28.446 13.9166C28.27 13.5256 28.0662 13.1523 27.8346 12.8058C26.5564 10.8952 24.5834 9.83765 22.2862 9.83765C21.0265 9.83765 19.7575 10.1576 18.507 10.7796C13.8941 13.099 11.4024 18.7864 12.9493 23.4697C13.1809 24.1539 13.4866 24.7849 13.8571 25.3536C15.089 27.1932 16.9601 28.2329 19.1369 28.3129C20.3318 28.2684 21.5823 27.9485 22.8049 27.3353C27.5753 24.936 30.1503 19.053 28.5479 14.2187C28.5201 14.1121 28.483 14.0143 28.446 13.9166Z" fill="#FFCD13"/>
<path d="M45.8508 29.9745V26.9442H45.3877C43.7111 26.9442 42.2383 26.6509 40.9693 26.0644C39.7003 25.4779 38.6999 24.5892 37.9867 23.4162C37.2642 22.2432 36.903 20.9279 36.903 19.4972C36.903 18.102 37.2272 16.849 37.8848 15.7293C38.5425 14.6096 39.478 13.7298 40.71 13.0988C41.9327 12.4679 43.3777 12.148 45.0264 12.148H45.8508V9.72192H49.028V12.148H49.8894C51.5474 12.148 52.9924 12.459 54.2151 13.0899C55.4378 13.7209 56.3734 14.5918 57.0125 15.7026C57.6516 16.8134 57.9758 18.0753 57.9758 19.4972C57.9758 20.9635 57.6146 22.2787 56.8921 23.4517C56.1696 24.6248 55.1785 25.4957 53.9187 26.0822C52.659 26.6687 51.1769 26.9619 49.4818 26.9619H49.028V29.9923H45.8508V29.9745ZM45.8508 14.7695H45.1654C43.6092 14.7695 42.3958 15.1961 41.5158 16.0403C40.6359 16.8934 40.1912 18.0309 40.1912 19.4616C40.1912 20.9901 40.6637 22.1898 41.6085 23.0696C42.5533 23.9494 43.8871 24.3848 45.6007 24.3848H45.8508V14.7695ZM49.028 24.3759H49.3058C50.9917 24.3759 52.307 23.9405 53.2611 23.0785C54.2151 22.2076 54.6875 21.0079 54.6875 19.4616C54.6875 18.022 54.2429 16.8845 53.363 16.0403C52.4737 15.1961 51.2603 14.7695 49.7134 14.7695H49.028V24.3759Z" fill="white"/>
<path d="M63.3854 14.7962V22.4387C63.3854 23.3274 63.3113 24.6337 63.1631 26.3577L70.9624 14.7874H74.9917V29.6991H71.8146V22.1899C71.8146 21.7722 71.8423 21.1057 71.8887 20.1815C71.9442 19.2573 71.9813 18.5819 72.0183 18.1554L64.2468 29.6991H60.2175V14.7962H63.3854Z" fill="white"/>
<path d="M81.0774 14.7961V20.7857H88.3949V14.7961H91.7017V29.7079H88.3949V23.274H81.0774V29.7079H77.7706V14.7961H81.0774Z" fill="white"/>
<path d="M98.408 20.7501C99.9179 20.7501 101.029 20.5902 101.743 20.2702C102.456 19.9503 102.808 19.4616 102.808 18.7951C102.808 17.5776 101.687 16.9733 99.4362 16.9733C97.9356 16.9733 96.4073 17.2932 94.8418 17.9419L93.7766 15.5781C95.5829 14.8672 97.5836 14.5117 99.7604 14.5117C101.687 14.5117 103.188 14.8494 104.253 15.5337C105.318 16.2091 105.855 17.1866 105.855 18.4485C105.855 20.1192 104.855 21.2211 102.863 21.7365V21.8432C104.114 22.1631 105.003 22.6341 105.54 23.2295C106.078 23.8338 106.346 24.5802 106.346 25.4689C106.346 26.8374 105.716 27.9216 104.466 28.7392C103.215 29.5567 101.474 29.9566 99.2324 29.9566C96.787 29.9566 94.9159 29.6456 93.6284 29.0235V26.3042C95.342 27.0774 97.1205 27.4595 98.9545 27.4595C100.279 27.4595 101.298 27.2818 102.011 26.9263C102.724 26.5708 103.086 26.0287 103.086 25.3C103.086 24.5536 102.724 24.0026 102.002 23.656C101.279 23.3094 100.168 23.1317 98.6581 23.1317H96.7592V20.7412H98.408V20.7501Z" fill="white"/>
<path d="M118.638 29.7079L117.98 27.6284H117.869C117.119 28.5348 116.369 29.1569 115.609 29.4857C114.85 29.8145 113.877 29.9745 112.682 29.9745C111.154 29.9745 109.959 29.5746 109.107 28.7837C108.245 27.9928 107.819 26.873 107.819 25.4245C107.819 23.8871 108.412 22.7319 109.607 21.9499C110.792 21.1678 112.608 20.7413 115.044 20.6702L117.73 20.5902V19.7904C117.73 18.8395 117.499 18.1286 117.036 17.6576C116.572 17.1866 115.85 16.9467 114.877 16.9467C114.081 16.9467 113.321 17.0622 112.589 17.2844C111.858 17.5066 111.154 17.7732 110.478 18.0842L109.412 15.8181C110.255 15.3915 111.181 15.0716 112.182 14.8583C113.182 14.6362 114.127 14.5295 115.016 14.5295C116.989 14.5295 118.49 14.9472 119.49 15.7737C120.5 16.6001 121 17.8976 121 19.666V29.7079H118.638ZM113.719 27.5484C114.914 27.5484 115.878 27.2285 116.609 26.5887C117.332 25.9488 117.702 25.0424 117.702 23.8871V22.5897L115.711 22.6697C114.155 22.723 113.025 22.9718 112.321 23.4161C111.617 23.8605 111.256 24.5447 111.256 25.4601C111.256 26.1266 111.459 26.642 111.876 27.0063C112.275 27.3618 112.895 27.5484 113.719 27.5484Z" fill="white"/>
<path d="M15.052 13.1521C15.052 13.1521 14.839 13.4009 14.7093 13.5609C14.8204 13.4187 14.9316 13.2854 15.052 13.1521Z" fill="#FFDC5A"/>
<path d="M29.4928 17.7021C29.4742 19.0085 29.2149 20.3237 28.7239 21.5678L29.7706 22.2077C30.2801 21.008 30.6136 19.7461 30.734 18.4664L29.4928 17.7021Z" fill="#FFDC5A"/>
<path d="M18.0996 10.6906L16.4786 9.69531C15.3856 10.3974 14.4222 11.2682 13.5978 12.2635L15.0521 13.1611C15.9135 12.1658 16.9324 11.3216 18.0996 10.6906Z" fill="#FFDC5A"/>
<path d="M17.8495 11.1616C16.7287 11.837 15.7561 12.7079 14.9502 13.7121L18.1922 15.7116C18.2478 15.5783 18.3126 15.4538 18.4052 15.3383C18.4979 15.2139 18.609 15.1073 18.7294 15.0184C18.8591 14.9295 18.9888 14.8584 19.137 14.814L22.1752 13.8365L17.8495 11.1616Z" fill="#FFDC5A"/>
<path d="M24.3056 15.134L20.1837 16.467V16.938L21.8232 17.9511L23.3145 17.4712C23.5924 17.3823 23.8517 17.4001 24.0462 17.5245C24.2408 17.6489 24.3519 17.8622 24.3519 18.1288C24.3519 18.3954 24.25 18.6709 24.0462 18.9286C23.9721 19.0175 23.898 19.0975 23.8147 19.1686L28.0478 21.7723C28.585 20.5815 28.9092 19.3107 29.0111 18.0311L24.3056 15.134Z" fill="#FFDC5A"/>
<path d="M25.4264 13.081C25.2319 12.9566 24.9725 12.9388 24.6947 13.0277L19.1462 14.8139C18.998 14.8583 18.8683 14.9294 18.7387 15.0183C18.6182 15.1072 18.5071 15.2138 18.4145 15.3382C18.3218 15.4626 18.2477 15.5959 18.1922 15.7292C18.1366 15.8625 18.1181 16.0047 18.1181 16.138V19.1417L17.4882 19.3461C16.9139 19.5327 16.4507 20.1281 16.4507 20.6702C16.4507 21.2212 16.9139 21.5144 17.4882 21.3278L18.1181 21.1234V24.1271C18.1181 24.3937 18.2199 24.607 18.4237 24.7314C18.6182 24.8558 18.8776 24.8736 19.1555 24.7847C19.4334 24.6958 19.6927 24.5092 19.8873 24.2604C20.0818 24.0027 20.1929 23.7272 20.1929 23.4606V20.4569L23.3145 19.4438C23.5924 19.355 23.8517 19.1684 24.0463 18.9195C24.2408 18.6618 24.3519 18.3863 24.3519 18.1197C24.3519 17.8531 24.25 17.6399 24.0463 17.5154C23.8517 17.391 23.5924 17.3733 23.3145 17.4621L20.1929 18.4752V16.4668L24.7039 15.0094C24.9818 14.9206 25.2412 14.7339 25.4357 14.4851C25.6302 14.2274 25.7414 13.9519 25.7414 13.6853C25.7321 13.4098 25.6209 13.2054 25.4264 13.081Z" fill="white"/>
<path d="M7.47505 0.604236L7.26201 1.08411C6.79886 2.36378 7.28053 3.78564 8.44764 4.54989L12.4955 7.10923C12.6159 7.18032 12.6437 7.34028 12.5696 7.4558C12.4955 7.57133 12.3288 7.59799 12.2083 7.5269L8.41986 5.11863L8.13271 5.8029C8.06787 5.98951 8.02156 6.17613 7.99377 6.36275L9.38319 7.24252C10.5503 7.98011 11.1339 9.13537 11.0042 10.3351C11.032 10.3084 11.0598 10.2729 11.0875 10.2373C11.1339 10.184 11.1802 10.1396 11.2265 10.0862C11.2357 10.0773 11.245 10.0685 11.245 10.0596C11.4858 9.81075 11.7359 9.57081 11.986 9.33976C12.0231 9.3131 12.0509 9.27756 12.0879 9.24201C12.9308 8.49553 13.8664 7.83793 14.876 7.29584C15.4689 6.98481 16.0802 6.74487 16.7101 6.56714C16.4692 6.16725 16.1173 5.8029 15.6541 5.50964L7.74367 0.524257C7.67883 0.48871 7.62325 0.497597 7.5862 0.506484C7.55842 0.51537 7.50284 0.533143 7.47505 0.604236Z" fill="white"/>
<path d="M3.51062 14.965C3.51062 14.965 7.59552 17.5866 7.58626 17.6221C7.81783 15.5249 8.60517 13.5876 9.84638 11.8014C9.83712 11.8103 10.2447 11.2504 10.3095 11.0816C10.8097 9.79301 10.3558 8.44225 9.09609 7.65134L1.1764 2.65707C1.11156 2.62152 1.05598 2.63041 1.01893 2.6393C0.991141 2.64818 0.935564 2.67484 0.898513 2.73705L0.685468 3.21693C0.583577 3.5013 0.537263 3.78567 0.518738 4.07004C0.546526 5.08311 1.01893 6.12284 1.87111 6.6827L5.94674 9.25982C6.06716 9.33091 6.09495 9.49087 6.02084 9.60639C5.94674 9.72192 5.78001 9.74858 5.65959 9.67749L1.85258 7.25144L1.56543 7.93571C1.11156 9.17095 1.56543 10.5839 2.68623 11.3571C2.72329 11.3837 3.54767 11.8991 4.14976 12.2813C4.57585 12.5479 4.92783 12.77 4.94636 12.7789C5.06677 12.8589 5.09456 13.01 5.0112 13.1255C4.96488 13.1966 4.88152 13.2321 4.79815 13.2321C4.75184 13.2321 4.69626 13.2144 4.64995 13.1877C4.63142 13.1788 4.27944 12.9566 3.86261 12.6989C3.40873 12.4146 3.0938 12.2102 2.87149 12.0769L2.6955 12.5123C2.34351 13.4099 2.67697 14.4229 3.51062 14.965Z" fill="white"/>
<path d="M29.0296 14.6007C28.7981 13.8898 28.4739 13.2411 28.0848 12.6545C26.7232 10.6284 24.6206 9.56201 22.2956 9.56201C21.0266 9.56201 19.6927 9.88193 18.3774 10.5395C13.6441 12.9211 11.0876 18.7596 12.6808 23.5673C12.9124 24.2782 13.2366 24.9269 13.6256 25.5135C14.2555 26.4554 15.0521 27.1841 15.9506 27.6996C16.988 28.295 18.1736 28.606 19.4241 28.606C20.6931 28.606 22.027 28.2861 23.3423 27.6285C28.0663 25.2469 30.6228 19.3995 29.0296 14.6007ZM22.8143 27.3352C21.5916 27.9484 20.3411 28.2683 19.1462 28.3127C16.9695 28.2328 15.0984 27.193 13.8664 25.3535C13.4867 24.7936 13.181 24.1538 12.9587 23.4695C11.4118 18.7952 13.9035 13.0989 18.5164 10.7795C19.7668 10.1485 21.0358 9.8375 22.2956 9.8375C24.5928 9.8375 26.5565 10.8861 27.844 12.8056C28.0756 13.1522 28.2794 13.5254 28.4554 13.9164C28.4924 14.0142 28.5295 14.1208 28.5665 14.2186C30.1597 19.0529 27.5846 24.9358 22.8143 27.3352Z" fill="#DDAD26"/>
<path d="M21.8416 7.45585L20.7394 6.77158C20.5356 6.74492 20.3225 6.72715 20.1095 6.71826L21.3414 7.48251C21.5082 7.47362 21.6749 7.46474 21.8416 7.45585Z" fill="#DDAD26"/>
<path d="M19.1648 7.90018L17.5438 6.896C17.4048 6.92266 17.2752 6.94932 17.1362 6.98486L18.8035 8.01571C18.9239 7.98016 19.0444 7.93573 19.1648 7.90018Z" fill="#DDAD26"/>
<path d="M16.6174 9.0199L14.839 7.91797C14.7464 7.97129 14.6537 8.02461 14.5611 8.07793L16.3488 9.17986C16.4322 9.12654 16.5248 9.07322 16.6174 9.0199Z" fill="#DDAD26"/>
<path d="M14.4685 10.6105L12.6345 9.46411C12.5604 9.52632 12.477 9.58852 12.4029 9.65962L14.2554 10.8149C14.3295 10.7438 14.3944 10.6727 14.4685 10.6105Z" fill="#DDAD26"/>
<path d="M12.69 12.6102L10.7633 11.4194C10.7078 11.4905 10.6522 11.5705 10.5873 11.6505L12.5233 12.8502C12.5788 12.7613 12.6344 12.6902 12.69 12.6102Z" fill="#DDAD26"/>
<path d="M9.17939 13.9432C9.1516 13.9965 9.13307 14.0587 9.10529 14.1121L11.1338 15.3651C11.1709 15.2762 11.208 15.1873 11.245 15.0985L9.2257 13.8455C9.21644 13.881 9.19791 13.9166 9.17939 13.9432Z" fill="#DDAD26"/>
<path d="M10.2816 18.2529L8.20678 16.9644C8.18825 17.0621 8.16972 17.1687 8.16046 17.2665L10.2353 18.555C10.2446 18.4573 10.2631 18.3595 10.2816 18.2529Z" fill="#DDAD26"/>
<path d="M10.1798 21.8077C10.1705 21.7011 10.152 21.5856 10.1427 21.4789L8.09564 20.217C8.11417 20.3415 8.12343 20.4659 8.15122 20.5814L10.1613 21.8255L10.1798 21.8077Z" fill="#DDAD26"/>
<path d="M8.92004 23.1409C8.99415 23.3008 9.05899 23.4608 9.14235 23.6119L10.9764 24.7493C10.9115 24.6072 10.8652 24.4561 10.8004 24.305L8.92004 23.1409Z" fill="#DDAD26"/>
<path d="M30.2617 13.9522C29.6503 12.1126 28.548 10.5753 27.0752 9.51775C26.7788 9.30447 26.4639 9.11786 26.1397 8.94012L25.5191 8.63798C24.4631 8.18476 23.3145 7.94482 22.1104 7.94482C20.5728 7.94482 19.0351 8.32695 17.5531 9.07342C12.227 11.7483 9.34624 18.3333 11.1432 23.7541C11.7546 25.5936 12.8568 27.131 14.3296 28.1885C14.626 28.4018 14.9502 28.5973 15.2744 28.7661C15.4597 28.855 15.6357 28.935 15.8302 29.015L16.3211 29.2282C17.2567 29.5748 18.2571 29.7525 19.2945 29.7525C20.8321 29.7525 22.3697 29.3704 23.8518 28.6239C29.1779 25.9491 32.0586 19.3641 30.2617 13.9522ZM23.3331 27.6198C22.027 28.2774 20.6932 28.5973 19.4149 28.5973C18.1737 28.5973 16.9881 28.2863 15.9414 27.6909C15.0429 27.1754 14.2463 26.4378 13.6164 25.5047C13.2274 24.9182 12.9032 24.2606 12.6716 23.5586C11.0784 18.7598 13.6349 12.9124 18.3682 10.5308C19.6743 9.87322 21.0081 9.5533 22.2864 9.5533C24.6113 9.5533 26.7233 10.6197 28.0756 12.6458C28.4647 13.2324 28.7889 13.89 29.0204 14.592C30.6229 19.3997 28.0664 25.247 23.3331 27.6198Z" fill="#FFCD13"/>
<path d="M12.6067 27.2997C11.773 26.3666 11.0968 25.2292 10.6522 23.9051C8.78112 18.2621 11.7637 11.4283 17.3122 8.63787C18.822 7.8825 20.3596 7.50038 21.8417 7.45595C22.7865 7.48261 23.6479 7.65145 24.2222 7.79364C24.2685 7.80252 24.9632 8.00692 24.9632 8.00692C23.898 7.47372 22.8698 7.17158 22.101 6.99384C22.0547 6.98496 21.4526 6.86055 20.832 6.78057C20.3874 6.71836 19.9243 6.70947 19.4519 6.70947C17.8957 6.70947 16.4044 7.06494 15.1539 7.73143C12.5511 9.12663 10.4299 11.3305 9.18868 13.9432C7.91042 16.618 7.67885 19.524 8.53102 22.1277C9.21647 24.2605 10.4762 25.8868 12.6067 27.2997Z" fill="#FFCD13"/>
<path d="M30.7518 13.8002C30.0015 11.5341 28.5843 9.81013 26.7873 8.73485C25.7869 8.1039 25.7035 8.03281 24.5272 7.39297C23.2489 6.69982 21.6464 6.21994 19.4419 6.21994C18.7101 6.21994 17.9691 6.29992 17.2373 6.45988C16.9595 5.94445 16.5334 5.48235 15.9591 5.118L8.03012 0.10595C7.85412 -0.000689066 7.64108 -0.0362355 7.44656 0.0259708C7.25204 0.0792905 7.08531 0.221476 7.00195 0.408095L6.7889 0.887972L6.77964 0.905745C6.25166 2.3276 6.75185 3.91831 7.9838 4.83363L7.65034 5.63342C7.59476 5.77561 7.55771 5.92668 7.52992 6.06887L1.45353 2.23874C1.27753 2.1321 1.06449 2.09655 0.869968 2.15876C0.67545 2.21208 0.508719 2.35426 0.425354 2.54088L0.212309 3.02076L0.203047 3.03853C-0.324933 4.46039 0.175258 6.05109 1.40721 6.96642L1.07375 7.76621C0.536508 9.21473 1.07375 10.8588 2.37054 11.7652C2.37054 11.7652 2.38907 11.7741 2.42612 11.8007L2.21307 12.3428C1.76846 13.4625 2.17602 14.7155 3.21346 15.382L7.52992 18.1902C7.4373 19.5499 7.5855 20.9362 8.03012 22.2869C9.08608 25.5306 11.3833 27.5478 15.0143 29.2274C15.357 29.3873 15.8387 29.5917 16.2925 29.7606C17.2373 30.0894 18.247 30.2582 19.2844 30.2582C20.8498 30.2582 22.4894 29.8761 24.0826 29.0763C29.6402 26.277 32.6229 19.4432 30.7518 13.8002ZM7.2613 1.07459L7.47435 0.594714C7.50214 0.532508 7.55771 0.514735 7.59476 0.505848C7.62255 0.496961 7.68739 0.488075 7.75223 0.523621L15.6812 5.52678C16.1443 5.82004 16.4963 6.17551 16.7372 6.58429C16.1073 6.76202 15.4959 6.99308 14.9031 7.31299C13.8935 7.85508 12.9579 8.51269 12.115 9.25916C12.078 9.29471 12.0409 9.33025 12.0131 9.35691C11.7538 9.58797 11.5037 9.8279 11.2721 10.0767C11.2628 10.0856 11.2536 10.0945 11.2536 10.1034C11.2073 10.1478 11.1609 10.2011 11.1146 10.2545C11.0868 10.2811 11.0591 10.3167 11.0313 10.3522C11.1609 9.15252 10.5774 7.99726 9.41027 7.25967L8.02085 6.3799C8.04864 6.19328 8.09496 6.00666 8.1598 5.82004L8.44694 5.13577L12.2354 7.54404C12.3558 7.61514 12.5133 7.58848 12.5967 7.47295C12.68 7.35743 12.643 7.20635 12.5226 7.12637L8.44694 4.54037C7.27983 3.77612 6.79816 2.35426 7.2613 1.07459ZM3.50987 14.9644C2.67622 14.4223 2.34275 13.4092 2.704 12.5028L2.88 12.0673C3.1023 12.2095 3.41724 12.405 3.87112 12.6894C4.28794 12.956 4.63993 13.1693 4.65846 13.1782C4.70477 13.2048 4.75108 13.2226 4.80666 13.2226C4.89003 13.2226 4.97339 13.187 5.0197 13.116C5.10307 13.0004 5.06602 12.8494 4.95486 12.7694C4.9456 12.7605 4.59362 12.5383 4.15826 12.2717C3.55618 11.8896 2.72253 11.3742 2.69474 11.3475C1.57394 10.5744 1.12006 9.16141 1.57394 7.92617L1.86109 7.2419L5.67736 9.65017C5.79778 9.72126 5.95525 9.69461 6.03861 9.57908C6.11272 9.46355 6.08493 9.31248 5.96451 9.2325L1.88888 6.65538C0.712501 5.90891 0.221572 4.48705 0.693975 3.20738L0.90702 2.7275C0.934808 2.66529 0.990385 2.63864 1.02744 2.62975C1.05522 2.62086 1.12006 2.61198 1.1849 2.64752L9.11386 7.65068C10.3643 8.44159 10.8275 9.79236 10.3273 11.0809C10.2625 11.2498 9.85489 11.8096 9.86415 11.8007C8.62294 13.5869 7.8356 15.5242 7.60403 17.6215C7.5855 17.5859 3.50987 14.9644 3.50987 14.9644ZM8.53031 22.127C7.68739 19.5232 7.91896 16.6173 9.18797 13.9424C10.4292 11.3297 12.5411 9.12586 15.1532 7.73066C16.4037 7.06417 17.895 6.7087 19.4512 6.7087C19.9328 6.7087 20.396 6.71759 20.8313 6.7798C21.4519 6.86866 22.054 6.98419 22.1003 6.99307C22.8784 7.17081 23.9066 7.47295 24.9625 8.00615C24.9625 8.00615 24.2678 7.80176 24.2215 7.79287C23.6472 7.65068 22.7858 7.48184 21.841 7.45518C20.3589 7.49961 18.812 7.87285 17.3114 8.6371C11.763 11.4275 8.7804 18.2613 10.6515 23.9043C11.0868 25.2284 11.763 26.3659 12.6059 27.299C10.4755 25.886 9.21576 24.2598 8.53031 22.127ZM23.851 28.632C22.3597 29.3785 20.8313 29.7606 19.2937 29.7606C18.2563 29.7606 17.2559 29.574 16.3203 29.2363L15.8294 29.023C15.6349 28.943 15.4589 28.8541 15.2736 28.7742C14.9494 28.6053 14.6345 28.4098 14.3288 28.1965C12.856 27.139 11.7538 25.6016 11.1424 23.7621C9.34544 18.3502 12.2262 11.7652 17.5523 9.08143C19.0436 8.33495 20.572 7.95283 22.1096 7.95283C23.3045 7.95283 24.4623 8.19277 25.5183 8.64599L26.1389 8.94813C26.4631 9.11697 26.778 9.31248 27.0744 9.52576C28.5472 10.5833 29.6495 12.1207 30.2608 13.9602C32.0578 19.3632 29.1771 25.9482 23.851 28.632Z" fill="#1D2D5D"/>
</g>
<defs>
<clipPath id="clip0">
<rect width="121" height="30.25" fill="white"/>
</clipPath>
</defs>
</svg>
