<svg id="Слой_1" data-name="Слой 1" xmlns="http://www.w3.org/2000/svg" xmlns:xlink="http://www.w3.org/1999/xlink" viewBox="0 0 53.79132 14.01759">
  <defs>
    <style>
      .cls-1 {
        fill: none;
      }

      .cls-2 {
        fill: #fff;
      }

      .cls-3 {
        fill: #1d2d5d;
      }

      .cls-4 {
        fill: #ffcd13;
      }

      .cls-5 {
        fill: #ddad26;
      }

      .cls-6 {
        clip-path: url(#clip-path);
      }

      .cls-7 {
        opacity: 0.3;
      }

      .cls-8 {
        clip-path: url(#clip-path-2);
      }

      .cls-9 {
        fill: #ddac27;
      }
    </style>
    <clipPath id="clip-path">
      <path class="cls-1" d="M12.48532,5.86239a3.15429,3.15429,0,0,0-4.3151-.9804,5.28382,5.28382,0,0,0-2.5344,6.0348,3.7912,3.7912,0,0,0,.4203.9029,3.15417,3.15417,0,0,0,4.315.9804,5.28382,5.28382,0,0,0,2.5344-6.0348A3.79485,3.79485,0,0,0,12.48532,5.86239Z"/>
    </clipPath>
    <clipPath id="clip-path-2">
      <path class="cls-1" d="M13.67072,6.39539A4.05326,4.05326,0,0,0,7.697,4.00289a6.18275,6.18275,0,0,0-2.9615,7.0739,4.05328,4.05328,0,0,0,5.9737,2.3924A6.18267,6.18267,0,0,0,13.67072,6.39539Zm-3.2996,6.4047a3.15417,3.15417,0,0,1-4.315-.9804,3.7912,3.7912,0,0,1-.4203-.9029A5.28382,5.28382,0,0,1,8.17022,4.882a3.15429,3.15429,0,0,1,4.3151.9804,3.79485,3.79485,0,0,1,.4202.9029A5.28382,5.28382,0,0,1,10.37112,12.80009Z"/>
    </clipPath>
  </defs>
  <title>Монтажная область 4</title>
  <g>
    <g>
      <path class="cls-2" d="M20.38482,13.88969V12.484h-.2061a4.46411,4.46411,0,0,1-1.9648-.4092,3.0472,3.0472,0,0,1-1.3275-1.2277,3.51894,3.51894,0,0,1-.4812-1.818,3.49933,3.49933,0,0,1,.4374-1.7462,3.07873,3.07873,0,0,1,1.2557-1.2183,3.98821,3.98821,0,0,1,1.918-.4404h.3685V4.49969h1.412v1.1245h.3811a4.00756,4.00756,0,0,1,1.9212.4373,3.01476,3.01476,0,0,1,1.2432,1.2089,3.5652,3.5652,0,0,1,.428,1.7587,3.52408,3.52408,0,0,1-.481,1.8305,3.04825,3.04825,0,0,1-1.3215,1.2183,4.482,4.482,0,0,1-1.971.4061h-.2v1.4057Zm0-7.0472h-.306a2.18848,2.18848,0,0,0-1.6244.5904,2.14619,2.14619,0,0,0-.5872,1.5837,2.21356,2.21356,0,0,0,.631,1.6712,2.44982,2.44982,0,0,0,1.7742.6091h.1124Zm1.412,4.4544h.125a2.44893,2.44893,0,0,0,1.7587-.6029,2.20381,2.20381,0,0,0,.6341-1.6774,2.13825,2.13825,0,0,0-.5904-1.5869,2.198,2.198,0,0,0-1.6213-.5872h-.3061Z"/>
      <path class="cls-2" d="M28.17832,6.855v3.5423q0,.61845-.0999,1.818l3.4674-5.3603h1.7931v6.9097h-1.412v-3.4798q0-.2874.0344-.9309.03435-.64335.0593-.9371l-3.4548,5.3478h-1.7931V6.855Z"/>
      <path class="cls-2" d="M36.04272,6.855v2.7738h3.2549V6.855h1.4681v6.9097h-1.4681v-2.9801h-3.2549v2.9801h-1.4682V6.855Z"/>
      <path class="cls-2" d="M43.74952,9.61639a3.698,3.698,0,0,0,1.4807-.2218.72238.72238,0,0,0,.4749-.6841q0-.84345-1.4995-.8434a5.137,5.137,0,0,0-2.0429.4498l-.4748-1.0933a6.96214,6.96214,0,0,1,2.6615-.4936,3.60212,3.60212,0,0,1,1.9991.4717,1.57711,1.57711,0,0,1-.6185,2.8769v.0501a2.33826,2.33826,0,0,1,1.1902.6434,1.53752,1.53752,0,0,1,.3592,1.0371,1.74638,1.74638,0,0,1-.834,1.515,4.11077,4.11077,0,0,1-2.3272.5655,5.724,5.724,0,0,1-2.4927-.4311v-1.2683a5.50383,5.50383,0,0,0,2.3677.5373,3.01858,3.01858,0,0,0,1.3589-.2468.83816.83816,0,0,0-.0032-1.515,3.44476,3.44476,0,0,0-1.4868-.2436h-.8435V9.61639Z"/>
      <path class="cls-2" d="M52.74182,13.76469l-.2937-.9621h-.0499a2.83142,2.83142,0,0,1-1.0059.859,3.18152,3.18152,0,0,1-1.2994.2281,2.19927,2.19927,0,0,1-1.5901-.5498,2.05726,2.05726,0,0,1-.5717-1.5556,1.82636,1.82636,0,0,1,.7935-1.6119,4.575,4.575,0,0,1,2.4178-.5935l1.1933-.0375v-.3686a1.39706,1.39706,0,0,0-.3093-.9902,1.26121,1.26121,0,0,0-.9591-.3281,3.31857,3.31857,0,0,0-1.0182.1562,7.69951,7.69951,0,0,0-.9372.3687l-.4748-1.0496a5.11437,5.11437,0,0,1,1.2307-.4467,5.66746,5.66746,0,0,1,1.262-.1531,2.9895,2.9895,0,0,1,1.9899.5748,2.25056,2.25056,0,0,1,.6716,1.8055v4.6544Zm-2.1867-.9996a1.81892,1.81892,0,0,0,1.2839-.4467,1.6197,1.6197,0,0,0,.4841-1.2526v-.5997l-.8871.0374a3.03591,3.03591,0,0,0-1.5087.3467,1.05325,1.05325,0,0,0-.4718.9465.92318.92318,0,0,0,.275.7154A1.18051,1.18051,0,0,0,50.55512,12.76509Z"/>
    </g>
    <g>
      <g>
        <path class="cls-2" d="M7.50752,4.11939l-.3425.7265-3.58,3.4613-2.0258-1.3735a.95746.95746,0,0,1-.3586-1.1387l.0774-.2024.4412.2895c.1853.1215.3399.2229.3483.2285a.11462.11462,0,0,0,.1296-.1891l-.3521-.2311c-.2688-.1762-.6369-.4177-.6525-.4282A1.39445,1.39445,0,0,1,.694,3.67739l.1287-.3177,1.6978,1.1174a.11458.11458,0,0,0,.126-.1914L.83332,3.09229a1.39031,1.39031,0,0,1-.5261-1.6059l.0947-.2205a.08185.08185,0,0,1,.12-.0361L4.046,3.54669a1.30527,1.30527,0,0,1,.5377,1.589,1.86342,1.86342,0,0,1-.217.3424l.0842.4526L4.79532,5.2l.0035-.0082a1.506,1.506,0,0,0-.6268-1.8366l-.6185-.4066a1.32108,1.32108,0,0,1,.0619-.2583l.1286-.3174,1.6844,1.1143a.11463.11463,0,0,0,.1265-.1912l-1.8003-1.1909a1.39021,1.39021,0,0,1-.5259-1.6058l.0947-.2205a.08166.08166,0,0,1,.1199-.036l3.5242,2.3168A1.269,1.269,0,0,1,7.50752,4.11939Z"/>
        <path class="cls-3" d="M7.09342,2.36809,3.56932.05129a.31075.31075,0,0,0-.4565.137l-.0962.2241-.0028.0069a1.61935,1.61935,0,0,0,.5373,1.8195l-.15.3702a1.52693,1.52693,0,0,0-.0547.2035L.64782,1.03829a.31092.31092,0,0,0-.4565.1371l-.0962.2241-.0027.0069a1.61945,1.61945,0,0,0,.5372,1.8195l-.1499.3702a1.62605,1.62605,0,0,0,.5785,1.8518l.0236.0158-.0953.2494a1.18591,1.18591,0,0,0,.4441,1.4103L3.45942,8.499a.1148.1148,0,0,0,.1592-.0305.11215.11215,0,0,0,.0176-.0543l3.7361-3.4705.3445-.7308.0035-.0082A1.50607,1.50607,0,0,0,7.09342,2.36809Zm.4141,1.7513-.3425.7265-3.58,3.4613-2.0258-1.3735a.95746.95746,0,0,1-.3586-1.1387l.0774-.2024.4412.2895c.1853.1215.3399.2229.3483.2285a.11462.11462,0,0,0,.1296-.1891l-.3521-.2311c-.2688-.1762-.6369-.4177-.6525-.4282A1.39445,1.39445,0,0,1,.694,3.67739l.1287-.3177,1.6978,1.1174a.11458.11458,0,0,0,.126-.1914L.83332,3.09229a1.39031,1.39031,0,0,1-.5261-1.6059l.0947-.2205a.08185.08185,0,0,1,.12-.0361L4.046,3.54669a1.30527,1.30527,0,0,1,.5377,1.589,1.86342,1.86342,0,0,1-.217.3424l.0842.4526L4.79532,5.2l.0035-.0082a1.506,1.506,0,0,0-.6268-1.8366l-.6185-.4066a1.32108,1.32108,0,0,1,.0619-.2583l.1286-.3174,1.6844,1.1143a.11463.11463,0,0,0,.1265-.1912l-1.8003-1.1909a1.39021,1.39021,0,0,1-.5259-1.6058l.0947-.2205a.08166.08166,0,0,1,.1199-.036l3.5242,2.3168A1.269,1.269,0,0,1,7.50752,4.11939Z"/>
      </g>
      <path class="cls-4" d="M9.96592,12.97429a6.18273,6.18273,0,0,0,2.9615-7.0739,3.459,3.459,0,0,0-1.0282-1.8357c-.0879-.0734-2.5648-1.6917-4.5531-.9324-2.7171,1.0375-4.502,4.5977-3.6702,7.2118a6.238,6.238,0,0,0,2.9772,3.1754C7.63732,14.07349,8.77012,13.60079,9.96592,12.97429Z"/>
      <rect class="cls-5" x="7.97121" y="2.80046" width="0.13092" height="1.25345" transform="translate(0.79867 8.32056) rotate(-57.15684)"/>
      <rect class="cls-5" x="9.23153" y="2.73345" width="0.13098" height="1.06877" transform="translate(1.50895 9.306) rotate(-57.153)"/>
      <rect class="cls-5" x="6.84787" y="3.35692" width="0.13095" height="1.18934" transform="translate(-0.15599 7.61681) rotate(-57.15709)"/>
      <rect class="cls-5" x="5.89023" y="4.10698" width="0.13092" height="1.15372" transform="translate(-1.21321 7.13647) rotate(-57.07008)"/>
      <rect class="cls-5" x="5.09997" y="5.02501" width="0.13095" height="1.17805" transform="translate(-2.35264 6.90931) rotate(-57.15841)"/>
      <rect class="cls-5" x="4.44322" y="6.13887" width="0.13095" height="1.24243" transform="translate(-3.6161 6.88216) rotate(-57.15921)"/>
      <rect class="cls-5" x="3.99588" y="7.4934" width="0.13098" height="1.42767" transform="translate(-5.0363 7.16515) rotate(-57.13697)"/>
      <rect class="cls-5" x="3.94788" y="9.06044" width="0.13098" height="1.29309" transform="matrix(0.54258, -0.84001, 0.84001, 0.54258, -6.31813, 7.81147)"/>
      <rect class="cls-5" x="4.29063" y="10.36337" width="0.13098" height="1.38003" transform="translate(-7.29066 8.70696) rotate(-57.10001)"/>
      <path class="cls-3" d="M12.34782,5.72149c-.2475-.7778-2.6884-.9822-.4359-1.6741-.4458-.2906-.4814-.3257-1.0031-.6201a4.44838,4.44838,0,0,0-2.2649-.5467h-.0001a4.1431,4.1431,0,0,0-2.0231.5037,6.44364,6.44364,0,0,0-1.2403.9022l-.0472.0447c-.1143.1079-.225.2193-.3309.3348l-.0094.0106c-.0206.0226-.0403.0459-.0606.0687l-.0805.0926.0005-.0019a5.83858,5.83858,0,0,0-1.2803,5.4874c.5205,1.6702,1.7318,2.6349,3.6729,3.4661-.1405-.9784,1.3609-.5852,2.1414-.9942A6.18267,6.18267,0,0,0,12.34782,5.72149Zm-3.0679,6.8708a2.86087,2.86087,0,0,1-.9384.2072,1.69186,1.69186,0,0,0-1.1916.4195.66593.66593,0,0,0-.1142.2277c-1.8577-.8456-2.8066-1.7849-3.2449-3.1914a5.33432,5.33432,0,0,1,.2913-3.7941,6.30446,6.30446,0,0,1,2.6502-2.8767,3.9317,3.9317,0,0,1,1.9115-.4747h.0001a5.43934,5.43934,0,0,1,.6149.0339c.0443.0047.1241.0145.2312.0326.0307.0051.061.0107.0913.0164.0538.0101.1126.0221.1758.0362.022.005.0443.0098.0661.0151a5.553,5.553,0,0,1,1.274.4686s-.1243-.0464-.3283-.0999l.0272.0141c.3104.1753.4431.2553.5992.3562-.4445.1757-.6364.3459-.6577.564-.0309.3154.2989.4926.6807.6979.2888.1552.6482.3483.7111.5461A5.95256,5.95256,0,0,1,9.27992,12.59229Z"/>
      <path class="cls-4" d="M8.57612,13.903a3.876,3.876,0,0,1-3.7314-2.861,6.07158,6.07158,0,0,1,2.9055-6.9376,4.45544,4.45544,0,0,1,2.0799-.5353,3.87589,3.87589,0,0,1,3.7314,2.861,6.07135,6.07135,0,0,1-2.9054,6.9376,4.45565,4.45565,0,0,1-2.0798.5353Z"/>
      <path class="cls-2" d="M11.30282,6.06a.36279.36279,0,0,0-.3255-.0252l-2.4659.8297a.63356.63356,0,0,0-.1809.0962.74278.74278,0,0,0-.146.1471.70375.70375,0,0,0-.0987.182.55947.55947,0,0,0-.0347.1898v1.3898l-.2796.0941a.70276.70276,0,0,0-.4602.6151.31931.31931,0,0,0,.4602.3054l.2796-.0941v1.3898a.31737.31737,0,0,0,.1347.2803.36263.36263,0,0,0,.3256.0251.68293.68293,0,0,0,.3256-.2442.62358.62358,0,0,0,.1347-.3709V9.48019l1.3897-.4676a.68268.68268,0,0,0,.3256-.2443.62335.62335,0,0,0,.1347-.3709.31784.31784,0,0,0-.1347-.2803.36367.36367,0,0,0-.3256-.0251l-1.3897.4677v-.9295l2.0056-.6749a.68238.68238,0,0,0,.3255-.2442.62315.62315,0,0,0,.1347-.3709A.31731.31731,0,0,0,11.30282,6.06Z"/>
      <g class="cls-6">
        <g class="cls-7">
          <rect class="cls-2" x="9.28664" y="2.18605" width="1.6909" height="10.80177" transform="translate(-1.72574 12.01557) rotate(-57.3055)"/>
        </g>
      </g>
      <path class="cls-5" d="M9.91032,4.55979a2.85973,2.85973,0,0,1,2.4648,1.3735,3.65736,3.65736,0,0,1,.4056.8718,5.14764,5.14764,0,0,1-2.4704,5.879,3.60431,3.60431,0,0,1-1.6792.4382,2.85967,2.85967,0,0,1-2.4649-1.3735,3.66125,3.66125,0,0,1-.4056-.8718A5.14771,5.14771,0,0,1,8.231,4.99809a3.60334,3.60334,0,0,1,1.6793-.4383m0-.131a3.75538,3.75538,0,0,0-1.7401.4532,5.28382,5.28382,0,0,0-2.5344,6.0348,3.7912,3.7912,0,0,0,.4203.9029,3.00731,3.00731,0,0,0,2.575,1.4336,3.755,3.755,0,0,0,1.74-.4532,5.28382,5.28382,0,0,0,2.5344-6.0348,3.79485,3.79485,0,0,0-.4202-.9029,3.00744,3.00744,0,0,0-2.575-1.4336Z"/>
      <g class="cls-8">
        <g class="cls-7">
          <rect class="cls-2" x="9.02469" y="1.72766" width="1.6909" height="10.80177" transform="translate(-1.46044 11.58428) rotate(-57.30522)"/>
        </g>
      </g>
      <path class="cls-9" d="M12.90552,6.76529a3.79485,3.79485,0,0,0-.4202-.9029,3.242,3.242,0,0,0-.7278-.8052,3.34018,3.34018,0,0,1,.5148.6229,3.816,3.816,0,0,1,.4232.9093,5.32028,5.32028,0,0,1-2.552,6.0765,3.38571,3.38571,0,0,1-3.0549.1675,3.30474,3.30474,0,0,0,3.2825-.0333A5.28382,5.28382,0,0,0,12.90552,6.76529Z"/>
      <path class="cls-3" d="M13.67072,6.39539a4.06958,4.06958,0,0,0-2.8521-2.8169c.0918.0409.1849.0854.2786.1341a4.77573,4.77573,0,0,0-1.3852-.2562,4.62376,4.62376,0,0,0-2.015.5465,6.18275,6.18275,0,0,0-2.9615,7.0739,4.00574,4.00574,0,0,0,3.8406,2.9408,4.59328,4.59328,0,0,0,2.1331-.5484A6.18267,6.18267,0,0,0,13.67072,6.39539Zm-3.0678,6.8708a4.34251,4.34251,0,0,1-2.0268.5222,3.65,3.65,0,0,1-2.2062-.7266,4.074,4.074,0,0,1-1.416-2.0545,5.95277,5.95277,0,0,1,2.8495-6.8014,4.34228,4.34228,0,0,1,2.0267-.5221,3.64994,3.64994,0,0,1,2.2062.7265,4.0743,4.0743,0,0,1,1.416,2.0546A5.95263,5.95263,0,0,1,10.60292,13.26619Z"/>
      <path class="cls-4" d="M5.59042,12.63959a3.975,3.975,0,0,1-.7126-1.1727c.0183.2138-.8095-.5234-.8095-.5234A4.193,4.193,0,0,0,5.59042,12.63959Z"/>
      <path class="cls-3" d="M13.67072,6.39539a4.06958,4.06958,0,0,0-2.8521-2.8169c.0918.0409.1849.0854.2786.1341a4.77573,4.77573,0,0,0-1.3852-.2562,4.62376,4.62376,0,0,0-2.015.5465,6.18275,6.18275,0,0,0-2.9615,7.0739,4.00574,4.00574,0,0,0,3.8406,2.9408,4.59328,4.59328,0,0,0,2.1331-.5484A6.18267,6.18267,0,0,0,13.67072,6.39539Zm-3.0678,6.8708a4.34251,4.34251,0,0,1-2.0268.5222,3.65,3.65,0,0,1-2.2062-.7266,4.074,4.074,0,0,1-1.416-2.0545,5.95277,5.95277,0,0,1,2.8495-6.8014,4.34228,4.34228,0,0,1,2.0267-.5221,3.64994,3.64994,0,0,1,2.2062.7265,4.0743,4.0743,0,0,1,1.416,2.0546A5.95263,5.95263,0,0,1,10.60292,13.26619Z"/>
    </g>
  </g>
</svg>
