<svg width="160" height="40" viewBox="0 0 160 40" fill="none" xmlns="http://www.w3.org/2000/svg">
    <g clip-path="url(#clip0)">
        <path d="M37.6146 18.402C37.3818 17.8849 37.1124 17.3914 36.8062 16.9331C35.1159 14.4067 32.507 13.0083 29.4694 13.0083C27.8036 13.0083 26.1256 13.4313 24.4721 14.2539C18.3724 17.3209 15.0776 24.8414 17.1231 31.0341C17.4293 31.939 17.8335 32.7733 18.3234 33.5253C19.9525 35.9578 22.4266 37.3326 25.305 37.4384C26.885 37.3796 28.5385 36.9566 30.1553 36.1458C36.4632 32.973 39.8682 25.194 37.7493 18.8015C37.7125 18.6605 37.6635 18.5312 37.6146 18.402Z" fill="#FFCD13" />
        <path d="M60.6293 39.6357V35.6287H60.0168C57.7999 35.6287 55.8524 35.2409 54.1744 34.4653C52.4964 33.6898 51.1735 32.5147 50.2304 30.9636C49.275 29.4125 48.7974 27.6733 48.7974 25.7814C48.7974 23.9366 49.2261 22.2797 50.0957 20.7991C50.9653 19.3185 52.2024 18.1551 53.8314 17.3208C55.4482 16.4865 57.359 16.0635 59.5392 16.0635H60.6293V12.8555H64.8304V16.0635H65.9695C68.162 16.0635 70.0727 16.4747 71.6895 17.3091C73.3063 18.1434 74.5434 19.295 75.3885 20.7638C76.2336 22.2327 76.6623 23.9013 76.6623 25.7814C76.6623 27.7203 76.1846 29.4595 75.2293 31.0106C74.2739 32.5617 72.9633 33.7133 71.2976 34.4888C69.6318 35.2644 67.672 35.6522 65.4306 35.6522H64.8304V39.6592H60.6293V39.6357ZM60.6293 19.53H59.7229C57.6652 19.53 56.0606 20.094 54.897 21.2103C53.7334 22.3384 53.1455 23.8425 53.1455 25.7344C53.1455 27.7556 53.7702 29.342 55.0195 30.5053C56.2688 31.6686 58.0326 32.2444 60.2985 32.2444H60.6293V19.53ZM64.8304 32.2327H65.1979C67.4271 32.2327 69.1663 31.6569 70.4279 30.5171C71.6895 29.3655 72.3142 27.7791 72.3142 25.7344C72.3142 23.8308 71.7262 22.3267 70.5627 21.2103C69.3868 20.094 67.7823 19.53 65.7368 19.53H64.8304V32.2327Z" fill="#007CFF" />
        <path d="M83.8154 19.5652V29.671C83.8154 30.8461 83.7174 32.5734 83.5214 34.8531L93.8345 19.5535H99.1625V39.2714H94.9614V29.342C94.9614 28.7897 94.9981 27.9083 95.0594 26.6863C95.1328 25.4642 95.1818 24.5711 95.2308 24.0071L84.9545 39.2714H79.6265V19.5652H83.8154Z" fill="#007CFF" />
        <path d="M107.21 19.5653V27.4854H116.886V19.5653H121.258V39.2833H116.886V30.7756H107.21V39.2833H102.837V19.5653H107.21Z" fill="#007CFF" />
        <path d="M130.126 27.4383C132.123 27.4383 133.593 27.2268 134.536 26.8038C135.479 26.3807 135.944 25.7344 135.944 24.8531C135.944 23.2433 134.462 22.4442 131.486 22.4442C129.502 22.4442 127.481 22.8672 125.411 23.725L124.002 20.5993C126.391 19.6592 129.036 19.1892 131.915 19.1892C134.462 19.1892 136.446 19.6357 137.855 20.5406C139.264 21.4336 139.974 22.7262 139.974 24.3948C139.974 26.604 138.651 28.0611 136.018 28.7427V28.8837C137.671 29.3067 138.847 29.9295 139.557 30.7168C140.268 31.5159 140.623 32.5029 140.623 33.678C140.623 35.4877 139.79 36.9213 138.137 38.0023C136.483 39.0834 134.18 39.6122 131.216 39.6122C127.983 39.6122 125.509 39.2009 123.806 38.3784V34.7826C126.072 35.8049 128.424 36.3102 130.849 36.3102C132.6 36.3102 133.948 36.0752 134.891 35.6052C135.834 35.1351 136.312 34.4183 136.312 33.4548C136.312 32.4677 135.834 31.7391 134.879 31.2809C133.923 30.8226 132.453 30.5876 130.457 30.5876H127.946V27.4266H130.126V27.4383Z" fill="#007CFF" />
        <path d="M156.877 39.2831L156.007 36.5334H155.86C154.868 37.732 153.876 38.5546 152.872 38.9894C151.867 39.4242 150.581 39.6357 149.001 39.6357C146.98 39.6357 145.4 39.1069 144.273 38.0611C143.134 37.0152 142.571 35.5346 142.571 33.6192C142.571 31.5863 143.355 30.0587 144.935 29.0246C146.503 27.9906 148.903 27.4265 152.124 27.3325L155.677 27.2267V26.1692C155.677 24.9118 155.37 23.9718 154.758 23.349C154.145 22.7262 153.19 22.4089 151.904 22.4089C150.851 22.4089 149.846 22.5616 148.879 22.8554C147.911 23.1492 146.98 23.5017 146.086 23.913L144.678 20.9165C145.792 20.3525 147.017 19.9294 148.34 19.6474C149.663 19.3537 150.912 19.2126 152.088 19.2126C154.697 19.2126 156.681 19.7649 158.004 20.8578C159.339 21.9506 160 23.6662 160 26.0047V39.2831H156.877ZM150.373 36.4277C151.953 36.4277 153.227 36.0047 154.194 35.1586C155.15 34.3125 155.64 33.1139 155.64 31.5863V29.8707L153.006 29.9765C150.949 30.047 149.454 30.376 148.523 30.9635C147.593 31.5511 147.115 32.4559 147.115 33.6662C147.115 34.5475 147.384 35.2291 147.936 35.7109C148.462 36.1809 149.283 36.4277 150.373 36.4277Z" fill="#007CFF" />
        <path d="M19.9034 17.3914C19.9034 17.3914 19.6217 17.7204 19.4502 17.9319C19.5972 17.7439 19.7442 17.5676 19.9034 17.3914Z" fill="#FFDC5A" />
        <path d="M38.9985 23.4077C38.974 25.1351 38.6311 26.8742 37.9819 28.5193L39.366 29.3654C40.0397 27.779 40.4806 26.1104 40.6398 24.4183L38.9985 23.4077Z" fill="#FFDC5A" />
        <path d="M23.9332 14.1364L21.7897 12.8203C20.3444 13.7486 19.0706 14.9002 17.9805 16.2163L19.9035 17.4032C21.0426 16.0871 22.3899 14.9707 23.9332 14.1364Z" fill="#FFDC5A" />
        <path d="M23.6023 14.7593C22.1202 15.6523 20.8342 16.8039 19.7686 18.1318L24.0555 20.7757C24.129 20.5995 24.2147 20.4349 24.3372 20.2822C24.4597 20.1177 24.6066 19.9767 24.7659 19.8592C24.9374 19.7416 25.1088 19.6476 25.3048 19.5889L29.3223 18.2963L23.6023 14.7593Z" fill="#FFDC5A" />
        <path d="M32.1395 20.0119L26.689 21.7745V22.3973L28.8569 23.7369L30.8289 23.1023C31.1963 22.9848 31.5393 23.0083 31.7965 23.1728C32.0537 23.3374 32.2007 23.6194 32.2007 23.9719C32.2007 24.3244 32.066 24.6887 31.7965 25.0295C31.6985 25.147 31.6005 25.2527 31.4903 25.3468L37.0878 28.7898C37.7982 27.2151 38.2269 25.5348 38.3616 23.8426L32.1395 20.0119Z" fill="#FFDC5A" />
        <path d="M33.6216 17.2973C33.3644 17.1328 33.0214 17.1093 32.654 17.2268L25.3172 19.5887C25.1212 19.6474 24.9498 19.7415 24.7783 19.859C24.619 19.9765 24.4721 20.1175 24.3496 20.282C24.2271 20.4465 24.1291 20.6228 24.0556 20.799C23.9821 20.9753 23.9576 21.1633 23.9576 21.3396V25.3114L23.1247 25.5816C22.3653 25.8284 21.7529 26.6157 21.7529 27.3325C21.7529 28.0611 22.3653 28.4489 23.1247 28.2021L23.9576 27.9318V31.9036C23.9576 32.2561 24.0924 32.5382 24.3618 32.7027C24.619 32.8672 24.962 32.8907 25.3295 32.7732C25.6969 32.6557 26.0399 32.4089 26.2971 32.0799C26.5543 31.7391 26.7013 31.3748 26.7013 31.0223V27.0505L30.829 25.7109C31.1964 25.5934 31.5394 25.3466 31.7966 25.0176C32.0538 24.6768 32.2008 24.3125 32.2008 23.96C32.2008 23.6075 32.066 23.3255 31.7966 23.161C31.5394 22.9964 31.1964 22.9729 30.829 23.0905L26.7013 24.4301V21.7744L32.6662 19.8472C33.0337 19.7297 33.3766 19.4829 33.6338 19.1539C33.8911 18.8131 34.038 18.4489 34.038 18.0963C34.0258 17.7321 33.8788 17.4618 33.6216 17.2973Z" fill="white" />
        <path d="M9.88426 0.79895L9.60255 1.4335C8.99013 3.12562 9.62704 5.00576 11.1703 6.01634L16.5229 9.40059C16.6821 9.4946 16.7188 9.70611 16.6208 9.85887C16.5229 10.0116 16.3024 10.0469 16.1432 9.95288L11.1336 6.76839L10.7539 7.67321C10.6682 7.91998 10.6069 8.16675 10.5702 8.41351L12.4074 9.57685C13.9507 10.5522 14.7224 12.0798 14.5509 13.6662C14.5876 13.6309 14.6244 13.5839 14.6611 13.5369C14.7224 13.4664 14.7836 13.4076 14.8448 13.3371C14.8571 13.3254 14.8693 13.3136 14.8693 13.3019C15.1878 12.9729 15.5185 12.6556 15.8492 12.3501C15.8982 12.3148 15.9349 12.2678 15.9839 12.2208C17.0985 11.2337 18.3356 10.3642 19.6707 9.64736C20.4546 9.23608 21.263 8.9188 22.0959 8.68379C21.7774 8.155 21.312 7.67321 20.6995 7.28543L10.2395 0.693192C10.1537 0.646188 10.0802 0.657939 10.0312 0.66969C9.99449 0.681441 9.921 0.704943 9.88426 0.79895Z" fill="white" />
        <path d="M4.64225 19.7885C4.64225 19.7885 10.0438 23.255 10.0315 23.302C10.3377 20.5288 11.3788 17.9671 13.0201 15.6052C13.0079 15.6169 13.5468 14.8766 13.6325 14.6533C14.2939 12.9495 13.6938 11.1633 12.028 10.1175L1.55567 3.5135C1.46993 3.4665 1.39644 3.47825 1.34745 3.49C1.3107 3.50175 1.23721 3.53701 1.18822 3.61926L0.906505 4.25381C0.771774 4.62984 0.710532 5.00587 0.686035 5.38189C0.72278 6.72149 1.34745 8.09635 2.47429 8.83665L7.86356 12.2444C8.02279 12.3384 8.05953 12.5499 7.96155 12.7027C7.86356 12.8555 7.64309 12.8907 7.48386 12.7967L2.4498 9.58871L2.0701 10.4935C1.46993 12.1269 2.0701 13.9953 3.55215 15.0176C3.60114 15.0529 4.69124 15.7344 5.48738 16.2397C6.05081 16.5922 6.51624 16.886 6.54074 16.8978C6.69997 17.0035 6.73671 17.2033 6.62648 17.356C6.56524 17.4501 6.455 17.4971 6.34477 17.4971C6.28352 17.4971 6.21003 17.4736 6.14879 17.4383C6.1243 17.4265 5.65886 17.1328 5.10768 16.792C4.50752 16.416 4.09107 16.1457 3.79711 15.9694L3.56439 16.5452C3.09896 17.7321 3.5399 19.0717 4.64225 19.7885Z" fill="white" />
        <path d="M38.3864 19.3068C38.0802 18.3667 37.6515 17.5089 37.1371 16.7333C35.3365 14.0541 32.5562 12.644 29.4818 12.644C27.8038 12.644 26.0401 13.0671 24.3008 13.9366C18.0419 17.0859 14.6614 24.8062 16.7681 31.1634C17.0743 32.1035 17.503 32.9613 18.0174 33.7369C18.8503 34.9825 19.9036 35.946 21.0917 36.6276C22.4635 37.4149 24.0313 37.8262 25.6849 37.8262C27.3629 37.8262 29.1266 37.4031 30.8659 36.5336C37.1126 33.3843 40.4931 25.6523 38.3864 19.3068ZM30.1677 36.1458C28.551 36.9566 26.8974 37.3796 25.3174 37.4384C22.439 37.3326 19.9649 35.9578 18.3359 33.5254C17.8337 32.785 17.4295 31.939 17.1355 31.0342C15.09 24.8532 18.3849 17.3209 24.4845 14.2539C26.138 13.4196 27.8161 13.0083 29.4818 13.0083C32.5194 13.0083 35.1161 14.3949 36.8186 16.9331C37.1248 17.3914 37.3943 17.8849 37.627 18.402C37.676 18.5312 37.725 18.6722 37.774 18.8015C39.8807 25.194 36.4756 32.9731 30.1677 36.1458Z" fill="#DDAD26" />
        <path d="M28.8817 9.85911L27.4242 8.95429C27.1547 8.91904 26.873 8.89554 26.5913 8.88379L28.2203 9.89436C28.4408 9.88261 28.6613 9.87086 28.8817 9.85911Z" fill="#DDAD26" />
        <path d="M25.342 10.4467L23.1986 9.1189C23.0149 9.15415 22.8434 9.1894 22.6597 9.23641L24.8643 10.5995C25.0236 10.5525 25.1828 10.4938 25.342 10.4467Z" fill="#DDAD26" />
        <path d="M21.9735 11.9272L19.6218 10.4701C19.4994 10.5406 19.3769 10.6111 19.2544 10.6816L21.6183 12.1387C21.7285 12.0682 21.851 11.9977 21.9735 11.9272Z" fill="#DDAD26" />
        <path d="M19.132 14.0305L16.7068 12.5146C16.6089 12.5969 16.4986 12.6792 16.4006 12.7732L18.8503 14.3008C18.9483 14.2068 19.034 14.1128 19.132 14.0305Z" fill="#DDAD26" />
        <path d="M16.7804 16.6747L14.2327 15.1001C14.1592 15.1941 14.0857 15.2999 14 15.4056L16.5599 16.992C16.6334 16.8745 16.7069 16.7805 16.7804 16.6747Z" fill="#DDAD26" />
        <path d="M12.138 18.4374C12.1013 18.5079 12.0768 18.5901 12.04 18.6606L14.7224 20.3175C14.7714 20.2 14.8204 20.0825 14.8694 19.965L12.1993 18.3081C12.187 18.3551 12.1625 18.4021 12.138 18.4374Z" fill="#DDAD26" />
        <path d="M13.5956 24.1363L10.852 22.4324C10.8275 22.5617 10.803 22.7027 10.7908 22.8319L13.5344 24.5358C13.5466 24.4065 13.5711 24.2773 13.5956 24.1363Z" fill="#DDAD26" />
        <path d="M13.461 28.8367C13.4487 28.6957 13.4242 28.5429 13.412 28.4019L10.7051 26.7333C10.7296 26.8978 10.7418 27.0623 10.7786 27.2151L13.4365 28.8602L13.461 28.8367Z" fill="#DDAD26" />
        <path d="M11.7952 30.5996C11.8932 30.8111 11.9789 31.0226 12.0891 31.2224L14.5143 32.7265C14.4286 32.5385 14.3673 32.3387 14.2816 32.139L11.7952 30.5996Z" fill="#DDAD26" />
        <path d="M40.0153 18.4491C39.2069 16.0167 37.7493 13.9838 35.8019 12.5854C35.4099 12.3034 34.9935 12.0566 34.5648 11.8216L33.7441 11.4221C32.3478 10.8228 30.829 10.5055 29.2367 10.5055C27.2035 10.5055 25.1703 11.0108 23.2106 11.9979C16.1678 15.5349 12.3585 24.2423 14.7347 31.4103C15.5431 33.8427 17.0007 35.8757 18.9481 37.274C19.3401 37.556 19.7688 37.8146 20.1975 38.0378C20.4424 38.1553 20.6752 38.2611 20.9324 38.3668L21.5815 38.6489C22.8186 39.1071 24.1414 39.3422 25.5132 39.3422C27.5465 39.3422 29.5797 38.8369 31.5394 37.8498C38.5822 34.3128 42.3915 25.6054 40.0153 18.4491ZM30.8535 36.5219C29.1265 37.3915 27.3627 37.8145 25.6725 37.8145C24.0312 37.8145 22.4634 37.4033 21.0794 36.616C19.8913 35.9344 18.8379 34.9591 18.005 33.7252C17.4906 32.9497 17.0619 32.0801 16.7557 31.1518C14.649 24.8063 18.0295 17.0742 24.2884 13.925C26.0154 13.0554 27.7792 12.6324 29.4695 12.6324C32.5438 12.6324 35.3364 14.0425 37.1247 16.7217C37.6391 17.4973 38.0678 18.3668 38.374 19.2952C40.493 25.6524 37.1124 33.3845 30.8535 36.5219Z" fill="#FFCD13" />
        <path d="M16.6699 36.0988C15.5675 34.8649 14.6734 33.3608 14.0855 31.6099C11.6113 24.1481 15.5553 15.1117 22.892 11.4219C24.8885 10.4231 26.9217 9.91779 28.8814 9.85903C30.1308 9.89428 31.2699 10.1176 32.0293 10.3056C32.0905 10.3173 33.0091 10.5876 33.0091 10.5876C31.6006 9.88253 30.241 9.483 29.2244 9.24799C29.1632 9.23623 28.367 9.07172 27.5464 8.96597C26.9585 8.88371 26.346 8.87196 25.7214 8.87196C23.6637 8.87196 21.6917 9.34199 20.0381 10.2233C16.5964 12.0682 13.7915 14.9824 12.1502 18.4372C10.46 21.9742 10.1537 25.8167 11.2806 29.2597C12.187 32.08 13.8527 34.2304 16.6699 36.0988Z" fill="#FFCD13" />
        <path d="M40.6643 18.2487C39.6722 15.2523 37.7982 12.9726 35.422 11.5507C34.0992 10.7164 33.989 10.6224 32.4334 9.77635C30.7432 8.85978 28.6242 8.22523 25.7091 8.22523C24.7415 8.22523 23.7616 8.33099 22.794 8.5425C22.4266 7.86095 21.8631 7.24991 21.1037 6.76812L10.6192 0.140614C10.3864 -0.00039643 10.1047 -0.0474 9.84752 0.0348563C9.59031 0.105362 9.36984 0.293376 9.2596 0.540145L8.97789 1.17469L8.96564 1.19819C8.26749 3.07834 8.9289 5.18175 10.5579 6.39209L10.117 7.44967C10.0435 7.63769 9.9945 7.83745 9.95776 8.02547L1.92285 2.96083C1.69013 2.81982 1.40842 2.77281 1.1512 2.85507C0.89399 2.92558 0.67352 3.11359 0.563285 3.36036L0.281573 3.99491L0.269325 4.01841C-0.42883 5.89855 0.23258 8.00196 1.86161 9.21231L1.42067 10.2699C0.710265 12.1853 1.42067 14.3592 3.13544 15.5578C3.13544 15.5578 3.15993 15.5695 3.20893 15.6048L2.92721 16.3216C2.33929 17.8022 2.87822 19.4591 4.25003 20.3404L9.95776 24.0537C9.83527 25.8516 10.0312 27.6847 10.6192 29.4708C12.0155 33.7599 15.0531 36.4274 19.8544 38.6483C20.3076 38.8598 20.9445 39.1301 21.5447 39.3533C22.794 39.7881 24.1291 40.0114 25.5009 40.0114C27.5709 40.0114 29.7388 39.5061 31.8455 38.4485C39.1945 34.747 43.1385 25.7106 40.6643 18.2487ZM9.60256 1.42146L9.88427 0.786914C9.92101 0.704657 9.9945 0.681155 10.0435 0.669405C10.0802 0.657654 10.166 0.645903 10.2517 0.692906L20.7363 7.30866C21.3487 7.69644 21.8141 8.16648 22.1326 8.70702C21.2997 8.94203 20.4913 9.24756 19.7074 9.67059C18.3724 10.3874 17.1353 11.257 16.0207 12.244C15.9717 12.291 15.9227 12.338 15.886 12.3733C15.543 12.6788 15.2123 12.9961 14.9061 13.3251C14.8938 13.3369 14.8816 13.3486 14.8816 13.3604C14.8203 13.4191 14.7591 13.4896 14.6979 13.5601C14.6611 13.5954 14.6244 13.6424 14.5876 13.6894C14.7591 12.103 13.9875 10.5754 12.4442 9.60008L10.6069 8.43675C10.6437 8.18998 10.7049 7.94321 10.7906 7.69644L11.1703 6.79162L16.1799 9.97611C16.3391 10.0701 16.5474 10.0349 16.6576 9.88211C16.7678 9.72934 16.7188 9.52958 16.5596 9.42382L11.1703 6.00431C9.62705 4.99373 8.99014 3.11359 9.60256 1.42146ZM4.64198 19.7881C3.53963 19.0713 3.09869 17.7317 3.57638 16.5331L3.80909 15.9573C4.10305 16.1453 4.5195 16.4039 5.11967 16.7799C5.67084 17.1324 6.13628 17.4144 6.16077 17.4262C6.22202 17.4614 6.28326 17.4849 6.35675 17.4849C6.46698 17.4849 6.57722 17.4379 6.63846 17.3439C6.74869 17.1912 6.6997 16.9914 6.55272 16.8856C6.54047 16.8739 6.07504 16.5801 5.49936 16.2276C4.70322 15.7223 3.60087 15.0407 3.56413 15.0055C2.08208 13.9832 1.48191 12.1148 2.08208 10.4814L2.46178 9.57658L7.50809 12.7611C7.66732 12.8551 7.87554 12.8198 7.98578 12.6671C8.08376 12.5143 8.04702 12.3145 7.88779 12.2088L2.49852 8.80102C0.942983 7.81395 0.293821 5.93381 0.918486 4.24168L1.2002 3.60713C1.23694 3.52487 1.31043 3.48962 1.35943 3.47787C1.39617 3.46612 1.48191 3.45437 1.56765 3.50137L12.0522 10.1171C13.7057 11.163 14.3182 12.9491 13.6568 14.653C13.571 14.8762 13.0321 15.6165 13.0443 15.6048C11.4031 17.9667 10.362 20.5284 10.0557 23.3016C10.0312 23.2546 4.64198 19.7881 4.64198 19.7881ZM11.2806 29.2593C10.166 25.8163 10.4722 21.9738 12.1502 18.4368C13.7915 14.982 16.5841 12.0678 20.0381 10.2229C21.6917 9.34156 23.6636 8.87153 25.7214 8.87153C26.3583 8.87153 26.9707 8.88328 27.5464 8.96554C28.367 9.08305 29.1631 9.23581 29.2244 9.24756C30.2533 9.48257 31.6128 9.88211 33.0091 10.5872C33.0091 10.5872 32.0905 10.3169 32.0293 10.3051C31.2699 10.1171 30.1308 9.89386 28.8814 9.8586C26.9217 9.91736 24.8762 10.4109 22.892 11.4215C15.5552 15.1113 11.6113 24.1477 14.0854 31.6095C14.6611 33.3604 15.5552 34.8645 16.6698 36.0984C13.8527 34.23 12.187 32.0795 11.2806 29.2593ZM31.5393 37.861C29.5673 38.8481 27.5464 39.3533 25.5131 39.3533C24.1413 39.3533 22.8185 39.1066 21.5814 38.66L20.9323 38.378C20.6751 38.2723 20.4423 38.1548 20.1974 38.049C19.7687 37.8257 19.3522 37.5672 18.948 37.2852C17.0006 35.8868 15.543 33.8539 14.7346 31.4215C12.3584 24.2652 16.1677 15.5578 23.2105 12.009C25.1824 11.0219 27.2034 10.5167 29.2366 10.5167C30.8167 10.5167 32.3477 10.8339 33.744 11.4332L34.5647 11.8328C34.9934 12.056 35.4098 12.3145 35.8017 12.5966C37.7492 13.9949 39.2068 16.0278 40.0152 18.4603C42.3913 25.6048 38.5821 34.3122 31.5393 37.861Z" fill="#1D2D5D" />
    </g>
    <defs>
        <clipPath id="clip0">
            <rect width="160" height="40" fill="white" />
        </clipPath>
    </defs>
</svg>
