<svg width="68" height="72" viewBox="0 0 68 72" fill="none" xmlns="http://www.w3.org/2000/svg">
<path d="M34.0012 57.5799V53.1787" stroke="#FFCC13" stroke-linecap="round" stroke-linejoin="round"/>
<path d="M51.0058 47.8071L47.1776 45.6055" stroke="#FFCC13"/>
<path d="M51.0058 47.8071L47.1776 45.6055" stroke="#FFCC13" stroke-linecap="round" stroke-linejoin="round"/>
<path d="M51.0058 28.2598L47.1776 30.4595" stroke="#FFCC13"/>
<path d="M51.0058 28.2598L47.1776 30.4595" stroke="#FFCC13" stroke-linecap="round" stroke-linejoin="round"/>
<path d="M34.0012 18.4883V23.1424" stroke="#FFCC13" stroke-linecap="round" stroke-linejoin="round"/>
<path d="M16.9963 28.2598L20.8247 30.4595" stroke="#FFCC13"/>
<path d="M16.9963 28.2598L20.8247 30.4595" stroke="#FFCC13" stroke-linecap="round" stroke-linejoin="round"/>
<path d="M16.9963 47.8071L20.8247 45.6055" stroke="#FFCC13"/>
<path d="M16.9963 47.8071L20.8247 45.6055" stroke="#FFCC13" stroke-linecap="round" stroke-linejoin="round"/>
<path d="M25.6697 6.53577C11.6671 10.29 1.1313 23.207 1.1313 38.1548C1.1313 56.2246 15.8487 70.8736 34.0012 70.8736C52.1536 70.8736 66.8687 56.2246 66.8687 38.1548C66.8687 22.7487 56.1718 9.83172 41.7679 6.35692L42.5577 9.32628L40.438 11.9845C52.2743 14.86 61.062 25.4861 61.062 38.1548C61.062 53.0334 48.9454 65.0933 34.0012 65.0933C19.0548 65.0933 6.94026 53.0334 6.94026 38.1548C6.94026 25.9121 15.1449 15.5813 26.3774 12.3042L27.0221 17.5302L34.2531 8.32419L25.0024 1.12598L25.6697 6.53577Z" stroke="#6EBDFF" stroke-linecap="round" stroke-linejoin="round"/>
<path d="M33.7412 43H27.1719V42.0225L29.8037 39.377C30.6058 38.5658 31.1344 37.987 31.3896 37.6406C31.6449 37.2943 31.8363 36.957 31.9639 36.6289C32.0915 36.3008 32.1553 35.9476 32.1553 35.5693C32.1553 35.0361 31.9935 34.6146 31.6699 34.3047C31.3464 33.9902 30.8975 33.833 30.3232 33.833C29.9085 33.833 29.5143 33.9014 29.1406 34.0381C28.7715 34.1748 28.359 34.4232 27.9033 34.7832L27.3018 34.0107C28.2223 33.2451 29.2249 32.8623 30.3096 32.8623C31.2484 32.8623 31.9844 33.1038 32.5176 33.5869C33.0508 34.0654 33.3174 34.7103 33.3174 35.5215C33.3174 36.1549 33.1396 36.7816 32.7842 37.4014C32.4287 38.0212 31.7633 38.805 30.7881 39.7529L28.6006 41.8926V41.9473H33.7412V43ZM42.2246 40.7031H40.7412V43H39.6543V40.7031H34.7939V39.7119L39.5381 32.9512H40.7412V39.6709H42.2246V40.7031ZM39.6543 39.6709V36.3486C39.6543 35.6969 39.6771 34.9609 39.7227 34.1406H39.668C39.4492 34.5781 39.2441 34.9404 39.0527 35.2275L35.9287 39.6709H39.6543Z" fill="#FFCC13"/>
</svg>
