<svg xmlns="http://www.w3.org/2000/svg" viewBox="0 0 116.08 115.88">
  <title>Asset 9</title>
  <g id="Layer_2" data-name="Layer 2">
    <g id="Layer_1-2" data-name="Layer 1">
      <g>
        <path d="M4.54,46.05A4,4,0,0,0,.48,50.11V66A4,4,0,0,0,4.54,70H12A44.66,44.66,0,0,0,17,82.11l-5.15,5.15a4.07,4.07,0,0,0,0,5.75l11.2,11.2a4.07,4.07,0,0,0,5.75,0L34.06,99a47.77,47.77,0,0,0,12.09,5v7.43a4,4,0,0,0,4.06,4.06H66.06a4,4,0,0,0,4.06-4.06v-7.53a47.11,47.11,0,0,0,12-5l5.35,5.35a4.07,4.07,0,0,0,5.75,0L104.41,93a4.07,4.07,0,0,0,0-5.75l-5.35-5.35a47.11,47.11,0,0,0,5-12h7.53a4,4,0,0,0,4.06-4.06V50A4,4,0,0,0,111.54,46H104a47.11,47.11,0,0,0-5-12l5.35-5.35a4.07,4.07,0,0,0,0-5.75L93.11,11.77a4.07,4.07,0,0,0-5.75,0L82.11,17A52,52,0,0,0,70,12V4.54A4,4,0,0,0,66,.48H50.11a4,4,0,0,0-4.06,4.06V12a47.76,47.76,0,0,0-12.09,5l-5.25-5.25a4.07,4.07,0,0,0-5.75,0L11.77,23a4.07,4.07,0,0,0,0,5.75l5.15,5.15a44,44,0,0,0-5.05,12.19ZM19.2,50.81a39.36,39.36,0,0,1,6.24-15.16A4.06,4.06,0,0,0,25,30.5l-4.56-4.66,5.45-5.45L30.5,25a4.06,4.06,0,0,0,5.15.5A38.48,38.48,0,0,1,50.81,19.3a4.13,4.13,0,0,0,3.37-4V8.7H61.9v6.64a4,4,0,0,0,3.27,4,39.55,39.55,0,0,1,15.06,6.24,4.06,4.06,0,0,0,5.15-.5l4.76-4.76,5.45,5.45L90.83,30.5a4.06,4.06,0,0,0-.5,5.15,41.19,41.19,0,0,1,6.24,15.06,4.21,4.21,0,0,0,4,3.37h6.74V61.8h-6.74a4,4,0,0,0-4,3.27,38.05,38.05,0,0,1-6.24,15.06,4.06,4.06,0,0,0,.5,5.15L95.59,90l-5.45,5.45-4.76-4.76a4.06,4.06,0,0,0-5.15-.5,38.05,38.05,0,0,1-15.06,6.24,4.12,4.12,0,0,0-3.27,4v6.64H54.18v-6.64a4,4,0,0,0-3.37-4,37.88,37.88,0,0,1-15.16-6.24,4.06,4.06,0,0,0-5.15.5l-4.66,4.66-5.45-5.15L25,85.58a4.06,4.06,0,0,0,.5-5.15A40.18,40.18,0,0,1,19.2,65.27a4,4,0,0,0-4-3.27H8.7V54.28h6.54A4.31,4.31,0,0,0,19.2,50.81Z" style="fill: #1a1a18;fill-rule: evenodd"/>
        <path d="M4.54,46.53A3.53,3.53,0,0,0,1,50.11V66a3.53,3.53,0,0,0,3.58,3.58h7.8l.09.36a44.85,44.85,0,0,0,2.07,6.19,43.59,43.59,0,0,0,2.93,5.76l.19.32-.27.27-5.15,5.15a3.59,3.59,0,0,0,0,5.07l11.2,11.2a3.59,3.59,0,0,0,5.07,0l5.25-5.25.26-.26.32.18a48,48,0,0,0,5.85,2.88,46.54,46.54,0,0,0,6.12,2l.36.09v7.8a3.53,3.53,0,0,0,3.58,3.58H66.06a3.53,3.53,0,0,0,3.58-3.58v-7.9l.36-.09a44.81,44.81,0,0,0,6.11-2,49.22,49.22,0,0,0,5.75-2.86l.32-.18.26.26,5.35,5.35h0a3.59,3.59,0,0,0,5.07,0l11.2-11.2a3.59,3.59,0,0,0,0-5.07l-5.35-5.35L98.46,82l.19-.32a49.22,49.22,0,0,0,2.86-5.75,44.77,44.77,0,0,0,2-6.11l.09-.36h7.9a3.53,3.53,0,0,0,3.58-3.58V50a3.53,3.53,0,0,0-3.58-3.58h-7.9l-.09-.36a44.76,44.76,0,0,0-2-6.11,49.21,49.21,0,0,0-2.86-5.75l-.19-.32.26-.26,5.35-5.35a3.59,3.59,0,0,0,0-5.07h0L92.78,12.12h0a3.59,3.59,0,0,0-5.07,0l-5.25,5.25-.26.26-.32-.19a50,50,0,0,0-5.77-2.86,53.06,53.06,0,0,0-6.21-2.15l-.35-.1V4.54A3.53,3.53,0,0,0,66,1H50.11a3.53,3.53,0,0,0-3.58,3.58v7.8l-.36.09a46.57,46.57,0,0,0-6.12,2,48,48,0,0,0-5.84,2.88l-.32.19-.26-.26L28.38,12a3.59,3.59,0,0,0-5.07,0h0L12.11,23.31h0a3.59,3.59,0,0,0,0,5.07l5.15,5.15.27.27-.19.32a43,43,0,0,0-2.94,5.81,44.44,44.44,0,0,0-2.06,6.25l-.09.36H4.54Zm-3.22.36a4.53,4.53,0,0,1,3.22-1.32h7a45.31,45.31,0,0,1,2-6,44,44,0,0,1,2.81-5.61l-4.89-4.89a4.55,4.55,0,0,1,0-6.42h0L22.63,11.34h0a4.55,4.55,0,0,1,6.42,0l5,5a48.94,48.94,0,0,1,5.64-2.75,47.61,47.61,0,0,1,5.89-2V4.54a4.53,4.53,0,0,1,1.32-3.22h0A4.53,4.53,0,0,1,50.11,0H66a4.53,4.53,0,0,1,3.22,1.32h0a4.53,4.53,0,0,1,1.32,3.22v7.07a54,54,0,0,1,6,2.09A51.07,51.07,0,0,1,82,16.43l5-5a4.55,4.55,0,0,1,6.42,0h0l11.29,11.09h0a4.55,4.55,0,0,1,0,6.42L99.65,34a50,50,0,0,1,2.73,5.54,45.77,45.77,0,0,1,2,5.88h7.16a4.53,4.53,0,0,1,3.22,1.32h0A4.53,4.53,0,0,1,116.08,50V65.87a4.53,4.53,0,0,1-1.32,3.22h0a4.53,4.53,0,0,1-3.22,1.32h-7.16a45.78,45.78,0,0,1-2,5.88,49.93,49.93,0,0,1-2.73,5.54l5.09,5.09a4.55,4.55,0,0,1,0,6.42l-11.2,11.2a4.54,4.54,0,0,1-6.42,0h0L82,99.46a49.93,49.93,0,0,1-5.54,2.73,45.82,45.82,0,0,1-5.88,2v7.16a4.53,4.53,0,0,1-1.32,3.22h0a4.53,4.53,0,0,1-3.22,1.32H50.21A4.53,4.53,0,0,1,47,114.57h0a4.53,4.53,0,0,1-1.32-3.22v-7.06a47.62,47.62,0,0,1-5.88-2,48.87,48.87,0,0,1-5.64-2.75l-5,5a4.55,4.55,0,0,1-6.42,0l-11.2-11.2a4.55,4.55,0,0,1,0-6.42L16.42,82a44.6,44.6,0,0,1-2.8-5.57,45.79,45.79,0,0,1-2-6H4.54a4.53,4.53,0,0,1-3.22-1.32h0A4.53,4.53,0,0,1,0,66V50.11a4.53,4.53,0,0,1,1.32-3.22Zm17.41,3.83A38.45,38.45,0,0,1,21,42.83a41.79,41.79,0,0,1,4-7.44h0a3.53,3.53,0,0,0,.6-2.34,3.6,3.6,0,0,0-1-2.2h0l-4.56-4.66-.33-.34.33-.34,5.45-5.45.34-.34.34.34,4.66,4.66a3.6,3.6,0,0,0,2.2,1,3.53,3.53,0,0,0,2.34-.6h0a38.19,38.19,0,0,1,7.28-4,40,40,0,0,1,8.06-2.35h0a3.89,3.89,0,0,0,2.16-1.27,3.41,3.41,0,0,0,.83-2.22V8.22h8.69v7.12a3.62,3.62,0,0,0,.82,2.31,3.32,3.32,0,0,0,2,1.18h0a38.34,38.34,0,0,1,7.83,2.31,42.15,42.15,0,0,1,7.41,4h0a3.53,3.53,0,0,0,2.34.6,3.6,3.6,0,0,0,2.2-1L89.8,20l.34-.34.34.34,5.45,5.45.34.34-.34.34-4.76,4.76a3.6,3.6,0,0,0-1,2.2,3.53,3.53,0,0,0,.6,2.34h0a41.16,41.16,0,0,1,3.9,7.26,42.63,42.63,0,0,1,2.41,8h0a3.88,3.88,0,0,0,1.28,2.13,3.43,3.43,0,0,0,2.21.85h7.22v8.69h-7.22a3.62,3.62,0,0,0-2.31.82,3.32,3.32,0,0,0-1.18,2h0a39.06,39.06,0,0,1-2.34,8,38.54,38.54,0,0,1-4,7.26h0a3.53,3.53,0,0,0-.6,2.34,3.6,3.6,0,0,0,1,2.2l4.76,4.76.34.34-.34.34-5.45,5.45-.34.34-.34-.34L85,91.07a3.6,3.6,0,0,0-2.2-1,3.53,3.53,0,0,0-2.34.6h0a38.54,38.54,0,0,1-7.26,4,39.07,39.07,0,0,1-8,2.34h0a3.67,3.67,0,0,0-2.07,1.26,3.52,3.52,0,0,0-.82,2.24v7.12H53.7v-7.12a3.57,3.57,0,0,0-.84-2.32A3.43,3.43,0,0,0,50.74,97h0a39.15,39.15,0,0,1-8-2.33,38.28,38.28,0,0,1-7.3-4h0A3.53,3.53,0,0,0,33,90a3.6,3.6,0,0,0-2.2,1l-4.66,4.66-.33.33-.34-.32-5.45-5.15-.36-.34.35-.35,4.66-4.66a3.6,3.6,0,0,0,1-2.2,3.53,3.53,0,0,0-.6-2.34h0a38.92,38.92,0,0,1-4-7.22,42.75,42.75,0,0,1-2.47-8.12h0a3.68,3.68,0,0,0-1.25-2.09,3.5,3.5,0,0,0-2.25-.8h-7V53.8h7a3.77,3.77,0,0,0,2.25-.93,3.84,3.84,0,0,0,1.24-2.14Zm3.19-7.53a40.83,40.83,0,0,1,3.92-7.27h0a4.48,4.48,0,0,0,.76-3,4.55,4.55,0,0,0-1.31-2.79h0l-4.22-4.31,4.77-4.78,4.32,4.32a4.55,4.55,0,0,0,2.79,1.31,4.48,4.48,0,0,0,3-.76h0A37.24,37.24,0,0,1,43,22.07a39,39,0,0,1,7.88-2.3h0a4.86,4.86,0,0,0,2.7-1.59,4.36,4.36,0,0,0,1.05-2.84V9.18h6.77v6.16a4.58,4.58,0,0,0,1,2.92,4.28,4.28,0,0,0,2.63,1.52A37.4,37.4,0,0,1,72.72,22,41.16,41.16,0,0,1,80,25.94h0a4.48,4.48,0,0,0,3,.76,4.55,4.55,0,0,0,2.79-1.31L90.14,21l4.77,4.77-4.42,4.42a4.55,4.55,0,0,0-1.31,2.79,4.48,4.48,0,0,0,.76,3h0A40.2,40.2,0,0,1,93.75,43a41.65,41.65,0,0,1,2.36,7.8h0a4.85,4.85,0,0,0,1.6,2.67,4.39,4.39,0,0,0,2.83,1.08h6.26v6.77h-6.26a4.58,4.58,0,0,0-2.92,1A4.28,4.28,0,0,0,96.11,65a38.1,38.1,0,0,1-2.28,7.78,37.57,37.57,0,0,1-3.88,7.08h0a4.48,4.48,0,0,0-.76,3,4.55,4.55,0,0,0,1.31,2.79L94.91,90l-4.77,4.77-4.42-4.42a4.55,4.55,0,0,0-2.79-1.31,4.48,4.48,0,0,0-3,.76h0a37.57,37.57,0,0,1-7.08,3.88A38.1,38.1,0,0,1,65.09,96h0a4.63,4.63,0,0,0-2.61,1.59,4.48,4.48,0,0,0-1,2.84v6.16H54.66v-6.16a4.52,4.52,0,0,0-1.07-2.94,4.39,4.39,0,0,0-2.7-1.5h0A38.17,38.17,0,0,1,43,93.73a37.31,37.31,0,0,1-7.12-3.89h0a4.48,4.48,0,0,0-3-.76,4.55,4.55,0,0,0-2.79,1.31l-4.33,4.33-4.75-4.49,4.31-4.31a4.55,4.55,0,0,0,1.31-2.79,4.48,4.48,0,0,0-.76-3h0a37.93,37.93,0,0,1-3.85-7,41.79,41.79,0,0,1-2.41-7.94h0a4.64,4.64,0,0,0-1.58-2.63,4.45,4.45,0,0,0-2.85-1H9.18V54.76h6.08a4.73,4.73,0,0,0,2.86-1.17,4.8,4.8,0,0,0,1.55-2.68h0A37.49,37.49,0,0,1,21.92,43.19Z" style="fill: #1a1a18;fill-rule: evenodd"/>
        <path d="M57.94,86.47A27.84,27.84,0,1,0,30.1,58.63,27.86,27.86,0,0,0,57.94,86.47Zm0-47.55A19.72,19.72,0,1,1,38.23,58.63,19.7,19.7,0,0,1,57.94,38.92Z" style="fill: #1a1a18;fill-rule: evenodd"/>
        <path d="M57.94,86A27.38,27.38,0,1,0,38.6,78a27.27,27.27,0,0,0,19.34,8Zm20-7.34a28.28,28.28,0,1,1,8.3-20,28.23,28.23,0,0,1-8.3,20Zm-20-40.21a20.18,20.18,0,1,1-14.28,5.91,20.13,20.13,0,0,1,14.28-5.91ZM71.55,45a19.25,19.25,0,1,1-13.6-5.63A19.18,19.18,0,0,1,71.55,45Z" style="fill: #1a1a18;fill-rule: evenodd"/>
      </g>
    </g>
  </g>
</svg>
