<svg xmlns="http://www.w3.org/2000/svg" viewBox="0 0 129.63 150.18">
  <title>Asset 12</title>
  <g id="Layer_2" data-name="Layer 2">
    <g id="Layer_1-2" data-name="Layer 1">
      <g>
        <path d="M108.12,73.25,125.88,91a3,3,0,0,1,0,4.19L74.21,146.44a3,3,0,0,1-4.19,0L3.74,80.16a3,3,0,0,1,0-4.19l17.9-17.9L37.73,74.16a7.85,7.85,0,0,0,11.09,0l3.58-3.58a7.85,7.85,0,0,0,0-11.09L36.31,43.4,49.06,30.65h.83" style="fill: none;stroke: #1a1a18;stroke-linejoin: round;stroke-width: 5.7597000000000005px;fill-rule: evenodd"/>
        <polygon points="101.21 1.8 101.21 10.34 58.8 10.34 58.8 33.43 50.26 42 50.26 1.8 101.21 1.8" style="fill: none;stroke: #1a1a18;stroke-linejoin: round;stroke-width: 3.5997000000000003px;fill-rule: evenodd"/>
        <g>
          <path d="M109.75,10.34V76.43h0L64.87,31.55a3,3,0,0,0-4.19,0L58.8,33.43V10.34Z" style="fill: none;stroke: #1a1a18;stroke-linejoin: round;stroke-width: 3.5997000000000003px;fill-rule: evenodd"/>
          <path d="M97,63.65,73.9,40.58A20.81,20.81,0,0,1,84.25,37.9c10,0,18.18,6.73,18.18,15A13.85,13.85,0,0,1,97,63.65Z" style="fill: none;stroke: #1a1a18;stroke-linejoin: round;stroke-width: 2.3998px;fill-rule: evenodd"/>
          <path d="M109.75,10.34V32.64L65.82,32.5l-1-1a3,3,0,0,0-4.19,0l-.93.93h-1V10.34Z" style="fill: none;stroke: #1a1a18;stroke-linejoin: round;stroke-width: 2.3998px;fill-rule: evenodd"/>
        </g>
        <path d="M64.87,31.55l60,60a3,3,0,0,1,0,4.19L74.21,146.44a3,3,0,0,1-4.19,0l-60-60a3,3,0,0,1,0-4.19l17.9-17.9,9.83,9.83a7.85,7.85,0,0,0,11.09,0l3.58-3.58a7.85,7.85,0,0,0,0-11.09l-9.83-9.83L60.68,31.55A3,3,0,0,1,64.87,31.55Z" style="fill: none;stroke: #1a1a18;stroke-linejoin: round;stroke-width: 3.5997000000000003px;fill-rule: evenodd"/>
        <path d="M34.56,41.66,52.4,59.49a7.85,7.85,0,0,1,0,11.09l-3.58,3.58a7.85,7.85,0,0,1-11.09,0L19.9,56.32a2.62,2.62,0,0,1,0-3.7l11-11A2.62,2.62,0,0,1,34.56,41.66Z" style="fill: none;stroke: #1a1a18;stroke-linejoin: round;stroke-width: 5.7597000000000005px;fill-rule: evenodd"/>
      </g>
    </g>
  </g>
</svg>
