<svg width="103" height="92" viewBox="0 0 103 92" fill="none" xmlns="http://www.w3.org/2000/svg">
<rect x="30.9951" y="0.524719" width="36.4652" height="32.9801" rx="9.5" fill="#BDDFFC" stroke="#007CFF"/>
<rect x="37.0938" y="6.21283" width="24.2672" height="27.7524" rx="4.5" fill="white" stroke="#007CFF"/>
<path d="M0.5 29.297C0.5 21.8411 6.54416 15.797 14 15.797H84.4551C91.9109 15.797 97.9551 21.8412 97.9551 29.297V77.0987C97.9551 84.5545 91.9109 90.5987 84.4551 90.5987H14C6.54416 90.5987 0.5 84.5545 0.5 77.0987V29.297Z" fill="white" stroke="#007CFF"/>
<path d="M8.3418 31.1386C8.3418 26.9964 11.6997 23.6385 15.8418 23.6385H82.6138C86.7559 23.6385 90.1138 26.9964 90.1138 31.1385V75.2571C90.1138 79.3993 86.7559 82.7571 82.6138 82.7571H15.8418C11.6997 82.7571 8.3418 79.3993 8.3418 75.2571V31.1386Z" stroke="#FFCC13"/>
<path d="M66.7314 53.7893C66.7314 47.6103 71.7405 42.6013 77.9194 42.6013H99.5244C101.087 42.6013 102.354 43.868 102.354 45.4306V62.1479C102.354 63.7105 101.087 64.9772 99.5244 64.9772H77.9194C71.7405 64.9772 66.7314 59.9682 66.7314 53.7893Z" fill="white" stroke="#007CFF"/>
<circle cx="75.5821" cy="53.7893" r="3.11679" fill="#FFCC13"/>
</svg>
