<svg width="56" height="56" viewBox="0 0 56 56" fill="none" xmlns="http://www.w3.org/2000/svg">
<path d="M20.2758 13.5172H15.4483V8.68964C15.4483 8.15571 15.0157 7.72412 14.4827 7.72412C13.9498 7.72412 13.5172 8.15571 13.5172 8.68964V13.5172H8.68964C8.15667 13.5172 7.72412 13.9488 7.72412 14.4827C7.72412 15.0167 8.15667 15.4483 8.68964 15.4483H13.5172V20.2758C13.5172 20.8098 13.9498 21.2414 14.4827 21.2414C15.0157 21.2414 15.4483 20.8098 15.4483 20.2758V15.4483H20.2758C20.8088 15.4483 21.2414 15.0167 21.2414 14.4827C21.2414 13.9488 20.8088 13.5172 20.2758 13.5172Z" fill="#007CFF"/>
<path d="M47.3104 13.5171H35.7242C35.1912 13.5171 34.7587 13.9487 34.7587 14.4826C34.7587 15.0165 35.1912 15.4481 35.7242 15.4481H47.3104C47.8434 15.4481 48.2759 15.0165 48.2759 14.4826C48.2759 13.9487 47.8434 13.5171 47.3104 13.5171Z" fill="#007CFF"/>
<path d="M28.9655 0H27.0345H0V27.0345V28.9655V56H27.0345H28.9655H56V28.9655V27.0345V0H28.9655ZM1.93103 1.93103H27.0345V27.0345H1.93103V1.93103ZM1.93103 54.069V28.9655H27.0345V54.069H1.93103ZM54.069 54.069H28.9655V28.9655H54.069V54.069ZM28.9655 27.0345V1.93103H54.069V27.0345H28.9655Z" fill="#007CFF"/>
<path d="M35.7242 45.3793H47.3104C47.8434 45.3793 48.2759 44.9477 48.2759 44.4138C48.2759 43.8798 47.8434 43.4482 47.3104 43.4482H35.7242C35.1912 43.4482 34.7587 43.8798 34.7587 44.4138C34.7587 44.9477 35.1912 45.3793 35.7242 45.3793Z" fill="#007CFF"/>
<path d="M35.7242 39.5863H47.3104C47.8434 39.5863 48.2759 39.1547 48.2759 38.6208C48.2759 38.0869 47.8434 37.6553 47.3104 37.6553H35.7242C35.1912 37.6553 34.7587 38.0869 34.7587 38.6208C34.7587 39.1547 35.1912 39.5863 35.7242 39.5863Z" fill="#007CFF"/>
<path d="M19.993 36.0073C19.6155 35.6297 19.0053 35.6297 18.6278 36.0073L14.4828 40.1522L10.3378 36.0073C9.96031 35.6297 9.35011 35.6297 8.97259 36.0073C8.59507 36.3848 8.59507 36.995 8.97259 37.3725L13.1176 41.5175L8.97259 45.6624C8.59507 46.0399 8.59507 46.6502 8.97259 47.0277C9.16087 47.216 9.40804 47.3106 9.65521 47.3106C9.90238 47.3106 10.1496 47.216 10.3378 47.0277L14.4828 42.8827L18.6278 47.0277C18.816 47.216 19.0632 47.3106 19.3104 47.3106C19.5576 47.3106 19.8047 47.216 19.993 47.0277C20.3705 46.6502 20.3705 46.0399 19.993 45.6624L15.848 41.5175L19.993 37.3725C20.3705 36.995 20.3705 36.3848 19.993 36.0073Z" fill="#007CFF"/>
</svg>
