<svg xmlns="http://www.w3.org/2000/svg" viewBox="0 0 172.97 141.36">
  <title>Asset 4</title>
  <g id="Layer_2" data-name="Layer 2">
    <g id="Layer_1-2" data-name="Layer 1">
      <g>
        <rect x="3.6" y="3.6" width="134.38" height="86.18" rx="4.38" ry="4.38" style="fill: #fff"/>
        <path d="M8,0H133.59a8,8,0,0,1,8,8V85.39A8,8,0,0,1,139.23,91h0a8,8,0,0,1-5.64,2.34H8A8,8,0,0,1,2.34,91l-.25-.28A8,8,0,0,1,0,85.39V8A8,8,0,0,1,8,0ZM8,3.6A4.39,4.39,0,0,0,3.6,8V85.39A4.39,4.39,0,0,0,8,89.78H133.59A4.39,4.39,0,0,0,138,85.39V8a4.39,4.39,0,0,0-4.38-4.38Z" style="fill: #ffcb00;fill-rule: evenodd"/>
        <rect x="32.84" y="49.42" width="134.38" height="86.18" rx="4.38" ry="4.38" style="fill: #fff"/>
        <path d="M37.22,43.66H162.83A10.16,10.16,0,0,1,173,53.8v77.41a10.13,10.13,0,0,1-3,7.16h0a10.11,10.11,0,0,1-7.17,3H37.22a10.16,10.16,0,0,1-10.14-10.14V53.8A10.16,10.16,0,0,1,37.22,43.66Zm0,5.76a4.39,4.39,0,0,0-4.38,4.38v77.41a4.39,4.39,0,0,0,4.38,4.38H162.83a4.39,4.39,0,0,0,4.38-4.38V53.8a4.39,4.39,0,0,0-4.38-4.38Z" style="fill: #ffcb00;fill-rule: evenodd"/>
        <rect x="32.84" y="66.61" width="134.38" height="23.18" style="fill: #fff"/>
        <path d="M32.84,63H167.21a3.6,3.6,0,0,1,3.6,3.6V89.79a3.6,3.6,0,0,1-3.6,3.6H32.84a3.6,3.6,0,0,1-3.6-3.6V66.61a3.6,3.6,0,0,1,3.6-3.6Zm0,3.6V89.79H167.21V66.61Z" style="fill: #ffcb00;fill-rule: evenodd"/>
        <rect x="120.01" y="104.43" width="33.79" height="16.7" style="fill: #fff"/>
        <path d="M120,102.63H153.8a1.8,1.8,0,0,1,1.8,1.8v16.7a1.8,1.8,0,0,1-1.8,1.8H120a1.8,1.8,0,0,1-1.8-1.8v-16.7a1.8,1.8,0,0,1,1.8-1.8Zm32,3.6H121.81v13.1H152Z" style="fill: #ffcb00;fill-rule: evenodd"/>
        <path d="M107.56,103.13c.5,0,.9.81.9,1.8s-.4,1.8-.9,1.8H61.29c-.5,0-.9-.81-.9-1.8s.4-1.8.9-1.8Z" style="fill: #ffcb00;fill-rule: evenodd"/>
        <path d="M107.56,115.43c.5,0,.9.81.9,1.8s-.4,1.8-.9,1.8H61.29c-.5,0-.9-.81-.9-1.8s.4-1.8.9-1.8Z" style="fill: #ffcb00;fill-rule: evenodd"/>
      </g>
    </g>
  </g>
</svg>
