<svg width="54" height="72" viewBox="0 0 54 72" fill="none" xmlns="http://www.w3.org/2000/svg">
<path d="M44.8566 60.732H44.8566C40.8008 60.732 37.5129 57.6323 37.5129 53.8086V45.2708C37.5129 41.4471 40.8008 38.3474 44.8566 38.3474H44.8566C48.9123 38.3474 52.2002 41.4471 52.2002 45.2708V53.8086C52.2002 57.6323 48.9123 60.732 44.8566 60.732Z" fill="white" stroke="#6EBDFF" stroke-linecap="round" stroke-linejoin="round"/>
<path d="M9.14343 60.732H9.14342C5.08765 60.732 1.7998 57.6323 1.7998 53.8086V45.2708C1.7998 41.4471 5.08765 38.3474 9.14342 38.3474H9.14343C13.1992 38.3474 16.487 41.4471 16.487 45.2708V53.8086C16.487 57.6323 13.1992 60.732 9.14343 60.732Z" fill="white" stroke="#6EBDFF" stroke-linecap="round" stroke-linejoin="round"/>
<path d="M38.1223 46H15.8777C11.3386 46 7.73863 42.4463 8.0149 38.2383L10.371 7.87108C10.6245 4.01045 14.0695 1 18.2338 1H35.7661C39.9305 1 43.3755 4.01045 43.629 7.87108L45.9851 38.2383C46.2614 42.4463 42.6614 46 38.1223 46Z" fill="white" stroke="#6EBDFF" stroke-linecap="round" stroke-linejoin="round"/>
<path d="M41 61H13V71H41V61Z" fill="white" stroke="#6EBDFF" stroke-linecap="round" stroke-linejoin="round"/>
<path d="M44.6722 61H9.32776C5.28075 61 2 57.6421 2 53.5V53.5C2 49.3579 5.28075 46 9.32776 46H44.6722C48.7192 46 52 49.3579 52 53.5V53.5C52 57.6421 48.7192 61 44.6722 61Z" fill="white" stroke="#6EBDFF" stroke-linecap="round" stroke-linejoin="round"/>
<path d="M8.12097 71H45.879" stroke="#6EBDFF" stroke-linecap="round" stroke-linejoin="round"/>
<path d="M23.7076 14.1135C24.2802 14.4734 30.2923 20.3214 30.2923 20.3214" stroke="#FFCC13" stroke-linecap="round" stroke-linejoin="round"/>
<path d="M30.2923 14.1135C29.9106 14.6533 23.7076 20.3214 23.7076 20.3214" stroke="#FFCC13" stroke-linecap="round" stroke-linejoin="round"/>
<path d="M23.7076 27.9004C24.2802 28.2603 30.2923 34.1082 30.2923 34.1082" stroke="#FFCC13" stroke-linecap="round" stroke-linejoin="round"/>
<path d="M30.2923 27.9004C29.9106 28.4402 23.7076 34.1082 23.7076 34.1082" stroke="#FFCC13" stroke-linecap="round" stroke-linejoin="round"/>
</svg>
