<svg width="79" height="64" viewBox="0 0 79 64" fill="none" xmlns="http://www.w3.org/2000/svg">
<path d="M70.3 48H53.9875V56H70.3V48Z" stroke="#FFCC13" stroke-linecap="round" stroke-linejoin="round"/>
<path d="M47.4625 56H23.5375M47.4625 48H23.5375H47.4625Z" stroke="#FFCC13" stroke-linecap="round" stroke-linejoin="round"/>
<path d="M15.8978 41.4115H3.03503C1.93046 41.4115 1.03503 40.5161 1.03503 39.4115V2.94092C1.03503 1.83635 1.93046 0.940918 3.03503 0.940918H67.351C68.4556 0.940918 69.351 1.83635 69.351 2.94092V22.2222" stroke="#6EBDFF" stroke-linecap="round" stroke-linejoin="round"/>
<path d="M9.37695 30.6121H77.5392" stroke="#FFCC13" stroke-linecap="round" stroke-linejoin="round"/>
<path d="M9.37695 41.3801H77.5392" stroke="#FFCC13" stroke-linecap="round" stroke-linejoin="round"/>
<path d="M8.88745 24.3006V61.0326C8.88745 62.4187 9.64062 63.1111 11.1436 63.1111H75.757C77.2593 63.1111 78.0125 62.4187 78.0125 61.0326V24.3006C78.0125 22.917 77.2593 22.2222 75.757 22.2222H11.1436C9.64062 22.2222 8.88745 22.917 8.88745 24.3006Z" stroke="#6EBDFF" stroke-linecap="round" stroke-linejoin="round"/>
</svg>
