<svg width="53" height="52" viewBox="0 0 53 52" fill="none" xmlns="http://www.w3.org/2000/svg">
<path fill-rule="evenodd" clip-rule="evenodd" d="M26.4511 0.722168C32.5923 0.722168 38.2134 2.96221 42.5667 6.67636L47.4441 1.74433L51.5479 5.89578L46.5418 10.9577C49.6264 15.161 51.4508 20.3651 51.4508 26.0009C51.4508 39.961 40.2588 51.2777 26.4511 51.2777C12.6442 51.2777 1.45203 39.961 1.45203 26.0009C1.45203 12.0401 12.6442 0.722168 26.4511 0.722168Z" fill="white"/>
<path d="M26.4511 0.722168C32.5923 0.722168 38.2134 2.96221 42.5667 6.67636L47.4441 1.74433L51.5479 5.89578L46.5418 10.9577C49.6264 15.161 51.4508 20.3651 51.4508 26.0009C51.4508 39.961 40.2588 51.2777 26.4511 51.2777C12.6442 51.2777 1.45203 39.961 1.45203 26.0009C1.45203 12.0401 12.6442 0.722168 26.4511 0.722168Z" stroke="#6EBDFF" stroke-linecap="round" stroke-linejoin="round"/>
<path fill-rule="evenodd" clip-rule="evenodd" d="M26.5004 5.05566C37.9289 5.05566 47.1918 14.4333 47.1918 26.0001C47.1918 34.4715 42.1507 42.1086 34.4199 45.3499C26.6874 48.591 17.7875 46.8001 11.8691 40.8096C5.95225 34.8206 4.18123 25.8118 7.38333 17.9847C10.5871 10.1583 18.1328 5.05566 26.5004 5.05566Z" fill="white"/>
<path d="M26.5004 5.05566C37.9289 5.05566 47.1918 14.4333 47.1918 26.0001C47.1918 34.4715 42.1507 42.1086 34.4199 45.3499C26.6874 48.591 17.7875 46.8001 11.8691 40.8096C5.95225 34.8206 4.18123 25.8118 7.38333 17.9847C10.5871 10.1583 18.1328 5.05566 26.5004 5.05566Z" stroke="#FFCC12" stroke-linecap="round" stroke-linejoin="round"/>
<path d="M26.137 42.6111V39" stroke="#FFCC12" stroke-linecap="round" stroke-linejoin="round"/>
<path d="M34.8493 40.4444L32.6713 36.8333" stroke="#FFCC12" stroke-linecap="round" stroke-linejoin="round"/>
<path d="M17.4247 40.4444L19.6028 36.8333" stroke="#FFCC12" stroke-linecap="round" stroke-linejoin="round"/>
<path d="M40.6575 33.9444L37.7534 32.5" stroke="#FFCC12" stroke-linecap="round" stroke-linejoin="round"/>
<path d="M26.137 9.38892V26" stroke="#FFCC12" stroke-linecap="round" stroke-linejoin="round"/>
<path d="M18.1507 11.5557L19.6028 14.4446" stroke="#FFCC12" stroke-linecap="round" stroke-linejoin="round"/>
<path d="M11.6165 17.3333L15.2466 19.4999" stroke="#FFCC12" stroke-linecap="round" stroke-linejoin="round"/>
<path d="M11.6165 33.9444L15.2466 32.5" stroke="#FFCC12" stroke-linecap="round" stroke-linejoin="round"/>
<path fill-rule="evenodd" clip-rule="evenodd" d="M29.2684 27.411H42.9514C43.6865 27.411 44.2877 26.7992 44.2877 26.0506C44.2877 25.3033 43.6865 24.6897 42.9514 24.6897H29.3232C28.8533 23.7532 27.8973 23.1111 26.7942 23.1111C25.2286 23.1111 23.9589 24.404 23.9589 26.0001C23.9589 27.5954 25.2286 28.8889 26.7942 28.8889C27.8579 28.8889 28.7836 28.2921 29.2684 27.411Z" fill="white"/>
<path d="M29.2684 27.411H42.9514C43.6865 27.411 44.2877 26.7992 44.2877 26.0506C44.2877 25.3033 43.6865 24.6897 42.9514 24.6897H29.3232C28.8533 23.7532 27.8973 23.1111 26.7942 23.1111C25.2286 23.1111 23.9589 24.404 23.9589 26.0001C23.9589 27.5954 25.2286 28.8889 26.7942 28.8889C27.8579 28.8889 28.7836 28.2921 29.2684 27.411Z" stroke="#FFCC12"/>
</svg>
