<svg xmlns="http://www.w3.org/2000/svg" viewBox="0 0 169.7 169.39">
  <title>Asset 2</title>
  <g id="Layer_2" data-name="Layer 2">
    <g id="Layer_1-2" data-name="Layer 1">
      <g>
        <path d="M84.69,5.76a78.61,78.61,0,0,1,50.88,18.59L151,9l13,13L148.13,37.72a78.94,78.94,0,1,1-63.44-32Z" style="fill: #fff;fill-rule: evenodd"/>
        <path d="M84.69,0a84.48,84.48,0,0,1,50.42,16.66L146.91,4.88a5.76,5.76,0,0,1,8.14,0l13,13A5.76,5.76,0,0,1,168,26L155.6,38.39A84.68,84.68,0,1,1,84.69,0Zm0,5.76a78.93,78.93,0,1,0,63.44,32l15.81-15.81L151,9l-15.4,15.4A78.61,78.61,0,0,0,84.69,5.76Z" style="fill: #007cff;fill-rule: evenodd"/>
        <path d="M84.69,149.68a65,65,0,1,0-65-65A65.11,65.11,0,0,0,84.69,149.68Z" style="fill: #fff;fill-rule: evenodd"/>
        <path d="M84.69,17.79a66.91,66.91,0,1,1-47.31,19.6,66.7,66.7,0,0,1,47.31-19.6Zm44.6,22.31a63.07,63.07,0,1,0,18.47,44.6A62.87,62.87,0,0,0,129.29,40.1Z" style="fill: #007cff;fill-rule: evenodd"/>
        <path d="M86.38,137.16a1.68,1.68,0,1,1-3.37,0V125.35a1.68,1.68,0,1,1,3.37,0Z" style="fill: #007cff;fill-rule: evenodd"/>
        <path d="M112.38,129.3a1.68,1.68,0,1,1-2.91,1.67l-5.91-10.23a1.68,1.68,0,1,1,2.91-1.67Z" style="fill: #007cff;fill-rule: evenodd"/>
        <path d="M58.62,131a1.68,1.68,0,1,1-2.91-1.68l5.91-10.23a1.68,1.68,0,1,1,2.91,1.68Z" style="fill: #007cff;fill-rule: evenodd"/>
        <path d="M131,109.48a1.68,1.68,0,0,1-1.68,2.91l-10.23-5.91a1.68,1.68,0,0,1,1.68-2.91Z" style="fill: #007cff;fill-rule: evenodd"/>
        <path d="M137.16,83a1.68,1.68,0,0,1,0,3.37H125.35a1.68,1.68,0,0,1,0-3.37Z" style="fill: #007cff;fill-rule: evenodd"/>
        <path d="M83,32.23a1.68,1.68,0,1,1,3.37,0V84.69a1.68,1.68,0,1,1-3.37,0Z" style="fill: #007cff;fill-rule: evenodd"/>
        <path d="M57,40.1a1.68,1.68,0,1,1,2.91-1.68l5.91,10.23a1.68,1.68,0,0,1-2.91,1.68Z" style="fill: #007cff;fill-rule: evenodd"/>
        <path d="M38.42,59.91A1.68,1.68,0,0,1,40.09,57l10.23,5.91a1.68,1.68,0,0,1-1.67,2.91Z" style="fill: #007cff;fill-rule: evenodd"/>
        <path d="M32.23,86.38a1.68,1.68,0,0,1,0-3.37H44a1.68,1.68,0,0,1,0,3.37Z" style="fill: #007cff;fill-rule: evenodd"/>
        <path d="M40.09,112.38a1.68,1.68,0,0,1-1.67-2.91l10.23-5.91a1.68,1.68,0,0,1,1.67,2.91Z" style="fill: #007cff;fill-rule: evenodd"/>
        <path d="M92.46,89H135.4a4.2,4.2,0,0,0,4.19-4.19h0a4.2,4.2,0,0,0-4.19-4.19H92.63A8.9,8.9,0,1,0,92.46,89Z" style="fill: #fff;fill-rule: evenodd"/>
        <path d="M92.46,87.24H135.4a2.38,2.38,0,0,0,1.69-.7h0a2.39,2.39,0,0,0,.7-1.69h0a2.39,2.39,0,0,0-2.39-2.39H91.53l-.5-1a7.11,7.11,0,1,0-.13,6.69l.52-.92Zm42.94,3.6h-42A10.7,10.7,0,1,1,84.69,74a10.64,10.64,0,0,1,5.58,1.57,10.78,10.78,0,0,1,3.39,3.29H135.4a6,6,0,0,1,4.23,1.76h0a6,6,0,0,1,1.76,4.23h0a6,6,0,0,1-1.76,4.23h0A6,6,0,0,1,135.4,90.84Z" style="fill: #007cff;fill-rule: evenodd"/>
      </g>
    </g>
  </g>
</svg>
