<svg width="550" height="536" viewBox="0 0 550 536" fill="none" xmlns="http://www.w3.org/2000/svg">
<path d="M449.154 65.7455L449.5 66.0302L449.82 65.7174L502.436 14.4038L546.284 57.1842L492.289 109.841L491.972 110.15L492.24 110.501C525.673 154.44 545.445 208.838 545.445 267.748C545.445 413.667 424.145 531.978 274.469 531.978C124.802 531.978 3.5 413.667 3.5 267.748C3.49999 121.823 124.802 3.5 274.469 3.5C341.038 3.5 401.968 26.9181 449.154 65.7455Z" fill="white" stroke="#007CFF"/>
<path d="M274.469 3C341.157 3 402.198 26.4604 449.471 65.3594L502.436 13.7053L547 57.1843L492.638 110.199C526.134 154.221 545.945 208.724 545.945 267.748C545.945 413.955 424.41 532.478 274.469 532.478C124.538 532.478 3 413.955 3 267.748C2.99999 121.535 124.538 3 274.469 3Z" stroke="#007CFF" stroke-width="6" stroke-linecap="round" stroke-linejoin="round"/>
<path d="M274.469 50.2803C397.655 50.2803 497.476 147.66 497.476 267.748C497.476 355.7 443.151 434.999 359.827 468.656C276.483 502.313 180.558 483.714 116.773 421.512C53.0048 359.326 33.9212 265.791 68.4285 184.528C102.955 103.268 184.278 50.2803 274.469 50.2803Z" fill="white" stroke="#007CFF"/>
<path d="M274.469 49.7803C397.919 49.7803 497.976 147.372 497.976 267.748C497.976 355.91 443.522 435.388 360.015 469.12C276.489 502.85 180.353 484.213 116.424 421.87C52.5099 359.542 33.3794 265.788 67.9683 184.332C102.575 102.883 184.083 49.7803 274.469 49.7803Z" stroke="#6EBDFF" stroke-width="3" stroke-linecap="round" stroke-linejoin="round"/>
<path d="M274.469 443.72V404.104" stroke="#6EBDFF" stroke-width="2.5242" stroke-linecap="round" stroke-linejoin="round"/>
<path d="M274.469 131.387V91.7712" stroke="#007CFF" stroke-width="2.5242" stroke-linecap="round" stroke-linejoin="round"/>
<path d="M94.0208 267.746H134.644" stroke="#6EBDFF" stroke-width="5" stroke-linecap="round" stroke-linejoin="round"/>
<path d="M414.295 267.745H454.918" stroke="#FFCC13" stroke-width="1.2621" stroke-linecap="round" stroke-linejoin="round"/>
<path d="M364.69 420.139L344.381 385.831" stroke="#007CFF"/>
<path d="M364.69 420.139L344.381 385.831" stroke="#6EBDFF" stroke-width="2.18602" stroke-linecap="round" stroke-linejoin="round"/>
<path d="M430.753 355.736L395.571 335.925" stroke="#007CFF"/>
<path d="M430.753 355.736L395.571 335.925" stroke="#6EBDFF" stroke-width="5" stroke-linecap="round" stroke-linejoin="round"/>
<path d="M274.469 91.7712V267.749" stroke="#FFCC13" stroke-width="6" stroke-linecap="round" stroke-linejoin="round"/>
<path d="M184.24 115.356L204.557 149.664" stroke="#007CFF"/>
<path d="M184.24 115.356L204.557 149.664" stroke="#6EBDFF" stroke-width="5" stroke-linecap="round" stroke-linejoin="round"/>
<path d="M184.24 420.139L204.548 385.831" stroke="#6EBDFF" stroke-width="2.18602" stroke-linecap="round" stroke-linejoin="round"/>
<path d="M364.69 115.356L344.373 149.664" stroke="#FFCC13" stroke-width="5" stroke-linecap="round" stroke-linejoin="round"/>
<path d="M118.201 179.759L153.375 199.57" stroke="#007CFF"/>
<path d="M118.201 179.759L153.375 199.57" stroke="#6EBDFF" stroke-width="5" stroke-linecap="round" stroke-linejoin="round"/>
<path d="M118.201 355.736L153.375 335.925" stroke="#007CFF"/>
<path d="M301.172 282.329H448.842C456.775 282.329 463.264 276.007 463.264 268.27C463.264 260.547 456.775 254.206 448.842 254.206H301.763C296.692 244.528 286.374 237.892 274.469 237.892C257.573 237.892 243.87 251.253 243.87 267.748C243.87 284.234 257.573 297.602 274.469 297.602C285.949 297.602 295.939 291.435 301.172 282.329Z" fill="white" stroke="#FFCC13" stroke-width="6"/>
<path d="M430.731 179.76L395.551 199.565" stroke="#FFCC13" stroke-width="5" stroke-linecap="round" stroke-linejoin="round"/>
<path d="M118.198 355.735L153.379 335.921" stroke="#6EBDFF" stroke-width="5" stroke-linecap="round" stroke-linejoin="round"/>
</svg>
