<svg width="53" height="56" viewBox="0 0 53 56" fill="none" xmlns="http://www.w3.org/2000/svg">
<path d="M30.729 2.69269V46.5763C30.729 47.5708 29.9338 48.3834 28.9629 48.3834H3.38283C2.41327 48.3834 1.61853 47.5708 1.61853 46.5763V2.69269C1.61853 1.69816 2.41164 0.885986 3.38283 0.885986H28.9629C29.9338 0.885986 30.729 1.69999 30.729 2.69269Z" stroke="#6EBDFF" stroke-linecap="round" stroke-linejoin="round"/>
<path d="M27.5513 5.24707H4.7959V40.7714H27.5513V5.24707Z" stroke="#FFCC12" stroke-linecap="round" stroke-linejoin="round"/>
<path d="M11.8292 44.7525C11.8292 45.5782 12.2325 45.9894 13.0387 45.9894H19.3087C20.1147 45.9894 20.5161 45.5782 20.5161 44.7525C20.5161 43.9267 20.1147 43.5137 19.3087 43.5137H13.0387C12.2325 43.5137 11.8292 43.9267 11.8292 44.7525Z" stroke="#FFCC12" stroke-linecap="round" stroke-linejoin="round"/>
<path fill-rule="evenodd" clip-rule="evenodd" d="M27.411 51.0277L24.4443 47.9886C21.5671 45.0395 22.5234 41.4243 23.7 39.2028C23.8469 39.3529 23.5335 39.0855 23.7 39.2028L14.485 29.7652C13.1595 28.4078 13.1595 26.1863 14.485 24.8289C15.8117 23.4717 17.9801 23.4717 19.3052 24.8289L26.9818 32.692C27.0915 31.9917 27.4075 31.3213 27.9313 30.7848C29.0168 29.6729 30.6666 29.4723 31.9575 30.1816C32.1013 29.5846 32.3985 29.0196 32.852 28.5566C34.1018 27.2745 36.106 27.2045 37.4407 28.3426C37.5647 28.1523 37.7085 27.9699 37.8715 27.8027C39.1966 26.4452 41.3652 26.4452 42.6906 27.8027L49.4026 34.678C50.8452 36.0035 52.1344 38.9435 52.0969 42.845L39.3386 55.9136C39.3386 55.9136 32.5747 56.0304 27.411 51.0277Z" fill="white"/>
<path d="M27.3013 50.9096L24.3067 47.9172C21.4023 45.0135 22.3022 41.5866 23.4899 39.3992L14.2535 29.9738C12.9155 28.6372 12.9155 26.4499 14.2535 25.1134C15.5928 23.777 17.7816 23.777 19.1192 25.1134L26.868 32.8556C26.9788 32.1661 27.2978 31.506 27.8265 30.9777C28.9222 29.8829 30.5876 29.6854 31.8906 30.3838C32.0358 29.796 32.3358 29.2396 32.7935 28.7838C34.0551 27.5213 36.0782 27.4524 37.4255 28.5731C37.5507 28.3856 37.6958 28.2061 37.8604 28.0414C39.198 26.7048 41.387 26.7048 42.7248 28.0414L49.5001 34.8111C50.9563 36.1162 52.2577 39.0111 52.2198 42.8526L39.3951 55.1949C39.3951 55.1949 32.5137 55.8355 27.3013 50.9096Z" stroke="#6EBDFF" stroke-linecap="round" stroke-linejoin="round"/>
</svg>
