<svg width="123" height="95" viewBox="0 0 123 95" fill="none" xmlns="http://www.w3.org/2000/svg">
<path d="M11.8267 33.508C11.8267 27.9868 15.1888 23.022 20.3155 20.9725L48.4068 9.74295C56.4484 6.52829 65.4225 6.55278 73.4464 9.81129L100.861 20.9444C105.952 23.0117 109.282 27.958 109.282 33.4524V80.807C109.282 88.2629 103.238 94.3071 95.7817 94.3071H25.3267C17.8708 94.3071 11.8267 88.2629 11.8267 80.8071V33.508Z" fill="white" stroke="#007CFF"/>
<path d="M19.6685 45.8838C19.6685 42.8873 21.4521 40.1783 24.2048 38.9942L57.9349 24.4849C59.8427 23.6642 62.0052 23.6714 63.9075 24.5045L96.9493 38.9762C99.6777 40.1712 101.44 42.8675 101.44 45.8462V79.1284C101.44 83.2705 98.0826 86.6284 93.9404 86.6284H27.1685C23.0263 86.6284 19.6685 83.2705 19.6685 79.1284V45.8838Z" stroke="#FFCC13"/>
<path d="M78.4194 59.9061C78.4194 53.7272 83.4285 48.7181 89.6074 48.7181H111.212C112.775 48.7181 114.042 49.9849 114.042 51.5474V68.2648C114.042 69.8273 112.775 71.094 111.212 71.094H89.6074C83.4284 71.094 78.4194 66.085 78.4194 59.9061Z" fill="white" stroke="#007CFF"/>
<circle cx="87.2696" cy="59.9061" r="3.11679" fill="#FFCC13"/>
<path d="M2.62697 31.9956C1.55401 29.7066 2.57656 26.9831 4.89087 25.966L59.3345 2.03711C60.4979 1.52578 61.8232 1.5302 62.9832 2.04926L117.54 26.4626C119.813 27.4799 120.828 30.1499 119.804 32.4201L118.858 34.5187C117.84 36.7755 115.19 37.7864 112.928 36.7809L63.4434 14.7892C61.9917 14.1441 60.332 14.1581 58.8915 14.8277L10.1527 37.4824C7.90416 38.5276 5.23381 37.5568 4.18138 35.3117L2.62697 31.9956Z" fill="#BDDFFC" stroke="#007CFF"/>
</svg>
