<svg width="120" height="95" viewBox="0 0 120 95" fill="none" xmlns="http://www.w3.org/2000/svg">
<rect x="9.18366" y="25.9658" width="97.958" height="59.7774" rx="3.5" transform="rotate(-15 9.18366 25.9658)" fill="white" stroke="#007CFF"/>
<rect x="12.8999" y="35.7459" width="96.6197" height="13.2463" transform="rotate(-15 12.8999 35.7459)" fill="#BDDFFC"/>
<path d="M0.5 42.7524C0.5 35.2965 6.54416 29.2524 14 29.2524H84.4551C91.9109 29.2524 97.9551 35.2965 97.9551 42.7524V80.9699C97.9551 88.4258 91.9109 94.47 84.4551 94.47H14C6.54416 94.47 0.5 88.4258 0.5 80.97V42.7524Z" fill="white" stroke="#007CFF"/>
<path d="M7.47021 44.5939C7.47021 40.4518 10.8281 37.0939 14.9702 37.0939H82.6135C86.7556 37.0939 90.1135 40.4518 90.1135 44.5939V79.1284C90.1135 83.2705 86.7556 86.6284 82.6135 86.6284H14.9702C10.8281 86.6284 7.47021 83.2705 7.47021 79.1284V44.5939Z" stroke="#FFCC13"/>
<path d="M66.7314 62.2224C66.7314 56.0435 71.7405 51.0345 77.9194 51.0345H99.5244C101.087 51.0345 102.354 52.3012 102.354 53.8638V70.5811C102.354 72.1437 101.087 73.4104 99.5244 73.4104H77.9194C71.7405 73.4104 66.7314 68.4014 66.7314 62.2224Z" fill="white" stroke="#007CFF"/>
<circle cx="75.5821" cy="61.4928" r="3.11679" fill="#FFCC13"/>
</svg>
