<svg width="56" height="72" viewBox="0 0 56 72" fill="none" xmlns="http://www.w3.org/2000/svg">
<path d="M1.18372 35.1174V68.9051C1.18372 69.9522 2.03333 70.808 3.07373 70.808H48.1778C49.2177 70.808 50.0676 69.9522 50.0676 68.9051V35.1174H1.18372Z" stroke="#6EBDFF" stroke-linecap="round" stroke-linejoin="round"/>
<path d="M1.18372 3.09469V35.1178H50.0676V3.09469C50.0676 2.04752 49.2177 1.19177 48.1778 1.19177H3.07373C2.03333 1.19177 1.18372 2.04752 1.18372 3.09469Z" stroke="#6EBDFF" stroke-linecap="round" stroke-linejoin="round"/>
<path fill-rule="evenodd" clip-rule="evenodd" d="M6.44083 4.61536V27.0341C6.44083 31.4524 4.92117 34.4631 1.90698 35.2759H50.7911C53.8053 34.4631 55.3258 31.4524 55.3258 27.0341V4.61536H6.44083Z" fill="white"/>
<path d="M7.49831 5C6.94602 5 6.49831 5.44772 6.49831 6V26.9357C6.49831 31.2588 4.99055 34.2047 2 35H50.5009C53.4915 34.2047 55 31.2588 55 26.9357V6C55 5.44771 54.5523 5 54 5H7.49831Z" stroke="#6EBDFF" stroke-linecap="round" stroke-linejoin="round"/>
<path fill-rule="evenodd" clip-rule="evenodd" d="M7.44083 65.7369C6.88855 65.7369 6.44083 65.2892 6.44083 64.7369V43.3205C6.44083 38.9022 4.92117 35.8915 1.90698 35.0771H50.7911C53.8053 35.8915 55.3258 38.9022 55.3258 43.3205V65.7369H7.44083Z" fill="white"/>
<path d="M7.49831 66C6.94602 66 6.49831 65.5523 6.49831 65V43.3349C6.49831 38.8675 4.99055 35.8234 2 35H50.5009C53.4915 35.8234 55 38.8675 55 43.3349V65C55 65.5523 54.5523 66 54 66H7.49831Z" stroke="#6EBDFF" stroke-linecap="round" stroke-linejoin="round"/>
<path d="M25.1449 44.8693H13.542V60.9815H25.1449V44.8693Z" fill="white"/>
<path d="M48.2822 50.4864C48.5583 50.4864 48.7822 50.2625 48.7822 49.9864C48.7822 49.7103 48.5583 49.4864 48.2822 49.4864V50.4864ZM31.6142 49.4864C31.3381 49.4864 31.1142 49.7103 31.1142 49.9864C31.1142 50.2625 31.3381 50.4864 31.6142 50.4864V49.4864ZM48.2822 55.7618C48.5583 55.7618 48.7822 55.538 48.7822 55.2618C48.7822 54.9857 48.5583 54.7618 48.2822 54.7618V55.7618ZM31.6142 54.7618C31.3381 54.7618 31.1142 54.9857 31.1142 55.2618C31.1142 55.538 31.3381 55.7618 31.6142 55.7618V54.7618ZM48.2822 45.3783C48.5583 45.3783 48.7822 45.1544 48.7822 44.8783C48.7822 44.6021 48.5583 44.3783 48.2822 44.3783V45.3783ZM31.6142 44.3783C31.3381 44.3783 31.1142 44.6021 31.1142 44.8783C31.1142 45.1544 31.3381 45.3783 31.6142 45.3783V44.3783ZM14.542 45.3693H24.1449V44.3693H14.542V45.3693ZM24.6449 45.8693V59.9815H25.6449V45.8693H24.6449ZM24.1449 60.4815H14.542V61.4815H24.1449V60.4815ZM14.042 59.9815V45.8693H13.042V59.9815H14.042ZM48.2822 49.4864H31.6142V50.4864H48.2822V49.4864ZM48.2822 54.7618H31.6142V55.7618H48.2822V54.7618ZM48.2822 44.3783H31.6142V45.3783H48.2822V44.3783ZM14.542 60.4815C14.2658 60.4815 14.042 60.2577 14.042 59.9815H13.042C13.042 60.8099 13.7136 61.4815 14.542 61.4815V60.4815ZM24.6449 59.9815C24.6449 60.2577 24.421 60.4815 24.1449 60.4815V61.4815C24.9733 61.4815 25.6449 60.8099 25.6449 59.9815H24.6449ZM24.1449 45.3693C24.421 45.3693 24.6449 45.5931 24.6449 45.8693H25.6449C25.6449 45.0408 24.9733 44.3693 24.1449 44.3693V45.3693ZM14.542 44.3693C13.7136 44.3693 13.042 45.0408 13.042 45.8693H14.042C14.042 45.5931 14.2659 45.3693 14.542 45.3693V44.3693Z" fill="#FFCC13"/>
</svg>
