<svg width="1280" height="528" viewBox="0 0 1280 528" fill="none" xmlns="http://www.w3.org/2000/svg">
<mask id="mask0" mask-type="alpha" maskUnits="userSpaceOnUse" x="0" y="0" width="1280" height="528">
<rect width="1280" height="528" transform="matrix(-1 0 0 1 1280 0)" fill="#F5F8FC"/>
</mask>
<g mask="url(#mask0)">
<path d="M754.38 446.658L1073.98 392.762C1078.83 391.943 1082.07 387.518 1081.22 382.878L996.721 -75.4298C995.865 -80.0704 991.238 -83.169 986.386 -82.3507L666.786 -28.454C661.933 -27.6357 658.694 -23.2105 659.549 -18.5699L744.046 439.737C744.901 444.378 749.528 447.477 754.38 446.658Z" fill="white" stroke="#007CFF" stroke-width="6" stroke-miterlimit="10"/>
<path d="M902.332 147.004C898.691 144.892 894.166 145.717 891.705 146.924C893.041 144.635 896.709 142.323 897.842 141.927C898.792 142.096 901.811 144.176 902.332 147.004ZM910.384 134.355C906.353 124.093 881.863 135.473 868.046 133.156C868.367 136.291 873.528 140.532 877.928 141.681C872.047 148.615 867.954 161.278 869.312 175.677C865.442 161.702 857.067 151.141 849.061 146.549C852.785 144.03 856.121 138.356 855.299 135.305C843.144 142.003 816.061 139.32 815.94 150.282C815.917 152.602 817.677 155.834 819.079 156.612C819.167 155.863 819.877 153.343 823.376 152.215C841.059 146.526 861.164 170.747 849.468 183.883C849.29 184.082 849.464 184.366 849.746 184.319L890.795 177.396C891.074 177.349 891.136 177.026 890.9 176.896C875.209 168.378 885.44 139.041 904.091 138.603C907.785 138.518 909.351 140.655 909.7 141.329C910.74 140.14 911.238 136.527 910.384 134.355ZM910.312 109.255C909.801 108.307 920.448 106.485 921.624 112.862C922.412 117.135 916.413 120.234 917.231 124.669C917.612 126.734 920.214 127.858 920.927 127.737C917.974 120.894 925.446 123.476 927.524 124.498C922.117 115.538 930.326 114.216 928.71 109.961C927.582 106.988 920.628 109.116 917.763 107.998C912.679 106.015 905.289 96.2078 903.698 107.529C911.437 112.313 909.17 121.658 900.727 123.082C900.727 123.082 900.914 124.364 901.01 124.453C910.994 122.283 913.199 114.612 910.312 109.255ZM796.066 146.667C797.653 145.027 803.752 140.156 803.427 147.552C804.136 147.433 806.18 145.526 805.8 143.46C804.982 139.026 798.237 138.076 797.449 133.803C796.273 127.426 806.93 125.655 806.789 126.712C805.995 132.691 810.81 139.178 820.968 137.951C821.023 137.837 820.741 136.57 820.741 136.57C812.301 137.994 806.828 129.954 812.387 122.928C806.843 112.809 803.406 124.442 799.338 127.969C797.045 129.957 789.749 130.232 789.753 133.395C789.759 137.92 797.942 136.478 796.066 146.667ZM827.925 159.552C830.595 156.375 835.142 155.671 837.883 156.001C835.815 154.285 831.535 153.314 830.331 153.312C829.499 153.781 827.404 156.724 827.925 159.552ZM859.028 93.0997L853.059 88.1997L849.203 94.7566L855.227 99.957L859.028 93.0997ZM890.264 105.692L886.02 102.21L883.28 106.869L887.504 110.26L890.264 105.692ZM940.294 218.587L935.04 214.851L931.438 220.08L936.591 223.265L940.294 218.587ZM831.341 115.628L827.097 112.147L824.357 116.806L828.581 120.197L831.341 115.628ZM825.013 137.269L838.042 135.071C848.997 133.224 852.741 125.962 853.202 120.134L864.349 118.255C866.866 123.58 872.978 129.18 883.936 127.332L896.965 125.135C896.965 125.135 898.7 121.793 899.002 120.232C900.088 114.615 897.005 112.601 893.169 113.248L889.002 118.383L883.25 114.921C879.413 115.568 877.237 118.469 880.266 123.391C880.653 124.021 881.464 124.905 882.219 125.674C877.484 125.847 871.025 123.815 868.535 117.549C868.535 117.549 870.994 111.782 871.464 109.537C873.152 101.464 868.648 99.0405 862.895 100.011L857.007 109.614L848.04 102.516C842.287 103.486 838.922 107.237 843.398 114.27C844.639 116.226 849.016 120.84 849.016 120.84C848.913 127.544 843.57 131.566 839.059 132.953C839.497 131.982 839.94 130.887 840.078 130.169C841.161 124.552 838.085 122.537 834.245 123.185L830.078 128.32L824.326 124.857C820.486 125.505 818.317 128.405 821.343 133.328C822.184 134.696 825.013 137.269 825.013 137.269ZM966.844 153.179C964.553 154.821 951.018 163.92 931.666 164.662C931.706 163.765 931.707 162.868 931.684 161.975C943.998 158.415 953.847 154.65 959.724 150.085C966.423 144.878 967.931 134.892 962.887 128.502C962.757 128.341 962.482 128.355 962.375 128.526C960.737 131.134 950.297 146.753 930.714 154.364C930.473 153.357 930.194 152.371 929.869 151.398C938.766 144.369 947.278 136.565 950.833 130.14C956.205 120.428 953.557 109.642 945.923 105.203C945.759 105.106 945.537 105.18 945.467 105.345C943.984 108.997 929.987 142.559 910.903 159.247C910.712 159.416 910.454 159.636 910.196 159.852C909.647 160.314 909.721 161.09 910.329 161.457C913.203 163.187 915.294 165.917 915.906 169.235C916.97 175.004 913.204 180.587 907.25 182.664C904.233 183.77 899.693 184.362 895.109 183.723C894.903 183.696 894.724 183.853 894.759 184.04L898.128 202.313C898.182 202.607 898.663 202.601 898.722 202.301C900.125 195.186 907.745 192.44 911.191 191.859C913.746 198.779 917.051 204.311 920.515 207.004C926.155 211.379 933.794 210.016 936.455 205.885C936.546 205.742 936.477 205.555 936.307 205.499C934.159 204.756 921.795 200.086 917.583 189.727C918.411 189.288 919.211 188.814 919.963 188.286C924.615 193.378 930.793 197.571 935.37 198.798C943.058 200.855 949.256 198.179 951.256 192.933C951.329 192.748 951.163 192.56 950.948 192.577C946.501 192.981 932.365 191.562 924.979 183.542C925.528 182.856 926.06 182.147 926.54 181.407C933.34 184.761 942.528 187.19 948.743 186.954C956.015 186.681 963.662 183.157 962.4 175.226C962.375 175.067 962.203 174.962 962.03 175.001C959.531 175.573 942.945 179.087 929.83 174.558C930.105 173.738 930.347 172.908 930.563 172.066C930.563 172.066 949.309 173.099 957.587 170.314C965.814 167.547 969.663 160.668 967.319 153.314C967.258 153.132 967.009 153.06 966.844 153.179ZM810.221 192.36C810.725 193.081 811.253 193.781 811.805 194.461C801.103 203.004 784.268 205.132 781.705 205.411C781.525 205.431 781.403 205.592 781.434 205.747C783.088 213.608 791.531 214.419 798.462 212.298C804.383 210.487 812.151 205.198 817.342 199.822C818.061 200.359 818.811 200.853 819.573 201.318C815.497 211.271 802.724 217.228 798.401 218.302C798.192 218.357 798.107 218.587 798.238 218.737C801.994 223.013 808.775 223.5 815.267 219.052C819.126 216.402 823.432 210.441 825.983 204.134C826.881 204.384 827.803 204.568 828.734 204.711C828.481 215.823 818.532 224.255 816.779 225.656C816.643 225.764 816.642 225.963 816.779 226.067C820.756 229.078 828.426 227.86 832.161 221.904C834.453 218.24 835.577 211.961 835.503 204.623C838.953 204.041 847.092 204.129 850.955 210.356C851.121 210.618 851.575 210.467 851.521 210.173L848.152 191.9C848.117 191.713 847.89 191.624 847.706 191.717C843.627 193.817 839.149 194.745 835.922 194.693C829.58 194.689 824.045 190.675 822.982 184.905C822.37 181.587 823.362 178.335 825.44 175.77C825.885 175.228 825.673 174.475 824.995 174.22C824.672 174.102 824.351 173.98 824.108 173.884C800.222 164.449 775.081 137.509 772.36 134.544C772.234 134.405 771.993 134.413 771.87 134.558C766.294 141.228 767.66 152.227 776.181 159.593C781.819 164.467 792.608 169.017 803.479 172.712C803.524 173.732 803.612 174.751 803.749 175.775C782.643 175.029 767.261 163.788 764.766 161.86C764.6 161.729 764.33 161.807 764.268 162C761.821 169.656 766.808 178.541 774.958 181.243C782.114 183.611 792.715 183.927 805.559 183.245C805.857 184.091 806.179 184.934 806.537 185.764C788.107 191.39 772.143 187.282 769.382 186.482C769.176 186.422 768.969 186.575 768.98 186.768C769.411 194.445 775.483 199.644 784.203 199.553C792.975 199.463 810.221 192.36 810.221 192.36ZM937.655 229.038L930.189 225.209C927.847 227.14 926.36 229.83 926.125 232.73C922.278 233.924 911.104 233.453 911.871 231.762C920.733 213.921 909.978 206.003 899.241 208.355L901.204 219.002C901.835 222.421 899.225 225.718 895.382 226.366L887.901 227.628C882.534 228.533 879.992 234.281 879.992 234.281C879.992 234.281 875.547 229.711 870.181 230.616L862.699 231.878C858.852 232.526 855.228 230.281 854.598 226.861L852.635 216.214C841.704 217.516 834.423 228.476 849.134 242.342C850.446 243.666 839.837 247.931 834.54 248.198C832.925 247.074 830.797 246.553 828.592 246.925C827.62 247.088 826.727 247.415 825.931 247.859C825.931 247.859 802.157 232.848 801.751 232.73L801.85 232.329C802.628 230.058 800.435 228.096 799.341 228.443C800.37 226.727 799.223 220.166 791.708 219.871C792.162 221.152 792.765 223.819 792.765 223.819C792.765 223.819 786.647 221.873 784.303 224.838C782.352 228.044 786.705 232.528 786.705 232.528C786.705 232.528 783.859 233.076 782.429 233.2C785.736 239.55 792.595 237.904 793.854 236.329C793.953 237.411 796.745 238.506 798.649 236.929L799.504 236.338C799.707 236.522 822.855 251.105 822.855 251.105C822.182 252.552 822.041 254.213 822.652 255.855C823.61 258.42 826.318 260.223 829.365 260.296C831.516 260.345 833.399 259.629 834.804 258.489L840.916 262.266C841.458 262.592 842.137 262.738 842.834 262.572C844.103 262.273 844.881 261.114 844.573 259.989C844.438 259.48 844.081 259.084 843.639 258.812C843.538 258.738 837.411 254.951 837.411 254.951C841.218 251.305 848.933 247.887 855.651 246.754C856.831 246.555 857.21 245.507 856.631 244.639C852.297 238.152 857.905 231.978 865.435 234.965C868.719 236.267 872.372 239.307 875.722 244.841C865.09 249.285 852.453 258.722 851.057 266.931C850.522 270.101 854.86 273.566 859.369 273.651C859.54 273.658 859.679 273.527 859.682 273.373C859.829 261.444 871.226 250.651 877.711 248.05C878.211 248.863 878.048 248.6 878.548 249.41C871.804 253.978 865.963 262.2 865.464 270.888C865.234 274.866 870.324 277.56 874.176 277.882C874.37 277.898 874.529 277.744 874.507 277.572C873.261 266.902 876.481 257.119 880.094 252.306C880.356 253.07 880.595 253.859 880.806 254.661C880.806 254.661 878.533 267.324 880.135 276.013C880.88 280.055 887.681 281.818 888.682 282.057C889.769 281.466 895.527 277.585 894.781 273.543C893.179 264.854 886.515 253.698 886.515 253.698C886.429 252.875 886.368 252.057 886.345 251.252C891.458 254.594 897.985 262.729 900.626 273.164C900.668 273.333 900.876 273.428 901.049 273.35C904.557 271.787 908.374 267.591 906.738 263.927C903.158 255.927 894.733 250.111 886.762 248.024C886.939 247.101 886.88 247.401 887.059 246.474C894.087 246.796 908.652 253.211 913.057 264.372C913.115 264.515 913.295 264.593 913.45 264.531C917.654 262.977 920.497 258.3 918.854 255.498C914.614 248.239 899.36 243.506 887.78 242.807C888.952 236.511 891.298 232.459 893.918 230.161C899.923 224.893 907.401 228.86 905.648 236.373C905.414 237.378 906.141 238.24 907.325 238.04C914.924 236.759 924.769 237.806 929.124 240.701C932.117 243.699 936.892 245.134 941.743 243.837C947.254 242.366 951.084 237.565 950.798 232.477C950.545 228.019 947.462 224.498 943.306 222.997L937.655 229.038ZM883.464 205.389C885.648 204.166 889.434 204.22 889.904 207.467C890.009 208.203 891.081 208.022 891.021 207.262C890.83 202.314 887.16 201.498 883.694 202.666C882.944 201.081 882.313 199.69 881.634 198.321C881.09 197.212 880.566 195.047 881.975 194.809C882.735 194.681 882.804 196.767 882.895 197.655C882.972 198.434 883.347 198.85 884.004 198.762C884.413 198.71 884.83 198.127 885.072 197.747C886.708 195.192 886.551 191.689 883.853 190.442C881.594 189.394 876.767 191.271 875.752 193.478C875.407 192.77 874.185 191.71 873.609 191.256C873.049 190.812 872.862 190.475 873.42 189.908C873.681 189.636 874.436 188.612 874.27 187.714C874.172 187.182 873.561 186.274 872.192 186.505C871.113 186.687 870.044 187.604 870.338 189.199C870.404 189.553 870.564 189.917 870.878 190.285C870.176 190.292 868.331 190.649 867.421 191.034L886.945 223.347C890.383 220.934 892.625 217.653 892.068 214.633C891.593 212.058 887.786 213.58 886.23 215.914C885.009 212.754 883.902 209.833 882.746 206.929C882.429 206.128 882.814 205.757 883.464 205.389ZM860.535 185.069L864.653 191.948C862.385 192.885 858.883 195.178 859.286 197.363C859.823 200.273 865.555 201.26 868.627 200.507C868.595 201.198 868.882 201.759 869.466 202.219C868.336 202.409 866.297 203.271 865.731 204.111C863.808 202.918 861.128 202.819 860.065 203.921C858.998 205.031 859.242 206.565 860.848 208.075C861.967 209.119 862.52 210.242 861.767 211.798C865.52 211.165 863.277 206.732 864.747 206.484C864.722 207.421 865.033 208.449 865.674 209.537C866.098 210.262 866.199 210.809 865.852 211.634C864.983 213.688 863.884 218.257 864.848 222.057C863.616 222.258 862.938 222.076 863.075 220.396C863.126 219.771 862.661 219.409 862.286 220.232C861.871 221.14 861.854 222.575 861.964 223.17C862.595 226.592 866.986 226.563 868.479 225.564C873.99 229.127 883.023 226.405 885.85 224.422L861.692 184.444C861.211 183.693 860.088 184.28 860.535 185.069ZM866.459 220.357C865.798 218.655 867.777 215.079 870.473 211.497C870.145 213.591 871.203 216.925 872.778 217.869C870.417 218.267 867.691 219.164 866.459 220.357Z" fill="#6EBDFF"/>
<path d="M736.042 22.4689C736.417 24.4981 735.981 26.1818 734.733 27.519C733.486 28.856 731.515 29.7525 728.818 30.2073L726.351 30.6233L727.805 38.5099L725.367 38.9211L721.67 18.8665L727.106 17.9497C732.345 17.0662 735.324 18.5726 736.042 22.4689ZM725.982 28.6201L728.177 28.2501C730.338 27.8856 731.839 27.2877 732.682 26.4576C733.524 25.6276 733.81 24.4765 733.538 23.0031C733.294 21.6773 732.658 20.7668 731.63 20.2701C730.602 19.7748 729.128 19.6892 727.206 20.0133L724.48 20.4729L725.982 28.6201Z" fill="#FFCC13"/>
<path d="M763.804 22.0708C764.396 25.2811 764.014 27.9482 762.655 30.0727C761.297 32.1969 759.107 33.5139 756.085 34.0236C752.996 34.5444 750.448 34.043 748.436 32.5197C746.425 30.9964 745.117 28.589 744.51 25.2962C743.908 22.0324 744.283 19.359 745.634 17.2791C746.986 15.1976 749.21 13.8958 752.307 13.3734C755.319 12.8656 757.841 13.3834 759.87 14.9276C761.899 16.4717 763.21 18.8518 763.804 22.0708ZM747.096 24.8883C747.597 27.605 748.581 29.5628 750.049 30.7628C751.518 31.9626 753.405 32.3668 755.708 31.9784C758.032 31.5864 759.657 30.5915 760.584 28.9921C761.513 27.3939 761.726 25.2313 761.224 22.5059C760.726 19.808 759.757 17.8627 758.32 16.6665C756.882 15.4717 755.006 15.0689 752.692 15.4591C750.369 15.8508 748.732 16.8506 747.78 18.4588C746.83 20.0666 746.602 22.2092 747.096 24.8883Z" fill="#FFCC13"/>
<path d="M780.352 10.8235C778.047 11.2122 776.363 12.2528 775.301 13.9452C774.237 15.638 773.94 17.7594 774.41 20.3111C774.894 22.9367 775.911 24.8559 777.461 26.069C779.011 27.2835 780.976 27.6895 783.358 27.2878C784.82 27.0412 786.443 26.5093 788.224 25.6897L788.6 27.7334C787.244 28.4994 785.499 29.0638 783.366 29.4234C780.277 29.9443 777.73 29.4486 775.721 27.9398C773.713 26.431 772.405 24.0251 771.796 20.7236C771.415 18.6568 771.484 16.7783 772.005 15.0875C772.527 13.3968 773.473 12.003 774.843 10.9034C776.213 9.80526 777.931 9.0814 779.996 8.73304C782.195 8.36222 784.188 8.4231 785.973 8.91305L785.31 11.0902C783.591 10.6444 781.938 10.5561 780.352 10.8235Z" fill="#FFCC13"/>
<path d="M803.289 6.95562C800.984 7.34431 799.3 8.38491 798.237 10.0774C797.173 11.7702 796.876 13.8917 797.347 16.4434C797.831 19.069 798.848 20.9883 800.398 22.2014C801.948 23.416 803.912 23.8219 806.294 23.4202C807.756 23.1737 809.379 22.6418 811.16 21.8221L811.537 23.8658C810.18 24.6319 808.435 25.1963 806.303 25.5559C803.214 26.0768 800.666 25.5811 798.658 24.0723C796.649 22.5634 795.341 20.1574 794.732 16.8559C794.351 14.789 794.42 12.9105 794.942 11.2197C795.463 9.52891 796.409 8.13515 797.779 7.03551C799.15 5.93733 800.867 5.21345 802.933 4.86508C805.132 4.49426 807.125 4.55514 808.91 5.0451L808.247 7.22234C806.528 6.7765 804.875 6.68816 803.289 6.95562Z" fill="#FFCC13"/>
<path d="M816.944 2.79932L819.224 2.41471L821.28 13.5668C821.66 15.625 821.935 17.4978 822.109 19.1847L822.224 19.1653L830.898 0.446004L833.566 -0.00393458L837.264 20.051L834.97 20.4379L832.934 9.39581C832.595 7.55763 832.319 5.61475 832.11 3.56519L831.98 3.58714L823.309 22.4043L820.641 22.8542L816.944 2.79932Z" fill="#FFCC13"/>
<path d="M843.738 -1.71922L846.018 -2.10382L848.074 9.048C848.454 11.1061 848.729 12.9789 848.903 14.6658L849.018 14.6464L857.692 -4.07248L860.36 -4.52241L864.058 15.532L861.764 15.9189L859.728 4.87712C859.389 3.03899 859.113 1.09615 858.904 -0.953361L858.774 -0.931414L850.103 17.8853L847.435 18.3352L843.738 -1.71922ZM852.133 -4.78854C850.364 -4.4902 849.013 -4.59961 848.08 -5.11676C847.146 -5.63392 846.494 -6.63418 846.122 -8.11756L848.359 -8.49476C848.62 -7.55839 849.003 -6.9394 849.508 -6.63804C850.011 -6.33642 850.804 -6.27612 851.885 -6.45834C852.87 -6.62448 853.561 -6.94842 853.96 -7.43066C854.36 -7.9129 854.529 -8.61151 854.47 -9.52528L856.722 -9.90503C856.873 -8.44118 856.586 -7.29597 855.86 -6.47203C855.135 -5.6469 853.892 -5.08509 852.133 -4.78854Z" fill="#FFCC13"/>
<path d="M879.815 -5.94917C877.51 -5.56048 875.826 -4.5199 874.763 -2.82742C873.699 -1.13468 873.402 0.986821 873.873 3.53854C874.357 6.16408 875.374 8.08339 876.924 9.29647C878.474 10.511 880.439 10.9169 882.821 10.5152C884.282 10.2687 885.905 9.7368 887.686 8.91716L888.063 10.9609C886.706 11.7269 884.961 12.2913 882.829 12.6509C879.74 13.1718 877.193 12.6761 875.184 11.1673C873.175 9.65848 871.867 7.25249 871.259 3.95103C870.878 1.88418 870.946 0.00562281 871.468 -1.68514C871.989 -3.3759 872.935 -4.76965 874.306 -5.86928C875.676 -6.96745 877.393 -7.69132 879.459 -8.03968C881.658 -8.41051 883.651 -8.34962 885.436 -7.85967L884.773 -5.68245C883.054 -6.12829 881.401 -6.21663 879.815 -5.94917Z" fill="#FFCC13"/>
<path d="M912.225 7.4096L909.271 7.90778L897.701 -0.622029L899.575 9.54292L897.137 9.95407L893.439 -10.1008L895.877 -10.512L897.668 -0.800056L905.328 -12.1058L908.127 -12.5777L900.642 -1.27328L912.225 7.4096Z" fill="#FFCC13"/>
<path d="M932.695 3.95773L928.91 -1.98084L920.504 -0.5634L919.099 6.25054L916.632 6.66653L921.209 -14.8687L923.26 -15.2146L935.219 3.53204L932.695 3.95773ZM927.761 -3.95115L924.178 -9.75356C923.718 -10.4864 923.215 -11.3969 922.67 -12.4839C922.621 -11.5699 922.498 -10.5552 922.3 -9.43684L920.979 -2.8073L927.761 -3.95115Z" fill="#FFCC13"/>
<path d="M947.191 -7.11412L943.24 2.17965L940.357 2.66583L944.622 -7.09131C942.997 -7.29781 941.747 -7.81528 940.875 -8.64422C940.002 -9.47315 939.432 -10.6097 939.166 -12.0542C938.835 -13.8475 939.229 -15.3347 940.348 -16.5188C941.466 -17.7012 943.338 -18.5154 945.968 -18.959L951.734 -19.9313L955.432 0.123647L952.993 0.534796L951.451 -7.83255L947.191 -7.11412ZM949.668 -17.5025L946.411 -16.9533C944.662 -16.6583 943.386 -16.1462 942.584 -15.417C941.781 -14.6876 941.5 -13.6745 941.739 -12.3762C942.23 -9.71448 944.288 -8.69008 947.911 -9.30106L951.082 -9.83573L949.668 -17.5025Z" fill="#FFCC13"/>
<path d="M747.393 44.795L749.859 44.379L750.315 46.8483L751.318 46.679C752.954 46.4032 754.428 46.4755 755.743 46.8955C757.057 47.314 758.138 48.0376 758.982 49.0638C759.827 50.0913 760.384 51.3317 760.652 52.7848C760.931 54.3031 760.825 55.715 760.331 57.0191C759.836 58.3233 759.026 59.3778 757.897 60.18C756.767 60.9839 755.362 61.5269 753.679 61.8106L753.092 61.9097L753.661 64.9969L751.194 65.4129L750.625 62.3257L749.979 62.4346C748.296 62.7184 746.783 62.6631 745.438 62.2676C744.093 61.872 742.963 61.1389 742.044 60.0671C741.128 58.9964 740.534 57.725 740.263 56.2516C739.996 54.8071 740.081 53.4631 740.517 52.2211C740.954 50.9774 741.715 49.9371 742.803 49.0985C743.89 48.26 745.251 47.7022 746.887 47.4263L747.848 47.2642L747.393 44.795ZM748.217 49.2674L747.4 49.4052C745.66 49.6987 744.379 50.4146 743.558 51.5516C742.738 52.6897 742.482 54.0954 742.79 55.7686C743.123 57.5706 743.911 58.8777 745.155 59.6917C746.399 60.5043 747.987 60.7483 749.918 60.4227L750.263 60.3645L748.217 49.2674ZM752.73 59.9485L753.089 59.888C755.011 59.5639 756.412 58.8112 757.293 57.6299C758.175 56.4484 758.451 54.9662 758.122 53.183C757.811 51.4925 757.074 50.2482 755.912 49.4547C754.75 48.6613 753.284 48.413 751.516 48.7111L750.684 48.8514L752.73 59.9485Z" fill="#FFCC13"/>
<path d="M783.072 59.7537L771.383 61.725L767.686 41.6699L779.375 39.6986L779.757 41.7699L770.505 43.33L771.697 49.7912L780.388 48.3255L780.767 50.3837L772.076 51.8494L773.436 59.2282L782.688 57.668L783.072 59.7537Z" fill="#FFCC13"/>
<path d="M809.625 60.6647L807.302 61.0564L806.339 55.83L791.766 58.2874L792.73 63.5138L790.407 63.9056L789.054 56.5675L790.675 56.2941C791.709 53.6767 792.439 50.5839 792.86 47.0147C793.282 43.4455 793.29 40.2475 792.888 37.4202L802.311 35.831L805.619 53.7739L808.272 53.3266L809.625 60.6647ZM803.181 54.1851L800.26 38.3408L795.484 39.1463C795.719 41.3884 795.632 44.1447 795.219 47.4154C794.806 50.6861 794.142 53.5022 793.228 55.8636L803.181 54.1851Z" fill="#FFCC13"/>
<path d="M828.285 52.1286L816.596 54.0998L812.899 34.0454L824.588 32.0742L824.97 34.1453L815.719 35.7054L816.91 42.1664L825.601 40.7007L825.98 42.7589L817.289 44.2245L818.65 51.6031L827.901 50.043L828.285 52.1286Z" fill="#FFCC13"/>
<path d="M848.013 34.1501C848.387 36.1793 847.952 37.863 846.703 39.2003C845.457 40.5373 843.486 41.4338 840.789 41.8886L838.322 42.3046L839.776 50.1913L837.338 50.6024L833.641 30.5476L839.077 29.6309C844.316 28.7473 847.295 30.2537 848.013 34.1501ZM837.953 40.3014L840.147 39.9313C842.308 39.5669 843.81 38.9689 844.652 38.1388C845.495 37.3088 845.781 36.1578 845.509 34.6843C845.264 33.3585 844.628 32.448 843.601 31.9512C842.573 31.4559 841.098 31.3703 839.176 31.6945L836.451 32.1541L837.953 40.3014Z" fill="#FFCC13"/>
<path d="M872.609 44.6538L868.824 38.7153L860.418 40.1328L859.013 46.9466L856.546 47.3626L861.123 25.8276L863.174 25.4818L875.133 44.2282L872.609 44.6538ZM867.676 36.745L864.092 30.9427C863.632 30.2099 863.129 29.2993 862.584 28.2123C862.535 29.1264 862.412 30.1411 862.214 31.2594L860.893 37.8889L867.676 36.745Z" fill="#FFCC13"/>
<path d="M897.68 38.2489L900.147 37.8329L901.5 45.1712L899.19 45.5607L898.227 40.3341L882.421 42.9996L878.724 22.9446L881.162 22.5334L884.47 40.4767L895.241 38.6603L891.932 20.7171L894.372 20.3057L897.68 38.2489Z" fill="#FFCC13"/>
<path d="M904.802 18.5469L907.083 18.1623L909.139 29.3141C909.518 31.3722 909.793 33.245 909.967 34.9319L910.082 34.9125L918.757 16.1936L921.425 15.7437L925.122 35.7982L922.828 36.1851L920.792 25.1432C920.453 23.3051 920.178 21.3622 919.969 19.3127L919.838 19.3347L911.168 38.1514L908.5 38.6014L904.802 18.5469Z" fill="#FFCC13"/>
<path d="M939.947 24.6712L935.996 33.9648L933.113 34.451L937.378 24.694C935.753 24.4875 934.502 23.97 933.63 23.1411C932.758 22.3122 932.188 21.1756 931.922 19.7311C931.591 17.9378 931.985 16.4507 933.104 15.2666C934.222 14.0842 936.094 13.27 938.724 12.8264L944.49 11.8541L948.187 31.9089L945.749 32.32L944.207 23.9528L939.947 24.6712ZM942.424 14.2829L939.167 14.8321C937.418 15.1271 936.142 15.6392 935.34 16.3684C934.537 17.0978 934.256 18.1108 934.495 19.4091C934.986 22.0708 937.044 23.0952 940.667 22.4843L943.837 21.9496L942.424 14.2829Z" fill="#FFCC13"/>
<path d="M808.863 395.018L802.259 396.132L797.722 371.522L786.224 373.461L790.761 398.071L784.136 399.188L778.626 369.305L803.354 365.135L808.863 395.018Z" fill="#FFCC13"/>
<path d="M842.443 389.356L838.866 382.625L827.474 384.546L826.52 392.041L819.382 393.245L824.878 361.379L832.978 360.013L849.581 388.152L842.443 389.356ZM836.304 377.577C833.022 371.485 831.171 368.039 830.751 367.238C830.332 366.438 830.02 365.802 829.816 365.331C829.667 367.154 829.116 371.694 828.162 378.951L836.304 377.577Z" fill="#FFCC13"/>
<path d="M868.736 359.104C866.242 359.525 864.477 360.746 863.439 362.769C862.402 364.792 862.178 367.404 862.769 370.606C863.997 377.27 867.226 380.161 872.455 379.279C874.649 378.909 877.21 377.936 880.137 376.361L881.117 381.675C878.74 383.129 875.971 384.123 872.808 384.657C868.262 385.423 864.543 384.691 861.649 382.46C858.755 380.23 856.853 376.648 855.943 371.715C855.371 368.608 855.46 365.787 856.212 363.25C856.964 360.714 858.332 358.635 860.318 357.015C862.304 355.394 864.786 354.333 867.763 353.831C870.798 353.319 873.977 353.507 877.299 354.394L876.111 359.905C874.845 359.57 873.584 359.305 872.329 359.11C871.073 358.914 869.875 358.912 868.736 359.104Z" fill="#FFCC13"/>
<path d="M919.263 376.401L912.659 377.515L908.122 352.905L896.624 354.844L901.161 379.454L894.536 380.571L889.026 350.688L913.754 346.518L919.263 376.401Z" fill="#FFCC13"/>
<path d="M959.315 354.198C960.227 359.145 959.645 363.163 957.57 366.253C955.496 369.342 952.065 371.291 947.277 372.098C942.49 372.906 938.569 372.197 935.514 369.972C932.46 367.747 930.474 364.148 929.557 359.174C928.64 354.201 929.226 350.185 931.314 347.128C933.402 344.072 936.847 342.138 941.648 341.329C946.45 340.519 950.366 341.221 953.397 343.436C956.427 345.651 958.4 349.238 959.315 354.198ZM936.51 358.044C937.126 361.383 938.252 363.785 939.889 365.251C941.525 366.717 943.661 367.228 946.297 366.784C951.583 365.892 953.607 362.088 952.369 355.37C951.127 348.638 947.878 345.715 942.621 346.602C939.985 347.047 938.154 348.23 937.127 350.152C936.1 352.075 935.895 354.705 936.51 358.044Z" fill="#FFCC13"/>
<path d="M992.912 342.779C993.505 345.995 992.908 348.632 991.12 350.689C989.333 352.747 986.501 354.103 982.626 354.757L979.783 355.236L981.743 365.865L975.117 366.982L969.608 337.098L979.589 335.415C983.379 334.776 986.404 335.07 988.665 336.298C990.926 337.525 992.342 339.686 992.912 342.779ZM978.826 350.044L981.006 349.676C983.043 349.333 984.497 348.691 985.367 347.75C986.236 346.81 986.535 345.604 986.264 344.132C985.99 342.647 985.364 341.621 984.386 341.055C983.407 340.49 982.013 340.36 980.204 340.665L977.19 341.173L978.826 350.044Z" fill="#FFCC13"/>
<path d="M1021.22 359.207L1014.6 360.325L1010.06 335.715L1001.57 337.146L1000.6 331.872L1024.2 327.893L1025.17 333.167L1016.68 334.598L1021.22 359.207Z" fill="#FFCC13"/>
<path d="M1151.17 588.534L825.835 532.322C821.442 531.563 818.398 527.539 819.217 523.202L856.207 327.377C857.001 323.176 861.209 320.265 865.743 321.048L1191.08 377.26C1195.47 378.019 1198.52 382.043 1197.7 386.38L1160.68 582.34C1159.75 586.517 1155.57 589.293 1151.17 588.534Z" fill="white" stroke="#007CFF" stroke-width="6" stroke-miterlimit="10"/>
<path d="M866.324 475.225C865.812 477.935 865.003 479.894 863.755 481.078C862.507 482.262 861.104 482.719 859.261 482.401C857.419 482.083 856.272 481.185 855.536 479.658C854.8 478.132 854.759 476.025 855.271 473.315C855.783 470.605 856.592 468.645 857.698 467.437C858.805 466.229 860.35 465.796 862.192 466.114C864.034 466.433 865.181 467.331 865.917 468.857C866.769 470.544 866.81 472.65 866.324 475.225ZM857.255 473.658C856.82 475.962 856.796 477.637 857.158 478.819C857.52 480.001 858.268 480.69 859.543 480.91C860.818 481.131 861.771 480.735 862.542 479.749C863.314 478.763 863.905 477.186 864.34 474.882C864.775 472.578 864.799 470.903 864.437 469.721C864.075 468.539 863.327 467.85 862.052 467.63C860.776 467.409 859.824 467.804 859.052 468.791C858.281 469.777 857.69 471.354 857.255 473.658Z" fill="#FFCC13"/>
<path d="M883.044 478.113C882.532 480.823 881.723 482.782 880.475 483.966C879.228 485.15 877.824 485.607 875.982 485.289C874.14 484.971 872.993 484.073 872.257 482.546C871.521 481.02 871.48 478.913 871.992 476.203C872.504 473.493 873.313 471.533 874.419 470.325C875.525 469.117 877.07 468.684 878.912 469.002C880.754 469.321 881.902 470.219 882.638 471.745C883.348 473.407 883.531 475.538 883.044 478.113ZM873.976 476.546C873.541 478.85 873.517 480.525 873.879 481.707C874.241 482.889 874.989 483.578 876.264 483.798C877.539 484.019 878.492 483.623 879.263 482.637C880.035 481.651 880.625 480.074 881.061 477.77C881.496 475.466 881.52 473.791 881.158 472.609C880.796 471.427 880.048 470.738 878.773 470.518C877.497 470.297 876.545 470.692 875.773 471.679C875.002 472.665 874.411 474.242 873.976 476.546Z" fill="#FFCC13"/>
<path d="M899.623 480.977C899.112 483.688 898.302 485.647 897.055 486.831C895.807 488.014 894.403 488.472 892.561 488.153C890.719 487.835 889.572 486.937 888.836 485.411C888.1 483.884 888.059 481.778 888.571 479.068C889.083 476.357 889.892 474.398 890.998 473.19C892.105 471.981 893.649 471.549 895.492 471.867C897.334 472.185 898.481 473.083 899.217 474.61C900.069 476.296 900.11 478.402 899.623 480.977ZM890.697 479.435C890.261 481.739 890.238 483.414 890.6 484.596C890.962 485.778 891.709 486.467 892.985 486.687C894.26 486.908 895.213 486.512 895.984 485.526C896.756 484.54 897.346 482.963 897.781 480.659C898.217 478.355 898.24 476.68 897.878 475.498C897.516 474.316 896.769 473.627 895.493 473.407C894.218 473.186 893.265 473.581 892.494 474.568C891.722 475.554 891.132 477.131 890.697 479.435Z" fill="#FFCC13"/>
<path d="M916.344 483.866C915.832 486.577 915.023 488.536 913.775 489.72C912.527 490.904 911.124 491.361 909.282 491.043C907.44 490.724 906.293 489.826 905.557 488.3C904.821 486.773 904.78 484.667 905.292 481.957C905.804 479.247 906.613 477.287 907.719 476.079C908.825 474.871 910.37 474.438 912.212 474.756C914.054 475.074 915.201 475.972 915.937 477.499C916.789 479.185 916.83 481.292 916.344 483.866ZM907.417 482.324C906.982 484.628 906.958 486.303 907.32 487.485C907.682 488.667 908.43 489.356 909.705 489.576C910.98 489.797 911.933 489.402 912.705 488.415C913.476 487.429 914.067 485.852 914.502 483.548C914.937 481.244 914.961 479.569 914.599 478.387C914.237 477.205 913.489 476.516 912.214 476.296C910.939 476.076 909.986 476.471 909.214 477.457C908.443 478.443 907.852 480.02 907.417 482.324Z" fill="#FFCC13"/>
<path d="M942.557 488.395C942.045 491.106 941.236 493.065 939.988 494.249C938.74 495.433 937.337 495.89 935.495 495.572C933.653 495.253 932.506 494.355 931.77 492.829C931.034 491.302 930.993 489.196 931.505 486.486C932.017 483.775 932.826 481.816 933.932 480.608C935.038 479.4 936.583 478.967 938.425 479.285C940.267 479.603 941.414 480.501 942.15 482.028C943.002 483.714 943.043 485.821 942.557 488.395ZM933.489 486.829C933.053 489.132 933.03 490.807 933.392 491.99C933.754 493.172 934.501 493.861 935.777 494.081C937.052 494.301 938.004 493.906 938.776 492.92C939.548 491.934 940.138 490.356 940.573 488.053C941.009 485.749 941.032 484.074 940.67 482.892C940.308 481.71 939.561 481.021 938.285 480.8C937.01 480.58 936.057 480.975 935.286 481.961C934.514 482.947 933.924 484.525 933.489 486.829Z" fill="#FFCC13"/>
<path d="M959.278 491.284C958.766 493.995 957.956 495.954 956.709 497.138C955.461 498.322 954.058 498.779 952.215 498.461C950.373 498.142 949.226 497.244 948.49 495.718C947.754 494.191 947.713 492.085 948.225 489.375C948.737 486.665 949.546 484.705 950.652 483.497C951.759 482.289 953.304 481.856 955.146 482.174C956.988 482.492 958.135 483.39 958.871 484.917C959.581 486.579 959.764 488.71 959.278 491.284ZM950.209 489.718C949.774 492.021 949.75 493.696 950.112 494.879C950.474 496.061 951.222 496.75 952.497 496.97C953.772 497.19 954.725 496.795 955.496 495.809C956.268 494.823 956.859 493.245 957.294 490.942C957.729 488.638 957.753 486.963 957.391 485.781C957.029 484.599 956.281 483.91 955.006 483.689C953.73 483.469 952.778 483.864 952.006 484.85C951.235 485.837 950.644 487.414 950.209 489.718Z" fill="#FFCC13"/>
<path d="M975.746 498.608L973.337 498.192L972.646 501.851L970.803 501.533L971.495 497.874L963.418 496.478L963.725 494.852L973.541 485.493L975.524 485.836L973.528 496.406L975.937 496.822L975.604 498.584L975.746 498.608ZM971.802 496.248L972.8 490.962C973.005 489.878 973.21 488.794 973.607 487.463L973.466 487.439C972.913 488.043 972.527 488.536 972.141 489.029L965.709 495.195L971.802 496.248Z" fill="#FFCC13"/>
<path d="M988.728 487.976C990.287 488.246 991.369 488.712 992.091 489.537C992.813 490.361 993.059 491.384 992.855 492.468C992.701 493.281 992.29 493.909 991.736 494.514C991.042 495.093 990.231 495.513 988.995 495.859C990.142 496.757 991.032 497.471 991.47 498.246C991.909 499.022 992.039 499.884 991.885 500.697C991.629 502.052 991.025 502.927 989.88 503.569C988.734 504.211 987.382 504.397 985.682 504.103C983.981 503.809 982.641 503.158 981.777 502.309C980.913 501.46 980.693 500.302 980.949 498.947C981.282 497.185 982.697 495.891 985.143 495.334C984.254 494.62 983.532 493.796 983.209 493.18C982.912 492.429 982.757 491.703 982.91 490.889C983.115 489.805 983.719 488.93 984.697 488.399C985.959 487.918 987.169 487.707 988.728 487.976ZM982.766 499.401C982.612 500.214 982.767 500.941 983.373 501.605C983.838 502.245 984.804 502.552 985.938 502.748C987.071 502.944 987.973 502.82 988.642 502.375C989.311 501.931 989.864 501.327 990.018 500.514C990.146 499.836 989.99 499.11 989.526 498.47C989.062 497.83 988.172 497.116 986.716 496.305C985.505 496.516 984.553 496.911 984.025 497.38C983.331 497.959 982.919 498.588 982.766 499.401ZM988.305 489.443C987.313 489.271 986.553 489.42 985.91 489.728C985.266 490.037 984.88 490.53 984.727 491.343C984.599 492.021 984.78 492.612 985.102 493.227C985.425 493.843 986.198 494.396 987.23 495.134C988.44 494.924 989.251 494.504 989.753 494.171C990.28 493.702 990.666 493.209 990.794 492.532C990.922 491.854 990.767 491.127 990.277 490.623C989.954 490.007 989.297 489.614 988.305 489.443Z" fill="#FFCC13"/>
<path d="M1013.34 508.742L1011.5 508.423L1013.62 497.175C1013.8 496.227 1013.95 495.414 1014.27 494.49C1014.11 494.601 1013.94 494.712 1013.61 494.934C1013.44 495.045 1012.32 495.551 1010.5 496.637L1009.74 495.246L1014.75 492.752L1016.31 493.022L1013.34 508.742Z" fill="#FFCC13"/>
<path d="M1030.03 501.69C1031.73 501.984 1033.07 502.636 1033.91 503.62C1034.75 504.605 1035.11 505.787 1034.83 507.277C1034.52 508.904 1033.7 510.161 1032.41 510.778C1031.13 511.395 1029.61 511.693 1027.62 511.35C1025.78 511.032 1024.42 510.516 1023.53 509.802L1023.86 508.041C1024.38 508.41 1024.89 508.779 1025.69 509.197C1026.51 509.479 1027.2 509.737 1027.91 509.859C1029.18 510.08 1030.37 510.004 1031.2 509.449C1032.01 509.03 1032.62 508.154 1032.82 507.07C1033.23 504.902 1032.02 503.573 1029.19 503.083C1028.48 502.961 1027.46 502.925 1026.3 502.865L1025.41 502.151L1027.36 494.931L1035.58 496.351L1035.27 497.977L1028.61 496.826L1027.29 501.496C1028.31 501.532 1029.18 501.543 1030.03 501.69Z" fill="#FFCC13"/>
<path d="M1046.64 514.495L1044.8 514.177L1046.92 502.929C1047.1 501.98 1047.25 501.167 1047.57 500.243C1047.41 500.354 1047.24 500.465 1046.9 500.687C1046.74 500.798 1045.62 501.304 1043.8 502.39L1043.04 500.999L1048.05 498.506L1049.61 498.775L1046.64 514.495Z" fill="#FFCC13"/>
<path d="M1057.81 509.569C1058.4 506.452 1059.4 504.246 1060.96 502.976C1062.52 501.705 1064.51 501.21 1066.92 501.627C1067.77 501.773 1068.45 502.031 1068.85 502.24L1068.57 503.731C1068.03 503.498 1067.35 503.24 1066.64 503.117C1064.94 502.823 1063.42 503.121 1062.22 504.033C1061.02 504.946 1060.29 506.499 1059.72 508.778L1059.86 508.803C1060.94 507.73 1062.34 507.273 1064.18 507.591C1065.6 507.836 1066.8 508.463 1067.5 509.423C1068.19 510.383 1068.39 511.676 1068.11 513.167C1067.8 514.793 1067.12 516.074 1065.95 516.852C1064.77 517.629 1063.42 517.815 1061.86 517.546C1060.16 517.252 1058.87 516.33 1058.11 514.939C1057.66 513.461 1057.4 511.737 1057.81 509.569ZM1062.31 515.944C1063.45 516.14 1064.21 515.991 1065.04 515.436C1065.74 514.857 1066.2 513.957 1066.43 512.737C1066.64 511.653 1066.51 510.791 1066.04 510.151C1065.58 509.511 1064.8 508.958 1063.81 508.786C1063.1 508.664 1062.51 508.701 1061.89 508.875C1061.27 509.048 1060.77 509.381 1060.27 509.714C1059.91 510.071 1059.52 510.565 1059.42 511.107C1059.29 511.784 1059.28 512.622 1059.46 513.213C1059.62 513.939 1059.97 514.419 1060.46 514.924C1061.09 515.453 1061.6 515.822 1062.31 515.944Z" fill="#FFCC13"/>
<path d="M1093.4 522.574L1082.49 520.689L1082.77 519.198L1087.95 515.756C1089.46 514.757 1090.63 513.979 1091.02 513.486C1091.4 512.993 1091.93 512.525 1092.32 512.032C1092.56 511.514 1092.8 510.996 1092.91 510.454C1093.06 509.641 1092.91 508.915 1092.44 508.275C1091.98 507.635 1091.29 507.377 1090.3 507.205C1089.59 507.083 1089 507.12 1088.27 507.134C1087.53 507.147 1086.89 507.455 1086.05 508.01L1085.29 506.619C1087.08 505.669 1088.74 505.396 1090.58 505.715C1092.14 505.984 1093.34 506.611 1094.06 507.435C1094.76 508.395 1095.01 509.417 1094.75 510.773C1094.57 511.721 1094.08 512.756 1093.34 513.607C1092.59 514.458 1091.23 515.482 1089.39 516.703L1085.2 519.479L1085.18 519.614L1093.68 521.083L1093.4 522.574Z" fill="#FFCC13"/>
<path d="M1111.83 513.304C1111.65 514.252 1111.19 515.152 1110.52 515.596C1109.82 516.176 1108.9 516.435 1107.74 516.375L1107.71 516.511C1108.96 516.866 1109.88 517.444 1110.46 518.244C1111.04 519.044 1111.17 519.907 1110.96 520.991C1110.68 522.481 1109.88 523.603 1108.6 524.22C1107.31 524.838 1105.67 524.975 1103.69 524.632C1102.84 524.485 1101.99 524.338 1101.31 524.08C1100.62 523.823 1099.97 523.429 1099.31 523.036L1099.64 521.274C1100.3 521.667 1100.96 522.061 1101.76 522.479C1102.58 522.761 1103.26 523.019 1103.97 523.141C1106.81 523.631 1108.43 522.792 1108.84 520.623C1109.2 518.726 1107.82 517.508 1104.7 516.97L1103.14 516.7L1103.42 515.21L1105.12 515.503C1106.4 515.724 1107.44 515.624 1108.39 515.229C1109.2 514.809 1109.78 514.07 1109.96 513.121C1110.12 512.308 1109.93 511.717 1109.44 511.212C1108.95 510.708 1108.3 510.314 1107.31 510.143C1106.6 510.021 1105.86 510.034 1105.27 510.071C1104.54 510.084 1103.75 510.368 1102.94 510.788L1102.18 509.397C1102.99 508.977 1103.77 508.693 1104.82 508.594C1105.72 508.469 1106.74 508.505 1107.73 508.677C1109.29 508.946 1110.49 509.573 1111.21 510.397C1111.67 511.037 1112.06 512.084 1111.83 513.304Z" fill="#FFCC13"/>
<path d="M1128.21 524.951L1125.8 524.535L1125.11 528.194L1123.27 527.875L1123.96 524.216L1115.88 522.821L1116.19 521.195L1126.01 511.835L1127.99 512.178L1125.99 522.748L1128.4 523.165L1128.07 524.926L1128.21 524.951ZM1124.27 522.59L1125.27 517.305C1125.47 516.221 1125.68 515.137 1126.07 513.806L1125.93 513.782C1125.38 514.386 1124.99 514.879 1124.61 515.372L1118.18 521.537L1124.27 522.59Z" fill="#FFCC13"/>
<path d="M1143.56 531.241L1132.65 529.356L1132.93 527.865L1138.12 524.423C1139.62 523.424 1140.79 522.647 1141.18 522.153C1141.71 521.685 1142.09 521.192 1142.48 520.699C1142.72 520.181 1142.97 519.663 1143.07 519.121C1143.22 518.308 1143.07 517.582 1142.6 516.942C1142.14 516.302 1141.45 516.044 1140.46 515.872C1139.75 515.75 1139.16 515.788 1138.43 515.801C1137.69 515.814 1137.05 516.123 1136.21 516.678L1135.45 515.287C1137.24 514.336 1138.9 514.064 1140.74 514.382C1142.3 514.651 1143.5 515.278 1144.22 516.102C1144.92 517.062 1145.17 518.085 1144.91 519.44C1144.73 520.388 1144.24 521.423 1143.5 522.274C1142.75 523.125 1141.39 524.149 1139.55 525.37L1135.36 528.146L1135.34 528.281L1143.84 529.75L1143.56 531.241Z" fill="#FFCC13"/>
<path d="M875.114 407L912.947 413.537C916.662 414.178 919.014 417.456 918.352 420.96L913.028 449.148C912.366 452.652 908.964 454.936 905.249 454.294L867.415 447.757C863.7 447.115 861.348 443.837 862.01 440.333L867.335 412.145C867.997 408.641 871.399 406.358 875.114 407ZM879.132 428.738C878.001 434.724 882.182 440.267 888.239 441.314C894.297 442.361 900.241 438.567 901.372 432.58C902.502 426.598 898.469 421.076 892.265 420.004C886.061 418.932 880.262 422.755 879.132 428.738Z" stroke="#FFCC13"/>
<path d="M958.693 377.411L964.928 378.489C967.762 378.978 969.81 379.752 970.932 380.785C972.053 381.819 972.532 383.161 972.199 384.923C971.968 386.142 971.506 387.042 970.644 387.733C969.923 388.448 968.855 388.683 967.67 388.758L967.644 388.894C969.01 389.41 970.041 390.148 970.596 391.083C971.151 392.019 971.23 393.152 970.999 394.371C970.667 396.133 969.676 397.501 968.222 398.23C966.742 399.093 964.823 399.182 962.414 398.765L954.904 397.468L958.693 377.411ZM960.532 386.265L963.791 386.829C965.208 387.073 966.393 386.998 967.036 386.69C967.822 386.405 968.259 385.641 968.438 384.693C968.617 383.744 968.32 382.993 967.688 382.464C967.057 381.935 965.974 381.468 964.416 381.199L961.44 380.685L960.39 386.241L960.532 386.265ZM960.046 388.84L958.843 395.21L962.527 395.846C963.944 396.091 965.128 396.016 965.939 395.596C966.75 395.176 967.329 394.437 967.534 393.353C967.738 392.269 967.441 391.518 966.835 390.853C966.229 390.189 965.147 389.722 963.588 389.452L960.046 388.84Z" fill="#6EBDFF"/>
<path d="M989.337 403.417L988.261 397.493L980.184 396.098L977.151 401.311L973.467 400.675L985.074 381.829L988.759 382.466L992.738 404.004L989.337 403.417ZM987.948 394.501L986.989 388.737C986.924 388.306 986.884 387.74 986.755 386.878C986.625 386.016 986.586 385.449 986.521 385.018C986.032 386.053 985.519 387.224 984.696 388.481L981.856 393.448L987.948 394.501Z" fill="#6EBDFF"/>
<path d="M1012.83 404.537L1020.34 405.835L1023.59 388.625L1027.13 389.237L1023.34 409.293L997.84 404.886L1001.63 384.83L1005.03 385.417L1001.78 402.628L1009.29 403.925L1012.54 386.715L1016.08 387.327L1012.83 404.537Z" fill="#6EBDFF"/>
<path d="M1043.89 412.842L1042.81 406.919L1034.74 405.523L1031.7 410.737L1028.02 410.1L1039.63 391.255L1043.31 391.891L1047.29 413.43L1043.89 412.842ZM1042.5 403.926L1041.54 398.163C1041.48 397.732 1041.44 397.165 1041.31 396.303C1041.18 395.441 1041.14 394.875 1041.07 394.444C1040.59 395.479 1040.07 396.649 1039.25 397.907L1036.41 402.873L1042.5 403.926Z" fill="#6EBDFF"/>
<path d="M1078.18 418.767L1074.07 418.057L1067.35 406.4L1065.43 416.564L1062.03 415.976L1065.82 395.92L1069.22 396.507L1067.37 406.265L1077.72 397.976L1081.54 398.637L1071.23 406.79L1078.18 418.767Z" fill="#6EBDFF"/>
<path d="M1096.04 421.852L1094.96 415.928L1086.88 414.533L1083.85 419.746L1080.17 419.11L1091.77 400.264L1095.46 400.901L1099.44 422.439L1096.04 421.852ZM1094.51 412.911L1093.55 407.148C1093.48 406.717 1093.44 406.15 1093.31 405.288C1093.18 404.426 1093.14 403.859 1093.08 403.428C1092.59 404.464 1092.08 405.634 1091.25 406.891L1088.41 411.858L1094.51 412.911Z" fill="#6EBDFF"/>
<path d="M1120.94 411.602C1120.56 413.635 1119.54 415.138 1117.9 416.113C1116.25 417.088 1114.05 417.127 1111.5 416.687L1109.37 416.32L1107.96 423.773L1104.56 423.185L1108.35 403.129L1114.44 404.182C1117.14 404.647 1118.88 405.507 1120.11 406.701C1121.02 408.116 1121.3 409.705 1120.94 411.602ZM1109.88 413.609L1111.73 413.927C1113.43 414.221 1114.89 414.195 1115.71 413.775C1116.66 413.38 1117.26 412.505 1117.49 411.285C1117.72 410.066 1117.45 409.179 1116.85 408.515C1116.24 407.85 1115.16 407.383 1113.6 407.114L1111.19 406.698L1109.88 413.609Z" fill="#6EBDFF"/>
<path d="M1131.89 428.046L1128.48 427.459L1131.74 410.248L1125.5 409.171L1126.04 406.325L1141.77 409.042L1141.23 411.888L1134.99 410.811L1131.74 428.022L1131.89 428.046Z" fill="#6EBDFF"/>
<path d="M1156.26 432.257L1155.18 426.334L1147.1 424.938L1144.07 430.152L1140.39 429.515L1151.99 410.67L1155.68 411.306L1159.66 432.845L1156.26 432.257ZM1154.87 423.341L1153.91 417.578C1153.84 417.147 1153.8 416.58 1153.67 415.718C1153.54 414.856 1153.51 414.289 1153.44 413.858C1152.95 414.893 1152.44 416.064 1151.62 417.321L1148.78 422.288L1154.87 423.341Z" fill="#6EBDFF"/>
</g>
</svg>
