<svg width="478" height="610" viewBox="0 0 478 610" fill="none" xmlns="http://www.w3.org/2000/svg">
<path d="M81.9504 442.685L347.068 397.976C351.093 397.297 353.781 393.626 353.071 389.777L282.978 9.59763C282.269 5.74816 278.431 3.17779 274.406 3.85656L9.2879 48.5654C5.2629 49.2442 2.57534 52.915 3.28505 56.7645L73.3774 436.943C74.0871 440.793 77.9254 443.363 81.9504 442.685Z" fill="white" stroke="#007CFF" stroke-width="6" stroke-miterlimit="10"/>
<path d="M204.68 194.113C201.66 192.361 197.906 193.045 195.865 194.047C196.973 192.147 200.016 190.23 200.956 189.901C201.744 190.041 204.248 191.767 204.68 194.113ZM211.359 183.62C208.015 175.108 187.7 184.548 176.239 182.625C176.505 185.226 180.786 188.744 184.436 189.697C179.558 195.449 176.162 205.954 177.289 217.898C174.079 206.305 167.132 197.545 160.491 193.735C163.579 191.645 166.347 186.939 165.665 184.408C155.582 189.964 133.116 187.738 133.015 196.832C132.996 198.756 134.457 201.437 135.62 202.083C135.692 201.462 136.282 199.371 139.183 198.435C153.852 193.716 170.53 213.808 160.828 224.705C160.68 224.87 160.824 225.106 161.059 225.066L195.11 219.324C195.341 219.285 195.392 219.017 195.197 218.909C182.181 211.843 190.667 187.508 206.139 187.144C209.203 187.074 210.502 188.846 210.792 189.406C211.654 188.419 212.068 185.422 211.359 183.62ZM211.299 162.799C210.876 162.012 219.708 160.501 220.683 165.791C221.337 169.336 216.361 171.906 217.039 175.585C217.355 177.299 219.514 178.23 220.105 178.131C217.655 172.454 223.854 174.596 225.578 175.444C221.092 168.011 227.902 166.914 226.561 163.385C225.626 160.918 219.857 162.684 217.48 161.756C213.263 160.111 207.133 151.976 205.813 161.367C212.233 165.336 210.352 173.087 203.348 174.269C203.348 174.269 203.504 175.333 203.584 175.406C211.866 173.606 213.695 167.243 211.299 162.799ZM116.53 193.833C117.846 192.472 122.905 188.432 122.635 194.568C123.224 194.468 124.92 192.887 124.604 191.173C123.925 187.495 118.33 186.707 117.677 183.162C116.701 177.872 125.542 176.403 125.424 177.28C124.766 182.24 128.76 187.621 137.186 186.603C137.232 186.509 136.998 185.458 136.998 185.458C129.997 186.638 125.457 179.969 130.068 174.141C125.469 165.747 122.618 175.397 119.243 178.323C117.342 179.972 111.289 180.2 111.293 182.823C111.298 186.578 118.086 185.382 116.53 193.833ZM142.957 204.522C145.172 201.887 148.944 201.302 151.217 201.576C149.503 200.153 145.952 199.347 144.954 199.345C144.263 199.735 142.525 202.176 142.957 204.522ZM168.758 149.398L163.807 145.333L160.608 150.772L165.605 155.086L168.758 149.398ZM194.669 159.843L191.149 156.955L188.876 160.82L192.38 163.633L194.669 159.843ZM236.171 253.493L231.812 250.394L228.824 254.732L233.099 257.374L236.171 253.493ZM145.791 168.086L142.27 165.198L139.997 169.063L143.501 171.875L145.791 168.086ZM140.541 186.037L151.35 184.214C160.437 182.682 163.543 176.658 163.925 171.824L173.172 170.264C175.26 174.682 180.33 179.327 189.42 177.794L200.228 175.972C200.228 175.972 201.667 173.199 201.917 171.905C202.818 167.245 200.261 165.574 197.079 166.111L193.622 170.371L188.851 167.499C185.668 168.035 183.863 170.442 186.376 174.525C186.696 175.048 187.369 175.781 187.996 176.419C184.068 176.562 178.71 174.877 176.644 169.679C176.644 169.679 178.684 164.895 179.074 163.033C180.474 156.336 176.739 154.326 171.966 155.131L167.082 163.097L159.643 157.209C154.871 158.013 152.08 161.125 155.793 166.959C156.822 168.582 160.453 172.409 160.453 172.409C160.368 177.97 155.936 181.306 152.193 182.457C152.557 181.652 152.924 180.743 153.039 180.147C153.937 175.489 151.386 173.817 148.2 174.354L144.744 178.614L139.972 175.741C136.787 176.279 134.987 178.684 137.497 182.768C138.195 183.903 140.541 186.037 140.541 186.037ZM258.194 199.235C256.294 200.597 245.066 208.145 229.014 208.761C229.046 208.017 229.047 207.273 229.029 206.532C239.243 203.578 247.413 200.456 252.288 196.668C257.845 192.349 259.096 184.065 254.912 178.765C254.804 178.632 254.576 178.643 254.487 178.785C253.129 180.948 244.468 193.905 228.224 200.218C228.024 199.383 227.793 198.564 227.523 197.758C234.903 191.927 241.964 185.453 244.913 180.124C249.369 172.067 247.173 163.12 240.84 159.437C240.704 159.357 240.52 159.418 240.462 159.555C239.232 162.585 227.621 190.426 211.79 204.269C211.632 204.409 211.418 204.591 211.204 204.771C210.748 205.153 210.809 205.798 211.314 206.102C213.698 207.537 215.433 209.801 215.94 212.554C216.823 217.34 213.699 221.971 208.759 223.694C206.257 224.611 202.491 225.103 198.689 224.572C198.518 224.55 198.369 224.68 198.398 224.835L201.192 239.993C201.237 240.237 201.636 240.232 201.685 239.983C202.849 234.081 209.17 231.803 212.029 231.321C214.149 237.062 216.89 241.65 219.764 243.885C224.442 247.514 230.779 246.383 232.986 242.956C233.062 242.838 233.004 242.683 232.864 242.636C231.082 242.019 220.825 238.146 217.331 229.553C218.018 229.188 218.681 228.795 219.305 228.357C223.164 232.581 228.289 236.059 232.086 237.078C238.463 238.783 243.605 236.564 245.264 232.212C245.325 232.058 245.187 231.903 245.008 231.917C241.32 232.252 229.593 231.075 223.466 224.422C223.922 223.853 224.363 223.265 224.762 222.651C230.402 225.433 238.024 227.449 243.179 227.253C249.211 227.026 255.555 224.103 254.508 217.524C254.487 217.392 254.345 217.305 254.201 217.337C252.128 217.811 238.37 220.727 227.49 216.969C227.719 216.29 227.92 215.601 228.098 214.903C228.098 214.903 243.649 215.759 250.516 213.449C257.34 211.154 260.533 205.448 258.589 199.347C258.538 199.196 258.331 199.136 258.194 199.235ZM128.272 231.737C128.69 232.335 129.127 232.916 129.585 233.48C120.708 240.566 106.743 242.332 104.617 242.563C104.468 242.58 104.366 242.713 104.392 242.842C105.764 249.363 112.767 250.035 118.517 248.276C123.428 246.774 129.873 242.386 134.178 237.927C134.775 238.373 135.397 238.782 136.029 239.168C132.648 247.424 122.052 252.365 118.466 253.257C118.293 253.302 118.222 253.493 118.331 253.618C121.447 257.164 127.072 257.568 132.457 253.879C135.659 251.681 139.231 246.736 141.346 241.504C142.092 241.711 142.856 241.863 143.629 241.982C143.418 251.2 135.166 258.195 133.712 259.357C133.599 259.446 133.598 259.611 133.711 259.698C137.011 262.196 143.373 261.185 146.471 256.245C148.372 253.205 149.305 247.997 149.243 241.909C152.105 241.426 158.857 241.5 162.061 246.665C162.199 246.883 162.576 246.757 162.531 246.513L159.736 231.355C159.708 231.2 159.519 231.126 159.366 231.204C155.983 232.946 152.268 233.715 149.591 233.672C144.331 233.669 139.739 230.339 138.857 225.553C138.349 222.801 139.172 220.102 140.896 217.975C141.265 217.526 141.089 216.9 140.527 216.69C140.259 216.591 139.993 216.49 139.791 216.411C119.977 208.584 99.1213 186.237 96.8645 183.777C96.76 183.662 96.5599 183.668 96.4583 183.788C91.833 189.322 92.9658 198.446 100.034 204.556C104.711 208.599 113.661 212.373 122.678 215.438C122.716 216.284 122.789 217.13 122.902 217.979C105.394 217.36 92.6344 208.036 90.5652 206.437C90.4271 206.327 90.2032 206.392 90.1522 206.552C88.1222 212.903 92.2592 220.273 99.0197 222.515C104.955 224.479 113.75 224.741 124.404 224.176C124.652 224.878 124.919 225.577 125.215 226.265C109.927 230.932 96.6848 227.524 94.394 226.861C94.2238 226.811 94.0515 226.938 94.061 227.098C94.4183 233.466 99.4554 237.779 106.689 237.703C113.966 237.629 128.272 231.737 128.272 231.737ZM233.982 262.162L227.788 258.986C225.846 260.588 224.612 262.82 224.417 265.225C221.226 266.215 211.957 265.825 212.593 264.422C219.944 249.622 211.023 243.054 202.116 245.005L203.745 253.837C204.268 256.673 202.103 259.408 198.915 259.946L192.709 260.992C188.257 261.743 186.148 266.511 186.148 266.511C186.148 266.511 182.461 262.721 178.01 263.471L171.803 264.518C168.613 265.056 165.606 263.193 165.083 260.357L163.455 251.525C154.387 252.605 148.347 261.696 160.551 273.198C161.64 274.297 152.838 277.834 148.445 278.056C147.105 277.124 145.34 276.691 143.51 277C142.704 277.136 141.963 277.407 141.304 277.775C141.304 277.775 121.582 265.323 121.245 265.225L121.327 264.892C121.972 263.008 120.154 261.381 119.246 261.669C120.1 260.245 119.148 254.803 112.914 254.558C113.291 255.62 113.791 257.833 113.791 257.833C113.791 257.833 108.716 256.219 106.771 258.678C105.153 261.338 108.764 265.057 108.764 265.057C108.764 265.057 106.403 265.512 105.217 265.615C107.96 270.883 113.65 269.517 114.695 268.21C114.777 269.108 117.093 270.016 118.672 268.708L119.381 268.218C119.55 268.371 138.751 280.467 138.751 280.467C138.193 281.668 138.076 283.046 138.583 284.408C139.378 286.535 141.624 288.031 144.152 288.092C145.937 288.132 147.498 287.539 148.664 286.593L153.734 289.726C154.183 289.996 154.746 290.117 155.325 289.979C156.378 289.731 157.023 288.77 156.768 287.837C156.655 287.415 156.359 287.086 155.992 286.861C155.909 286.799 150.826 283.658 150.826 283.658C153.984 280.633 160.384 277.798 165.957 276.859C166.936 276.694 167.25 275.824 166.769 275.104C163.175 269.723 167.827 264.601 174.073 267.079C176.797 268.159 179.828 270.68 182.607 275.271C173.787 278.958 163.304 286.786 162.146 293.596C161.702 296.225 165.301 299.1 169.041 299.17C169.183 299.176 169.298 299.067 169.3 298.939C169.423 289.044 178.876 280.091 184.256 277.934C184.671 278.608 184.536 278.39 184.95 279.061C179.356 282.851 174.511 289.671 174.097 296.878C173.906 300.178 178.128 302.412 181.324 302.68C181.485 302.693 181.616 302.566 181.599 302.422C180.565 293.571 183.236 285.456 186.233 281.464C186.451 282.098 186.649 282.752 186.823 283.418C186.823 283.418 184.938 293.922 186.267 301.129C186.885 304.483 192.527 305.945 193.357 306.143C194.259 305.652 199.035 302.434 198.417 299.08C197.088 291.873 191.56 282.619 191.56 282.619C191.488 281.936 191.438 281.257 191.418 280.589C195.659 283.361 201.074 290.11 203.265 298.766C203.3 298.906 203.472 298.985 203.616 298.921C206.526 297.624 209.692 294.143 208.335 291.104C205.366 284.468 198.376 279.643 191.764 277.912C191.911 277.146 191.862 277.395 192.011 276.626C197.84 276.893 209.923 282.214 213.577 291.473C213.625 291.592 213.774 291.656 213.903 291.604C217.39 290.316 219.749 286.436 218.386 284.112C214.868 278.09 202.215 274.164 192.609 273.584C193.581 268.361 195.527 265 197.701 263.094C202.681 258.724 208.885 262.014 207.431 268.247C207.237 269.08 207.84 269.796 208.822 269.63C215.126 268.567 223.292 269.435 226.905 271.837C229.388 274.324 233.349 275.515 237.372 274.439C241.945 273.218 245.122 269.236 244.884 265.015C244.674 261.317 242.116 258.396 238.669 257.151L233.982 262.162ZM189.029 242.545C190.84 241.531 193.981 241.575 194.371 244.268C194.457 244.879 195.347 244.729 195.297 244.099C195.139 239.994 192.095 239.317 189.219 240.286C188.597 238.971 188.074 237.817 187.51 236.681C187.059 235.762 186.624 233.966 187.793 233.769C188.424 233.662 188.481 235.392 188.556 236.129C188.621 236.775 188.932 237.121 189.476 237.048C189.816 237.004 190.161 236.521 190.362 236.206C191.72 234.086 191.59 231.18 189.351 230.146C187.477 229.277 183.473 230.834 182.631 232.664C182.345 232.077 181.331 231.198 180.854 230.821C180.389 230.453 180.234 230.174 180.696 229.703C180.914 229.477 181.539 228.628 181.402 227.883C181.321 227.442 180.814 226.689 179.678 226.88C178.783 227.031 177.897 227.792 178.14 229.114C178.195 229.408 178.328 229.71 178.588 230.015C178.006 230.022 176.476 230.318 175.721 230.637L191.916 257.441C194.768 255.44 196.628 252.718 196.166 250.213C195.772 248.077 192.614 249.34 191.323 251.276C190.31 248.654 189.392 246.231 188.433 243.822C188.17 243.158 188.49 242.85 189.029 242.545ZM170.008 225.689L173.424 231.395C171.543 232.172 168.638 234.074 168.972 235.887C169.417 238.301 174.173 239.12 176.721 238.495C176.694 239.068 176.932 239.534 177.417 239.915C176.48 240.073 174.788 240.788 174.318 241.484C172.724 240.495 170.5 240.413 169.619 241.327C168.733 242.248 168.936 243.52 170.268 244.773C171.196 245.639 171.655 246.571 171.03 247.861C174.143 247.336 172.283 243.659 173.502 243.454C173.481 244.231 173.739 245.083 174.271 245.986C174.623 246.587 174.707 247.041 174.419 247.725C173.698 249.429 172.786 253.219 173.586 256.371C172.564 256.538 172.001 256.387 172.115 254.994C172.158 254.475 171.772 254.175 171.46 254.858C171.116 255.611 171.103 256.801 171.194 257.294C171.717 260.133 175.359 260.109 176.598 259.28C181.17 262.236 188.662 259.979 191.008 258.333L170.968 225.17C170.569 224.547 169.637 225.035 170.008 225.689ZM174.922 254.961C174.374 253.549 176.016 250.583 178.252 247.612C177.98 249.348 178.858 252.114 180.164 252.898C178.206 253.228 175.945 253.972 174.922 254.961Z" fill="#6EBDFF"/>
<path d="M66.7387 90.8077C67.0491 92.4909 66.6878 93.8876 65.6523 94.9969C64.618 96.106 62.9831 96.8496 60.746 97.2269L58.6998 97.5719L59.9059 104.114L57.8835 104.455L54.8164 87.8193L59.3257 87.0589C63.6718 86.326 66.1428 87.5756 66.7387 90.8077ZM58.3934 95.9103L60.2137 95.6033C62.0064 95.301 63.2521 94.805 63.9509 94.1164C64.6498 93.4279 64.8867 92.4731 64.6614 91.2508C64.4586 90.151 63.931 89.3957 63.0784 88.9837C62.226 88.5728 61.0027 88.5018 59.4083 88.7707L57.1474 89.152L58.3934 95.9103V95.9103Z" fill="#FFCC13"/>
<path d="M89.7676 90.4774C90.2586 93.1404 89.9416 95.3529 88.8142 97.1152C87.688 98.8774 85.8715 99.9698 83.3645 100.393C80.8023 100.825 78.6882 100.409 77.0197 99.1451C75.3512 97.8815 74.266 95.8844 73.7624 93.153C73.2632 90.4456 73.574 88.228 74.6953 86.5026C75.8164 84.776 77.6611 83.6961 80.2309 83.2627C82.7291 82.8414 84.8211 83.271 86.5044 84.5519C88.1877 85.8329 89.2753 87.8072 89.7676 90.4774ZM75.9082 92.8146C76.3237 95.0682 77.1396 96.6923 78.3574 97.6877C79.5764 98.683 81.141 99.0183 83.0517 98.6961C84.98 98.3709 86.328 97.5456 87.0969 96.2189C87.8673 94.8931 88.044 93.0992 87.6272 90.8384C87.2146 88.6004 86.4109 86.9867 85.2184 85.9944C84.026 85.0033 82.4693 84.6691 80.5499 84.9928C78.6229 85.3178 77.2652 86.1472 76.4756 87.4811C75.6873 88.8149 75.4985 90.5923 75.9082 92.8146Z" fill="#FFCC13"/>
<path d="M103.495 81.1473C101.583 81.4698 100.186 82.3329 99.3045 83.7369C98.4217 85.141 98.1754 86.9009 98.5656 89.0176C98.9672 91.1955 99.8108 92.7876 101.097 93.7939C102.383 94.8014 104.012 95.1381 105.988 94.8049C107.201 94.6004 108.547 94.1591 110.024 93.4792L110.337 95.1745C109.211 95.81 107.764 96.2782 105.995 96.5765C103.433 97.0085 101.32 96.5974 99.6534 95.3458C97.9871 94.0942 96.902 92.0984 96.3971 89.3597C96.081 87.6452 96.1381 86.0869 96.5707 84.6844C97.0033 83.2819 97.7882 82.1258 98.9247 81.2136C100.062 80.3026 101.486 79.7022 103.2 79.4132C105.024 79.1056 106.677 79.1561 108.158 79.5625L107.608 81.3686C106.182 80.9987 104.81 80.9255 103.495 81.1473Z" fill="#FFCC13"/>
<path d="M122.521 77.9391C120.609 78.2615 119.213 79.1247 118.331 80.5287C117.448 81.9329 117.202 83.6927 117.592 85.8095C117.994 87.9875 118.837 89.5796 120.123 90.5859C121.409 91.5934 123.039 91.9301 125.015 91.5969C126.227 91.3924 127.574 90.9512 129.051 90.2713L129.363 91.9666C128.238 92.602 126.79 93.0702 125.022 93.3685C122.459 93.8006 120.346 93.3895 118.68 92.1378C117.014 90.8862 115.929 88.8903 115.424 86.1517C115.108 84.4371 115.165 82.8788 115.597 81.4763C116.03 80.0737 116.815 78.9175 117.951 78.0054C119.088 77.0944 120.513 76.4939 122.226 76.2049C124.05 75.8973 125.703 75.9478 127.184 76.3542L126.634 78.1603C125.208 77.7905 123.837 77.7172 122.521 77.9391Z" fill="#FFCC13"/>
<path d="M133.848 74.4912L135.74 74.1722L137.446 83.4231C137.761 85.1304 137.989 86.684 138.133 88.0834L138.228 88.0673L145.424 72.5391L147.637 72.1658L150.705 88.8019L148.801 89.1229L147.113 79.9632C146.832 78.4384 146.603 76.8267 146.429 75.1265L146.321 75.1447L139.129 90.7541L136.916 91.1273L133.848 74.4912V74.4912Z" fill="#FFCC13"/>
<path d="M156.075 70.743L157.967 70.424L159.672 79.6747C159.987 81.382 160.215 82.9355 160.359 84.3349L160.455 84.3188L167.651 68.7909L169.864 68.4177L172.931 85.0534L171.028 85.3744L169.339 76.2149C169.058 74.6901 168.829 73.0785 168.656 71.3783L168.548 71.3965L161.355 87.0055L159.142 87.3788L156.075 70.743ZM163.039 68.1969C161.572 68.4444 160.451 68.3537 159.676 67.9247C158.902 67.4957 158.361 66.6659 158.053 65.4354L159.908 65.1225C160.125 65.8993 160.442 66.4127 160.861 66.6627C161.279 66.9129 161.937 66.9629 162.833 66.8118C163.65 66.674 164.223 66.4053 164.555 66.0052C164.886 65.6052 165.026 65.0257 164.977 64.2677L166.845 63.9527C166.971 65.167 166.733 66.117 166.13 66.8004C165.529 67.4849 164.498 67.9509 163.039 68.1969Z" fill="#FFCC13"/>
<path d="M186.002 67.2342C184.09 67.5567 182.693 68.4199 181.812 69.8238C180.929 71.228 180.682 72.9878 181.073 75.1046C181.474 77.2825 182.318 78.8746 183.604 79.8809C184.89 80.8884 186.519 81.2252 188.495 80.8919C189.708 80.6874 191.054 80.2462 192.531 79.5663L192.844 81.2616C191.718 81.8971 190.271 82.3652 188.502 82.6635C185.94 83.0956 183.827 82.6845 182.16 81.4328C180.494 80.1812 179.409 78.1854 178.904 75.4467C178.588 73.7322 178.645 72.1739 179.078 70.7714C179.51 69.3688 180.295 68.2127 181.432 67.3005C182.569 66.3895 183.993 65.7891 185.707 65.5001C187.531 65.1925 189.184 65.243 190.665 65.6494L190.115 67.4555C188.689 67.0857 187.317 67.0124 186.002 67.2342Z" fill="#FFCC13"/>
<path d="M212.887 78.3154L210.436 78.7287L200.839 71.653L202.393 80.0851L200.371 80.4261L197.304 63.79L199.326 63.449L200.811 71.5053L207.166 62.1269L209.487 61.7354L203.279 71.1127L212.887 78.3154Z" fill="#FFCC13"/>
<path d="M229.867 75.4523L226.727 70.526L219.755 71.7018L218.589 77.3542L216.543 77.6993L220.34 59.8352L222.041 59.5483L231.961 75.0991L229.867 75.4523ZM225.775 68.8916L222.802 64.0783C222.421 63.4704 222.003 62.7151 221.551 61.8134C221.511 62.5716 221.409 63.4134 221.244 64.3411L220.148 69.8405L225.775 68.8916Z" fill="#FFCC13"/>
<path d="M241.892 66.2676L238.615 73.977L236.223 74.3803L239.761 66.2865C238.413 66.1152 237.376 65.6859 236.652 64.9983C235.929 64.3107 235.456 63.3679 235.235 62.1696C234.961 60.682 235.288 59.4484 236.216 58.4661C237.143 57.4853 238.696 56.8099 240.878 56.4419L245.661 55.6353L248.728 72.2715L246.705 72.6126L245.426 65.6716L241.892 66.2676V66.2676ZM243.947 57.6501L241.245 58.1057C239.794 58.3504 238.736 58.7752 238.071 59.3801C237.404 59.9852 237.171 60.8255 237.37 61.9025C237.777 64.1105 239.484 64.9603 242.489 64.4535L245.119 64.0099L243.947 57.6501Z" fill="#FFCC13"/>
<path d="M76.1541 109.328L78.2003 108.983L78.578 111.031L79.4103 110.891C80.7674 110.662 81.99 110.722 83.0807 111.07C84.1711 111.417 85.0675 112.018 85.7681 112.869C86.4689 113.721 86.9304 114.75 87.1527 115.956C87.3849 117.215 87.2966 118.386 86.8864 119.468C86.4762 120.55 85.8039 121.425 84.8677 122.09C83.9305 122.757 82.7645 123.207 81.3685 123.443L80.8814 123.525L81.3536 126.086L79.3073 126.431L78.8352 123.87L78.2991 123.96C76.9031 124.196 75.6482 124.15 74.5327 123.822C73.4173 123.494 72.4793 122.886 71.7174 121.996C70.9569 121.108 70.4648 120.054 70.2394 118.831C70.0185 117.633 70.0887 116.518 70.4502 115.488C70.8127 114.456 71.4445 113.593 72.3466 112.898C73.2487 112.202 74.3775 111.739 75.7346 111.511L76.5317 111.376L76.1541 109.328V109.328ZM76.8381 113.038L76.1602 113.152C74.7165 113.396 73.6545 113.989 72.9728 114.933C72.2926 115.877 72.0804 117.043 72.3363 118.431C72.6119 119.926 73.2661 121.01 74.298 121.685C75.3296 122.359 76.6471 122.562 78.249 122.291L78.5352 122.243L76.8381 113.038V113.038ZM80.5815 121.898L80.879 121.848C82.4733 121.579 83.6358 120.955 84.3664 119.975C85.0983 118.995 85.3272 117.765 85.0545 116.286C84.796 114.884 84.185 113.851 83.221 113.193C82.257 112.535 81.0411 112.329 79.5748 112.576L78.8843 112.693L80.5815 121.898V121.898Z" fill="#FFCC13"/>
<path d="M105.751 121.736L96.0547 123.371L92.9875 106.735L102.684 105.1L103.001 106.818L95.3267 108.112L96.3149 113.472L103.524 112.256L103.839 113.963L96.6296 115.179L97.7581 121.3L105.432 120.006L105.751 121.736Z" fill="#FFCC13"/>
<path d="M127.778 122.492L125.851 122.817L125.051 118.482L112.963 120.52L113.763 124.856L111.836 125.181L110.713 119.093L112.058 118.867C112.916 116.695 113.521 114.13 113.871 111.169C114.221 108.208 114.227 105.556 113.893 103.21L121.711 101.892L124.455 116.776L126.655 116.405L127.778 122.492V122.492ZM122.432 117.117L120.009 103.974L116.047 104.642C116.243 106.502 116.17 108.788 115.827 111.502C115.485 114.215 114.934 116.551 114.176 118.51L122.432 117.117Z" fill="#FFCC13"/>
<path d="M143.257 115.411L133.56 117.047L130.493 100.411L140.189 98.7757L140.506 100.494L132.832 101.788L133.82 107.147L141.03 105.932L141.345 107.639L134.135 108.855L135.263 114.975L142.938 113.681L143.257 115.411V115.411Z" fill="#FFCC13"/>
<path d="M159.622 100.498C159.932 102.181 159.571 103.578 158.535 104.687C157.501 105.796 155.866 106.54 153.629 106.917L151.583 107.262L152.789 113.804L150.766 114.145L147.699 97.5093L152.209 96.7488C156.555 96.0159 159.026 97.2655 159.622 100.498ZM151.276 105.6L153.097 105.293C154.889 104.991 156.135 104.495 156.834 103.806C157.533 103.118 157.77 102.163 157.544 100.941C157.341 99.841 156.814 99.0857 155.961 98.6736C155.109 98.2628 153.885 98.1918 152.291 98.4606L150.03 98.8419L151.276 105.6V105.6Z" fill="#FFCC13"/>
<path d="M180.024 109.211L176.885 104.285L169.912 105.461L168.746 111.113L166.7 111.458L170.497 93.594L172.198 93.3071L182.118 108.858L180.024 109.211V109.211ZM175.932 102.65L172.96 97.8371C172.578 97.2292 172.161 96.4739 171.708 95.5722C171.668 96.3304 171.566 97.1721 171.402 98.0998L170.306 103.599L175.932 102.65Z" fill="#FFCC13"/>
<path d="M200.822 103.898L202.868 103.552L203.99 109.64L202.074 109.963L201.275 105.627L188.164 107.838L185.097 91.2021L187.119 90.8611L189.863 105.746L198.798 104.239L196.054 89.3544L198.077 89.0131L200.822 103.898V103.898Z" fill="#FFCC13"/>
<path d="M206.729 87.5544L208.621 87.2354L210.327 96.4862C210.642 98.1934 210.87 99.747 211.014 101.146L211.109 101.13L218.305 85.6023L220.519 85.2291L223.586 101.865L221.682 102.186L219.994 93.0263C219.713 91.5015 219.484 89.8899 219.31 88.1897L219.202 88.208L212.01 103.817L209.797 104.19L206.729 87.5544V87.5544Z" fill="#FFCC13"/>
<path d="M235.883 92.6344L232.606 100.344L230.214 100.747L233.752 92.6534C232.404 92.4821 231.367 92.0528 230.643 91.3652C229.92 90.6776 229.447 89.7347 229.226 88.5365C228.952 87.0489 229.279 85.8153 230.207 84.8331C231.134 83.8522 232.687 83.1768 234.869 82.8089L239.652 82.0023L242.719 98.6383L240.696 98.9794L239.417 92.0385L235.883 92.6344ZM237.938 84.017L235.236 84.4726C233.785 84.7174 232.727 85.1422 232.062 85.747C231.395 86.3521 231.162 87.1924 231.361 88.2694C231.768 90.4774 233.475 91.3271 236.48 90.8203L239.11 90.3768L237.938 84.017Z" fill="#FFCC13"/>
<path d="M127.145 399.848L121.667 400.772L117.903 380.357L108.365 381.965L112.129 402.38L106.633 403.307L102.062 378.518L122.575 375.058L127.145 399.848V399.848Z" fill="#FFCC13"/>
<path d="M155 395.151L152.033 389.568L142.584 391.161L141.792 397.379L135.871 398.377L140.43 371.944L147.149 370.811L160.922 394.153L155 395.151ZM149.908 385.38C147.185 380.327 145.65 377.468 145.302 376.804C144.954 376.14 144.695 375.612 144.526 375.221C144.402 376.734 143.945 380.5 143.154 386.519L149.908 385.38Z" fill="#FFCC13"/>
<path d="M176.811 370.056C174.742 370.405 173.278 371.418 172.417 373.096C171.557 374.774 171.371 376.941 171.861 379.597C172.88 385.125 175.559 387.523 179.896 386.792C181.716 386.485 183.84 385.678 186.268 384.371L187.081 388.779C185.11 389.986 182.812 390.81 180.189 391.253C176.418 391.889 173.333 391.281 170.932 389.431C168.531 387.58 166.954 384.609 166.199 380.517C165.724 377.94 165.798 375.599 166.422 373.495C167.046 371.391 168.181 369.667 169.828 368.323C171.475 366.979 173.534 366.098 176.004 365.682C178.522 365.257 181.158 365.413 183.914 366.149L182.929 370.72C181.879 370.443 180.833 370.223 179.791 370.061C178.75 369.898 177.756 369.897 176.811 370.056Z" fill="#FFCC13"/>
<path d="M218.725 384.405L213.247 385.329L209.483 364.914L199.945 366.522L203.709 386.937L198.213 387.864L193.643 363.075L214.155 359.616L218.725 384.405V384.405Z" fill="#FFCC13"/>
<path d="M251.949 365.986C252.705 370.089 252.223 373.423 250.502 375.986C248.781 378.549 245.934 380.165 241.963 380.835C237.992 381.504 234.739 380.917 232.206 379.071C229.672 377.226 228.024 374.24 227.264 370.114C226.503 365.988 226.989 362.657 228.721 360.122C230.453 357.586 233.311 355.982 237.294 355.31C241.277 354.639 244.526 355.221 247.04 357.059C249.554 358.896 251.19 361.872 251.949 365.986ZM233.032 369.176C233.542 371.946 234.477 373.939 235.834 375.155C237.192 376.371 238.964 376.795 241.15 376.426C245.535 375.687 247.214 372.531 246.187 366.958C245.157 361.374 242.462 358.949 238.1 359.685C235.914 360.054 234.395 361.035 233.543 362.63C232.692 364.225 232.521 366.407 233.032 369.176Z" fill="#FFCC13"/>
<path d="M279.819 356.514C280.311 359.181 279.816 361.369 278.333 363.076C276.85 364.783 274.501 365.907 271.286 366.449L268.928 366.847L270.554 375.664L265.058 376.591L260.488 351.802L268.767 350.405C271.911 349.875 274.421 350.119 276.296 351.137C278.172 352.156 279.346 353.948 279.819 356.514ZM268.134 362.54L269.943 362.235C271.633 361.95 272.839 361.418 273.56 360.638C274.281 359.857 274.53 358.857 274.304 357.636C274.077 356.404 273.558 355.553 272.746 355.084C271.935 354.615 270.778 354.507 269.277 354.76L266.778 355.181L268.134 362.54Z" fill="#FFCC13"/>
<path d="M303.302 370.142L297.806 371.068L294.042 350.654L287.004 351.841L286.198 347.466L305.77 344.165L306.577 348.54L299.538 349.727L303.302 370.142V370.142Z" fill="#FFCC13"/>
<path d="M411.101 560.374L141.223 513.745C137.58 513.115 135.054 509.777 135.734 506.18L166.418 343.738C167.077 340.253 170.567 337.838 174.329 338.487L444.206 385.117C447.85 385.746 450.375 389.085 449.695 392.682L418.99 555.236C418.214 558.701 414.745 561.004 411.101 560.374Z" fill="white" stroke="#007CFF" stroke-width="6" stroke-miterlimit="10"/>
<path d="M174.81 466.382C174.385 468.63 173.714 470.256 172.679 471.238C171.643 472.22 170.479 472.599 168.951 472.335C167.423 472.071 166.472 471.326 165.861 470.06C165.251 468.793 165.216 467.046 165.641 464.798C166.066 462.549 166.737 460.924 167.655 459.922C168.572 458.919 169.854 458.56 171.382 458.824C172.91 459.089 173.862 459.833 174.472 461.1C175.179 462.499 175.213 464.246 174.81 466.382ZM167.287 465.082C166.926 466.993 166.906 468.383 167.206 469.364C167.507 470.344 168.127 470.916 169.185 471.098C170.243 471.281 171.033 470.953 171.673 470.135C172.313 469.317 172.803 468.009 173.164 466.098C173.525 464.187 173.545 462.797 173.244 461.816C172.944 460.836 172.324 460.264 171.266 460.081C170.208 459.899 169.418 460.226 168.778 461.045C168.138 461.863 167.648 463.171 167.287 465.082Z" fill="#FFCC13"/>
<path d="M188.68 468.777C188.255 471.025 187.584 472.651 186.549 473.633C185.514 474.615 184.35 474.994 182.822 474.73C181.294 474.466 180.342 473.721 179.731 472.455C179.121 471.188 179.087 469.441 179.512 467.193C179.936 464.944 180.607 463.319 181.525 462.317C182.443 461.314 183.724 460.955 185.252 461.22C186.78 461.484 187.732 462.228 188.343 463.495C188.932 464.874 189.084 466.641 188.68 468.777ZM181.157 467.477C180.796 469.388 180.776 470.778 181.077 471.759C181.377 472.739 181.997 473.311 183.055 473.493C184.113 473.676 184.903 473.348 185.543 472.53C186.184 471.712 186.673 470.404 187.034 468.493C187.395 466.582 187.415 465.192 187.115 464.211C186.815 463.231 186.194 462.659 185.136 462.476C184.078 462.294 183.288 462.621 182.648 463.44C182.008 464.258 181.518 465.566 181.157 467.477Z" fill="#FFCC13"/>
<path d="M202.433 471.153C202.009 473.402 201.338 475.027 200.302 476.009C199.267 476.991 198.103 477.37 196.575 477.106C195.047 476.842 194.095 476.097 193.485 474.831C192.874 473.565 192.84 471.817 193.265 469.569C193.69 467.321 194.361 465.695 195.278 464.693C196.196 463.691 197.478 463.332 199.006 463.596C200.534 463.86 201.486 464.605 202.096 465.871C202.803 467.27 202.837 469.017 202.433 471.153ZM195.028 469.874C194.667 471.785 194.647 473.174 194.948 474.155C195.248 475.136 195.868 475.707 196.926 475.89C197.984 476.073 198.774 475.745 199.414 474.927C200.054 474.109 200.544 472.8 200.905 470.889C201.266 468.978 201.286 467.588 200.986 466.608C200.686 465.627 200.065 465.056 199.007 464.873C197.949 464.69 197.159 465.018 196.519 465.836C195.879 466.654 195.389 467.963 195.028 469.874Z" fill="#FFCC13"/>
<path d="M216.303 473.55C215.879 475.798 215.207 477.423 214.172 478.405C213.137 479.387 211.973 479.767 210.445 479.503C208.917 479.239 207.965 478.494 207.355 477.228C206.744 475.961 206.71 474.214 207.135 471.966C207.56 469.717 208.231 468.092 209.148 467.09C210.066 466.087 211.348 465.728 212.876 465.992C214.404 466.256 215.355 467.001 215.966 468.267C216.673 469.667 216.707 471.414 216.303 473.55ZM208.898 472.27C208.537 474.181 208.517 475.571 208.818 476.552C209.118 477.532 209.738 478.104 210.796 478.286C211.854 478.469 212.644 478.141 213.284 477.323C213.924 476.505 214.414 475.197 214.775 473.286C215.136 471.375 215.156 469.985 214.856 469.004C214.555 468.024 213.935 467.452 212.877 467.269C211.819 467.087 211.029 467.414 210.389 468.233C209.749 469.051 209.259 470.359 208.898 472.27Z" fill="#FFCC13"/>
<path d="M238.048 477.307C237.624 479.555 236.952 481.18 235.917 482.163C234.882 483.145 233.718 483.524 232.19 483.26C230.662 482.996 229.71 482.251 229.1 480.985C228.489 479.718 228.455 477.971 228.88 475.723C229.304 473.474 229.976 471.849 230.893 470.847C231.811 469.844 233.092 469.485 234.621 469.749C236.149 470.013 237.1 470.758 237.711 472.025C238.418 473.424 238.452 475.171 238.048 477.307ZM230.525 476.007C230.164 477.918 230.145 479.308 230.445 480.288C230.745 481.269 231.366 481.84 232.423 482.023C233.481 482.206 234.272 481.878 234.912 481.06C235.552 480.242 236.042 478.934 236.403 477.022C236.764 475.111 236.783 473.722 236.483 472.741C236.183 471.761 235.562 471.189 234.504 471.006C233.447 470.823 232.656 471.151 232.016 471.969C231.376 472.787 230.886 474.096 230.525 476.007Z" fill="#FFCC13"/>
<path d="M251.918 479.703C251.493 481.951 250.822 483.577 249.787 484.559C248.752 485.541 247.588 485.92 246.06 485.656C244.532 485.392 243.58 484.647 242.969 483.381C242.359 482.115 242.325 480.367 242.75 478.119C243.174 475.871 243.845 474.245 244.763 473.243C245.681 472.241 246.962 471.882 248.49 472.146C250.018 472.41 250.97 473.155 251.581 474.421C252.17 475.8 252.322 477.567 251.918 479.703ZM244.395 478.403C244.034 480.314 244.014 481.704 244.315 482.685C244.615 483.665 245.235 484.237 246.293 484.42C247.351 484.602 248.141 484.274 248.781 483.456C249.422 482.638 249.911 481.33 250.272 479.419C250.633 477.508 250.653 476.118 250.353 475.138C250.053 474.157 249.432 473.585 248.374 473.403C247.316 473.22 246.526 473.548 245.886 474.366C245.246 475.184 244.756 476.492 244.395 478.403Z" fill="#FFCC13"/>
<path d="M265.579 485.778L263.58 485.433L263.007 488.469L261.479 488.205L262.052 485.169L255.352 484.012L255.607 482.663L263.75 474.898L265.395 475.183L263.739 483.951L265.737 484.297L265.461 485.758L265.579 485.778ZM262.307 483.82L263.135 479.436C263.305 478.537 263.475 477.637 263.805 476.533L263.687 476.513C263.229 477.014 262.909 477.423 262.589 477.832L257.253 482.947L262.307 483.82Z" fill="#FFCC13"/>
<path d="M276.348 476.959C277.641 477.182 278.539 477.57 279.138 478.254C279.737 478.938 279.941 479.786 279.771 480.685C279.644 481.359 279.302 481.881 278.844 482.382C278.267 482.863 277.595 483.211 276.569 483.498C277.521 484.243 278.259 484.835 278.623 485.478C278.987 486.122 279.095 486.837 278.967 487.511C278.755 488.636 278.253 489.362 277.303 489.894C276.353 490.426 275.231 490.581 273.821 490.337C272.41 490.093 271.299 489.553 270.582 488.849C269.865 488.144 269.683 487.184 269.895 486.06C270.171 484.598 271.345 483.524 273.374 483.062C272.636 482.47 272.037 481.787 271.77 481.276C271.523 480.653 271.394 480.05 271.522 479.376C271.692 478.476 272.193 477.75 273.004 477.31C274.051 476.91 275.055 476.736 276.348 476.959ZM271.402 486.436C271.274 487.111 271.403 487.714 271.906 488.265C272.291 488.796 273.093 489.05 274.033 489.213C274.974 489.375 275.721 489.272 276.276 488.904C276.832 488.535 277.29 488.034 277.418 487.36C277.524 486.798 277.395 486.195 277.01 485.664C276.625 485.133 275.887 484.541 274.679 483.868C273.675 484.043 272.884 484.371 272.447 484.76C271.87 485.24 271.529 485.762 271.402 486.436ZM275.997 478.175C275.174 478.033 274.544 478.157 274.01 478.413C273.476 478.669 273.156 479.078 273.029 479.752C272.922 480.314 273.073 480.805 273.34 481.315C273.608 481.826 274.249 482.285 275.105 482.897C276.109 482.722 276.782 482.374 277.198 482.098C277.636 481.709 277.956 481.3 278.062 480.738C278.168 480.176 278.039 479.573 277.633 479.155C277.365 478.644 276.82 478.318 275.997 478.175Z" fill="#FFCC13"/>
<path d="M296.763 494.184L295.235 493.92L296.997 484.59C297.146 483.803 297.273 483.128 297.54 482.362C297.401 482.454 297.262 482.546 296.985 482.73C296.846 482.822 295.917 483.242 294.411 484.143L293.78 482.989L297.933 480.921L299.226 481.144L296.763 494.184V494.184Z" fill="#FFCC13"/>
<path d="M310.613 488.335C312.023 488.579 313.135 489.119 313.83 489.936C314.526 490.753 314.826 491.733 314.592 492.97C314.338 494.319 313.655 495.362 312.587 495.874C311.519 496.386 310.259 496.632 308.613 496.348C307.085 496.084 305.952 495.656 305.214 495.064L305.49 493.603C305.918 493.909 306.346 494.215 307.009 494.562C307.693 494.796 308.259 495.01 308.847 495.112C309.905 495.294 310.888 495.232 311.582 494.771C312.254 494.423 312.756 493.697 312.925 492.798C313.265 490.999 312.26 489.897 309.909 489.49C309.321 489.389 308.477 489.359 307.515 489.309L306.777 488.717L308.394 482.728L315.212 483.906L314.957 485.255L309.433 484.3L308.337 488.174C309.181 488.204 309.907 488.213 310.613 488.335Z" fill="#FFCC13"/>
<path d="M324.385 498.957L322.857 498.693L324.62 489.363C324.769 488.576 324.896 487.901 325.162 487.134C325.023 487.227 324.885 487.319 324.607 487.503C324.468 487.595 323.539 488.015 322.034 488.916L321.402 487.762L325.556 485.693L326.849 485.917L324.385 498.957V498.957Z" fill="#FFCC13"/>
<path d="M333.654 494.871C334.142 492.285 334.973 490.455 336.265 489.401C337.556 488.347 339.212 487.937 341.21 488.282C341.915 488.404 342.482 488.618 342.813 488.791L342.579 490.028C342.131 489.834 341.564 489.62 340.976 489.519C339.566 489.275 338.305 489.522 337.313 490.279C336.32 491.036 335.713 492.324 335.234 494.215L335.352 494.235C336.248 493.345 337.412 492.966 338.94 493.23C340.116 493.433 341.11 493.953 341.688 494.75C342.265 495.546 342.427 496.619 342.193 497.855C341.939 499.204 341.374 500.268 340.402 500.912C339.431 501.557 338.309 501.712 337.016 501.488C335.606 501.244 334.536 500.479 333.905 499.325C333.529 498.1 333.314 496.669 333.654 494.871ZM337.388 500.159C338.329 500.322 338.959 500.199 339.653 499.738C340.229 499.257 340.613 498.511 340.804 497.499C340.974 496.6 340.866 495.885 340.481 495.354C340.096 494.823 339.454 494.364 338.631 494.222C338.044 494.12 337.552 494.151 337.04 494.295C336.527 494.438 336.111 494.715 335.694 494.991C335.396 495.288 335.076 495.697 334.991 496.146C334.884 496.708 334.875 497.403 335.025 497.894C335.154 498.496 335.443 498.894 335.849 499.313C336.373 499.752 336.801 500.058 337.388 500.159Z" fill="#FFCC13"/>
<path d="M363.175 505.659L354.124 504.095L354.357 502.858L358.659 500.003C359.908 499.174 360.88 498.529 361.2 498.12C361.52 497.711 361.958 497.322 362.278 496.913C362.48 496.484 362.683 496.055 362.767 495.605C362.895 494.93 362.766 494.328 362.381 493.797C361.996 493.266 361.429 493.052 360.606 492.91C360.018 492.808 359.527 492.839 358.918 492.85C358.309 492.861 357.775 493.117 357.081 493.578L356.45 492.424C357.934 491.636 359.312 491.409 360.84 491.673C362.133 491.897 363.127 492.417 363.726 493.101C364.304 493.897 364.508 494.745 364.296 495.869C364.147 496.656 363.742 497.515 363.123 498.22C362.504 498.926 361.373 499.775 359.846 500.789L356.377 503.091L356.355 503.204L363.408 504.422L363.175 505.659Z" fill="#FFCC13"/>
<path d="M378.464 497.969C378.316 498.756 377.932 499.502 377.377 499.87C376.801 500.351 376.032 500.567 375.07 500.517L375.049 500.629C376.085 500.924 376.845 501.404 377.326 502.067C377.808 502.731 377.915 503.446 377.745 504.345C377.512 505.582 376.851 506.513 375.783 507.025C374.715 507.537 373.358 507.651 371.713 507.366C371.007 507.244 370.302 507.123 369.736 506.909C369.169 506.695 368.624 506.368 368.079 506.042L368.355 504.58C368.9 504.907 369.445 505.233 370.108 505.58C370.792 505.814 371.359 506.028 371.946 506.13C374.297 506.536 375.643 505.84 375.982 504.041C376.28 502.467 375.135 501.457 372.549 501.01L371.256 500.786L371.49 499.55L372.9 499.793C373.958 499.976 374.824 499.894 375.614 499.566C376.286 499.218 376.766 498.604 376.915 497.817C377.043 497.143 376.892 496.652 376.486 496.234C376.079 495.815 375.534 495.489 374.711 495.347C374.124 495.245 373.515 495.256 373.023 495.287C372.414 495.298 371.763 495.534 371.09 495.882L370.459 494.728C371.131 494.38 371.783 494.144 372.648 494.062C373.396 493.959 374.24 493.988 375.063 494.13C376.356 494.354 377.35 494.874 377.949 495.558C378.334 496.089 378.656 496.957 378.464 497.969Z" fill="#FFCC13"/>
<path d="M392.054 507.63L390.056 507.285L389.483 510.32L387.955 510.056L388.528 507.021L381.828 505.863L382.083 504.515L390.225 496.751L391.871 497.035L390.215 505.803L392.213 506.149L391.937 507.61L392.054 507.63ZM388.783 505.672L389.611 501.288C389.781 500.389 389.951 499.489 390.281 498.385L390.163 498.365C389.704 498.866 389.384 499.275 389.064 499.684L383.729 504.799L388.783 505.672Z" fill="#FFCC13"/>
<path d="M404.784 512.849L395.734 511.285L395.967 510.048L400.269 507.193C401.518 506.364 402.49 505.719 402.81 505.31C403.247 504.921 403.567 504.512 403.887 504.103C404.09 503.674 404.292 503.245 404.377 502.795C404.505 502.12 404.376 501.518 403.991 500.987C403.605 500.456 403.039 500.242 402.216 500.1C401.628 499.998 401.137 500.029 400.528 500.04C399.919 500.051 399.385 500.307 398.691 500.768L398.06 499.614C399.544 498.825 400.922 498.599 402.45 498.863C403.743 499.087 404.737 499.607 405.336 500.291C405.914 501.087 406.118 501.935 405.905 503.059C405.757 503.846 405.352 504.705 404.733 505.41C404.114 506.116 402.983 506.965 401.456 507.978L397.987 510.281L397.965 510.393L405.018 511.612L404.784 512.849Z" fill="#FFCC13"/>
<path d="M182.086 409.871L213.47 415.293C216.508 415.818 218.425 418.496 217.885 421.353L213.468 444.735C212.929 447.592 210.154 449.459 207.115 448.934L175.731 443.512C172.692 442.987 170.776 440.309 171.316 437.452L175.732 414.07C176.272 411.213 179.047 409.346 182.086 409.871ZM185.351 427.804C184.403 432.82 187.906 437.46 192.974 438.335C198.041 439.211 203.02 436.037 203.968 431.021C204.914 426.009 201.534 421.387 196.345 420.49C191.155 419.594 186.297 422.792 185.351 427.804Z" stroke="#FFCC13"/>
<path d="M251.434 385.242L256.605 386.136C258.956 386.542 260.655 387.184 261.586 388.041C262.516 388.898 262.913 390.012 262.637 391.473C262.446 392.485 262.062 393.231 261.347 393.804C260.749 394.397 259.863 394.592 258.88 394.655L258.859 394.767C259.992 395.195 260.847 395.807 261.307 396.583C261.768 397.359 261.833 398.299 261.642 399.311C261.366 400.772 260.545 401.907 259.338 402.511C258.11 403.228 256.519 403.301 254.52 402.956L248.291 401.879L251.434 385.242ZM252.959 392.587L255.663 393.054C256.838 393.257 257.821 393.195 258.355 392.939C259.006 392.703 259.369 392.069 259.517 391.282C259.666 390.495 259.419 389.872 258.895 389.433C258.371 388.995 257.474 388.607 256.181 388.384L253.712 387.958L252.842 392.566L252.959 392.587ZM252.556 394.723L251.558 400.006L254.614 400.534C255.789 400.737 256.772 400.675 257.445 400.327C258.117 399.979 258.597 399.365 258.767 398.466C258.937 397.566 258.691 396.943 258.188 396.392C257.685 395.841 256.787 395.454 255.494 395.23L252.556 394.723Z" fill="#6EBDFF"/>
<path d="M276.853 406.814L275.961 401.9L269.261 400.743L266.745 405.067L263.689 404.539L273.318 388.907L276.374 389.435L279.674 407.301L276.853 406.814ZM275.702 399.418L274.905 394.637C274.852 394.28 274.819 393.81 274.711 393.095C274.604 392.379 274.571 391.909 274.517 391.552C274.112 392.411 273.686 393.382 273.004 394.425L270.647 398.545L275.702 399.418V399.418Z" fill="#6EBDFF"/>
<path d="M296.343 407.745L302.573 408.822L305.27 394.544L308.208 395.052L305.065 411.69L283.907 408.035L287.05 391.396L289.871 391.884L287.174 406.161L293.404 407.238L296.101 392.96L299.04 393.468L296.343 407.745Z" fill="#6EBDFF"/>
<path d="M322.107 414.633L321.214 409.719L314.515 408.562L311.999 412.886L308.943 412.358L318.571 396.726L321.627 397.254L324.928 415.12L322.107 414.633ZM320.955 407.237L320.159 402.456C320.105 402.098 320.072 401.629 319.965 400.913C319.857 400.198 319.825 399.728 319.771 399.371C319.366 400.23 318.94 401.201 318.257 402.244L315.901 406.364L320.955 407.237V407.237Z" fill="#6EBDFF"/>
<path d="M350.552 419.548L347.144 418.959L341.566 409.289L339.974 417.72L337.153 417.233L340.296 400.596L343.117 401.083L341.588 409.177L350.169 402.302L353.342 402.85L344.783 409.613L350.552 419.548Z" fill="#6EBDFF"/>
<path d="M365.363 422.107L364.47 417.193L357.771 416.035L355.254 420.36L352.198 419.832L361.827 404.2L364.883 404.728L368.184 422.594L365.363 422.107ZM364.093 414.69L363.297 409.909C363.243 409.552 363.211 409.082 363.103 408.367C362.995 407.652 362.963 407.182 362.909 406.824C362.504 407.683 362.078 408.654 361.395 409.697L359.039 413.817L364.093 414.69V414.69Z" fill="#6EBDFF"/>
<path d="M386.026 413.604C385.707 415.29 384.865 416.538 383.498 417.346C382.132 418.155 380.305 418.188 378.189 417.822L376.426 417.517L375.258 423.7L372.437 423.213L375.58 406.576L380.634 407.449C382.867 407.835 384.31 408.548 385.337 409.538C386.086 410.713 386.323 412.03 386.026 413.604ZM376.851 415.269L378.379 415.533C379.789 415.777 381.007 415.755 381.68 415.407C382.47 415.079 382.971 414.353 383.162 413.342C383.353 412.33 383.128 411.594 382.625 411.043C382.123 410.492 381.225 410.105 379.932 409.881L377.934 409.536L376.851 415.269Z" fill="#6EBDFF"/>
<path d="M395.101 427.245L392.28 426.757L394.977 412.481L389.805 411.587L390.251 409.227L403.298 411.481L402.852 413.842L397.68 412.948L394.983 427.225L395.101 427.245Z" fill="#6EBDFF"/>
<path d="M415.319 430.738L414.426 425.824L407.726 424.667L405.21 428.991L402.154 428.463L411.783 412.831L414.839 413.359L418.139 431.225L415.319 430.738ZM414.167 423.342L413.371 418.561C413.317 418.204 413.284 417.734 413.176 417.019C413.069 416.304 413.036 415.834 412.982 415.476C412.577 416.335 412.151 417.306 411.469 418.349L409.113 422.469L414.167 423.342V423.342Z" fill="#6EBDFF"/>
</svg>
