<svg width="291" height="247" viewBox="0 0 291 247" fill="none" xmlns="http://www.w3.org/2000/svg">
    <path d="M36.5196 196.672L154.304 176.809C156.092 176.507 157.286 174.876 156.971 173.166L125.831 4.26375C125.515 2.55354 123.81 1.4116 122.022 1.71316L4.2378 21.576C2.44961 21.8775 1.25561 23.5084 1.57091 25.2186L32.7109 194.121C33.0262 195.831 34.7314 196.973 36.5196 196.672Z" fill="white" stroke="#007CFF" stroke-width="2" stroke-miterlimit="10" />
    <path d="M91.0451 86.2387C89.7031 85.4601 88.0355 85.7642 87.1286 86.2092C87.6208 85.3654 88.9727 84.5136 89.3904 84.3674C89.7405 84.4298 90.8529 85.1965 91.0451 86.2387ZM94.0124 81.5771C92.5267 77.7951 83.5012 81.989 78.4093 81.135C78.5278 82.2905 80.4296 83.8532 82.0512 84.2769C79.8839 86.8324 78.3754 91.4991 78.8759 96.8055C77.4498 91.6552 74.3634 87.7633 71.4129 86.0709C72.7852 85.1424 74.0147 83.0516 73.7116 81.9272C69.2321 84.3954 59.2511 83.4066 59.2064 87.4467C59.1979 88.3015 59.8468 89.4926 60.3634 89.7793C60.3956 89.5034 60.6575 88.5746 61.9467 88.1589C68.4636 86.0623 75.873 94.9885 71.5628 99.8297C71.4971 99.9032 71.5611 100.008 71.6652 99.9903L86.7931 97.4391C86.8959 97.4218 86.9187 97.3026 86.8319 97.2547C81.0491 94.1156 84.8195 83.304 91.6932 83.1425C93.0546 83.1112 93.6316 83.8986 93.7605 84.1473C94.1435 83.7089 94.3273 82.3774 94.0124 81.5771ZM93.9858 72.3265C93.7974 71.9773 97.7214 71.3059 98.1547 73.656C98.4451 75.2309 96.2344 76.3729 96.5357 78.0072C96.676 78.7685 97.6352 79.1824 97.898 79.1381C96.8094 76.6161 99.5633 77.5676 100.329 77.9445C98.3365 74.6422 101.362 74.1549 100.766 72.587C100.351 71.4912 97.7878 72.2755 96.7318 71.8634C94.8581 71.1325 92.1346 67.5184 91.5482 71.6907C94.4006 73.4537 93.5649 76.8976 90.4533 77.4224C90.4533 77.4224 90.5226 77.8951 90.5579 77.9276C94.2373 77.128 95.05 74.301 93.9858 72.3265ZM51.8822 86.1144C52.4671 85.5098 54.7146 83.7149 54.5949 86.4407C54.8564 86.3966 55.6097 85.6938 55.4694 84.9326C55.168 83.2983 52.6823 82.9482 52.3919 81.3733C51.9586 79.0233 55.8861 78.3706 55.834 78.7604C55.5413 80.9636 57.316 83.3543 61.0593 82.9021C61.0797 82.8602 60.9758 82.3934 60.9758 82.3934C57.8654 82.9179 55.8485 79.9551 57.8971 77.3655C55.854 73.6367 54.5873 77.9237 53.088 79.2234C52.243 79.9561 49.5543 80.0573 49.5558 81.223C49.5579 82.8909 52.5737 82.3595 51.8822 86.1144ZM63.6233 90.863C64.6072 89.6922 66.283 89.4325 67.2931 89.5542C66.5313 88.9219 64.9538 88.5641 64.5102 88.5631C64.2036 88.7363 63.4312 89.8209 63.6233 90.863ZM75.0859 66.3729L72.8862 64.5671L71.465 66.9835L73.6851 68.9001L75.0859 66.3729ZM86.5975 71.0135L85.0334 69.7304L84.0237 71.4475L85.5804 72.6971L86.5975 71.0135ZM105.035 112.619L103.099 111.243L101.771 113.17L103.671 114.343L105.035 112.619ZM64.8822 74.6755L63.318 73.3924L62.3084 75.1096L63.865 76.3591L64.8822 74.6755ZM62.5501 82.6507L67.3519 81.841C71.3891 81.1601 72.7688 78.4839 72.9389 76.3362L77.0467 75.6434C77.9746 77.606 80.2269 79.6698 84.2654 78.9887L89.0672 78.1789C89.0672 78.1789 89.7064 76.9473 89.8176 76.3721C90.2179 74.3021 89.0819 73.5598 87.668 73.7982L86.1323 75.6906L84.0124 74.4147C82.5985 74.6531 81.7965 75.7223 82.9129 77.5365C83.0553 77.7685 83.3543 78.0943 83.6327 78.3778C81.8876 78.4414 79.5072 77.6925 78.5895 75.3833C78.5895 75.3833 79.4958 73.258 79.6691 72.4307C80.291 69.4556 78.6314 68.5623 76.5112 68.9199L74.3412 72.459L71.0365 69.8431C68.9162 70.2007 67.6762 71.5829 69.3257 74.175C69.7832 74.8959 71.3961 76.5963 71.3961 76.5963C71.3584 79.0667 69.3893 80.5491 67.7267 81.0602C67.8881 80.7024 68.0514 80.2987 68.1022 80.0341C68.5013 77.9643 67.3678 77.2216 65.9526 77.4602L64.4169 79.3527L62.2971 78.0767C60.8819 78.3153 60.0824 79.3841 61.1975 81.1985C61.5077 81.7027 62.5501 82.6507 62.5501 82.6507ZM114.82 88.5144C113.976 89.1195 108.987 92.4728 101.856 92.7463C101.87 92.4157 101.871 92.0851 101.862 91.756C106.4 90.4438 110.03 89.0565 112.196 87.3739C114.665 85.4551 115.22 81.7748 113.362 79.4199C113.314 79.3607 113.212 79.3657 113.173 79.4289C112.569 80.39 108.722 86.146 101.505 88.9508C101.416 88.58 101.313 88.2163 101.193 87.8579C104.472 85.2676 107.609 82.3912 108.919 80.0236C110.899 76.4444 109.923 72.4694 107.11 70.8333C107.05 70.7978 106.968 70.8248 106.942 70.8857C106.395 72.2315 101.237 84.6005 94.2036 90.7506C94.1333 90.8129 94.0384 90.8939 93.9432 90.9736C93.7407 91.1436 93.7679 91.4299 93.9922 91.5651C95.0514 92.2026 95.8221 93.2085 96.0475 94.4314C96.4395 96.5576 95.0518 98.615 92.8572 99.3805C91.7454 99.788 90.0723 100.006 88.3831 99.7708C88.3072 99.7608 88.2412 99.8188 88.2539 99.8876L89.4955 106.622C89.5155 106.73 89.6927 106.728 89.7144 106.617C90.2314 103.995 93.0398 102.983 94.3099 102.769C95.2516 105.319 96.4695 107.358 97.7462 108.351C99.8246 109.963 102.64 109.461 103.62 107.938C103.654 107.886 103.629 107.817 103.566 107.796C102.775 107.522 98.2178 105.801 96.6656 101.984C96.9705 101.822 97.2654 101.647 97.5425 101.452C99.257 103.329 101.534 104.874 103.221 105.327C106.054 106.084 108.338 105.098 109.075 103.165C109.102 103.097 109.041 103.028 108.962 103.034C107.323 103.183 102.113 102.66 99.3911 99.7042C99.5936 99.4513 99.7894 99.1899 99.9666 98.9172C102.473 100.153 105.859 101.049 108.149 100.962C110.829 100.861 113.647 99.5622 113.182 96.6393C113.173 96.5808 113.109 96.5422 113.046 96.5565C112.125 96.7671 106.012 98.0624 101.179 96.393C101.28 96.091 101.37 95.7851 101.449 95.4748C101.449 95.4748 108.358 95.8555 111.409 94.829C114.44 93.8093 115.859 91.2743 114.995 88.5641C114.972 88.497 114.881 88.4704 114.82 88.5144ZM57.0989 102.954C57.2846 103.22 57.4791 103.478 57.6825 103.728C53.7386 106.876 47.5343 107.661 46.5898 107.764C46.5235 107.771 46.4782 107.83 46.49 107.887C47.0995 110.785 50.2109 111.083 52.7652 110.302C54.9472 109.634 57.8102 107.685 59.7231 105.704C59.9883 105.902 60.2646 106.084 60.5453 106.255C59.0431 109.923 54.3358 112.118 52.7427 112.515C52.6659 112.535 52.6342 112.619 52.6828 112.675C54.067 114.25 56.566 114.43 58.9585 112.791C60.3807 111.814 61.9676 109.617 62.9075 107.293C63.2388 107.385 63.5784 107.453 63.9216 107.505C63.8282 111.601 60.1617 114.708 59.5158 115.225C59.4657 115.264 59.4651 115.338 59.5157 115.376C60.9814 116.486 63.8079 116.037 65.1844 113.842C66.0291 112.492 66.4432 110.178 66.4161 107.473C67.6875 107.259 70.6871 107.291 72.1107 109.586C72.1719 109.683 72.3392 109.627 72.3192 109.518L71.0777 102.784C71.065 102.715 70.981 102.683 70.9132 102.717C69.4102 103.491 67.7599 103.833 66.5706 103.813C64.2334 103.812 62.1936 102.333 61.8016 100.207C61.5761 98.9837 61.9416 97.785 62.7077 96.8397C62.8715 96.6402 62.7935 96.3625 62.5437 96.2688C62.4245 96.2252 62.3063 96.1802 62.2167 96.1448C53.4137 92.6677 44.1483 82.7395 43.1457 81.6465C43.0992 81.5954 43.0103 81.5984 42.9652 81.6517C40.9103 84.1101 41.4136 88.1635 44.5538 90.878C46.6316 92.6743 50.6078 94.3512 54.614 95.7129C54.6309 96.0887 54.6631 96.4643 54.7135 96.8416C46.9353 96.5667 41.2664 92.424 40.3471 91.7137C40.2857 91.6651 40.1863 91.6939 40.1636 91.765C39.2617 94.5867 41.0997 97.8609 44.1032 98.8569C46.7402 99.7295 50.6472 99.8459 55.3807 99.5945C55.4907 99.9065 55.6092 100.217 55.741 100.523C48.949 102.596 43.0658 101.082 42.0481 100.788C41.9725 100.766 41.8959 100.822 41.9002 100.893C42.0589 103.722 44.2967 105.638 47.5104 105.605C50.7432 105.571 57.0989 102.954 57.0989 102.954ZM104.063 116.471L101.311 115.06C100.448 115.772 99.9002 116.763 99.8136 117.832C98.396 118.272 94.2779 118.098 94.5603 117.475C97.8265 110.9 93.8629 107.982 89.906 108.848L90.6294 112.772C90.8617 114.032 89.9 115.247 88.4836 115.486L85.7265 115.951C83.7488 116.285 82.8118 118.403 82.8118 118.403C82.8118 118.403 81.1737 116.719 79.196 117.053L76.4388 117.517C75.0212 117.757 73.6855 116.929 73.4532 115.669L72.7297 111.745C68.7014 112.225 66.018 116.264 71.4398 121.374C71.9233 121.862 68.0132 123.434 66.0612 123.532C65.4661 123.118 64.6819 122.926 63.869 123.063C63.5109 123.123 63.1817 123.244 62.8886 123.407C62.8886 123.407 54.127 117.875 53.9772 117.832L54.0138 117.684C54.3004 116.847 53.4924 116.124 53.0893 116.252C53.4684 115.619 53.0456 113.201 50.276 113.093C50.4434 113.565 50.6656 114.548 50.6656 114.548C50.6656 114.548 48.4111 113.83 47.547 114.923C46.8282 116.105 48.4323 117.757 48.4323 117.757C48.4323 117.757 47.3835 117.959 46.8566 118.005C48.0751 120.345 50.603 119.739 51.0671 119.158C51.1036 119.557 52.1324 119.96 52.834 119.379L53.1491 119.161C53.2242 119.229 61.7548 124.603 61.7548 124.603C61.5068 125.137 61.4549 125.749 61.6801 126.354C62.0333 127.299 63.0311 127.964 64.154 127.991C64.9469 128.009 65.6407 127.745 66.1586 127.325L68.411 128.716C68.6107 128.837 68.8609 128.891 69.1179 128.829C69.5857 128.719 69.8724 128.292 69.7589 127.877C69.709 127.69 69.5773 127.544 69.4144 127.444C69.3775 127.416 67.1193 126.021 67.1193 126.021C68.5223 124.677 71.3655 123.418 73.8414 123C74.2764 122.927 74.4159 122.54 74.2024 122.22C72.6053 119.83 74.6722 117.555 77.4472 118.655C78.6574 119.135 80.0037 120.255 81.2383 122.295C77.3201 123.933 72.6626 127.411 72.1484 130.436C71.9511 131.604 73.5499 132.881 75.2115 132.912C75.2746 132.915 75.3257 132.867 75.3268 132.81C75.3812 128.414 79.5811 124.436 81.9713 123.478C82.1556 123.777 82.0956 123.68 82.2796 123.979C79.7944 125.662 77.6418 128.692 77.4578 131.894C77.3729 133.36 79.2489 134.353 80.6686 134.472C80.74 134.478 80.7985 134.421 80.7906 134.357C80.3314 130.425 81.5181 126.82 82.8495 125.046C82.9462 125.328 83.0342 125.618 83.1118 125.914C83.1118 125.914 82.2741 130.581 82.8645 133.783C83.1391 135.273 85.6456 135.922 86.0145 136.01C86.4151 135.792 88.537 134.362 88.2623 132.873C87.6719 129.67 85.2159 125.559 85.2159 125.559C85.1842 125.256 85.1618 124.954 85.1531 124.658C87.0374 125.889 89.4428 128.887 90.4163 132.733C90.4316 132.795 90.5084 132.83 90.5721 132.802C91.8649 132.225 93.2716 130.679 92.6687 129.329C91.3495 126.381 88.2444 124.237 85.3069 123.468C85.372 123.128 85.3502 123.238 85.4163 122.897C88.0063 123.015 93.3741 125.379 94.9975 129.493C95.0187 129.546 95.0853 129.574 95.1424 129.551C96.6915 128.979 97.7396 127.255 97.1339 126.223C95.5713 123.547 89.9498 121.803 85.682 121.545C86.1141 119.225 86.9785 117.732 87.9442 116.885C90.157 114.943 92.9129 116.405 92.2671 119.174C92.1808 119.544 92.4489 119.862 92.8851 119.789C95.6856 119.316 99.3139 119.702 100.919 120.769C102.022 121.874 103.782 122.403 105.569 121.925C107.6 121.383 109.012 119.614 108.906 117.738C108.813 116.095 107.677 114.798 106.145 114.245L104.063 116.471ZM84.0915 107.756C84.8965 107.305 86.2915 107.324 86.4648 108.521C86.5033 108.792 86.8986 108.726 86.8764 108.446C86.806 106.622 85.4537 106.322 84.1761 106.752C83.8997 106.168 83.6672 105.655 83.417 105.15C83.2165 104.742 83.0234 103.944 83.5426 103.856C83.8227 103.809 83.8481 104.578 83.8816 104.905C83.9103 105.192 84.0484 105.346 84.2903 105.313C84.4414 105.294 84.5947 105.079 84.6839 104.939C85.2871 103.997 85.2293 102.707 84.2348 102.247C83.4021 101.861 81.6233 102.553 81.2494 103.366C81.122 103.105 80.6718 102.714 80.4596 102.547C80.2531 102.383 80.1842 102.259 80.3897 102.05C80.4862 101.95 80.7642 101.573 80.7031 101.241C80.667 101.046 80.4418 100.711 79.9374 100.796C79.5397 100.863 79.1458 101.201 79.2542 101.789C79.2782 101.919 79.3375 102.054 79.4532 102.189C79.1943 102.192 78.5145 102.323 78.1791 102.465L85.3743 114.374C86.6414 113.484 87.4675 112.275 87.2622 111.162C87.0873 110.213 85.6843 110.774 85.1107 111.634C84.6609 110.47 84.2529 109.393 83.8269 108.323C83.7099 108.028 83.852 107.891 84.0915 107.756ZM75.6413 100.267L77.159 102.802C76.3231 103.147 75.0326 103.992 75.1811 104.798C75.3788 105.87 77.4915 106.234 78.6235 105.956C78.6116 106.211 78.7175 106.418 78.9327 106.587C78.5163 106.657 77.7648 106.975 77.5561 107.284C76.8477 106.845 75.8597 106.808 75.4682 107.215C75.0747 107.623 75.1649 108.189 75.7568 108.745C76.1689 109.13 76.373 109.544 76.0954 110.117C77.4783 109.884 76.652 108.251 77.1935 108.159C77.1843 108.505 77.2989 108.883 77.5351 109.284C77.6916 109.551 77.7288 109.753 77.6009 110.057C77.2805 110.814 76.8754 112.498 77.2307 113.898C76.7768 113.972 76.5267 113.905 76.5774 113.286C76.5962 113.056 76.4247 112.922 76.2864 113.226C76.1335 113.56 76.1275 114.089 76.1679 114.308C76.4004 115.57 78.0186 115.559 78.5691 115.191C80.6 116.504 83.9288 115.501 84.9707 114.77L76.0677 100.036C75.8903 99.7598 75.4766 99.9762 75.6413 100.267ZM77.8243 113.272C77.5809 112.644 78.3103 111.327 79.3037 110.007C79.1828 110.778 79.5729 112.007 80.1532 112.355C79.2833 112.502 78.2786 112.832 77.8243 113.272Z" fill="#6EBDFF" />
    <path d="M29.7614 40.3429C29.8993 41.0907 29.7388 41.7112 29.2787 42.204C28.8192 42.6967 28.0929 43.0271 27.099 43.1947L26.1899 43.348L26.7258 46.2545L25.8273 46.4061L24.4647 39.0152L26.468 38.6774C28.3989 38.3518 29.4967 38.9069 29.7614 40.3429ZM26.0538 42.6098L26.8625 42.4734C27.659 42.3391 28.2124 42.1187 28.5229 41.8128C28.8334 41.5069 28.9386 41.0827 28.8385 40.5397C28.7484 40.0511 28.514 39.7156 28.1352 39.5325C27.7565 39.35 27.213 39.3184 26.5047 39.4379L25.5002 39.6073L26.0538 42.6098Z" fill="#FFCC13" />
    <path d="M39.9924 40.1962C40.2106 41.3793 40.0697 42.3622 39.5689 43.1452C39.0686 43.928 38.2615 44.4134 37.1477 44.6012C36.0094 44.7932 35.0702 44.6084 34.3289 44.047C33.5877 43.4856 33.1055 42.5984 32.8818 41.3849C32.66 40.182 32.7981 39.1968 33.2963 38.4303C33.7943 37.6632 34.6139 37.1834 35.7556 36.9909C36.8654 36.8037 37.7949 36.9946 38.5427 37.5637C39.2905 38.1327 39.7737 39.0099 39.9924 40.1962ZM33.8351 41.2345C34.0197 42.2358 34.3822 42.9573 34.9232 43.3995C35.4648 43.8417 36.1599 43.9907 37.0088 43.8475C37.8654 43.703 38.4643 43.3364 38.8059 42.7469C39.1482 42.1579 39.2267 41.361 39.0415 40.3566C38.8582 39.3623 38.5012 38.6454 37.9713 38.2045C37.4416 37.7642 36.75 37.6157 35.8973 37.7595C35.0412 37.9039 34.438 38.2724 34.0872 38.865C33.737 39.4576 33.6531 40.2472 33.8351 41.2345Z" fill="#FFCC13" />
    <path d="M46.0911 36.0511C45.2417 36.1943 44.6211 36.5778 44.2295 37.2016C43.8373 37.8254 43.7278 38.6072 43.9012 39.5476C44.0796 40.5152 44.4544 41.2225 45.0256 41.6696C45.597 42.1172 46.321 42.2668 47.1988 42.1187C47.7376 42.0279 48.3357 41.8319 48.992 41.5298L49.1309 42.283C48.6308 42.5653 47.9877 42.7733 47.2019 42.9058C46.0636 43.0978 45.1247 42.9151 44.3845 42.3591C43.6442 41.803 43.1621 40.9163 42.9378 39.6996C42.7974 38.9379 42.8227 38.2456 43.0149 37.6225C43.2071 36.9994 43.5558 36.4858 44.0608 36.0805C44.5658 35.6758 45.1987 35.4091 45.96 35.2807C46.7703 35.144 47.5048 35.1665 48.1626 35.347L47.9184 36.1494C47.2848 35.9851 46.6756 35.9525 46.0911 36.0511Z" fill="#FFCC13" />
    <path d="M54.544 34.6257C53.6946 34.7689 53.074 35.1524 52.6824 35.7761C52.2902 36.4 52.1807 37.1818 52.3541 38.1222C52.5325 39.0899 52.9073 39.7972 53.4785 40.2443C54.0499 40.6919 54.7739 40.8415 55.6517 40.6934C56.1905 40.6026 56.7886 40.4065 57.4449 40.1045L57.5837 40.8577C57.0837 41.14 56.4406 41.348 55.6548 41.4805C54.5165 41.6725 53.5776 41.4898 52.8374 40.9337C52.0971 40.3777 51.615 39.491 51.3907 38.2743C51.2503 37.5125 51.2756 36.8202 51.4678 36.1971C51.66 35.574 52.0087 35.0604 52.5137 34.6551C53.0187 34.2504 53.6516 33.9836 54.4129 33.8552C55.2232 33.7186 55.9577 33.741 56.6155 33.9216L56.3712 34.724C55.7377 34.5596 55.1285 34.5271 54.544 34.6257Z" fill="#FFCC13" />
    <path d="M59.5763 33.094L60.4168 32.9523L61.1745 37.0622C61.3144 37.8207 61.4157 38.5109 61.4797 39.1326L61.5221 39.1254L64.7191 32.2267L65.7024 32.0609L67.065 39.4518L66.2195 39.5944L65.4692 35.525C65.3443 34.8476 65.2428 34.1316 65.1657 33.3762L65.1177 33.3843L61.9222 40.3191L60.9389 40.4849L59.5763 33.094Z" fill="#FFCC13" />
    <path d="M69.4509 31.4287L70.2914 31.287L71.0491 35.3968C71.189 36.1553 71.2904 36.8455 71.3544 37.4672L71.3968 37.46L74.5937 30.5615L75.577 30.3956L76.9396 37.7864L76.0941 37.929L75.3438 33.8597C75.219 33.1823 75.1174 32.4663 75.0403 31.711L74.9923 31.7191L71.7968 38.6537L70.8136 38.8195L69.4509 31.4287ZM72.545 30.2976C71.893 30.4075 71.395 30.3672 71.0511 30.1766C70.7071 29.986 70.4667 29.6174 70.3296 29.0707L71.154 28.9317C71.2504 29.2768 71.3913 29.5049 71.5774 29.616C71.763 29.7271 72.0552 29.7493 72.4534 29.6822C72.8165 29.621 73.0711 29.5016 73.2183 29.3239C73.3655 29.1461 73.4279 28.8887 73.406 28.5519L74.2359 28.412C74.2917 28.9514 74.1861 29.3735 73.9183 29.6771C73.6512 29.9812 73.1931 30.1883 72.545 30.2976Z" fill="#FFCC13" />
    <path d="M82.7465 29.8698C81.8971 30.013 81.2766 30.3965 80.885 31.0202C80.4928 31.6441 80.3833 32.4259 80.5567 33.3663C80.7351 34.3339 81.1099 35.0413 81.6811 35.4883C82.2524 35.9359 82.9764 36.0855 83.8543 35.9375C84.3931 35.8466 84.9912 35.6506 85.6475 35.3485L85.7863 36.1017C85.2863 36.384 84.6432 36.592 83.8574 36.7245C82.719 36.9165 81.7802 36.7338 81.0399 36.1778C80.2997 35.6217 79.8176 34.735 79.5933 33.5183C79.4529 32.7566 79.4782 32.0643 79.6704 31.4412C79.8626 30.8181 80.2113 30.3045 80.7162 29.8992C81.2213 29.4945 81.8541 29.2277 82.6154 29.0993C83.4258 28.9627 84.1603 28.9851 84.8181 29.1657L84.5738 29.9681C83.9403 29.8038 83.331 29.7712 82.7465 29.8698Z" fill="#FFCC13" />
    <path d="M94.6909 34.7931L93.6022 34.9766L89.3382 31.8331L90.0288 35.5793L89.1303 35.7308L87.7677 28.3398L88.6662 28.1883L89.3261 31.7675L92.1492 27.601L93.1804 27.427L90.4222 31.5931L94.6909 34.7931Z" fill="#FFCC13" />
    <path d="M102.235 33.5209L100.84 31.3323L97.7421 31.8547L97.224 34.3658L96.315 34.5191L98.0019 26.5826L98.7577 26.4552L103.165 33.364L102.235 33.5209ZM100.417 30.6062L99.0959 28.4678C98.9265 28.1977 98.741 27.8621 98.5401 27.4615C98.5222 27.7984 98.4768 28.1723 98.4038 28.5845L97.9169 31.0277L100.417 30.6062Z" fill="#FFCC13" />
    <path d="M107.577 29.4405L106.121 32.8656L105.058 33.0448L106.63 29.4489C106.031 29.3728 105.571 29.1821 105.249 28.8766C104.928 28.5711 104.718 28.1523 104.62 27.6199C104.498 26.959 104.643 26.411 105.055 25.9746C105.467 25.5388 106.157 25.2387 107.126 25.0753L109.251 24.7169L110.614 32.1079L109.715 32.2594L109.147 29.1758L107.577 29.4405ZM108.49 25.612L107.29 25.8144C106.645 25.9232 106.175 26.1119 105.879 26.3806C105.583 26.6494 105.48 27.0228 105.568 27.5013C105.749 28.4822 106.507 28.8597 107.842 28.6346L109.011 28.4375L108.49 25.612Z" fill="#FFCC13" />
    <path d="M33.9444 48.5709L34.8535 48.4176L35.0212 49.3276L35.391 49.2652C35.9939 49.1636 36.5371 49.1902 37.0217 49.345C37.5061 49.4992 37.9044 49.7659 38.2156 50.1441C38.5269 50.5228 38.732 50.9799 38.8307 51.5154C38.9339 52.075 38.8947 52.5953 38.7124 53.0759C38.5302 53.5565 38.2315 53.9452 37.8156 54.2408C37.3992 54.5371 36.8812 54.7372 36.261 54.8418L36.0446 54.8783L36.2544 56.016L35.3453 56.1693L35.1355 55.0316L34.8973 55.0717C34.2772 55.1763 33.7196 55.1559 33.2241 55.0102C32.7285 54.8644 32.3118 54.5942 31.9733 54.1992C31.6354 53.8046 31.4168 53.3361 31.3167 52.793C31.2185 52.2607 31.2497 51.7654 31.4103 51.3077C31.5713 50.8493 31.852 50.4659 32.2528 50.1569C32.6536 49.8479 33.1551 49.6423 33.758 49.5406L34.1121 49.4809L33.9444 48.5709ZM34.2482 50.2191L33.9471 50.2699C33.3057 50.3781 32.8339 50.6419 32.531 51.0609C32.2288 51.4804 32.1346 51.9984 32.2482 52.6151C32.3707 53.2791 32.6613 53.7609 33.1198 54.0609C33.5781 54.3603 34.1634 54.4503 34.8751 54.3302L35.0022 54.3088L34.2482 50.2191ZM35.9113 54.1555L36.0435 54.1332C36.7518 54.0137 37.2683 53.7364 37.5929 53.301C37.918 52.8656 38.0197 52.3193 37.8986 51.6622C37.7837 51.0392 37.5123 50.5806 37.084 50.2882C36.6557 49.9957 36.1155 49.9042 35.4641 50.0141L35.1573 50.0658L35.9113 54.1555Z" fill="#FFCC13" />
    <path d="M47.0935 54.0837L42.7856 54.8101L41.423 47.4191L45.7309 46.6926L45.8716 47.456L42.4622 48.0309L42.9012 50.4121L46.1042 49.8719L46.2441 50.6304L43.0411 51.1706L43.5424 53.89L46.9518 53.315L47.0935 54.0837Z" fill="#FFCC13" />
    <path d="M56.8792 54.4194L56.0231 54.5637L55.6679 52.6376L50.2976 53.5433L50.6527 55.4694L49.7966 55.6137L49.298 52.9094L49.8953 52.8087C50.2765 51.8441 50.5453 50.7042 50.7008 49.3889C50.8562 48.0735 50.8592 46.8949 50.7108 45.8529L54.1837 45.2673L55.4029 51.8799L56.3806 51.715L56.8792 54.4194ZM54.5044 52.0314L53.4278 46.1922L51.6676 46.4891C51.7544 47.3154 51.722 48.3312 51.5699 49.5365C51.4178 50.7419 51.1732 51.7797 50.8362 52.65L54.5044 52.0314Z" fill="#FFCC13" />
    <path d="M63.7561 51.2736L59.4483 52L58.0856 44.6093L62.3935 43.8828L62.5342 44.6461L59.1249 45.221L59.5639 47.6021L62.7669 47.062L62.9067 47.8205L59.7037 48.3606L60.205 51.0799L63.6144 50.5049L63.7561 51.2736Z" fill="#FFCC13" />
    <path d="M71.0265 44.6478C71.1644 45.3956 71.0039 46.0161 70.5439 46.5089C70.0844 47.0017 69.358 47.3321 68.3642 47.4997L67.4551 47.653L67.9909 50.5595L67.0924 50.711L65.7298 43.3201L67.7332 42.9823C69.664 42.6567 70.7618 43.2118 71.0265 44.6478ZM67.319 46.9147L68.1277 46.7784C68.9241 46.6441 69.4775 46.4237 69.788 46.1178C70.0985 45.8119 70.2037 45.3877 70.1036 44.8447C70.0135 44.3561 69.7792 44.0205 69.4004 43.8374C69.0217 43.6549 68.4782 43.6233 67.7699 43.7428L66.7654 43.9122L67.319 46.9147Z" fill="#FFCC13" />
    <path d="M80.0909 48.5189L78.696 46.3303L75.5983 46.8527L75.0802 49.3638L74.1712 49.5172L75.8581 41.5807L76.6139 41.4533L81.0212 48.362L80.0909 48.5189ZM78.2728 45.6042L76.9521 43.4658C76.7827 43.1958 76.5972 42.8602 76.3963 42.4596C76.3784 42.7964 76.333 43.1704 76.26 43.5826L75.7731 46.0257L78.2728 45.6042Z" fill="#FFCC13" />
    <path d="M89.3306 46.1584L90.2397 46.0051L90.7383 48.7095L89.8872 48.853L89.5321 46.9269L83.7072 47.9092L82.3445 40.5182L83.243 40.3667L84.4622 46.9794L88.4315 46.31L87.2124 39.6973L88.1114 39.5457L89.3306 46.1584Z" fill="#FFCC13" />
    <path d="M91.9553 38.8975L92.7958 38.7558L93.5535 42.8656C93.6933 43.6241 93.7947 44.3143 93.8587 44.936L93.9011 44.9288L97.098 38.0303L98.0813 37.8644L99.4439 45.2552L98.5984 45.3978L97.8482 41.3285C97.7233 40.6511 97.6218 39.9351 97.5446 39.1798L97.4966 39.1879L94.3012 46.1225L93.3179 46.2883L91.9553 38.8975Z" fill="#FFCC13" />
    <path d="M104.907 41.1545L103.451 44.5795L102.389 44.7587L103.961 41.1629C103.362 41.0868 102.901 40.8961 102.58 40.5906C102.258 40.2851 102.048 39.8662 101.95 39.3339C101.828 38.673 101.973 38.1249 102.385 37.6885C102.797 37.2528 103.487 36.9527 104.457 36.7893L106.582 36.4309L107.944 43.8218L107.046 43.9733L106.477 40.8897L104.907 41.1545ZM105.82 37.326L104.62 37.5284C103.975 37.6371 103.505 37.8259 103.21 38.0946C102.914 38.3634 102.81 38.7368 102.898 39.2152C103.079 40.1962 103.838 40.5737 105.173 40.3485L106.341 40.1515L105.82 37.326Z" fill="#FFCC13" />
    <path d="M56.5985 177.641L54.1647 178.051L52.4925 168.981L48.255 169.696L49.9272 178.766L47.4855 179.177L45.455 168.164L54.568 166.627L56.5985 177.641Z" fill="#FFCC13" />
    <path d="M68.9736 175.554L67.6554 173.073L63.4573 173.781L63.1057 176.543L60.475 176.987L62.5004 165.243L65.4856 164.74L71.6044 175.11L68.9736 175.554ZM66.7115 171.213C65.5017 168.968 64.8195 167.698 64.6649 167.403C64.5104 167.108 64.3954 166.873 64.3201 166.7C64.2653 167.372 64.0622 169.045 63.7106 171.719L66.7115 171.213Z" fill="#FFCC13" />
    <path d="M78.6635 164.405C77.7446 164.56 77.094 165.01 76.7116 165.756C76.3293 166.501 76.2469 167.464 76.4645 168.644C76.9173 171.1 78.1072 172.165 80.0343 171.84C80.8429 171.704 81.7866 171.345 82.8652 170.764L83.2263 172.723C82.3506 173.259 81.3299 173.625 80.1642 173.822C78.4891 174.104 77.1183 173.835 76.0517 173.013C74.9852 172.19 74.2843 170.87 73.9492 169.053C73.738 167.908 73.771 166.868 74.0481 165.933C74.3251 164.998 74.8295 164.232 75.5613 163.635C76.2931 163.038 77.2077 162.647 78.3052 162.461C79.4236 162.273 80.595 162.342 81.8193 162.669L81.3817 164.7C80.915 164.577 80.4503 164.479 79.9876 164.407C79.525 164.335 79.0836 164.334 78.6635 164.405Z" fill="#FFCC13" />
    <path d="M97.2846 170.78L94.8508 171.19L93.1787 162.12L88.9412 162.835L90.6133 171.905L88.1716 172.316L86.1412 161.303L95.2542 159.766L97.2846 170.78Z" fill="#FFCC13" />
    <path d="M112.045 162.597C112.381 164.42 112.167 165.901 111.402 167.039C110.638 168.178 109.373 168.896 107.609 169.194C105.844 169.491 104.399 169.23 103.274 168.41C102.148 167.59 101.416 166.264 101.078 164.431C100.74 162.598 100.956 161.118 101.726 159.991C102.495 158.865 103.765 158.152 105.534 157.854C107.304 157.556 108.747 157.814 109.864 158.631C110.981 159.447 111.708 160.769 112.045 162.597ZM103.641 164.014C103.868 165.245 104.283 166.13 104.886 166.67C105.489 167.211 106.276 167.399 107.248 167.235C109.196 166.907 109.942 165.504 109.485 163.029C109.028 160.548 107.83 159.471 105.893 159.798C104.921 159.961 104.246 160.397 103.868 161.106C103.49 161.814 103.414 162.784 103.641 164.014Z" fill="#FFCC13" />
    <path d="M124.427 158.388C124.645 159.574 124.425 160.545 123.767 161.304C123.108 162.062 122.064 162.562 120.636 162.803L119.588 162.979L120.311 166.896L117.869 167.308L115.839 156.295L119.517 155.675C120.914 155.439 122.029 155.548 122.862 156C123.695 156.452 124.217 157.248 124.427 158.388ZM119.236 161.066L120.039 160.93C120.79 160.804 121.326 160.567 121.646 160.221C121.967 159.874 122.077 159.429 121.977 158.887C121.876 158.34 121.645 157.962 121.285 157.753C120.924 157.545 120.41 157.497 119.744 157.609L118.633 157.797L119.236 161.066Z" fill="#FFCC13" />
    <path d="M134.86 164.443L132.418 164.855L130.746 155.785L127.619 156.312L127.261 154.369L135.956 152.902L136.314 154.846L133.187 155.373L134.86 164.443Z" fill="#FFCC13" />
    <path d="M260.912 225.239L141.014 204.523C139.395 204.243 138.273 202.76 138.575 201.161L152.207 128.993C152.5 127.445 154.05 126.372 155.721 126.661L275.62 147.377C277.239 147.656 278.361 149.14 278.059 150.738L264.417 222.956C264.073 224.495 262.531 225.518 260.912 225.239Z" fill="white" stroke="#007CFF" stroke-width="2" stroke-miterlimit="10" />
    <path d="M155.936 183.482C155.747 184.481 155.449 185.203 154.989 185.639C154.529 186.076 154.012 186.244 153.333 186.127C152.654 186.009 152.231 185.679 151.959 185.116C151.688 184.553 151.673 183.777 151.862 182.778C152.05 181.779 152.349 181.056 152.756 180.611C153.164 180.166 153.734 180.006 154.413 180.123C155.092 180.241 155.515 180.572 155.786 181.134C156.1 181.756 156.115 182.533 155.936 183.482ZM152.593 182.904C152.433 183.753 152.424 184.371 152.557 184.806C152.691 185.242 152.966 185.496 153.436 185.577C153.906 185.659 154.258 185.513 154.542 185.149C154.826 184.786 155.044 184.204 155.205 183.355C155.365 182.506 155.374 181.889 155.24 181.453C155.107 181.017 154.831 180.763 154.361 180.682C153.891 180.601 153.54 180.746 153.256 181.11C152.971 181.473 152.753 182.055 152.593 182.904Z" fill="#FFCC13" />
    <path d="M162.098 184.545C161.909 185.544 161.611 186.267 161.151 186.703C160.691 187.139 160.174 187.308 159.495 187.19C158.816 187.073 158.393 186.742 158.122 186.179C157.851 185.617 157.835 184.84 158.024 183.841C158.213 182.842 158.511 182.12 158.919 181.675C159.326 181.229 159.896 181.07 160.575 181.187C161.254 181.304 161.677 181.635 161.948 182.198C162.21 182.811 162.277 183.596 162.098 184.545ZM158.755 183.968C158.595 184.817 158.586 185.434 158.72 185.87C158.853 186.306 159.129 186.56 159.599 186.641C160.069 186.722 160.42 186.577 160.704 186.213C160.989 185.849 161.206 185.268 161.367 184.419C161.527 183.57 161.536 182.952 161.403 182.517C161.269 182.081 160.993 181.827 160.523 181.746C160.053 181.664 159.702 181.81 159.418 182.174C159.133 182.537 158.916 183.119 158.755 183.968Z" fill="#FFCC13" />
    <path d="M168.208 185.601C168.019 186.6 167.721 187.322 167.261 187.758C166.801 188.195 166.284 188.363 165.605 188.246C164.926 188.129 164.503 187.798 164.232 187.235C163.96 186.672 163.945 185.896 164.134 184.897C164.323 183.898 164.621 183.176 165.029 182.73C165.436 182.285 166.006 182.125 166.685 182.243C167.364 182.36 167.787 182.691 168.058 183.254C168.372 183.875 168.387 184.652 168.208 185.601ZM164.917 185.032C164.757 185.882 164.748 186.499 164.882 186.935C165.015 187.37 165.291 187.624 165.761 187.706C166.231 187.787 166.582 187.641 166.866 187.278C167.151 186.914 167.369 186.333 167.529 185.484C167.689 184.634 167.698 184.017 167.565 183.581C167.431 183.145 167.156 182.892 166.686 182.81C166.215 182.729 165.864 182.875 165.58 183.238C165.296 183.602 165.078 184.183 164.917 185.032Z" fill="#FFCC13" />
    <path d="M174.37 186.666C174.181 187.665 173.883 188.387 173.423 188.823C172.963 189.26 172.446 189.428 171.767 189.311C171.088 189.194 170.665 188.863 170.394 188.3C170.122 187.737 170.107 186.961 170.296 185.962C170.485 184.963 170.783 184.241 171.191 183.795C171.598 183.35 172.168 183.19 172.847 183.308C173.526 183.425 173.949 183.756 174.22 184.319C174.534 184.94 174.549 185.717 174.37 186.666ZM171.079 186.097C170.919 186.946 170.91 187.564 171.044 188C171.177 188.435 171.453 188.689 171.923 188.77C172.393 188.852 172.744 188.706 173.029 188.342C173.313 187.979 173.531 187.398 173.691 186.548C173.851 185.699 173.86 185.082 173.727 184.646C173.593 184.21 173.318 183.956 172.848 183.875C172.378 183.794 172.026 183.94 171.742 184.303C171.458 184.667 171.24 185.248 171.079 186.097Z" fill="#FFCC13" />
    <path d="M184.031 188.335C183.842 189.334 183.544 190.056 183.084 190.492C182.624 190.929 182.106 191.097 181.427 190.98C180.748 190.863 180.326 190.532 180.054 189.969C179.783 189.406 179.768 188.63 179.957 187.631C180.145 186.632 180.444 185.91 180.851 185.464C181.259 185.019 181.829 184.859 182.508 184.977C183.187 185.094 183.609 185.425 183.881 185.988C184.195 186.609 184.21 187.386 184.031 188.335ZM180.688 187.757C180.527 188.606 180.519 189.224 180.652 189.659C180.786 190.095 181.061 190.349 181.531 190.43C182.001 190.512 182.352 190.366 182.637 190.002C182.921 189.639 183.139 189.058 183.299 188.208C183.46 187.359 183.469 186.742 183.335 186.306C183.202 185.87 182.926 185.616 182.456 185.535C181.986 185.454 181.635 185.6 181.35 185.963C181.066 186.327 180.848 186.908 180.688 187.757Z" fill="#FFCC13" />
    <path d="M190.193 189.399C190.004 190.398 189.706 191.121 189.246 191.557C188.786 191.993 188.269 192.162 187.59 192.044C186.911 191.927 186.488 191.596 186.216 191.034C185.945 190.471 185.93 189.695 186.119 188.695C186.307 187.696 186.606 186.974 187.013 186.529C187.421 186.084 187.991 185.924 188.67 186.041C189.349 186.159 189.771 186.49 190.043 187.052C190.305 187.665 190.372 188.45 190.193 189.399ZM186.85 188.822C186.689 189.671 186.681 190.288 186.814 190.724C186.948 191.16 187.223 191.414 187.693 191.495C188.163 191.576 188.514 191.431 188.799 191.067C189.083 190.704 189.301 190.122 189.461 189.273C189.622 188.424 189.631 187.806 189.497 187.371C189.364 186.935 189.088 186.681 188.618 186.6C188.148 186.519 187.797 186.664 187.512 187.028C187.228 187.391 187.01 187.973 186.85 188.822Z" fill="#FFCC13" />
    <path d="M196.262 192.099L195.374 191.945L195.119 193.294L194.44 193.177L194.695 191.828L191.718 191.314L191.831 190.714L195.449 187.264L196.18 187.391L195.444 191.287L196.332 191.44L196.209 192.09L196.262 192.099ZM194.808 191.229L195.176 189.281C195.251 188.881 195.327 188.481 195.473 187.991L195.421 187.982C195.217 188.204 195.075 188.386 194.933 188.568L192.562 190.841L194.808 191.229Z" fill="#FFCC13" />
    <path d="M201.046 188.18C201.62 188.279 202.019 188.451 202.286 188.755C202.552 189.059 202.642 189.435 202.567 189.835C202.51 190.135 202.359 190.367 202.155 190.589C201.899 190.803 201.6 190.958 201.144 191.085C201.567 191.416 201.895 191.679 202.057 191.965C202.218 192.251 202.266 192.569 202.21 192.868C202.115 193.368 201.893 193.691 201.47 193.927C201.048 194.164 200.55 194.232 199.923 194.124C199.296 194.016 198.802 193.776 198.484 193.463C198.165 193.15 198.084 192.723 198.179 192.223C198.301 191.574 198.823 191.097 199.725 190.892C199.397 190.629 199.13 190.325 199.012 190.098C198.902 189.821 198.845 189.553 198.901 189.253C198.977 188.854 199.2 188.531 199.56 188.335C200.025 188.158 200.471 188.08 201.046 188.18ZM198.848 192.391C198.791 192.69 198.849 192.958 199.072 193.203C199.243 193.439 199.599 193.552 200.017 193.624C200.435 193.697 200.767 193.651 201.014 193.487C201.261 193.323 201.465 193.101 201.521 192.801C201.568 192.551 201.511 192.283 201.34 192.048C201.169 191.812 200.841 191.549 200.304 191.25C199.858 191.327 199.507 191.473 199.312 191.646C199.056 191.859 198.905 192.091 198.848 192.391ZM200.89 188.72C200.524 188.657 200.244 188.712 200.007 188.825C199.77 188.939 199.628 189.121 199.571 189.421C199.524 189.67 199.59 189.888 199.709 190.115C199.828 190.342 200.113 190.546 200.494 190.818C200.94 190.74 201.239 190.586 201.424 190.463C201.618 190.29 201.76 190.108 201.807 189.859C201.855 189.609 201.797 189.341 201.617 189.155C201.498 188.928 201.255 188.783 200.89 188.72Z" fill="#FFCC13" />
    <path d="M210.116 195.835L209.437 195.718L210.22 191.571C210.286 191.221 210.343 190.921 210.461 190.58C210.399 190.621 210.338 190.662 210.214 190.744C210.153 190.785 209.74 190.972 209.071 191.372L208.79 190.859L210.636 189.94L211.211 190.039L210.116 195.835Z" fill="#FFCC13" />
    <path d="M216.269 193.234C216.895 193.342 217.389 193.583 217.698 193.945C218.007 194.308 218.141 194.744 218.037 195.294C217.924 195.893 217.62 196.357 217.146 196.584C216.672 196.812 216.111 196.921 215.38 196.795C214.701 196.677 214.198 196.487 213.87 196.224L213.993 195.575C214.183 195.711 214.373 195.847 214.667 196.001C214.971 196.105 215.223 196.2 215.484 196.245C215.954 196.327 216.391 196.299 216.699 196.094C216.998 195.939 217.221 195.617 217.296 195.217C217.447 194.418 217 193.928 215.956 193.748C215.695 193.702 215.32 193.689 214.892 193.667L214.564 193.404L215.283 190.743L218.312 191.266L218.199 191.865L215.744 191.441L215.257 193.163C215.632 193.176 215.955 193.18 216.269 193.234Z" fill="#FFCC13" />
    <path d="M222.388 197.955L221.708 197.838L222.492 193.691C222.558 193.341 222.615 193.041 222.733 192.701C222.671 192.742 222.609 192.782 222.486 192.864C222.424 192.905 222.012 193.092 221.342 193.492L221.062 192.979L222.908 192.06L223.482 192.159L222.388 197.955Z" fill="#FFCC13" />
    <path d="M226.505 196.138C226.722 194.989 227.091 194.176 227.665 193.707C228.239 193.239 228.974 193.057 229.862 193.21C230.176 193.264 230.427 193.359 230.575 193.436L230.471 193.986C230.271 193.9 230.02 193.805 229.759 193.76C229.132 193.651 228.572 193.761 228.131 194.097C227.69 194.434 227.42 195.006 227.207 195.846L227.259 195.855C227.658 195.46 228.175 195.291 228.854 195.409C229.376 195.499 229.818 195.73 230.075 196.084C230.331 196.438 230.403 196.914 230.299 197.464C230.186 198.063 229.935 198.536 229.503 198.822C229.072 199.109 228.573 199.177 227.999 199.078C227.372 198.97 226.897 198.63 226.616 198.117C226.45 197.573 226.354 196.937 226.505 196.138ZM228.164 198.488C228.582 198.56 228.862 198.505 229.171 198.301C229.427 198.087 229.597 197.755 229.682 197.306C229.758 196.906 229.71 196.588 229.539 196.352C229.367 196.117 229.082 195.913 228.717 195.849C228.456 195.804 228.237 195.818 228.009 195.882C227.782 195.946 227.597 196.068 227.412 196.191C227.279 196.323 227.137 196.505 227.099 196.705C227.052 196.954 227.047 197.263 227.114 197.481C227.171 197.749 227.3 197.926 227.48 198.112C227.713 198.307 227.903 198.443 228.164 198.488Z" fill="#FFCC13" />
    <path d="M239.621 200.931L235.599 200.236L235.703 199.687L237.614 198.418C238.169 198.05 238.601 197.763 238.743 197.582C238.885 197.4 239.08 197.227 239.222 197.045C239.312 196.854 239.402 196.664 239.44 196.464C239.496 196.164 239.439 195.896 239.268 195.66C239.097 195.425 238.845 195.33 238.479 195.266C238.218 195.221 238 195.235 237.729 195.24C237.459 195.245 237.221 195.359 236.913 195.563L236.632 195.05C237.292 194.7 237.904 194.6 238.583 194.717C239.158 194.816 239.599 195.047 239.866 195.351C240.122 195.705 240.213 196.082 240.119 196.581C240.053 196.931 239.873 197.312 239.598 197.626C239.323 197.94 238.82 198.317 238.142 198.767L236.6 199.79L236.59 199.84L239.724 200.382L239.621 200.931Z" fill="#FFCC13" />
    <path d="M246.413 197.514C246.347 197.864 246.177 198.195 245.93 198.359C245.674 198.573 245.332 198.668 244.905 198.646L244.896 198.696C245.356 198.827 245.694 199.04 245.908 199.335C246.122 199.63 246.169 199.948 246.094 200.347C245.99 200.897 245.696 201.31 245.222 201.538C244.747 201.766 244.145 201.816 243.413 201.69C243.1 201.636 242.787 201.581 242.535 201.486C242.283 201.391 242.041 201.246 241.799 201.101L241.921 200.452C242.164 200.597 242.406 200.742 242.7 200.896C243.004 201 243.256 201.095 243.517 201.14C244.562 201.321 245.159 201.011 245.31 200.212C245.443 199.513 244.934 199.064 243.785 198.865L243.211 198.766L243.314 198.217L243.941 198.325C244.411 198.406 244.796 198.369 245.147 198.224C245.446 198.069 245.659 197.796 245.725 197.447C245.782 197.147 245.715 196.929 245.534 196.743C245.354 196.557 245.111 196.412 244.746 196.349C244.485 196.304 244.214 196.309 243.996 196.322C243.725 196.327 243.436 196.432 243.137 196.587L242.856 196.074C243.155 195.919 243.444 195.815 243.829 195.778C244.161 195.732 244.536 195.745 244.902 195.808C245.476 195.908 245.918 196.139 246.184 196.443C246.355 196.679 246.498 197.064 246.413 197.514Z" fill="#FFCC13" />
    <path d="M252.451 201.807L251.563 201.654L251.308 203.002L250.629 202.885L250.884 201.536L247.907 201.022L248.02 200.422L251.638 196.973L252.37 197.099L251.634 200.995L252.522 201.149L252.399 201.798L252.451 201.807ZM250.997 200.937L251.365 198.989C251.441 198.589 251.516 198.189 251.663 197.699L251.611 197.69C251.407 197.913 251.265 198.094 251.122 198.276L248.751 200.549L250.997 200.937Z" fill="#FFCC13" />
    <path d="M258.107 204.125L254.085 203.43L254.189 202.881L256.1 201.612C256.655 201.244 257.087 200.957 257.229 200.776C257.424 200.603 257.566 200.421 257.708 200.239C257.798 200.049 257.888 199.858 257.926 199.658C257.982 199.358 257.925 199.09 257.754 198.855C257.583 198.619 257.331 198.524 256.965 198.46C256.704 198.415 256.486 198.429 256.215 198.434C255.945 198.439 255.707 198.553 255.399 198.757L255.118 198.245C255.778 197.894 256.39 197.794 257.069 197.911C257.644 198.01 258.085 198.241 258.352 198.545C258.608 198.899 258.699 199.276 258.605 199.775C258.539 200.125 258.359 200.507 258.084 200.82C257.809 201.134 257.306 201.511 256.628 201.961L255.086 202.984L255.077 203.034L258.21 203.576L258.107 204.125Z" fill="#FFCC13" />
    <path d="M159.117 158.646L173.061 161.056C174.271 161.265 175.01 162.32 174.801 163.429L172.839 173.818C172.629 174.926 171.55 175.667 170.34 175.458L156.396 173.049C155.186 172.84 154.446 171.784 154.656 170.676L156.618 160.287C156.827 159.179 157.906 158.437 159.117 158.646ZM160.346 166.295C159.894 168.687 161.565 170.881 163.954 171.293C166.343 171.706 168.711 170.211 169.163 167.819C169.614 165.431 168 163.243 165.555 162.82C163.109 162.398 160.797 163.907 160.346 166.295Z" stroke="#FFCC13" />
    <path d="M189.976 147.434L192.274 147.831C193.319 148.011 194.074 148.297 194.488 148.678C194.901 149.058 195.078 149.553 194.955 150.203C194.87 150.652 194.699 150.984 194.382 151.238C194.116 151.502 193.722 151.589 193.285 151.616L193.276 151.666C193.779 151.857 194.16 152.129 194.364 152.473C194.569 152.818 194.598 153.236 194.513 153.686C194.39 154.335 194.025 154.839 193.489 155.108C192.943 155.426 192.236 155.459 191.348 155.305L188.58 154.827L189.976 147.434ZM190.654 150.698L191.856 150.905C192.378 150.995 192.815 150.968 193.052 150.854C193.341 150.749 193.502 150.468 193.568 150.118C193.635 149.768 193.525 149.491 193.292 149.296C193.059 149.101 192.66 148.929 192.086 148.83L190.989 148.64L190.602 150.689L190.654 150.698ZM190.475 151.647L190.031 153.995L191.389 154.229C191.912 154.319 192.349 154.292 192.647 154.137C192.946 153.982 193.16 153.71 193.235 153.31C193.311 152.91 193.201 152.634 192.978 152.389C192.754 152.144 192.355 151.972 191.781 151.872L190.475 151.647Z" fill="#6EBDFF" />
    <path d="M201.271 157.018L200.874 154.835L197.897 154.32L196.779 156.242L195.421 156.007L199.7 149.061L201.058 149.295L202.524 157.235L201.271 157.018ZM200.759 153.732L200.405 151.607C200.381 151.448 200.367 151.239 200.319 150.922C200.271 150.604 200.257 150.395 200.233 150.236C200.053 150.618 199.863 151.049 199.56 151.513L198.513 153.344L200.759 153.732Z" fill="#6EBDFF" />
    <path d="M209.929 157.431L212.697 157.909L213.895 151.565L215.201 151.791L213.804 159.183L204.403 157.559L205.8 150.166L207.053 150.383L205.855 156.727L208.623 157.205L209.821 150.861L211.127 151.087L209.929 157.431Z" fill="#6EBDFF" />
    <path d="M221.376 160.492L220.979 158.308L218.002 157.794L216.884 159.716L215.526 159.481L219.805 152.534L221.163 152.769L222.629 160.709L221.376 160.492ZM220.864 157.205L220.51 155.081C220.486 154.922 220.472 154.713 220.424 154.395C220.376 154.077 220.362 153.869 220.338 153.71C220.158 154.091 219.968 154.523 219.665 154.986L218.618 156.817L220.864 157.205Z" fill="#6EBDFF" />
    <path d="M234.013 162.676L232.499 162.414L230.02 158.117L229.312 161.864L228.059 161.647L229.455 154.254L230.709 154.47L230.03 158.067L233.843 155.012L235.253 155.255L231.449 158.261L234.013 162.676Z" fill="#6EBDFF" />
    <path d="M240.593 163.812L240.196 161.629L237.219 161.114L236.101 163.036L234.743 162.801L239.022 155.855L240.38 156.089L241.846 164.029L240.593 163.812ZM240.029 160.517L239.675 158.392C239.651 158.233 239.637 158.024 239.589 157.707C239.541 157.389 239.526 157.18 239.503 157.021C239.323 157.403 239.133 157.834 238.83 158.298L237.783 160.128L240.029 160.517Z" fill="#6EBDFF" />
    <path d="M249.773 160.034C249.631 160.783 249.257 161.337 248.65 161.697C248.043 162.056 247.231 162.071 246.29 161.908L245.507 161.773L244.988 164.52L243.734 164.304L245.131 156.91L247.377 157.298C248.369 157.47 249.011 157.787 249.467 158.227C249.8 158.749 249.905 159.334 249.773 160.034ZM245.696 160.774L246.375 160.891C247.002 160.999 247.543 160.99 247.842 160.835C248.193 160.689 248.416 160.367 248.5 159.917C248.585 159.467 248.485 159.141 248.262 158.896C248.038 158.651 247.64 158.479 247.065 158.379L246.177 158.226L245.696 160.774Z" fill="#6EBDFF" />
    <path d="M253.804 166.095L252.551 165.879L253.749 159.534L251.451 159.137L251.649 158.088L257.447 159.09L257.249 160.139L254.951 159.742L253.752 166.086L253.804 166.095Z" fill="#6EBDFF" />
    <path d="M262.787 167.647L262.39 165.463L259.413 164.949L258.295 166.871L256.937 166.636L261.216 159.689L262.574 159.924L264.04 167.864L262.787 167.647ZM262.275 164.36L261.921 162.236C261.897 162.077 261.883 161.868 261.835 161.55C261.787 161.233 261.773 161.024 261.749 160.865C261.569 161.246 261.379 161.678 261.076 162.141L260.029 163.972L262.275 164.36Z" fill="#6EBDFF" />
</svg>
