<svg width="54" height="56" viewBox="0 0 54 56" fill="none" xmlns="http://www.w3.org/2000/svg">
<path d="M2.64697 0.777832H51.3508C52.3705 0.777832 53.2059 1.61326 53.2059 2.63272V51.1405C53.2059 52.1602 52.3705 52.9962 51.3508 52.9962H50.3539V55.2223H41.1865V52.9962H12.7943V55.2223H3.625V52.9962H2.64697C1.62857 52.9962 0.794128 52.1602 0.794128 51.1405V2.63272C0.794128 1.61148 1.62674 0.777832 2.64697 0.777832Z" stroke="#6EBDFF" stroke-linecap="round" stroke-linejoin="round"/>
<path d="M7.94414 6.47266H46.055C46.8522 6.47266 47.5056 7.12488 47.5056 7.92482V45.868C47.5056 46.6658 46.8522 47.3193 46.055 47.3193H7.94414C7.14694 47.3193 6.49353 46.6671 6.49353 45.868V7.92482C6.49353 7.12488 7.14512 6.47266 7.94414 6.47266Z" stroke="#FFCC12" stroke-linecap="round" stroke-linejoin="round"/>
<path d="M28.495 19.4719C29.474 19.6671 30.384 20.0529 31.1867 20.5886C31.0395 21.1643 31.1903 21.7997 31.6401 22.2517C32.0913 22.7015 32.7267 22.8525 33.3034 22.7052C33.8365 23.5086 34.2212 24.4192 34.4178 25.399C33.9059 25.7015 33.5639 26.2587 33.5621 26.8962C33.5639 27.5333 33.9059 28.0911 34.4178 28.3934C34.2228 29.3735 33.8365 30.2842 33.3034 31.087C32.7267 30.9378 32.0913 31.0907 31.6401 31.5407C31.1903 31.9906 31.0395 32.6281 31.1867 33.2034C30.384 33.7391 29.474 34.1234 28.495 34.3201C28.1926 33.8081 27.6357 33.4641 26.9989 33.4641C26.3618 33.4641 25.8047 33.8081 25.5028 34.3201C24.5233 34.1234 23.6133 33.7391 22.8106 33.2034C22.9601 32.6281 22.8072 31.9906 22.3576 31.5407C21.9079 31.0888 21.271 30.9378 20.6957 31.087C20.1606 30.2842 19.7768 29.3735 19.58 28.3934C20.0914 28.0911 20.4356 27.5333 20.4356 26.8962C20.4356 26.2587 20.0914 25.7015 19.58 25.399C19.7768 24.4192 20.1606 23.5086 20.6957 22.7052C21.271 22.8525 21.9079 22.7015 22.3576 22.2517C22.8088 21.7997 22.9601 21.1643 22.8106 20.5886C23.6133 20.0529 24.5233 19.6671 25.5028 19.4719C25.8047 19.984 26.3618 20.3283 26.9989 20.3283C27.6357 20.3283 28.1926 19.984 28.495 19.4719Z" stroke="#FFCC12" stroke-linecap="round" stroke-linejoin="round"/>
</svg>
