<svg xmlns="http://www.w3.org/2000/svg" viewBox="0 0 160.29 165.9">
  <title>Asset 3</title>
  <g id="Layer_2" data-name="Layer 2">
    <g id="Layer_1-2" data-name="Layer 1">
      <g>
        <path d="M11,5.76H149.26A5.28,5.28,0,0,1,154.53,11V148.56a5.28,5.28,0,0,1-5.26,5.26h-2.83v6.31h-26v-6.31H39.82v6.31h-26v-6.31H11a5.28,5.28,0,0,1-5.26-5.26V11A5.28,5.28,0,0,1,11,5.76Z" style="fill: #fff;fill-rule: evenodd"/>
        <path d="M11,0H149.26a11,11,0,0,1,7.79,3.23,5.86,5.86,0,0,1,.42.47A11,11,0,0,1,160.29,11V148.56a11.05,11.05,0,0,1-8.09,10.63v1a5.76,5.76,0,0,1-5.76,5.76h-26a5.76,5.76,0,0,1-5.76-5.76v-.55H45.58v.55a5.76,5.76,0,0,1-5.76,5.76h-26A5.76,5.76,0,0,1,8,160.14v-1a11.05,11.05,0,0,1-8-10.61V11A11,11,0,0,1,11,0Zm0,5.76A5.28,5.28,0,0,0,5.76,11V148.56A5.28,5.28,0,0,0,11,153.82H13.8v6.31h26v-6.31h80.59v6.31h26v-6.31h2.83a5.28,5.28,0,0,0,5.26-5.26V11a5.28,5.28,0,0,0-5.26-5.26Z" style="fill: #ffcb00;fill-rule: evenodd"/>
        <rect x="21.46" y="21.39" width="117.36" height="116.81" rx="4.15" ry="4.15" style="fill: #fff"/>
        <path d="M25.61,19.59H134.67a6,6,0,0,1,6,6V134a5.94,5.94,0,0,1-1.75,4.2h0a5.94,5.94,0,0,1-4.2,1.75H25.61a6,6,0,0,1-6-6V25.54a5.93,5.93,0,0,1,1.75-4.2h0a5.94,5.94,0,0,1,4.2-1.75Zm109.06,3.6H25.61a2.34,2.34,0,0,0-1.66.69h0a2.35,2.35,0,0,0-.69,1.66V134a2.36,2.36,0,0,0,2.35,2.35H134.67a2.34,2.34,0,0,0,1.66-.69h0A2.34,2.34,0,0,0,137,134V25.54a2.36,2.36,0,0,0-2.35-2.35Z" style="fill: #ffcb00;fill-rule: evenodd"/>
        <path d="M84.43,58.56a21.52,21.52,0,0,1,7.7,3.19,5,5,0,0,0,6.06,6.05,21.54,21.54,0,0,1,3.19,7.7,5,5,0,0,0,0,8.57,21.53,21.53,0,0,1-3.19,7.7,5,5,0,0,0-6.06,6.05,21.54,21.54,0,0,1-7.7,3.19,5,5,0,0,0-8.57,0,21.52,21.52,0,0,1-7.7-3.19,5,5,0,0,0-6.06-6.05,21.55,21.55,0,0,1-3.19-7.7,5,5,0,0,0,0-8.57,21.53,21.53,0,0,1,3.19-7.7,5,5,0,0,0,6.06-6.05,21.52,21.52,0,0,1,7.7-3.19,5,5,0,0,0,8.57,0Z" style="fill: #fff;fill-rule: evenodd"/>
        <path d="M84.78,56.8a23.37,23.37,0,0,1,8.34,3.46,1.8,1.8,0,0,1,.72,2,3.21,3.21,0,0,0,0,1.55,3.2,3.2,0,0,0,2.22,2.22,3.21,3.21,0,0,0,1.64,0,1.79,1.79,0,0,1,1.94.75h0a23.21,23.21,0,0,1,3.45,8.34,1.79,1.79,0,0,1-.85,1.9h0a3.2,3.2,0,0,0-1.15,1.17l0,.07a3.22,3.22,0,0,0,0,3.07h0a3.2,3.2,0,0,0,1.15,1.17,1.8,1.8,0,0,1,.85,1.9h0a23.37,23.37,0,0,1-3.46,8.34,1.8,1.8,0,0,1-2,.72,3.22,3.22,0,0,0-1.54,0,3.2,3.2,0,0,0-2.22,2.22,3.21,3.21,0,0,0,0,1.64,1.79,1.79,0,0,1-.75,1.94h0a23.21,23.21,0,0,1-8.34,3.45,1.79,1.79,0,0,1-1.9-.85h0a3.2,3.2,0,0,0-1.17-1.15l-.07,0a3.22,3.22,0,0,0-3.07,0h0a3.2,3.2,0,0,0-1.17,1.15,1.8,1.8,0,0,1-1.9.85h0a23.38,23.38,0,0,1-8.34-3.46,1.8,1.8,0,0,1-.72-2,3.21,3.21,0,0,0,0-1.55,3.16,3.16,0,0,0-.82-1.4l-.07-.08a3.16,3.16,0,0,0-1.33-.75,3.21,3.21,0,0,0-1.64,0,1.79,1.79,0,0,1-1.94-.75h0a23.22,23.22,0,0,1-3.45-8.34,1.79,1.79,0,0,1,.85-1.9h0a3.2,3.2,0,0,0,1.15-1.17,3.19,3.19,0,0,0,0-3.14A3.2,3.2,0,0,0,58,77.06a1.8,1.8,0,0,1-.85-1.9h0a23.39,23.39,0,0,1,3.46-8.34,1.8,1.8,0,0,1,2-.72,3.22,3.22,0,0,0,1.54,0,3.17,3.17,0,0,0,1.4-.82h0a3.15,3.15,0,0,0,.82-1.4,3.22,3.22,0,0,0,0-1.64,1.79,1.79,0,0,1,.75-1.94h0a23.38,23.38,0,0,1,8.34-3.46,1.8,1.8,0,0,1,1.94.92,3.2,3.2,0,0,0,1.12,1.08l.07,0a3.18,3.18,0,0,0,4.23-1.19,1.8,1.8,0,0,1,1.9-.85Zm3,4.64a19.55,19.55,0,0,0-2.58-.86A6.75,6.75,0,0,1,76.9,62l-.12-.06a6.78,6.78,0,0,1-1.67-1.34,19.55,19.55,0,0,0-2.58.86,19.84,19.84,0,0,0-2.45,1.22,6.79,6.79,0,0,1-2,5.13h0a6.76,6.76,0,0,1-5.12,2,19.82,19.82,0,0,0-1.22,2.45,19.53,19.53,0,0,0-.86,2.58,6.76,6.76,0,0,1,0,10,19.91,19.91,0,0,0,2.08,5,6.76,6.76,0,0,1,5,1.86l.11.1a6.79,6.79,0,0,1,2,5.13,19.82,19.82,0,0,0,2.45,1.22,19.52,19.52,0,0,0,2.58.86,6.77,6.77,0,0,1,1.67-1.34h0a6.73,6.73,0,0,1,6.59-.06l.12.06A6.78,6.78,0,0,1,85.17,99a19.91,19.91,0,0,0,5-2.08,6.76,6.76,0,0,1,2-5.12h0a6.76,6.76,0,0,1,5.12-2,19.79,19.79,0,0,0,1.22-2.45,19.54,19.54,0,0,0,.86-2.58A6.77,6.77,0,0,1,98,83.15h0A6.73,6.73,0,0,1,98,76.55l.06-.12a6.77,6.77,0,0,1,1.35-1.67,19.91,19.91,0,0,0-2.08-5,6.76,6.76,0,0,1-5.12-2h0a6.76,6.76,0,0,1-2-5.12A19.86,19.86,0,0,0,87.74,61.44Z" style="fill: #ffcb00;fill-rule: evenodd"/>
      </g>
    </g>
  </g>
</svg>
