<svg width="80" height="72" viewBox="0 0 80 72" fill="none" xmlns="http://www.w3.org/2000/svg">
<path d="M38.6071 56.1513V55.6513C38.331 55.6513 38.1071 55.8751 38.1071 56.1513H38.6071ZM79 56.1513H79.5C79.5 55.8751 79.2761 55.6513 79 55.6513V56.1513ZM1 10.5452H1.5H1ZM1 16.5553H0.5C0.5 16.6879 0.552678 16.8151 0.646447 16.9089C0.740215 17.0026 0.867392 17.0553 1 17.0553V16.5553ZM19.8036 17.0553C20.0797 17.0553 20.3036 16.8315 20.3036 16.5553C20.3036 16.2792 20.0797 16.0553 19.8036 16.0553V17.0553ZM26.0714 71.4998C33.278 71.4998 39.1071 65.5705 39.1071 58.2725H38.1071C38.1071 65.0326 32.7114 70.4998 26.0714 70.4998V71.4998ZM39.1071 58.2725V56.1513H38.1071V58.2725H39.1071ZM38.6071 56.6513H79V55.6513H38.6071V56.6513ZM78.5 56.1513V58.2725H79.5V56.1513H78.5ZM78.5 58.2725C78.5 65.0326 73.1043 70.4998 66.4643 70.4998V71.4998C73.6708 71.4998 79.5 65.5705 79.5 58.2725H78.5ZM66.4643 70.9998C66.4643 70.4998 66.4642 70.4998 66.464 70.4998C66.4638 70.4998 66.4635 70.4998 66.4632 70.4998C66.4628 70.4998 66.4623 70.4998 66.4618 70.4998C66.4612 70.4998 66.4605 70.4998 66.4598 70.4998C66.459 70.4998 66.4582 70.4998 66.4573 70.4998C66.4563 70.4998 66.4553 70.4998 66.4542 70.4998C66.4531 70.4998 66.4519 70.4998 66.4506 70.4998C66.4493 70.4998 66.4479 70.4998 66.4464 70.4998C66.4449 70.4998 66.4433 70.4998 66.4416 70.4998C66.44 70.4998 66.4382 70.4998 66.4364 70.4998C66.4345 70.4998 66.4326 70.4998 66.4305 70.4998C66.4285 70.4998 66.4264 70.4998 66.4241 70.4998C66.4219 70.4998 66.4196 70.4998 66.4172 70.4998C66.4148 70.4998 66.4123 70.4998 66.4097 70.4998C66.4072 70.4998 66.4045 70.4998 66.4017 70.4998C66.399 70.4998 66.3961 70.4998 66.3932 70.4998C66.3902 70.4998 66.3872 70.4998 66.3841 70.4998C66.381 70.4998 66.3778 70.4998 66.3745 70.4998C66.3712 70.4998 66.3678 70.4998 66.3643 70.4998C66.3608 70.4998 66.3572 70.4998 66.3536 70.4998C66.3499 70.4998 66.3462 70.4998 66.3423 70.4998C66.3385 70.4998 66.3346 70.4998 66.3306 70.4998C66.3266 70.4998 66.3225 70.4998 66.3183 70.4998C66.3141 70.4998 66.3098 70.4998 66.3055 70.4998C66.3011 70.4998 66.2966 70.4998 66.2921 70.4998C66.2876 70.4998 66.2829 70.4998 66.2782 70.4998C66.2735 70.4998 66.2687 70.4998 66.2638 70.4998C66.2589 70.4998 66.2539 70.4998 66.2489 70.4998C66.2438 70.4998 66.2387 70.4998 66.2334 70.4998C66.2282 70.4998 66.2229 70.4998 66.2175 70.4998C66.212 70.4998 66.2065 70.4998 66.201 70.4998C66.1954 70.4998 66.1897 70.4998 66.184 70.4998C66.1782 70.4998 66.1724 70.4998 66.1664 70.4998C66.1605 70.4998 66.1545 70.4998 66.1484 70.4998C66.1423 70.4998 66.1361 70.4998 66.1298 70.4998C66.1236 70.4998 66.1172 70.4998 66.1108 70.4998C66.1043 70.4998 66.0978 70.4998 66.0912 70.4998C66.0846 70.4998 66.0779 70.4998 66.0711 70.4998C66.0644 70.4998 66.0575 70.4998 66.0506 70.4998C66.0436 70.4998 66.0366 70.4998 66.0295 70.4998C66.0223 70.4998 66.0151 70.4998 66.0079 70.4998C66.0006 70.4998 65.9932 70.4998 65.9858 70.4998C65.9783 70.4998 65.9708 70.4998 65.9632 70.4998C65.9556 70.4998 65.9479 70.4998 65.9401 70.4998C65.9323 70.4998 65.9244 70.4998 65.9165 70.4998C65.9085 70.4998 65.9005 70.4998 65.8924 70.4998C65.8843 70.4998 65.8761 70.4998 65.8678 70.4998C65.8595 70.4998 65.8512 70.4998 65.8427 70.4998C65.8343 70.4998 65.8258 70.4998 65.8172 70.4998C65.8086 70.4998 65.7999 70.4998 65.7911 70.4998C65.7823 70.4998 65.7735 70.4998 65.7646 70.4998C65.7556 70.4998 65.7466 70.4998 65.7375 70.4998C65.7284 70.4998 65.7193 70.4998 65.71 70.4998C65.7007 70.4998 65.6914 70.4998 65.682 70.4998C65.6726 70.4998 65.6631 70.4998 65.6535 70.4998C65.6439 70.4998 65.6343 70.4998 65.6245 70.4998C65.6148 70.4998 65.605 70.4998 65.5951 70.4998C65.5852 70.4998 65.5752 70.4998 65.5652 70.4998C65.5551 70.4998 65.545 70.4998 65.5348 70.4998C65.5246 70.4998 65.5143 70.4998 65.5039 70.4998C65.4935 70.4998 65.4831 70.4998 65.4725 70.4998C65.462 70.4998 65.4514 70.4998 65.4407 70.4998C65.43 70.4998 65.4193 70.4998 65.4084 70.4998C65.3976 70.4998 65.3866 70.4998 65.3756 70.4998C65.3646 70.4998 65.3536 70.4998 65.3424 70.4998C65.3313 70.4998 65.32 70.4998 65.3087 70.4998C65.2974 70.4998 65.286 70.4998 65.2746 70.4998C65.2631 70.4998 65.2515 70.4998 65.2399 70.4998C65.2283 70.4998 65.2166 70.4998 65.2048 70.4998C65.1931 70.4998 65.1812 70.4998 65.1693 70.4998C65.1574 70.4998 65.1454 70.4998 65.1333 70.4998C65.1212 70.4998 65.109 70.4998 65.0968 70.4998C65.0846 70.4998 65.0723 70.4998 65.0599 70.4998C65.0475 70.4998 65.0351 70.4998 65.0225 70.4998C65.01 70.4998 64.9974 70.4998 64.9847 70.4998C64.972 70.4998 64.9593 70.4998 64.9464 70.4998C64.9336 70.4998 64.9207 70.4998 64.9077 70.4998C64.8947 70.4998 64.8816 70.4998 64.8685 70.4998C64.8554 70.4998 64.8422 70.4998 64.8289 70.4998C64.8156 70.4998 64.8022 70.4998 64.7888 70.4998C64.7754 70.4998 64.7619 70.4998 64.7483 70.4998C64.7347 70.4998 64.7211 70.4998 64.7074 70.4998C64.6936 70.4998 64.6798 70.4998 64.666 70.4998C64.6521 70.4998 64.6381 70.4998 64.6241 70.4998C64.6101 70.4998 64.596 70.4998 64.5818 70.4998C64.5677 70.4998 64.5534 70.4998 64.5391 70.4998C64.5248 70.4998 64.5104 70.4998 64.496 70.4998C64.4815 70.4998 64.467 70.4998 64.4524 70.4998C64.4378 70.4998 64.4231 70.4998 64.4084 70.4998C64.3937 70.4998 64.3789 70.4998 64.364 70.4998C64.3491 70.4998 64.3341 70.4998 64.3191 70.4998C64.3041 70.4998 64.289 70.4998 64.2738 70.4998C64.2586 70.4998 64.2434 70.4998 64.2281 70.4998C64.2128 70.4998 64.1974 70.4998 64.1819 70.4998C64.1665 70.4998 64.151 70.4998 64.1354 70.4998C64.1198 70.4998 64.1041 70.4998 64.0884 70.4998C64.0726 70.4998 64.0568 70.4998 64.041 70.4998C64.0251 70.4998 64.0092 70.4998 63.9931 70.4998C63.9771 70.4998 63.961 70.4998 63.9449 70.4998C63.9287 70.4998 63.9125 70.4998 63.8962 70.4998C63.8799 70.4998 63.8636 70.4998 63.8472 70.4998C63.8307 70.4998 63.8142 70.4998 63.7977 70.4998C63.7811 70.4998 63.7645 70.4998 63.7478 70.4998C63.7311 70.4998 63.7143 70.4998 63.6975 70.4998C63.6806 70.4998 63.6637 70.4998 63.6468 70.4998C63.6298 70.4998 63.6127 70.4998 63.5956 70.4998C63.5785 70.4998 63.5614 70.4998 63.5441 70.4998C63.5269 70.4998 63.5096 70.4998 63.4922 70.4998C63.4748 70.4998 63.4574 70.4998 63.4398 70.4998C63.4223 70.4998 63.4048 70.4998 63.3871 70.4998C63.3695 70.4998 63.3518 70.4998 63.334 70.4998C63.3162 70.4998 63.2984 70.4998 63.2805 70.4998C63.2625 70.4998 63.2446 70.4998 63.2265 70.4998C63.2085 70.4998 63.1904 70.4998 63.1722 70.4998C63.154 70.4998 63.1358 70.4998 63.1175 70.4998C63.0992 70.4998 63.0808 70.4998 63.0624 70.4998C63.044 70.4998 63.0255 70.4998 63.0069 70.4998C62.9883 70.4998 62.9697 70.4998 62.951 70.4998C62.9323 70.4998 62.9136 70.4998 62.8948 70.4998C62.8759 70.4998 62.857 70.4998 62.8381 70.4998C62.8191 70.4998 62.8001 70.4998 62.7811 70.4998C62.762 70.4998 62.7428 70.4998 62.7236 70.4998C62.7044 70.4998 62.6852 70.4998 62.6658 70.4998C62.6465 70.4998 62.6271 70.4998 62.6077 70.4998C62.5882 70.4998 62.5687 70.4998 62.5491 70.4998C62.5295 70.4998 62.5099 70.4998 62.4902 70.4998C62.4705 70.4998 62.4507 70.4998 62.4309 70.4998C62.411 70.4998 62.3911 70.4998 62.3712 70.4998C62.3512 70.4998 62.3312 70.4998 62.3111 70.4998C62.291 70.4998 62.2709 70.4998 62.2507 70.4998C62.2305 70.4998 62.2102 70.4998 62.1899 70.4998C62.1696 70.4998 62.1492 70.4998 62.1287 70.4998C62.1083 70.4998 62.0878 70.4998 62.0672 70.4998C62.0466 70.4998 62.026 70.4998 62.0053 70.4998C61.9846 70.4998 61.9639 70.4998 61.9431 70.4998C61.9222 70.4998 61.9014 70.4998 61.8804 70.4998C61.8595 70.4998 61.8385 70.4998 61.8175 70.4998C61.7964 70.4998 61.7753 70.4998 61.7541 70.4998C61.7329 70.4998 61.7117 70.4998 61.6904 70.4998C61.6691 70.4998 61.6478 70.4998 61.6264 70.4998C61.605 70.4998 61.5835 70.4998 61.562 70.4998C61.5404 70.4998 61.5189 70.4998 61.4972 70.4998C61.4756 70.4998 61.4539 70.4998 61.4321 70.4998C61.4104 70.4998 61.3885 70.4998 61.3667 70.4998C61.3448 70.4998 61.3228 70.4998 61.3008 70.4998C61.2789 70.4998 61.2568 70.4998 61.2347 70.4998C61.2126 70.4998 61.1904 70.4998 61.1682 70.4998C61.146 70.4998 61.1237 70.4998 61.1014 70.4998C61.079 70.4998 61.0566 70.4998 61.0342 70.4998C61.0117 70.4998 60.9892 70.4998 60.9667 70.4998C60.9441 70.4998 60.9215 70.4998 60.8988 70.4998C60.8761 70.4998 60.8534 70.4998 60.8306 70.4998C60.8078 70.4998 60.785 70.4998 60.7621 70.4998C60.7392 70.4998 60.7162 70.4998 60.6932 70.4998C60.6702 70.4998 60.6471 70.4998 60.624 70.4998C60.6009 70.4998 60.5777 70.4998 60.5545 70.4998C60.5312 70.4998 60.5079 70.4998 60.4846 70.4998C60.4613 70.4998 60.4379 70.4998 60.4144 70.4998C60.3909 70.4998 60.3674 70.4998 60.3439 70.4998C60.3203 70.4998 60.2967 70.4998 60.273 70.4998C60.2494 70.4998 60.2256 70.4998 60.2019 70.4998C60.1781 70.4998 60.1543 70.4998 60.1304 70.4998C60.1065 70.4998 60.0826 70.4998 60.0586 70.4998C60.0346 70.4998 60.0105 70.4998 59.9864 70.4998C59.9623 70.4998 59.9382 70.4998 59.914 70.4998C59.8898 70.4998 59.8655 70.4998 59.8412 70.4998C59.8169 70.4998 59.7925 70.4998 59.7681 70.4998C59.7437 70.4998 59.7192 70.4998 59.6947 70.4998C59.6702 70.4998 59.6456 70.4998 59.621 70.4998C59.5964 70.4998 59.5717 70.4998 59.547 70.4998C59.5223 70.4998 59.4975 70.4998 59.4727 70.4998C59.4478 70.4998 59.423 70.4998 59.398 70.4998C59.3731 70.4998 59.3481 70.4998 59.3231 70.4998C59.2981 70.4998 59.273 70.4998 59.2478 70.4998C59.2227 70.4998 59.1975 70.4998 59.1723 70.4998C59.1471 70.4998 59.1218 70.4998 59.0964 70.4998C59.0711 70.4998 59.0457 70.4998 59.0203 70.4998C58.9949 70.4998 58.9694 70.4998 58.9438 70.4998C58.9183 70.4998 58.8927 70.4998 58.8671 70.4998C58.8415 70.4998 58.8158 70.4998 58.79 70.4998C58.7643 70.4998 58.7385 70.4998 58.7127 70.4998C58.6869 70.4998 58.661 70.4998 58.6351 70.4998C58.6091 70.4998 58.5832 70.4998 58.5572 70.4998C58.5311 70.4998 58.5051 70.4998 58.4789 70.4998C58.4528 70.4998 58.4267 70.4998 58.4004 70.4998C58.3742 70.4998 58.348 70.4998 58.3217 70.4998C58.2953 70.4998 58.269 70.4998 58.2426 70.4998C58.2162 70.4998 58.1897 70.4998 58.1632 70.4998C58.1367 70.4998 58.1102 70.4998 58.0836 70.4998C58.057 70.4998 58.0304 70.4998 58.0037 70.4998C57.977 70.4998 57.9502 70.4998 57.9235 70.4998C57.8967 70.4998 57.8699 70.4998 57.843 70.4998C57.8161 70.4998 57.7892 70.4998 57.7622 70.4998C57.7353 70.4998 57.7083 70.4998 57.6812 70.4998C57.6542 70.4998 57.6271 70.4998 57.5999 70.4998C57.5728 70.4998 57.5456 70.4998 57.5183 70.4998C57.4911 70.4998 57.4638 70.4998 57.4365 70.4998C57.4092 70.4998 57.3818 70.4998 57.3544 70.4998C57.327 70.4998 57.2995 70.4998 57.272 70.4998C57.2445 70.4998 57.217 70.4998 57.1894 70.4998C57.1618 70.4998 57.1341 70.4998 57.1065 70.4998C57.0788 70.4998 57.0511 70.4998 57.0233 70.4998C56.9955 70.4998 56.9677 70.4998 56.9399 70.4998C56.912 70.4998 56.8841 70.4998 56.8562 70.4998C56.8282 70.4998 56.8002 70.4998 56.7722 70.4998C56.7442 70.4998 56.7161 70.4998 56.688 70.4998C56.6599 70.4998 56.6317 70.4998 56.6035 70.4998C56.5753 70.4998 56.5471 70.4998 56.5188 70.4998C56.4905 70.4998 56.4622 70.4998 56.4339 70.4998C56.4055 70.4998 56.3771 70.4998 56.3486 70.4998C56.3202 70.4998 56.2917 70.4998 56.2632 70.4998C56.2346 70.4998 56.2061 70.4998 56.1774 70.4998C56.1488 70.4998 56.1202 70.4998 56.0915 70.4998C56.0628 70.4998 56.0341 70.4998 56.0053 70.4998C55.9765 70.4998 55.9477 70.4998 55.9188 70.4998C55.89 70.4998 55.8611 70.4998 55.8321 70.4998C55.8032 70.4998 55.7742 70.4998 55.7452 70.4998C55.7162 70.4998 55.6871 70.4998 55.658 70.4998C55.6289 70.4998 55.5998 70.4998 55.5706 70.4998C55.5414 70.4998 55.5122 70.4998 55.483 70.4998C55.4537 70.4998 55.4244 70.4998 55.3951 70.4998C55.3658 70.4998 55.3364 70.4998 55.307 70.4998C55.2776 70.4998 55.2481 70.4998 55.2186 70.4998C55.1891 70.4998 55.1596 70.4998 55.1301 70.4998C55.1005 70.4998 55.0709 70.4998 55.0413 70.4998C55.0116 70.4998 54.9819 70.4998 54.9522 70.4998C54.9225 70.4998 54.8928 70.4998 54.863 70.4998C54.8332 70.4998 54.8034 70.4998 54.7735 70.4998C54.7436 70.4998 54.7137 70.4998 54.6838 70.4998C54.6539 70.4998 54.6239 70.4998 54.5939 70.4998C54.5639 70.4998 54.5338 70.4998 54.5037 70.4998C54.4736 70.4998 54.4435 70.4998 54.4134 70.4998C54.3832 70.4998 54.353 70.4998 54.3228 70.4998C54.2926 70.4998 54.2623 70.4998 54.232 70.4998C54.2017 70.4998 54.1714 70.4998 54.141 70.4998C54.1106 70.4998 54.0802 70.4998 54.0498 70.4998C54.0193 70.4998 53.9889 70.4998 53.9584 70.4998C53.9278 70.4998 53.8973 70.4998 53.8667 70.4998C53.8361 70.4998 53.8055 70.4998 53.7749 70.4998C53.7442 70.4998 53.7135 70.4998 53.6828 70.4998C53.6521 70.4998 53.6214 70.4998 53.5906 70.4998C53.5598 70.4998 53.529 70.4998 53.4981 70.4998C53.4673 70.4998 53.4364 70.4998 53.4055 70.4998C53.3745 70.4998 53.3436 70.4998 53.3126 70.4998C53.2816 70.4998 53.2506 70.4998 53.2195 70.4998C53.1885 70.4998 53.1574 70.4998 53.1263 70.4998C53.0952 70.4998 53.064 70.4998 53.0328 70.4998C53.0017 70.4998 52.9704 70.4998 52.9392 70.4998C52.908 70.4998 52.8767 70.4998 52.8454 70.4998C52.8141 70.4998 52.7827 70.4998 52.7513 70.4998C52.72 70.4998 52.6886 70.4998 52.6571 70.4998C52.6257 70.4998 52.5942 70.4998 52.5627 70.4998C52.5312 70.4998 52.4997 70.4998 52.4681 70.4998C52.4366 70.4998 52.405 70.4998 52.3733 70.4998C52.3417 70.4998 52.3101 70.4998 52.2784 70.4998C52.2467 70.4998 52.215 70.4998 52.1833 70.4998C52.1515 70.4998 52.1197 70.4998 52.0879 70.4998C52.0561 70.4998 52.0243 70.4998 51.9924 70.4998C51.9606 70.4998 51.9287 70.4998 51.8968 70.4998C51.8648 70.4998 51.8329 70.4998 51.8009 70.4998C51.7689 70.4998 51.7369 70.4998 51.7049 70.4998C51.6728 70.4998 51.6408 70.4998 51.6087 70.4998C51.5766 70.4998 51.5444 70.4998 51.5123 70.4998C51.4801 70.4998 51.448 70.4998 51.4157 70.4998C51.3835 70.4998 51.3513 70.4998 51.319 70.4998C51.2868 70.4998 51.2545 70.4998 51.2222 70.4998C51.1898 70.4998 51.1575 70.4998 51.1251 70.4998C51.0927 70.4998 51.0603 70.4998 51.0279 70.4998C50.9955 70.4998 50.963 70.4998 50.9305 70.4998C50.8981 70.4998 50.8655 70.4998 50.833 70.4998C50.8005 70.4998 50.7679 70.4998 50.7353 70.4998C50.7027 70.4998 50.6701 70.4998 50.6375 70.4998C50.6048 70.4998 50.5721 70.4998 50.5395 70.4998C50.5068 70.4998 50.474 70.4998 50.4413 70.4998C50.4085 70.4998 50.3758 70.4998 50.343 70.4998C50.3102 70.4998 50.2774 70.4998 50.2445 70.4998C50.2117 70.4998 50.1788 70.4998 50.1459 70.4998C50.113 70.4998 50.0801 70.4998 50.0471 70.4998C50.0142 70.4998 49.9812 70.4998 49.9482 70.4998C49.9152 70.4998 49.8822 70.4998 49.8492 70.4998C49.8161 70.4998 49.783 70.4998 49.7499 70.4998C49.7169 70.4998 49.6837 70.4998 49.6506 70.4998C49.6175 70.4998 49.5843 70.4998 49.5511 70.4998C49.5179 70.4998 49.4847 70.4998 49.4515 70.4998C49.4182 70.4998 49.385 70.4998 49.3517 70.4998C49.3184 70.4998 49.2851 70.4998 49.2518 70.4998C49.2185 70.4998 49.1851 70.4998 49.1518 70.4998C49.1184 70.4998 49.085 70.4998 49.0516 70.4998C49.0182 70.4998 48.9847 70.4998 48.9513 70.4998C48.9178 70.4998 48.8843 70.4998 48.8508 70.4998C48.8173 70.4998 48.7838 70.4998 48.7503 70.4998C48.7167 70.4998 48.6832 70.4998 48.6496 70.4998C48.616 70.4998 48.5824 70.4998 48.5487 70.4998C48.5151 70.4998 48.4815 70.4998 48.4478 70.4998C48.4141 70.4998 48.3804 70.4998 48.3467 70.4998C48.313 70.4998 48.2793 70.4998 48.2455 70.4998C48.2118 70.4998 48.178 70.4998 48.1442 70.4998C48.1104 70.4998 48.0766 70.4998 48.0428 70.4998C48.0089 70.4998 47.9751 70.4998 47.9412 70.4998C47.9074 70.4998 47.8735 70.4998 47.8396 70.4998C47.8056 70.4998 47.7717 70.4998 47.7378 70.4998C47.7038 70.4998 47.6699 70.4998 47.6359 70.4998C47.6019 70.4998 47.5679 70.4998 47.5339 70.4998C47.4998 70.4998 47.4658 70.4998 47.4318 70.4998C47.3977 70.4998 47.3636 70.4998 47.3295 70.4998C47.2954 70.4998 47.2613 70.4998 47.2272 70.4998C47.1931 70.4998 47.1589 70.4998 47.1247 70.4998C47.0906 70.4998 47.0564 70.4998 47.0222 70.4998C46.988 70.4998 46.9538 70.4998 46.9196 70.4998C46.8853 70.4998 46.8511 70.4998 46.8168 70.4998C46.7825 70.4998 46.7483 70.4998 46.714 70.4998C46.6797 70.4998 46.6453 70.4998 46.611 70.4998C46.5767 70.4998 46.5423 70.4998 46.508 70.4998C46.4736 70.4998 46.4392 70.4998 46.4048 70.4998C46.3704 70.4998 46.336 70.4998 46.3016 70.4998C46.2672 70.4998 46.2327 70.4998 46.1983 70.4998C46.1638 70.4998 46.1293 70.4998 46.0949 70.4998C46.0604 70.4998 46.0259 70.4998 45.9914 70.4998C45.9568 70.4998 45.9223 70.4998 45.8878 70.4998C45.8532 70.4998 45.8187 70.4998 45.7841 70.4998C45.7495 70.4998 45.7149 70.4998 45.6803 70.4998C45.6457 70.4998 45.6111 70.4998 45.5765 70.4998C45.5418 70.4998 45.5072 70.4998 45.4725 70.4998C45.4379 70.4998 45.4032 70.4998 45.3685 70.4998C45.3339 70.4998 45.2992 70.4998 45.2644 70.4998C45.2297 70.4998 45.195 70.4998 45.1603 70.4998C45.1255 70.4998 45.0908 70.4998 45.056 70.4998C45.0213 70.4998 44.9865 70.4998 44.9517 70.4998C44.9169 70.4998 44.8821 70.4998 44.8473 70.4998C44.8125 70.4998 44.7777 70.4998 44.7429 70.4998C44.708 70.4998 44.6732 70.4998 44.6384 70.4998C44.6035 70.4998 44.5686 70.4998 44.5338 70.4998C44.4989 70.4998 44.464 70.4998 44.4291 70.4998C44.3942 70.4998 44.3593 70.4998 44.3244 70.4998C44.2894 70.4998 44.2545 70.4998 44.2196 70.4998C44.1846 70.4998 44.1497 70.4998 44.1147 70.4998C44.0797 70.4998 44.0448 70.4998 44.0098 70.4998C43.9748 70.4998 43.9398 70.4998 43.9048 70.4998C43.8698 70.4998 43.8348 70.4998 43.7998 70.4998C43.7648 70.4998 43.7297 70.4998 43.6947 70.4998C43.6597 70.4998 43.6246 70.4998 43.5895 70.4998C43.5545 70.4998 43.5194 70.4998 43.4843 70.4998C43.4493 70.4998 43.4142 70.4998 43.3791 70.4998C43.344 70.4998 43.3089 70.4998 43.2738 70.4998C43.2387 70.4998 43.2036 70.4998 43.1684 70.4998C43.1333 70.4998 43.0982 70.4998 43.0631 70.4998C43.0279 70.4998 42.9928 70.4998 42.9576 70.4998C42.9225 70.4998 42.8873 70.4998 42.8521 70.4998C42.817 70.4998 42.7818 70.4998 42.7466 70.4998C42.7114 70.4998 42.6762 70.4998 42.641 70.4998C42.6058 70.4998 42.5706 70.4998 42.5354 70.4998C42.5002 70.4998 42.465 70.4998 42.4298 70.4998C42.3945 70.4998 42.3593 70.4998 42.3241 70.4998C42.2888 70.4998 42.2536 70.4998 42.2183 70.4998C42.1831 70.4998 42.1479 70.4998 42.1126 70.4998C42.0773 70.4998 42.0421 70.4998 42.0068 70.4998C41.9715 70.4998 41.9363 70.4998 41.901 70.4998C41.8657 70.4998 41.8304 70.4998 41.7951 70.4998C41.7598 70.4998 41.7246 70.4998 41.6893 70.4998C41.654 70.4998 41.6187 70.4998 41.5834 70.4998C41.548 70.4998 41.5127 70.4998 41.4774 70.4998C41.4421 70.4998 41.4068 70.4998 41.3715 70.4998C41.3362 70.4998 41.3008 70.4998 41.2655 70.4998C41.2302 70.4998 41.1948 70.4998 41.1595 70.4998C41.1242 70.4998 41.0888 70.4998 41.0535 70.4998C41.0182 70.4998 40.9828 70.4998 40.9475 70.4998C40.9121 70.4998 40.8768 70.4998 40.8414 70.4998C40.8061 70.4998 40.7707 70.4998 40.7354 70.4998C40.7 70.4998 40.6646 70.4998 40.6293 70.4998C40.5939 70.4998 40.5586 70.4998 40.5232 70.4998C40.4878 70.4998 40.4525 70.4998 40.4171 70.4998C40.3817 70.4998 40.3464 70.4998 40.311 70.4998C40.2756 70.4998 40.2403 70.4998 40.2049 70.4998C40.1695 70.4998 40.1341 70.4998 40.0988 70.4998C40.0634 70.4998 40.028 70.4998 39.9926 70.4998C39.9573 70.4998 39.9219 70.4998 39.8865 70.4998C39.8512 70.4998 39.8158 70.4998 39.7804 70.4998C39.745 70.4998 39.7097 70.4998 39.6743 70.4998C39.6389 70.4998 39.6035 70.4998 39.5682 70.4998C39.5328 70.4998 39.4974 70.4998 39.462 70.4998C39.4267 70.4998 39.3913 70.4998 39.3559 70.4998C39.3206 70.4998 39.2852 70.4998 39.2498 70.4998C39.2145 70.4998 39.1791 70.4998 39.1437 70.4998C39.1084 70.4998 39.073 70.4998 39.0376 70.4998C39.0023 70.4998 38.9669 70.4998 38.9316 70.4998C38.8962 70.4998 38.8608 70.4998 38.8255 70.4998C38.7901 70.4998 38.7548 70.4998 38.7194 70.4998C38.6841 70.4998 38.6487 70.4998 38.6134 70.4998C38.5781 70.4998 38.5427 70.4998 38.5074 70.4998C38.472 70.4998 38.4367 70.4998 38.4014 70.4998C38.366 70.4998 38.3307 70.4998 38.2954 70.4998C38.2601 70.4998 38.2248 70.4998 38.1894 70.4998C38.1541 70.4998 38.1188 70.4998 38.0835 70.4998C38.0482 70.4998 38.0129 70.4998 37.9776 70.4998C37.9423 70.4998 37.907 70.4998 37.8717 70.4998C37.8364 70.4998 37.8011 70.4998 37.7658 70.4998C37.7306 70.4998 37.6953 70.4998 37.66 70.4998C37.6247 70.4998 37.5895 70.4998 37.5542 70.4998C37.5189 70.4998 37.4837 70.4998 37.4484 70.4998C37.4132 70.4998 37.3779 70.4998 37.3427 70.4998C37.3075 70.4998 37.2722 70.4998 37.237 70.4998C37.2018 70.4998 37.1666 70.4998 37.1313 70.4998C37.0961 70.4998 37.0609 70.4998 37.0257 70.4998C36.9905 70.4998 36.9553 70.4998 36.9201 70.4998C36.8849 70.4998 36.8498 70.4998 36.8146 70.4998C36.7794 70.4998 36.7442 70.4998 36.7091 70.4998C36.6739 70.4998 36.6388 70.4998 36.6036 70.4998C36.5685 70.4998 36.5333 70.4998 36.4982 70.4998C36.4631 70.4998 36.428 70.4998 36.3928 70.4998C36.3577 70.4998 36.3226 70.4998 36.2875 70.4998C36.2524 70.4998 36.2173 70.4998 36.1823 70.4998C36.1472 70.4998 36.1121 70.4998 36.077 70.4998C36.042 70.4998 36.0069 70.4998 35.9719 70.4998C35.9368 70.4998 35.9018 70.4998 35.8668 70.4998C35.8317 70.4998 35.7967 70.4998 35.7617 70.4998C35.7267 70.4998 35.6917 70.4998 35.6567 70.4998C35.6217 70.4998 35.5867 70.4998 35.5518 70.4998C35.5168 70.4998 35.4818 70.4998 35.4469 70.4998C35.4119 70.4998 35.377 70.4998 35.3421 70.4998C35.3072 70.4998 35.2722 70.4998 35.2373 70.4998C35.2024 70.4998 35.1675 70.4998 35.1326 70.4998C35.0978 70.4998 35.0629 70.4998 35.028 70.4998C34.9932 70.4998 34.9583 70.4998 34.9235 70.4998C34.8886 70.4998 34.8538 70.4998 34.819 70.4998C34.7842 70.4998 34.7494 70.4998 34.7146 70.4998C34.6798 70.4998 34.645 70.4998 34.6102 70.4998C34.5755 70.4998 34.5407 70.4998 34.506 70.4998C34.4712 70.4998 34.4365 70.4998 34.4018 70.4998C34.3671 70.4998 34.3323 70.4998 34.2977 70.4998C34.263 70.4998 34.2283 70.4998 34.1936 70.4998C34.1589 70.4998 34.1243 70.4998 34.0897 70.4998C34.055 70.4998 34.0204 70.4998 33.9858 70.4998C33.9512 70.4998 33.9166 70.4998 33.882 70.4998C33.8474 70.4998 33.8128 70.4998 33.7783 70.4998C33.7437 70.4998 33.7092 70.4998 33.6747 70.4998C33.6401 70.4998 33.6056 70.4998 33.5711 70.4998C33.5366 70.4998 33.5021 70.4998 33.4677 70.4998C33.4332 70.4998 33.3988 70.4998 33.3643 70.4998C33.3299 70.4998 33.2955 70.4998 33.261 70.4998C33.2266 70.4998 33.1922 70.4998 33.1579 70.4998C33.1235 70.4998 33.0891 70.4998 33.0548 70.4998C33.0205 70.4998 32.9861 70.4998 32.9518 70.4998C32.9175 70.4998 32.8832 70.4998 32.8489 70.4998C32.8147 70.4998 32.7804 70.4998 32.7461 70.4998C32.7119 70.4998 32.6777 70.4998 32.6435 70.4998C32.6093 70.4998 32.5751 70.4998 32.5409 70.4998C32.5067 70.4998 32.4725 70.4998 32.4384 70.4998C32.4043 70.4998 32.3701 70.4998 32.336 70.4998C32.3019 70.4998 32.2678 70.4998 32.2338 70.4998C32.1997 70.4998 32.1656 70.4998 32.1316 70.4998C32.0976 70.4998 32.0636 70.4998 32.0296 70.4998C31.9956 70.4998 31.9616 70.4998 31.9276 70.4998C31.8937 70.4998 31.8597 70.4998 31.8258 70.4998C31.7919 70.4998 31.758 70.4998 31.7241 70.4998C31.6902 70.4998 31.6563 70.4998 31.6225 70.4998C31.5886 70.4998 31.5548 70.4998 31.521 70.4998C31.4872 70.4998 31.4534 70.4998 31.4197 70.4998C31.3859 70.4998 31.3521 70.4998 31.3184 70.4998C31.2847 70.4998 31.251 70.4998 31.2173 70.4998C31.1836 70.4998 31.15 70.4998 31.1163 70.4998C31.0827 70.4998 31.049 70.4998 31.0154 70.4998C30.9818 70.4998 30.9483 70.4998 30.9147 70.4998C30.8811 70.4998 30.8476 70.4998 30.8141 70.4998C30.7806 70.4998 30.7471 70.4998 30.7136 70.4998C30.6801 70.4998 30.6467 70.4998 30.6132 70.4998C30.5798 70.4998 30.5464 70.4998 30.513 70.4998C30.4796 70.4998 30.4463 70.4998 30.4129 70.4998C30.3796 70.4998 30.3463 70.4998 30.313 70.4998C30.2797 70.4998 30.2464 70.4998 30.2132 70.4998C30.1799 70.4998 30.1467 70.4998 30.1135 70.4998C30.0803 70.4998 30.0471 70.4998 30.0139 70.4998C29.9808 70.4998 29.9476 70.4998 29.9145 70.4998C29.8814 70.4998 29.8483 70.4998 29.8153 70.4998C29.7822 70.4998 29.7492 70.4998 29.7162 70.4998C29.6831 70.4998 29.6502 70.4998 29.6172 70.4998C29.5842 70.4998 29.5513 70.4998 29.5184 70.4998C29.4855 70.4998 29.4526 70.4998 29.4197 70.4998C29.3868 70.4998 29.354 70.4998 29.3212 70.4998C29.2884 70.4998 29.2556 70.4998 29.2228 70.4998C29.19 70.4998 29.1573 70.4998 29.1246 70.4998C29.0919 70.4998 29.0592 70.4998 29.0265 70.4998C28.9939 70.4998 28.9612 70.4998 28.9286 70.4998C28.896 70.4998 28.8634 70.4998 28.8309 70.4998C28.7983 70.4998 28.7658 70.4998 28.7333 70.4998C28.7008 70.4998 28.6683 70.4998 28.6359 70.4998C28.6034 70.4998 28.571 70.4998 28.5386 70.4998C28.5062 70.4998 28.4738 70.4998 28.4415 70.4998C28.4091 70.4998 28.3768 70.4998 28.3446 70.4998C28.3123 70.4998 28.28 70.4998 28.2478 70.4998C28.2155 70.4998 28.1833 70.4998 28.1512 70.4998C28.119 70.4998 28.0869 70.4998 28.0547 70.4998C28.0226 70.4998 27.9905 70.4998 27.9585 70.4998C27.9264 70.4998 27.8944 70.4998 27.8624 70.4998C27.8304 70.4998 27.7984 70.4998 27.7665 70.4998C27.7345 70.4998 27.7026 70.4998 27.6707 70.4998C27.6388 70.4998 27.607 70.4998 27.5752 70.4998C27.5433 70.4998 27.5115 70.4998 27.4798 70.4998C27.448 70.4998 27.4163 70.4998 27.3846 70.4998C27.3529 70.4998 27.3212 70.4998 27.2895 70.4998C27.2579 70.4998 27.2263 70.4998 27.1947 70.4998C27.1631 70.4998 27.1316 70.4998 27.1 70.4998C27.0685 70.4998 27.037 70.4998 27.0056 70.4998C26.9741 70.4998 26.9427 70.4998 26.9113 70.4998C26.8799 70.4998 26.8485 70.4998 26.8172 70.4998C26.7859 70.4998 26.7546 70.4998 26.7233 70.4998C26.692 70.4998 26.6608 70.4998 26.6296 70.4998C26.5984 70.4998 26.5672 70.4998 26.5361 70.4998C26.5049 70.4998 26.4738 70.4998 26.4427 70.4998C26.4117 70.4998 26.3806 70.4998 26.3496 70.4998C26.3186 70.4998 26.2876 70.4998 26.2567 70.4998C26.2257 70.4998 26.1948 70.4998 26.164 70.4998C26.1331 70.4998 26.1022 70.4998 26.0714 70.4998V71.4998C26.1022 71.4998 26.1331 71.4998 26.164 71.4998C26.1948 71.4998 26.2257 71.4998 26.2567 71.4998C26.2876 71.4998 26.3186 71.4998 26.3496 71.4998C26.3806 71.4998 26.4117 71.4998 26.4427 71.4998C26.4738 71.4998 26.5049 71.4998 26.5361 71.4998C26.5672 71.4998 26.5984 71.4998 26.6296 71.4998C26.6608 71.4998 26.692 71.4998 26.7233 71.4998C26.7546 71.4998 26.7859 71.4998 26.8172 71.4998C26.8485 71.4998 26.8799 71.4998 26.9113 71.4998C26.9427 71.4998 26.9741 71.4998 27.0056 71.4998C27.037 71.4998 27.0685 71.4998 27.1 71.4998C27.1316 71.4998 27.1631 71.4998 27.1947 71.4998C27.2263 71.4998 27.2579 71.4998 27.2895 71.4998C27.3212 71.4998 27.3529 71.4998 27.3846 71.4998C27.4163 71.4998 27.448 71.4998 27.4798 71.4998C27.5115 71.4998 27.5433 71.4998 27.5752 71.4998C27.607 71.4998 27.6388 71.4998 27.6707 71.4998C27.7026 71.4998 27.7345 71.4998 27.7665 71.4998C27.7984 71.4998 27.8304 71.4998 27.8624 71.4998C27.8944 71.4998 27.9264 71.4998 27.9585 71.4998C27.9905 71.4998 28.0226 71.4998 28.0547 71.4998C28.0869 71.4998 28.119 71.4998 28.1512 71.4998C28.1833 71.4998 28.2155 71.4998 28.2478 71.4998C28.28 71.4998 28.3123 71.4998 28.3446 71.4998C28.3768 71.4998 28.4091 71.4998 28.4415 71.4998C28.4738 71.4998 28.5062 71.4998 28.5386 71.4998C28.571 71.4998 28.6034 71.4998 28.6359 71.4998C28.6683 71.4998 28.7008 71.4998 28.7333 71.4998C28.7658 71.4998 28.7983 71.4998 28.8309 71.4998C28.8634 71.4998 28.896 71.4998 28.9286 71.4998C28.9612 71.4998 28.9939 71.4998 29.0265 71.4998C29.0592 71.4998 29.0919 71.4998 29.1246 71.4998C29.1573 71.4998 29.19 71.4998 29.2228 71.4998C29.2556 71.4998 29.2884 71.4998 29.3212 71.4998C29.354 71.4998 29.3868 71.4998 29.4197 71.4998C29.4526 71.4998 29.4855 71.4998 29.5184 71.4998C29.5513 71.4998 29.5842 71.4998 29.6172 71.4998C29.6502 71.4998 29.6831 71.4998 29.7162 71.4998C29.7492 71.4998 29.7822 71.4998 29.8153 71.4998C29.8483 71.4998 29.8814 71.4998 29.9145 71.4998C29.9476 71.4998 29.9808 71.4998 30.0139 71.4998C30.0471 71.4998 30.0803 71.4998 30.1135 71.4998C30.1467 71.4998 30.1799 71.4998 30.2132 71.4998C30.2464 71.4998 30.2797 71.4998 30.313 71.4998C30.3463 71.4998 30.3796 71.4998 30.4129 71.4998C30.4463 71.4998 30.4796 71.4998 30.513 71.4998C30.5464 71.4998 30.5798 71.4998 30.6132 71.4998C30.6467 71.4998 30.6801 71.4998 30.7136 71.4998C30.7471 71.4998 30.7806 71.4998 30.8141 71.4998C30.8476 71.4998 30.8811 71.4998 30.9147 71.4998C30.9483 71.4998 30.9818 71.4998 31.0154 71.4998C31.049 71.4998 31.0827 71.4998 31.1163 71.4998C31.15 71.4998 31.1836 71.4998 31.2173 71.4998C31.251 71.4998 31.2847 71.4998 31.3184 71.4998C31.3521 71.4998 31.3859 71.4998 31.4197 71.4998C31.4534 71.4998 31.4872 71.4998 31.521 71.4998C31.5548 71.4998 31.5886 71.4998 31.6225 71.4998C31.6563 71.4998 31.6902 71.4998 31.7241 71.4998C31.758 71.4998 31.7919 71.4998 31.8258 71.4998C31.8597 71.4998 31.8937 71.4998 31.9276 71.4998C31.9616 71.4998 31.9956 71.4998 32.0296 71.4998C32.0636 71.4998 32.0976 71.4998 32.1316 71.4998C32.1656 71.4998 32.1997 71.4998 32.2338 71.4998C32.2678 71.4998 32.3019 71.4998 32.336 71.4998C32.3701 71.4998 32.4043 71.4998 32.4384 71.4998C32.4725 71.4998 32.5067 71.4998 32.5409 71.4998C32.5751 71.4998 32.6093 71.4998 32.6435 71.4998C32.6777 71.4998 32.7119 71.4998 32.7461 71.4998C32.7804 71.4998 32.8147 71.4998 32.8489 71.4998C32.8832 71.4998 32.9175 71.4998 32.9518 71.4998C32.9861 71.4998 33.0205 71.4998 33.0548 71.4998C33.0891 71.4998 33.1235 71.4998 33.1579 71.4998C33.1922 71.4998 33.2266 71.4998 33.261 71.4998C33.2955 71.4998 33.3299 71.4998 33.3643 71.4998C33.3988 71.4998 33.4332 71.4998 33.4677 71.4998C33.5021 71.4998 33.5366 71.4998 33.5711 71.4998C33.6056 71.4998 33.6401 71.4998 33.6747 71.4998C33.7092 71.4998 33.7437 71.4998 33.7783 71.4998C33.8128 71.4998 33.8474 71.4998 33.882 71.4998C33.9166 71.4998 33.9512 71.4998 33.9858 71.4998C34.0204 71.4998 34.055 71.4998 34.0897 71.4998C34.1243 71.4998 34.1589 71.4998 34.1936 71.4998C34.2283 71.4998 34.263 71.4998 34.2977 71.4998C34.3323 71.4998 34.3671 71.4998 34.4018 71.4998C34.4365 71.4998 34.4712 71.4998 34.506 71.4998C34.5407 71.4998 34.5755 71.4998 34.6102 71.4998C34.645 71.4998 34.6798 71.4998 34.7146 71.4998C34.7494 71.4998 34.7842 71.4998 34.819 71.4998C34.8538 71.4998 34.8886 71.4998 34.9235 71.4998C34.9583 71.4998 34.9932 71.4998 35.028 71.4998C35.0629 71.4998 35.0978 71.4998 35.1326 71.4998C35.1675 71.4998 35.2024 71.4998 35.2373 71.4998C35.2722 71.4998 35.3072 71.4998 35.3421 71.4998C35.377 71.4998 35.4119 71.4998 35.4469 71.4998C35.4818 71.4998 35.5168 71.4998 35.5518 71.4998C35.5867 71.4998 35.6217 71.4998 35.6567 71.4998C35.6917 71.4998 35.7267 71.4998 35.7617 71.4998C35.7967 71.4998 35.8317 71.4998 35.8668 71.4998C35.9018 71.4998 35.9368 71.4998 35.9719 71.4998C36.0069 71.4998 36.042 71.4998 36.077 71.4998C36.1121 71.4998 36.1472 71.4998 36.1823 71.4998C36.2173 71.4998 36.2524 71.4998 36.2875 71.4998C36.3226 71.4998 36.3577 71.4998 36.3928 71.4998C36.428 71.4998 36.4631 71.4998 36.4982 71.4998C36.5333 71.4998 36.5685 71.4998 36.6036 71.4998C36.6388 71.4998 36.6739 71.4998 36.7091 71.4998C36.7442 71.4998 36.7794 71.4998 36.8146 71.4998C36.8498 71.4998 36.8849 71.4998 36.9201 71.4998C36.9553 71.4998 36.9905 71.4998 37.0257 71.4998C37.0609 71.4998 37.0961 71.4998 37.1313 71.4998C37.1666 71.4998 37.2018 71.4998 37.237 71.4998C37.2722 71.4998 37.3075 71.4998 37.3427 71.4998C37.3779 71.4998 37.4132 71.4998 37.4484 71.4998C37.4837 71.4998 37.5189 71.4998 37.5542 71.4998C37.5895 71.4998 37.6247 71.4998 37.66 71.4998C37.6953 71.4998 37.7306 71.4998 37.7658 71.4998C37.8011 71.4998 37.8364 71.4998 37.8717 71.4998C37.907 71.4998 37.9423 71.4998 37.9776 71.4998C38.0129 71.4998 38.0482 71.4998 38.0835 71.4998C38.1188 71.4998 38.1541 71.4998 38.1894 71.4998C38.2248 71.4998 38.2601 71.4998 38.2954 71.4998C38.3307 71.4998 38.366 71.4998 38.4014 71.4998C38.4367 71.4998 38.472 71.4998 38.5074 71.4998C38.5427 71.4998 38.5781 71.4998 38.6134 71.4998C38.6487 71.4998 38.6841 71.4998 38.7194 71.4998C38.7548 71.4998 38.7901 71.4998 38.8255 71.4998C38.8608 71.4998 38.8962 71.4998 38.9316 71.4998C38.9669 71.4998 39.0023 71.4998 39.0376 71.4998C39.073 71.4998 39.1084 71.4998 39.1437 71.4998C39.1791 71.4998 39.2145 71.4998 39.2498 71.4998C39.2852 71.4998 39.3206 71.4998 39.3559 71.4998C39.3913 71.4998 39.4267 71.4998 39.462 71.4998C39.4974 71.4998 39.5328 71.4998 39.5682 71.4998C39.6035 71.4998 39.6389 71.4998 39.6743 71.4998C39.7097 71.4998 39.745 71.4998 39.7804 71.4998C39.8158 71.4998 39.8512 71.4998 39.8865 71.4998C39.9219 71.4998 39.9573 71.4998 39.9926 71.4998C40.028 71.4998 40.0634 71.4998 40.0988 71.4998C40.1341 71.4998 40.1695 71.4998 40.2049 71.4998C40.2403 71.4998 40.2756 71.4998 40.311 71.4998C40.3464 71.4998 40.3817 71.4998 40.4171 71.4998C40.4525 71.4998 40.4878 71.4998 40.5232 71.4998C40.5586 71.4998 40.5939 71.4998 40.6293 71.4998C40.6646 71.4998 40.7 71.4998 40.7354 71.4998C40.7707 71.4998 40.8061 71.4998 40.8414 71.4998C40.8768 71.4998 40.9121 71.4998 40.9475 71.4998C40.9828 71.4998 41.0182 71.4998 41.0535 71.4998C41.0888 71.4998 41.1242 71.4998 41.1595 71.4998C41.1948 71.4998 41.2302 71.4998 41.2655 71.4998C41.3008 71.4998 41.3362 71.4998 41.3715 71.4998C41.4068 71.4998 41.4421 71.4998 41.4774 71.4998C41.5127 71.4998 41.548 71.4998 41.5834 71.4998C41.6187 71.4998 41.654 71.4998 41.6893 71.4998C41.7246 71.4998 41.7598 71.4998 41.7951 71.4998C41.8304 71.4998 41.8657 71.4998 41.901 71.4998C41.9363 71.4998 41.9715 71.4998 42.0068 71.4998C42.0421 71.4998 42.0773 71.4998 42.1126 71.4998C42.1479 71.4998 42.1831 71.4998 42.2183 71.4998C42.2536 71.4998 42.2888 71.4998 42.3241 71.4998C42.3593 71.4998 42.3945 71.4998 42.4298 71.4998C42.465 71.4998 42.5002 71.4998 42.5354 71.4998C42.5706 71.4998 42.6058 71.4998 42.641 71.4998C42.6762 71.4998 42.7114 71.4998 42.7466 71.4998C42.7818 71.4998 42.817 71.4998 42.8521 71.4998C42.8873 71.4998 42.9225 71.4998 42.9576 71.4998C42.9928 71.4998 43.0279 71.4998 43.0631 71.4998C43.0982 71.4998 43.1333 71.4998 43.1684 71.4998C43.2036 71.4998 43.2387 71.4998 43.2738 71.4998C43.3089 71.4998 43.344 71.4998 43.3791 71.4998C43.4142 71.4998 43.4493 71.4998 43.4843 71.4998C43.5194 71.4998 43.5545 71.4998 43.5895 71.4998C43.6246 71.4998 43.6597 71.4998 43.6947 71.4998C43.7297 71.4998 43.7648 71.4998 43.7998 71.4998C43.8348 71.4998 43.8698 71.4998 43.9048 71.4998C43.9398 71.4998 43.9748 71.4998 44.0098 71.4998C44.0448 71.4998 44.0797 71.4998 44.1147 71.4998C44.1497 71.4998 44.1846 71.4998 44.2196 71.4998C44.2545 71.4998 44.2894 71.4998 44.3244 71.4998C44.3593 71.4998 44.3942 71.4998 44.4291 71.4998C44.464 71.4998 44.4989 71.4998 44.5338 71.4998C44.5686 71.4998 44.6035 71.4998 44.6384 71.4998C44.6732 71.4998 44.708 71.4998 44.7429 71.4998C44.7777 71.4998 44.8125 71.4998 44.8473 71.4998C44.8821 71.4998 44.9169 71.4998 44.9517 71.4998C44.9865 71.4998 45.0213 71.4998 45.056 71.4998C45.0908 71.4998 45.1255 71.4998 45.1603 71.4998C45.195 71.4998 45.2297 71.4998 45.2644 71.4998C45.2992 71.4998 45.3339 71.4998 45.3685 71.4998C45.4032 71.4998 45.4379 71.4998 45.4725 71.4998C45.5072 71.4998 45.5418 71.4998 45.5765 71.4998C45.6111 71.4998 45.6457 71.4998 45.6803 71.4998C45.7149 71.4998 45.7495 71.4998 45.7841 71.4998C45.8187 71.4998 45.8532 71.4998 45.8878 71.4998C45.9223 71.4998 45.9568 71.4998 45.9914 71.4998C46.0259 71.4998 46.0604 71.4998 46.0949 71.4998C46.1293 71.4998 46.1638 71.4998 46.1983 71.4998C46.2327 71.4998 46.2672 71.4998 46.3016 71.4998C46.336 71.4998 46.3704 71.4998 46.4048 71.4998C46.4392 71.4998 46.4736 71.4998 46.508 71.4998C46.5423 71.4998 46.5767 71.4998 46.611 71.4998C46.6453 71.4998 46.6797 71.4998 46.714 71.4998C46.7483 71.4998 46.7825 71.4998 46.8168 71.4998C46.8511 71.4998 46.8853 71.4998 46.9196 71.4998C46.9538 71.4998 46.988 71.4998 47.0222 71.4998C47.0564 71.4998 47.0906 71.4998 47.1247 71.4998C47.1589 71.4998 47.1931 71.4998 47.2272 71.4998C47.2613 71.4998 47.2954 71.4998 47.3295 71.4998C47.3636 71.4998 47.3977 71.4998 47.4318 71.4998C47.4658 71.4998 47.4998 71.4998 47.5339 71.4998C47.5679 71.4998 47.6019 71.4998 47.6359 71.4998C47.6699 71.4998 47.7038 71.4998 47.7378 71.4998C47.7717 71.4998 47.8056 71.4998 47.8396 71.4998C47.8735 71.4998 47.9074 71.4998 47.9412 71.4998C47.9751 71.4998 48.0089 71.4998 48.0428 71.4998C48.0766 71.4998 48.1104 71.4998 48.1442 71.4998C48.178 71.4998 48.2118 71.4998 48.2455 71.4998C48.2793 71.4998 48.313 71.4998 48.3467 71.4998C48.3804 71.4998 48.4141 71.4998 48.4478 71.4998C48.4815 71.4998 48.5151 71.4998 48.5487 71.4998C48.5824 71.4998 48.616 71.4998 48.6496 71.4998C48.6832 71.4998 48.7167 71.4998 48.7503 71.4998C48.7838 71.4998 48.8173 71.4998 48.8508 71.4998C48.8843 71.4998 48.9178 71.4998 48.9513 71.4998C48.9847 71.4998 49.0182 71.4998 49.0516 71.4998C49.085 71.4998 49.1184 71.4998 49.1518 71.4998C49.1851 71.4998 49.2185 71.4998 49.2518 71.4998C49.2851 71.4998 49.3184 71.4998 49.3517 71.4998C49.385 71.4998 49.4182 71.4998 49.4515 71.4998C49.4847 71.4998 49.5179 71.4998 49.5511 71.4998C49.5843 71.4998 49.6175 71.4998 49.6506 71.4998C49.6837 71.4998 49.7169 71.4998 49.7499 71.4998C49.783 71.4998 49.8161 71.4998 49.8492 71.4998C49.8822 71.4998 49.9152 71.4998 49.9482 71.4998C49.9812 71.4998 50.0142 71.4998 50.0471 71.4998C50.0801 71.4998 50.113 71.4998 50.1459 71.4998C50.1788 71.4998 50.2117 71.4998 50.2445 71.4998C50.2774 71.4998 50.3102 71.4998 50.343 71.4998C50.3758 71.4998 50.4085 71.4998 50.4413 71.4998C50.474 71.4998 50.5068 71.4998 50.5395 71.4998C50.5721 71.4998 50.6048 71.4998 50.6375 71.4998C50.6701 71.4998 50.7027 71.4998 50.7353 71.4998C50.7679 71.4998 50.8005 71.4998 50.833 71.4998C50.8655 71.4998 50.8981 71.4998 50.9305 71.4998C50.963 71.4998 50.9955 71.4998 51.0279 71.4998C51.0603 71.4998 51.0927 71.4998 51.1251 71.4998C51.1575 71.4998 51.1898 71.4998 51.2222 71.4998C51.2545 71.4998 51.2868 71.4998 51.319 71.4998C51.3513 71.4998 51.3835 71.4998 51.4157 71.4998C51.448 71.4998 51.4801 71.4998 51.5123 71.4998C51.5444 71.4998 51.5766 71.4998 51.6087 71.4998C51.6408 71.4998 51.6728 71.4998 51.7049 71.4998C51.7369 71.4998 51.7689 71.4998 51.8009 71.4998C51.8329 71.4998 51.8648 71.4998 51.8968 71.4998C51.9287 71.4998 51.9606 71.4998 51.9924 71.4998C52.0243 71.4998 52.0561 71.4998 52.0879 71.4998C52.1197 71.4998 52.1515 71.4998 52.1833 71.4998C52.215 71.4998 52.2467 71.4998 52.2784 71.4998C52.3101 71.4998 52.3417 71.4998 52.3733 71.4998C52.405 71.4998 52.4366 71.4998 52.4681 71.4998C52.4997 71.4998 52.5312 71.4998 52.5627 71.4998C52.5942 71.4998 52.6257 71.4998 52.6571 71.4998C52.6886 71.4998 52.72 71.4998 52.7513 71.4998C52.7827 71.4998 52.8141 71.4998 52.8454 71.4998C52.8767 71.4998 52.908 71.4998 52.9392 71.4998C52.9704 71.4998 53.0017 71.4998 53.0328 71.4998C53.064 71.4998 53.0952 71.4998 53.1263 71.4998C53.1574 71.4998 53.1885 71.4998 53.2195 71.4998C53.2506 71.4998 53.2816 71.4998 53.3126 71.4998C53.3436 71.4998 53.3745 71.4998 53.4055 71.4998C53.4364 71.4998 53.4673 71.4998 53.4981 71.4998C53.529 71.4998 53.5598 71.4998 53.5906 71.4998C53.6214 71.4998 53.6521 71.4998 53.6828 71.4998C53.7135 71.4998 53.7442 71.4998 53.7749 71.4998C53.8055 71.4998 53.8361 71.4998 53.8667 71.4998C53.8973 71.4998 53.9278 71.4998 53.9584 71.4998C53.9889 71.4998 54.0193 71.4998 54.0498 71.4998C54.0802 71.4998 54.1106 71.4998 54.141 71.4998C54.1714 71.4998 54.2017 71.4998 54.232 71.4998C54.2623 71.4998 54.2926 71.4998 54.3228 71.4998C54.353 71.4998 54.3832 71.4998 54.4134 71.4998C54.4435 71.4998 54.4736 71.4998 54.5037 71.4998C54.5338 71.4998 54.5639 71.4998 54.5939 71.4998C54.6239 71.4998 54.6539 71.4998 54.6838 71.4998C54.7137 71.4998 54.7436 71.4998 54.7735 71.4998C54.8034 71.4998 54.8332 71.4998 54.863 71.4998C54.8928 71.4998 54.9225 71.4998 54.9522 71.4998C54.9819 71.4998 55.0116 71.4998 55.0413 71.4998C55.0709 71.4998 55.1005 71.4998 55.1301 71.4998C55.1596 71.4998 55.1891 71.4998 55.2186 71.4998C55.2481 71.4998 55.2776 71.4998 55.307 71.4998C55.3364 71.4998 55.3658 71.4998 55.3951 71.4998C55.4244 71.4998 55.4537 71.4998 55.483 71.4998C55.5122 71.4998 55.5414 71.4998 55.5706 71.4998C55.5998 71.4998 55.6289 71.4998 55.658 71.4998C55.6871 71.4998 55.7162 71.4998 55.7452 71.4998C55.7742 71.4998 55.8032 71.4998 55.8321 71.4998C55.8611 71.4998 55.89 71.4998 55.9188 71.4998C55.9477 71.4998 55.9765 71.4998 56.0053 71.4998C56.0341 71.4998 56.0628 71.4998 56.0915 71.4998C56.1202 71.4998 56.1488 71.4998 56.1774 71.4998C56.2061 71.4998 56.2346 71.4998 56.2632 71.4998C56.2917 71.4998 56.3202 71.4998 56.3486 71.4998C56.3771 71.4998 56.4055 71.4998 56.4339 71.4998C56.4622 71.4998 56.4905 71.4998 56.5188 71.4998C56.5471 71.4998 56.5753 71.4998 56.6035 71.4998C56.6317 71.4998 56.6599 71.4998 56.688 71.4998C56.7161 71.4998 56.7442 71.4998 56.7722 71.4998C56.8002 71.4998 56.8282 71.4998 56.8562 71.4998C56.8841 71.4998 56.912 71.4998 56.9399 71.4998C56.9677 71.4998 56.9955 71.4998 57.0233 71.4998C57.0511 71.4998 57.0788 71.4998 57.1065 71.4998C57.1341 71.4998 57.1618 71.4998 57.1894 71.4998C57.217 71.4998 57.2445 71.4998 57.272 71.4998C57.2995 71.4998 57.327 71.4998 57.3544 71.4998C57.3818 71.4998 57.4092 71.4998 57.4365 71.4998C57.4638 71.4998 57.4911 71.4998 57.5183 71.4998C57.5456 71.4998 57.5728 71.4998 57.5999 71.4998C57.6271 71.4998 57.6542 71.4998 57.6812 71.4998C57.7083 71.4998 57.7353 71.4998 57.7622 71.4998C57.7892 71.4998 57.8161 71.4998 57.843 71.4998C57.8699 71.4998 57.8967 71.4998 57.9235 71.4998C57.9502 71.4998 57.977 71.4998 58.0037 71.4998C58.0304 71.4998 58.057 71.4998 58.0836 71.4998C58.1102 71.4998 58.1367 71.4998 58.1632 71.4998C58.1897 71.4998 58.2162 71.4998 58.2426 71.4998C58.269 71.4998 58.2953 71.4998 58.3217 71.4998C58.348 71.4998 58.3742 71.4998 58.4004 71.4998C58.4267 71.4998 58.4528 71.4998 58.4789 71.4998C58.5051 71.4998 58.5311 71.4998 58.5572 71.4998C58.5832 71.4998 58.6091 71.4998 58.6351 71.4998C58.661 71.4998 58.6869 71.4998 58.7127 71.4998C58.7385 71.4998 58.7643 71.4998 58.79 71.4998C58.8158 71.4998 58.8415 71.4998 58.8671 71.4998C58.8927 71.4998 58.9183 71.4998 58.9438 71.4998C58.9694 71.4998 58.9949 71.4998 59.0203 71.4998C59.0457 71.4998 59.0711 71.4998 59.0964 71.4998C59.1218 71.4998 59.1471 71.4998 59.1723 71.4998C59.1975 71.4998 59.2227 71.4998 59.2478 71.4998C59.273 71.4998 59.2981 71.4998 59.3231 71.4998C59.3481 71.4998 59.3731 71.4998 59.398 71.4998C59.423 71.4998 59.4478 71.4998 59.4727 71.4998C59.4975 71.4998 59.5223 71.4998 59.547 71.4998C59.5717 71.4998 59.5964 71.4998 59.621 71.4998C59.6456 71.4998 59.6702 71.4998 59.6947 71.4998C59.7192 71.4998 59.7437 71.4998 59.7681 71.4998C59.7925 71.4998 59.8169 71.4998 59.8412 71.4998C59.8655 71.4998 59.8898 71.4998 59.914 71.4998C59.9382 71.4998 59.9623 71.4998 59.9864 71.4998C60.0105 71.4998 60.0346 71.4998 60.0586 71.4998C60.0826 71.4998 60.1065 71.4998 60.1304 71.4998C60.1543 71.4998 60.1781 71.4998 60.2019 71.4998C60.2256 71.4998 60.2494 71.4998 60.273 71.4998C60.2967 71.4998 60.3203 71.4998 60.3439 71.4998C60.3674 71.4998 60.3909 71.4998 60.4144 71.4998C60.4379 71.4998 60.4613 71.4998 60.4846 71.4998C60.5079 71.4998 60.5312 71.4998 60.5545 71.4998C60.5777 71.4998 60.6009 71.4998 60.624 71.4998C60.6471 71.4998 60.6702 71.4998 60.6932 71.4998C60.7162 71.4998 60.7392 71.4998 60.7621 71.4998C60.785 71.4998 60.8078 71.4998 60.8306 71.4998C60.8534 71.4998 60.8761 71.4998 60.8988 71.4998C60.9215 71.4998 60.9441 71.4998 60.9667 71.4998C60.9892 71.4998 61.0117 71.4998 61.0342 71.4998C61.0566 71.4998 61.079 71.4998 61.1014 71.4998C61.1237 71.4998 61.146 71.4998 61.1682 71.4998C61.1904 71.4998 61.2126 71.4998 61.2347 71.4998C61.2568 71.4998 61.2789 71.4998 61.3008 71.4998C61.3228 71.4998 61.3448 71.4998 61.3667 71.4998C61.3885 71.4998 61.4104 71.4998 61.4321 71.4998C61.4539 71.4998 61.4756 71.4998 61.4972 71.4998C61.5189 71.4998 61.5404 71.4998 61.562 71.4998C61.5835 71.4998 61.605 71.4998 61.6264 71.4998C61.6478 71.4998 61.6691 71.4998 61.6904 71.4998C61.7117 71.4998 61.7329 71.4998 61.7541 71.4998C61.7753 71.4998 61.7964 71.4998 61.8175 71.4998C61.8385 71.4998 61.8595 71.4998 61.8804 71.4998C61.9014 71.4998 61.9222 71.4998 61.9431 71.4998C61.9639 71.4998 61.9846 71.4998 62.0053 71.4998C62.026 71.4998 62.0466 71.4998 62.0672 71.4998C62.0878 71.4998 62.1083 71.4998 62.1287 71.4998C62.1492 71.4998 62.1696 71.4998 62.1899 71.4998C62.2102 71.4998 62.2305 71.4998 62.2507 71.4998C62.2709 71.4998 62.291 71.4998 62.3111 71.4998C62.3312 71.4998 62.3512 71.4998 62.3712 71.4998C62.3911 71.4998 62.411 71.4998 62.4309 71.4998C62.4507 71.4998 62.4705 71.4998 62.4902 71.4998C62.5099 71.4998 62.5295 71.4998 62.5491 71.4998C62.5687 71.4998 62.5882 71.4998 62.6077 71.4998C62.6271 71.4998 62.6465 71.4998 62.6658 71.4998C62.6852 71.4998 62.7044 71.4998 62.7236 71.4998C62.7428 71.4998 62.762 71.4998 62.7811 71.4998C62.8001 71.4998 62.8191 71.4998 62.8381 71.4998C62.857 71.4998 62.8759 71.4998 62.8948 71.4998C62.9136 71.4998 62.9323 71.4998 62.951 71.4998C62.9697 71.4998 62.9883 71.4998 63.0069 71.4998C63.0255 71.4998 63.044 71.4998 63.0624 71.4998C63.0808 71.4998 63.0992 71.4998 63.1175 71.4998C63.1358 71.4998 63.154 71.4998 63.1722 71.4998C63.1904 71.4998 63.2085 71.4998 63.2265 71.4998C63.2446 71.4998 63.2625 71.4998 63.2805 71.4998C63.2984 71.4998 63.3162 71.4998 63.334 71.4998C63.3518 71.4998 63.3695 71.4998 63.3871 71.4998C63.4048 71.4998 63.4223 71.4998 63.4398 71.4998C63.4574 71.4998 63.4748 71.4998 63.4922 71.4998C63.5096 71.4998 63.5269 71.4998 63.5441 71.4998C63.5614 71.4998 63.5785 71.4998 63.5956 71.4998C63.6127 71.4998 63.6298 71.4998 63.6468 71.4998C63.6637 71.4998 63.6806 71.4998 63.6975 71.4998C63.7143 71.4998 63.7311 71.4998 63.7478 71.4998C63.7645 71.4998 63.7811 71.4998 63.7977 71.4998C63.8142 71.4998 63.8307 71.4998 63.8472 71.4998C63.8636 71.4998 63.8799 71.4998 63.8962 71.4998C63.9125 71.4998 63.9287 71.4998 63.9449 71.4998C63.961 71.4998 63.9771 71.4998 63.9931 71.4998C64.0092 71.4998 64.0251 71.4998 64.041 71.4998C64.0568 71.4998 64.0726 71.4998 64.0884 71.4998C64.1041 71.4998 64.1198 71.4998 64.1354 71.4998C64.151 71.4998 64.1665 71.4998 64.1819 71.4998C64.1974 71.4998 64.2128 71.4998 64.2281 71.4998C64.2434 71.4998 64.2586 71.4998 64.2738 71.4998C64.289 71.4998 64.3041 71.4998 64.3191 71.4998C64.3341 71.4998 64.3491 71.4998 64.364 71.4998C64.3789 71.4998 64.3937 71.4998 64.4084 71.4998C64.4231 71.4998 64.4378 71.4998 64.4524 71.4998C64.467 71.4998 64.4815 71.4998 64.496 71.4998C64.5104 71.4998 64.5248 71.4998 64.5391 71.4998C64.5534 71.4998 64.5677 71.4998 64.5818 71.4998C64.596 71.4998 64.6101 71.4998 64.6241 71.4998C64.6381 71.4998 64.6521 71.4998 64.666 71.4998C64.6798 71.4998 64.6936 71.4998 64.7074 71.4998C64.7211 71.4998 64.7347 71.4998 64.7483 71.4998C64.7619 71.4998 64.7754 71.4998 64.7888 71.4998C64.8022 71.4998 64.8156 71.4998 64.8289 71.4998C64.8422 71.4998 64.8554 71.4998 64.8685 71.4998C64.8816 71.4998 64.8947 71.4998 64.9077 71.4998C64.9207 71.4998 64.9336 71.4998 64.9464 71.4998C64.9593 71.4998 64.972 71.4998 64.9847 71.4998C64.9974 71.4998 65.01 71.4998 65.0225 71.4998C65.0351 71.4998 65.0475 71.4998 65.0599 71.4998C65.0723 71.4998 65.0846 71.4998 65.0968 71.4998C65.109 71.4998 65.1212 71.4998 65.1333 71.4998C65.1454 71.4998 65.1574 71.4998 65.1693 71.4998C65.1812 71.4998 65.1931 71.4998 65.2048 71.4998C65.2166 71.4998 65.2283 71.4998 65.2399 71.4998C65.2515 71.4998 65.2631 71.4998 65.2746 71.4998C65.286 71.4998 65.2974 71.4998 65.3087 71.4998C65.32 71.4998 65.3313 71.4998 65.3424 71.4998C65.3536 71.4998 65.3646 71.4998 65.3756 71.4998C65.3866 71.4998 65.3976 71.4998 65.4084 71.4998C65.4193 71.4998 65.43 71.4998 65.4407 71.4998C65.4514 71.4998 65.462 71.4998 65.4725 71.4998C65.4831 71.4998 65.4935 71.4998 65.5039 71.4998C65.5143 71.4998 65.5246 71.4998 65.5348 71.4998C65.545 71.4998 65.5551 71.4998 65.5652 71.4998C65.5752 71.4998 65.5852 71.4998 65.5951 71.4998C65.605 71.4998 65.6148 71.4998 65.6245 71.4998C65.6343 71.4998 65.6439 71.4998 65.6535 71.4998C65.6631 71.4998 65.6726 71.4998 65.682 71.4998C65.6914 71.4998 65.7007 71.4998 65.71 71.4998C65.7193 71.4998 65.7284 71.4998 65.7375 71.4998C65.7466 71.4998 65.7556 71.4998 65.7646 71.4998C65.7735 71.4998 65.7823 71.4998 65.7911 71.4998C65.7999 71.4998 65.8086 71.4998 65.8172 71.4998C65.8258 71.4998 65.8343 71.4998 65.8427 71.4998C65.8512 71.4998 65.8595 71.4998 65.8678 71.4998C65.8761 71.4998 65.8843 71.4998 65.8924 71.4998C65.9005 71.4998 65.9085 71.4998 65.9165 71.4998C65.9244 71.4998 65.9323 71.4998 65.9401 71.4998C65.9479 71.4998 65.9556 71.4998 65.9632 71.4998C65.9708 71.4998 65.9783 71.4998 65.9858 71.4998C65.9932 71.4998 66.0006 71.4998 66.0079 71.4998C66.0151 71.4998 66.0223 71.4998 66.0295 71.4998C66.0366 71.4998 66.0436 71.4998 66.0506 71.4998C66.0575 71.4998 66.0644 71.4998 66.0711 71.4998C66.0779 71.4998 66.0846 71.4998 66.0912 71.4998C66.0978 71.4998 66.1043 71.4998 66.1108 71.4998C66.1172 71.4998 66.1236 71.4998 66.1298 71.4998C66.1361 71.4998 66.1423 71.4998 66.1484 71.4998C66.1545 71.4998 66.1605 71.4998 66.1664 71.4998C66.1724 71.4998 66.1782 71.4998 66.184 71.4998C66.1897 71.4998 66.1954 71.4998 66.201 71.4998C66.2065 71.4998 66.212 71.4998 66.2175 71.4998C66.2229 71.4998 66.2282 71.4998 66.2334 71.4998C66.2387 71.4998 66.2438 71.4998 66.2489 71.4998C66.2539 71.4998 66.2589 71.4998 66.2638 71.4998C66.2687 71.4998 66.2735 71.4998 66.2782 71.4998C66.2829 71.4998 66.2876 71.4998 66.2921 71.4998C66.2966 71.4998 66.3011 71.4998 66.3055 71.4998C66.3098 71.4998 66.3141 71.4998 66.3183 71.4998C66.3225 71.4998 66.3266 71.4998 66.3306 71.4998C66.3346 71.4998 66.3385 71.4998 66.3423 71.4998C66.3462 71.4998 66.3499 71.4998 66.3536 71.4998C66.3572 71.4998 66.3608 71.4998 66.3643 71.4998C66.3678 71.4998 66.3712 71.4998 66.3745 71.4998C66.3778 71.4998 66.381 71.4998 66.3841 71.4998C66.3872 71.4998 66.3902 71.4998 66.3932 71.4998C66.3961 71.4998 66.399 71.4998 66.4017 71.4998C66.4045 71.4998 66.4072 71.4998 66.4097 71.4998C66.4123 71.4998 66.4148 71.4998 66.4172 71.4998C66.4196 71.4998 66.4219 71.4998 66.4241 71.4998C66.4264 71.4998 66.4285 71.4998 66.4305 71.4998C66.4326 71.4998 66.4345 71.4998 66.4364 71.4998C66.4382 71.4998 66.44 71.4998 66.4416 71.4998C66.4433 71.4998 66.4449 71.4998 66.4464 71.4998C66.4479 71.4998 66.4493 71.4998 66.4506 71.4998C66.4519 71.4998 66.4531 71.4998 66.4542 71.4998C66.4553 71.4998 66.4563 71.4998 66.4573 71.4998C66.4582 71.4998 66.459 71.4998 66.4598 71.4998C66.4605 71.4998 66.4612 71.4998 66.4618 71.4998C66.4623 71.4998 66.4628 71.4998 66.4632 71.4998C66.4635 71.4998 66.4638 71.4998 66.464 71.4998C66.4642 71.4998 66.4643 71.4998 66.4643 70.9998ZM26.0714 70.4998C22.734 70.4998 20.3036 67.7589 20.3036 64.2797H19.3036C19.3036 68.2233 22.0978 71.4998 26.0714 71.4998V70.4998ZM20.3036 64.2797V10.5452H19.3036V64.2797H20.3036ZM20.3036 10.5452C20.3036 5.00443 15.8775 0.499756 10.4018 0.499756V1.49976C15.311 1.49976 19.3036 5.54236 19.3036 10.5452H20.3036ZM10.4018 0.499756C4.92607 0.499756 0.5 5.00443 0.5 10.5452H1.5C1.5 5.54237 5.4926 1.49976 10.4018 1.49976V0.499756ZM0.5 10.5452L0.5 16.5553H1.5L1.5 10.5452H0.5ZM1 17.0553H19.8036V16.0553H1V17.0553Z" fill="#6EBDFF"/>
<path d="M11 0.999756H53.7019C60.4939 0.999756 66 6.78562 66 13.9228V55.9998" stroke="#6EBDFF" stroke-linecap="round" stroke-linejoin="round"/>
<path d="M26.2285 20.2434C25.9524 20.2434 25.7285 20.4673 25.7285 20.7434C25.7285 21.0196 25.9524 21.2434 26.2285 21.2434V20.2434ZM59.9689 21.2434C60.245 21.2434 60.4689 21.0196 60.4689 20.7434C60.4689 20.4673 60.245 20.2434 59.9689 20.2434V21.2434ZM26.2285 29.3091C25.9524 29.3091 25.7285 29.533 25.7285 29.8091C25.7285 30.0853 25.9524 30.3091 26.2285 30.3091V29.3091ZM59.9689 30.3091C60.245 30.3091 60.4689 30.0853 60.4689 29.8091C60.4689 29.533 60.245 29.3091 59.9689 29.3091V30.3091ZM26.2285 38.3749C25.9524 38.3749 25.7285 38.5987 25.7285 38.8749C25.7285 39.151 25.9524 39.3749 26.2285 39.3749V38.3749ZM59.9689 39.3749C60.245 39.3749 60.4689 39.151 60.4689 38.8749C60.4689 38.5987 60.245 38.3749 59.9689 38.3749V39.3749ZM26.2285 47.4406C25.9524 47.4406 25.7285 47.6645 25.7285 47.9406C25.7285 48.2168 25.9524 48.4406 26.2285 48.4406V47.4406ZM59.9689 48.4406C60.245 48.4406 60.4689 48.2168 60.4689 47.9406C60.4689 47.6645 60.245 47.4406 59.9689 47.4406V48.4406ZM26.2285 21.2434H59.9689V20.2434H26.2285V21.2434ZM26.2285 30.3091H59.9689V29.3091H26.2285V30.3091ZM26.2285 39.3749H59.9689V38.3749H26.2285V39.3749ZM26.2285 48.4406H59.9689V47.4406H26.2285V48.4406Z" fill="#FFCC13"/>
</svg>
