<svg width="72" height="72" viewBox="0 0 72 72" fill="none" xmlns="http://www.w3.org/2000/svg">
<path d="M62.3817 20.0342C62.3776 33.0098 62.5069 25.3598 62.5 38.3355C62.4794 43.8951 60.9736 49.4407 58.1762 54.2134C55.214 59.3124 50.7954 63.5139 45.6033 66.181C42.9997 67.5069 40.3864 68.8159 37.7801 70.1348C37.1673 70.419 36.5951 70.7816 35.959 71H35.7521C33.1527 69.7204 30.593 68.3553 28.0086 67.0435C25.8721 65.985 23.7865 64.7978 21.9001 63.3179C18.5161 60.6998 15.6734 57.3565 13.6139 53.5694C11.3551 49.4323 10.0334 44.7659 9.79155 40.0365C9.72835 38.9543 9.74621 37.8707 9.74346 36.787C9.74225 25.7765 9.62293 28.427 9.61987 20.0349" stroke="#6EBDFF" stroke-linecap="round" stroke-linejoin="round"/>
<path d="M1.71166 24.5915C1.48606 24.7508 1.43227 25.0627 1.59152 25.2883C1.75076 25.5139 2.06274 25.5677 2.28834 25.4085L1.71166 24.5915ZM69.7117 25.4085C69.9373 25.5677 70.2492 25.5139 70.4085 25.2883C70.5677 25.0627 70.5139 24.7508 70.2883 24.5915L69.7117 25.4085ZM34.8466 1.81414L34.5583 1.40566L34.8466 1.81414ZM37.1534 1.81414L37.4417 1.40566L37.1534 1.81414ZM2.28834 25.4085L35.135 2.22263L34.5583 1.40566L1.71166 24.5915L2.28834 25.4085ZM70.2883 24.5915L37.4417 1.40566L36.865 2.22263L69.7117 25.4085L70.2883 24.5915ZM35.135 2.22263C35.6536 1.85656 36.3464 1.85656 36.865 2.22263L37.4417 1.40566C36.5774 0.79555 35.4226 0.79555 34.5583 1.40566L35.135 2.22263Z" fill="#6EBDFF"/>
<path d="M48.7295 9.71161V5.64844C48.7295 4.54387 49.6249 3.64844 50.7295 3.64844H60.3806C61.4852 3.64844 62.3806 4.54387 62.3806 5.64844V20.0347" stroke="#6EBDFF" stroke-linecap="round" stroke-linejoin="round"/>
<path d="M36.5 23.1745C36.5 22.8983 36.2761 22.6745 36 22.6745C35.7238 22.6745 35.5 22.8983 35.5 23.1745L36.5 23.1745ZM35.5 49.3888C35.5 49.665 35.7239 49.8888 36 49.8888C36.2761 49.8888 36.5 49.665 36.5 49.3888L35.5 49.3888ZM49.0696 24.928C49.2186 24.6955 49.1509 24.3863 48.9184 24.2373C48.6859 24.0883 48.3766 24.156 48.2276 24.3885L49.0696 24.928ZM35.579 44.1253C35.43 44.3578 35.4977 44.6671 35.7302 44.8161C35.9627 44.9651 36.272 44.8974 36.421 44.6649L35.579 44.1253ZM43.2343 23.4437C43.3811 23.2098 43.3104 22.9012 43.0765 22.7545C42.8426 22.6077 42.534 22.6783 42.3872 22.9123L43.2343 23.4437ZM35.5764 33.7675C35.4297 34.0014 35.5003 34.31 35.7342 34.4568C35.9681 34.6036 36.2767 34.5329 36.4235 34.299L35.5764 33.7675ZM24.3513 23.1846H47.6486V22.1846H24.3513V23.1846ZM48.1486 23.6846V49.3162H49.1486V23.6846H48.1486ZM47.6486 49.8162H24.3513V50.8162H47.6486V49.8162ZM23.8513 49.3162V23.6846H22.8513V49.3162H23.8513ZM35.5 23.1745L35.5 49.3888L36.5 49.3888L36.5 23.1745L35.5 23.1745ZM48.2276 24.3885L35.579 44.1253L36.421 44.6649L49.0696 24.928L48.2276 24.3885ZM42.3872 22.9123L35.5764 33.7675L36.4235 34.299L43.2343 23.4437L42.3872 22.9123ZM24.3513 49.8162C24.0752 49.8162 23.8513 49.5923 23.8513 49.3162H22.8513C22.8513 50.1446 23.5229 50.8162 24.3513 50.8162V49.8162ZM48.1486 49.3162C48.1486 49.5923 47.9248 49.8162 47.6486 49.8162V50.8162C48.477 50.8162 49.1486 50.1446 49.1486 49.3162H48.1486ZM47.6486 23.1846C47.9248 23.1846 48.1486 23.4084 48.1486 23.6846H49.1486C49.1486 22.8561 48.477 22.1846 47.6486 22.1846V23.1846ZM24.3513 22.1846C23.5229 22.1846 22.8513 22.8561 22.8513 23.6846H23.8513C23.8513 23.4084 24.0752 23.1846 24.3513 23.1846V22.1846Z" fill="#FFCC13"/>
</svg>
