
<svg class="circle" viewBox="0 0 120 120" xmlns="http://www.w3.org/2000/svg">
    <g id="1024" stroke="none" stroke-width="1" fill="none" fill-rule="evenodd">
        <g id="Group-4" fill="#979797">
            <path class="circle__line"  d="M119.580052,54.3657308 C119.715205,55.7440607 118.70741,56.9709813 117.329077,57.1061346 C115.950744,57.241288 114.723821,56.2334943 114.588668,54.8551644 C114.576059,54.7265808 114.562999,54.5979886 114.549497,54.4694801 C111.796418,28.2757346 90.7909946,7.90210584 64.8617658,5.70480609 C63.481769,5.58786213 62.4578625,4.37435403 62.5748067,2.9943599 C62.6917509,1.61436576 63.9052613,0.590461287 65.2852582,0.707405249 C93.6011696,3.10695772 116.531618,25.3477111 119.537355,53.945328 C119.552079,54.0854658 119.566311,54.2256007 119.580052,54.3657308 Z" style="fill-rule: evenodd"></path>
            <path class="circle__line" d="M54.7910791,0.743219601 C56.1703272,0.617752736 57.3901398,1.63414103 57.515607,3.01338639 C57.6410741,4.39263176 56.6246838,5.61244203 55.2454357,5.7379089 C54.9882035,5.76130869 54.7309303,5.78651499 54.4739038,5.81350074 C28.4185607,8.5520219 8.10812254,29.3488932 5.73903871,55.1142303 C5.61223046,56.493353 4.39143001,57.5085547 3.01230458,57.3817467 C1.63317915,57.2549387 0.617975496,56.0341407 0.744783746,54.655018 C3.33192037,26.518214 25.503673,3.81544999 53.9499359,0.825633566 C54.2303345,0.796193914 54.5107201,0.768723182 54.7910791,0.743219601 Z" style="fill-rule: evenodd"></path>
            <path class="circle__line" d="M66.4125313,119.537696 C65.8512675,119.596615 65.2900645,119.647644 64.729031,119.690799 C63.3481669,119.797014 62.1426507,118.763709 62.036435,117.382848 C61.9302194,116.001987 62.9635261,114.796473 64.3443901,114.690257 C64.8590465,114.65067 65.373922,114.603853 65.8889214,114.549791 L65.8959908,114.549049 C92.2284203,111.781404 112.664066,90.5694786 114.689717,64.4789319 C114.79692,63.0981468 116.003175,62.0657046 117.383963,62.1729075 C118.764751,62.2801104 119.797195,63.486363 119.689992,64.867148 C117.477879,93.3593333 95.1694013,116.515234 66.4202348,119.536887 L66.4125302,119.537685 L66.4125313,119.537696 Z" style="fill-rule: evenodd"></path>
            <path class="circle__line" d="M0.706578933,65.1533761 C0.590667056,63.7732949 1.61548101,62.560553 2.99556496,62.4446414 C4.37564891,62.3287297 5.58839315,63.3535417 5.70430502,64.7336229 C5.7367192,65.1195557 5.77319925,65.5055961 5.81373218,65.8915179 C8.53715602,91.8031152 29.1275417,112.048774 54.72766,114.58725 C56.1058441,114.723909 57.1122989,115.95193 56.9756396,117.330111 C56.8389803,118.708293 55.610957,119.714746 54.2327729,119.578086 C26.2765453,116.805982 3.79920443,94.7049592 0.825864586,66.4155744 C0.781670562,65.9947947 0.74191071,65.5740467 0.706578933,65.1533761 Z" style="fill-rule: evenodd"></path>
        </g>
    </g>
</svg>