<svg class="circle" xmlns="http://www.w3.org/2000/svg" viewBox="0 0 118.8 118.52">
  <title>Asset 10</title>
  <g id="Layer_2" data-name="Layer 2">
    <g id="Layer_1-2" data-name="Layer 1">
      <g>
        <path class="circle__line" d="M65.3,6a3,3,0,0,1,.63-6,59.43,59.43,0,0,1,47.9,35.23,3,3,0,1,1-5.48,2.39A53.46,53.46,0,0,0,65.3,6Z" style="fill-rule: evenodd"/>
        <path class="circle__line" d="M111.72,48.32a3,3,0,0,1,5.86-1.2,59.36,59.36,0,0,1,.91,6,60,60,0,0,1,.31,6A59.34,59.34,0,0,1,98.88,103.5a3,3,0,0,1-4-4.48,53.17,53.17,0,0,0,17.9-39.9,54.15,54.15,0,0,0-.27-5.45A53.32,53.32,0,0,0,111.72,48.32Z" style="fill-rule: evenodd"/>
        <path class="circle__line" d="M85.91,105.5a3,3,0,0,1,3,5.2,59.31,59.31,0,0,1-59.42-.28,3,3,0,1,1,3-5.16,53.36,53.36,0,0,0,53.42.23Z" style="fill-rule: evenodd"/>
        <path class="circle__line" d="M23.47,98.63a3,3,0,0,1-4,4.43A59.58,59.58,0,0,1,1.35,46.48a3,3,0,1,1,5.86,1.27,53.19,53.19,0,0,0-.91,5.64A54,54,0,0,0,6,59.12,53.24,53.24,0,0,0,23.47,98.63Z" style="fill-rule: evenodd"/>
        <path class="circle__line" d="M10.69,37.2a3,3,0,1,1-5.46-2.46A59.45,59.45,0,0,1,53.62,0a3,3,0,0,1,.56,6A53.09,53.09,0,0,0,28.29,15.7,53.63,53.63,0,0,0,10.69,37.2Z" style="fill-rule: evenodd"/>
      </g>
    </g>
  </g>
</svg>
