<?xml version="1.0" encoding="UTF-8"?>
<svg class="circle"  viewBox="0 0 118.8 118.52" xmlns="http://www.w3.org/2000/svg">
    <g id="1024" stroke="none" stroke-width="1" fill="none" fill-rule="evenodd">
        <g id="Group-8" fill="#979797">
            <path class="circle__line" d="M65.1857667,119.488154 C63.8103088,119.608708 62.5977276,118.589393 62.4773906,117.211451 C62.3570536,115.833508 63.3745301,114.618736 64.749988,114.498182 C94.7349691,111.870097 116.915957,85.3880712 114.292611,55.3489221 C113.739289,49.0130023 112.11858,42.9235509 109.520352,37.2698694 C108.942936,36.0134279 109.491559,34.5259477 110.745735,33.9474894 C111.999911,33.3690311 113.484709,33.9186451 114.062124,35.1750865 C116.900006,41.3502503 118.669962,48.0004606 119.273585,54.9123562 C122.137604,87.7073905 97.9216635,116.61896 65.1857667,119.488154 Z" style="fill-rule: evenodd" ></path>
            <path class="circle__line" d="M108.868082,26.0856818 C109.657025,27.2208373 109.378023,28.7817823 108.244914,29.57215 C107.111806,30.3625177 105.553675,30.0830118 104.764733,28.9478563 C93.6820577,13.0017492 74.9264127,3.99222821 55.250012,5.71680004 C39.1481664,7.12807387 24.8139234,15.4983917 15.60943,28.4300233 C14.8078149,29.5562332 13.2466503,29.8181953 12.1224713,29.015132 C10.9982923,28.2120688 10.7368025,26.6480839 11.5384176,25.5218741 C21.583511,11.4092617 37.2393577,2.26720846 54.8142333,0.726828396 C76.2931388,-1.15572706 96.7721159,8.68161914 108.868082,26.0856818 Z" style="fill-rule: evenodd" ></path>
            <path class="circle__line" d="M6.23229258,34.559033 C6.82511586,33.3098137 8.31656029,32.7785678 9.56352694,33.372462 C10.8104936,33.9663562 11.3407816,35.4604949 10.7479583,36.7097142 C6.62121083,45.4057502 4.85072729,55.0566835 5.70738895,64.8660598 C8.00152421,91.1355161 28.6818122,111.877531 54.5669277,114.444353 C55.940925,114.580602 56.9445178,115.80691 56.8085151,117.183389 C56.6725123,118.559869 55.4484154,119.565275 54.0744182,119.429026 C25.8066272,116.625933 3.23110028,93.983022 0.726415464,65.3026258 C-0.20837555,54.5986136 1.72583308,44.0552124 6.23229258,34.559033 Z" style="fill-rule: evenodd" ></path>
        </g>
    </g>
</svg>