<svg xmlns="http://www.w3.org/2000/svg" viewBox="0 0 169.74 180.1">
  <title>Asset 6</title>
  <g id="Layer_2" data-name="Layer 2">
    <g id="Layer_1-2" data-name="Layer 1">
      <g>
        <rect x="5.76" y="5.76" width="92.9" height="148" rx="5.63" ry="5.63" style="fill: #fff"/>
        <path d="M104.42,11.39V148.13a11.34,11.34,0,0,1-3.34,8h0a11.36,11.36,0,0,1-8,3.34H11.39a11.37,11.37,0,0,1-8-3.35h0a11.36,11.36,0,0,1-3.34-8V11.39A11.41,11.41,0,0,1,11.39,0H93a11.41,11.41,0,0,1,11.39,11.39Zm-5.76,0A5.65,5.65,0,0,0,93,5.76H11.39a5.65,5.65,0,0,0-5.63,5.63V148.13a5.65,5.65,0,0,0,5.63,5.63H93a5.65,5.65,0,0,0,5.63-5.63Z" style="fill: #ffcb00;fill-rule: evenodd"/>
        <rect x="15.9" y="19.35" width="72.63" height="110.69" style="fill: #fff"/>
        <path d="M15.9,17.55H88.53a1.8,1.8,0,0,1,1.8,1.8V130a1.8,1.8,0,0,1-1.8,1.8H15.9a1.8,1.8,0,0,1-1.8-1.8V19.35a1.8,1.8,0,0,1,1.8-1.8Zm70.83,3.6h-69V128.24h69Z" style="fill: #ffcb00;fill-rule: evenodd"/>
        <path d="M42.21,138.58h20a3.87,3.87,0,0,1,3.86,3.86h0a3.87,3.87,0,0,1-3.86,3.86h-20a3.87,3.87,0,0,1-3.86-3.86h0A3.87,3.87,0,0,1,42.21,138.58Z" style="fill: #fff;fill-rule: evenodd"/>
        <path d="M42.21,136.78h20a5.64,5.64,0,0,1,4,1.66l.11.12a5.62,5.62,0,0,1-.11,7.86h0a5.64,5.64,0,0,1-4,1.66h-20a5.64,5.64,0,0,1-4-1.66h0a5.65,5.65,0,0,1,4-9.65Zm20,3.6h-20a2.06,2.06,0,1,0,0,4.11h20a2.05,2.05,0,0,0,1.45-.61h0a2.06,2.06,0,0,0,.07-2.84l-.07-.07A2.05,2.05,0,0,0,62.22,140.38Z" style="fill: #ffcb00;fill-rule: evenodd"/>
        <path d="M88.08,162l-9.47-9.47c-9.19-9.19-6.13-20.45-2.38-27.37-.53-.36.47.47,0,0L46.82,95.75a10.91,10.91,0,0,1,0-15.38h0a10.91,10.91,0,0,1,15.38,0l24.5,24.5a10.8,10.8,0,0,1,3-5.94h0A10.92,10.92,0,0,1,102.59,97,10.78,10.78,0,0,1,105.44,92h0a10.91,10.91,0,0,1,14.65-.67,10.83,10.83,0,0,1,1.37-1.68h0a10.91,10.91,0,0,1,15.38,0l21.42,21.42c4.6,4.13,8.72,13.29,8.6,25.45l-40.72,40.72S104.56,177.58,88.08,162Z" style="fill: #fff;fill-rule: evenodd"/>
        <path d="M86,164l-9.47-9.47a22.35,22.35,0,0,1-6.8-14.17,29.13,29.13,0,0,1,2.95-14.68L44.79,97.78h0a13.79,13.79,0,0,1,0-19.45h0a13.79,13.79,0,0,1,19.45,0L85.57,99.65A13.68,13.68,0,0,1,95.42,93a13.85,13.85,0,0,1,5.51.31l.23-.42a13.78,13.78,0,0,1,18.36-5.4,13.79,13.79,0,0,1,19.36.09L160.3,109l.09.09a28.28,28.28,0,0,1,7,11.64,48,48,0,0,1,2.36,15.78,2.86,2.86,0,0,1-.84,2h0l-40.72,40.72a2.87,2.87,0,0,1-2.28.83c-2.59,0-23.54-.64-39.79-16l-.06-.06Zm-5.4-13.54L90.12,160h0c13.42,12.65,30.33,14.18,34.86,14.36l39-39a41.76,41.76,0,0,0-2.07-12.73,22.56,22.56,0,0,0-5.41-9.23,2.9,2.9,0,0,1-.29-.25L134.81,91.67a8,8,0,0,0-11.31,0h0c-.16.16-.33.36-.53.59a7.92,7.92,0,0,0-.48.64h0l-.19.25a2.87,2.87,0,0,1-4,.37,8,8,0,0,0-10.78.5,7.9,7.9,0,0,0-2.1,3.71h0a2.87,2.87,0,0,1-4.14,1.85,8.09,8.09,0,0,0-5-.86A8,8,0,0,0,90.32,103a8,8,0,0,0-.75,2.17,2.88,2.88,0,0,1-4.9,1.78L60.17,82.4a8,8,0,0,0-11.31,0h0a8,8,0,0,0,0,11.31h0l29.37,29.37a2.82,2.82,0,0,1,.24.26,2.58,2.58,0,0,1-.08,4l-.11.11a23.87,23.87,0,0,0-2.77,12.46A16.74,16.74,0,0,0,80.65,150.49Z" style="fill: #ffcb00;fill-rule: evenodd"/>
      </g>
    </g>
  </g>
</svg>
