<svg xmlns="http://www.w3.org/2000/svg" viewBox="0 0 129.61 150.18">
  <title>Asset 11</title>
  <g id="Layer_2" data-name="Layer 2">
    <g id="Layer_1-2" data-name="Layer 1">
      <g>
        <path d="M110.16,71.21,127.92,89h0l.21.24a5.86,5.86,0,0,1-.21,8h0l-.17.15L76.24,148.48a5.83,5.83,0,0,1-8.24,0h0L1.71,82.19A5.82,5.82,0,0,1,0,78.06H0a5.83,5.83,0,0,1,1.71-4.13L19.61,56a2.88,2.88,0,0,1,4.07,0L39.77,72.12a5,5,0,0,0,7,0l3.58-3.58a5,5,0,0,0,0-7L34.27,45.44a2.88,2.88,0,0,1,0-4.07L47,28.62a2.87,2.87,0,0,1,2.29-.83h.58v.11a2.88,2.88,0,0,1,1.2,4.79L40.38,43.4,54.43,57.45a10.73,10.73,0,0,1,0,15.16l-3.58,3.58a10.73,10.73,0,0,1-15.16,0L21.64,62.14,5.78,78a.08.08,0,0,0,0,.06h0a.09.09,0,0,0,0,.06L72.06,144.4h.05l.07,0,51.52-51.1.14-.15h0a.07.07,0,0,0,0,0,.1.1,0,0,0,0,0l0,0h0L106.09,75.28Z" style="fill: #ffffff;fill-rule: evenodd"/>
        <path d="M103,1.8v8.54a1.8,1.8,0,0,1-1.8,1.8H60.6v21.3A1.8,1.8,0,0,1,60,34.8l-8.44,8.47A1.79,1.79,0,0,1,48.47,42h0V1.8A1.8,1.8,0,0,1,50.26,0h50.95A1.79,1.79,0,0,1,103,1.8Zm-3.6,6.74V3.59H52.06V37.65l4.94-5V10.34a1.8,1.8,0,0,1,1.8-1.8Z" style="fill: #ffffff;fill-rule: evenodd"/>
        <path d="M111.55,10.34V76.43a1.8,1.8,0,0,1-3.09,1.26L63.6,32.82h0a1.17,1.17,0,0,0-1.64,0h0l-1.88,1.88A1.8,1.8,0,0,1,57,33.28V10.34A1.79,1.79,0,0,1,58.8,8.54h50.95a1.79,1.79,0,0,1,1.79,1.79Zm-3.6,61.75v-60H60.59V29.41a4.77,4.77,0,0,1,5.55.86h0Z" style="fill: #ffffff;fill-rule: evenodd"/>
        <path d="M96.13,64.5,73,41.42a1.2,1.2,0,0,1,.3-1.92,21.11,21.11,0,0,1,5.17-2.08,22.91,22.91,0,0,1,5.73-.72h0a21.39,21.39,0,0,1,13.62,4.68,15,15,0,0,1,5.75,11.55h0a14,14,0,0,1-1.54,6.35,16.49,16.49,0,0,1-4.36,5.3,1.2,1.2,0,0,1-1.6-.08ZM75.9,40.89,97,62a13.77,13.77,0,0,0,2.91-3.82,11.59,11.59,0,0,0,1.28-5.28h0a12.64,12.64,0,0,0-4.89-9.7A19,19,0,0,0,84.25,39.1h0a20.49,20.49,0,0,0-5.13.64A18.92,18.92,0,0,0,75.9,40.89Z" style="fill: #ffffff;fill-rule: evenodd"/>
        <path d="M110.95,10.34V32.64a1.2,1.2,0,0,1-1.2,1.2h-.11L65.82,33.7a1.19,1.19,0,0,1-.84-.35h0l-1-1h0a1.77,1.77,0,0,0-2.49,0h0l-.93.93a1.2,1.2,0,0,1-1,.35H58.8a1.2,1.2,0,0,1-1.2-1.2h0V10.34a1.2,1.2,0,0,1,1.2-1.2h50.95a1.2,1.2,0,0,1,1.2,1.2Zm-2.4,21.11V11.53H60v19a4.17,4.17,0,0,1,5.72.16h0l.61.61Z" style="fill: #ffffff;fill-rule: evenodd"/>
        <path d="M66.14,30.28l60,60h0a4.77,4.77,0,0,1,0,6.73h0L75.49,147.71h0a4.76,4.76,0,0,1-6.72,0h0l-60-60-.11-.13A4.76,4.76,0,0,1,8.73,81l17.9-17.9a1.8,1.8,0,0,1,2.54,0L39,72.88a6.06,6.06,0,0,0,8.54,0l3.58-3.58a6.06,6.06,0,0,0,0-8.54L41.3,50.94a1.8,1.8,0,0,1,0-2.54L59.41,30.28h0a4.77,4.77,0,0,1,6.73,0Zm57.48,62.57-60-60h0a1.17,1.17,0,0,0-1.64,0h0L45.12,49.66l8.55,8.55a9.65,9.65,0,0,1,0,13.63l-3.58,3.58a9.65,9.65,0,0,1-13.63,0L27.9,66.87,11.28,83.5a1.16,1.16,0,0,0-.34.82,1.17,1.17,0,0,0,.28.77l.06.05,60,60h0a1.18,1.18,0,0,0,1.65,0h0l50.68-50.68h0a1.17,1.17,0,0,0,0-1.64Z" style="fill: #ffffff;fill-rule: evenodd"/>
        <path d="M36.6,39.62,54.43,57.45a10.73,10.73,0,0,1,0,15.16l-3.58,3.58a10.73,10.73,0,0,1-15.16,0L17.86,58.36a5.5,5.5,0,0,1,0-7.77l11-11a5.5,5.5,0,0,1,7.77,0ZM50.36,61.53,32.72,43.88,22.12,54.47,39.77,72.12a5,5,0,0,0,7,0l3.58-3.58a5,5,0,0,0,0-7Z" style="fill: #ffffff;fill-rule: evenodd"/>
      </g>
    </g>
  </g>
</svg>
